M48
; DRILL file {KiCad 9.0.2} date 2026-03-15T21:03:07+0200
; FORMAT={-:-/ absolute / metric / decimal}
; #@! TF.CreationDate,2026-03-15T21:03:07+02:00
; #@! TF.GenerationSoftware,Kicad,Pcbnew,9.0.2
; #@! TF.FileFunction,Plated,1,2,PTH
FMAT,2
METRIC
; #@! TA.AperFunction,Plated,PTH,ViaDrill
T1C0.300
; #@! TA.AperFunction,Plated,PTH,ComponentDrill
T2C0.600
; #@! TA.AperFunction,Plated,PTH,ComponentDrill
T3C1.000
%
G90
G05
T1
X162.4Y-78.0
X163.0Y-67.0
X163.25Y-65.25
X164.751Y-61.5
X164.8Y-62.4
X165.5Y-57.25
X165.575Y-61.476
X165.75Y-51.75
X165.75Y-74.5
X166.0Y-46.0
X166.5Y-70.75
X166.562Y-59.75
X167.5Y-66.221
X168.0Y-63.5
X168.75Y-45.5
X169.0Y-66.6
X169.25Y-50.5
X169.25Y-53.5
X169.558Y-55.71
X170.0Y-38.2
X170.0Y-74.5
X170.4Y-59.79
X170.5Y-61.75
X170.549Y-66.201
X171.0Y-53.0
X171.341Y-66.315
X171.5Y-61.75
X172.5Y-65.5
X173.2Y-42.8
X173.25Y-69.25
X173.5Y-51.25
X173.5Y-56.75
X173.75Y-70.75
X173.8Y-71.8
X175.0Y-61.25
X175.25Y-55.75
X175.5Y-58.75
X175.65Y-57.5
X175.75Y-61.75
X175.8Y-36.0
X176.5Y-67.25
T3
X161.11Y-35.87
X161.11Y-38.41
X161.11Y-40.95
X161.11Y-43.49
X161.11Y-46.03
X161.11Y-48.57
X161.11Y-51.11
X161.11Y-53.65
X161.11Y-56.19
X161.11Y-58.73
X161.11Y-61.27
X161.11Y-63.81
X161.11Y-66.35
X161.11Y-68.89
X161.11Y-71.43
X161.11Y-73.97
X161.11Y-76.51
X161.11Y-79.05
X161.11Y-81.59
X161.11Y-84.13
X167.46Y-83.89
X170.0Y-83.89
X172.54Y-83.89
X178.89Y-35.87
X178.89Y-38.41
X178.89Y-40.95
X178.89Y-43.49
X178.89Y-46.03
X178.89Y-48.57
X178.89Y-51.11
X178.89Y-53.65
X178.89Y-56.19
X178.89Y-58.73
X178.89Y-61.27
X178.89Y-63.81
X178.89Y-66.35
X178.89Y-68.89
X178.89Y-71.43
X178.89Y-73.97
X178.89Y-76.51
X178.89Y-79.05
X178.89Y-81.59
X178.89Y-84.13
T2
G00X165.68Y-36.25
M15
G01X165.68Y-35.65
M16
G05
G00X165.68Y-40.68
M15
G01X165.68Y-39.58
M16
G05
G00X174.32Y-36.25
M15
G01X174.32Y-35.65
M16
G05
G00X174.32Y-40.68
M15
G01X174.32Y-39.58
M16
G05
M30
