%TF.GenerationSoftware,KiCad,Pcbnew,9.0.2*%
%TF.CreationDate,2026-03-15T21:02:35+02:00*%
%TF.ProjectId,RP2040,52503230-3430-42e6-9b69-6361645f7063,rev?*%
%TF.SameCoordinates,Original*%
%TF.FileFunction,Legend,Top*%
%TF.FilePolarity,Positive*%
%FSLAX46Y46*%
G04 Gerber Fmt 4.6, Leading zero omitted, Abs format (unit mm)*
G04 Created by KiCad (PCBNEW 9.0.2) date 2026-03-15 21:02:35*
%MOMM*%
%LPD*%
G01*
G04 APERTURE LIST*
%ADD10C,0.150000*%
%ADD11C,0.120000*%
%ADD12C,0.000000*%
G04 APERTURE END LIST*
D10*
X176407200Y-48833332D02*
X176454819Y-48690475D01*
X176454819Y-48690475D02*
X176454819Y-48452380D01*
X176454819Y-48452380D02*
X176407200Y-48357142D01*
X176407200Y-48357142D02*
X176359580Y-48309523D01*
X176359580Y-48309523D02*
X176264342Y-48261904D01*
X176264342Y-48261904D02*
X176169104Y-48261904D01*
X176169104Y-48261904D02*
X176073866Y-48309523D01*
X176073866Y-48309523D02*
X176026247Y-48357142D01*
X176026247Y-48357142D02*
X175978628Y-48452380D01*
X175978628Y-48452380D02*
X175931009Y-48642856D01*
X175931009Y-48642856D02*
X175883390Y-48738094D01*
X175883390Y-48738094D02*
X175835771Y-48785713D01*
X175835771Y-48785713D02*
X175740533Y-48833332D01*
X175740533Y-48833332D02*
X175645295Y-48833332D01*
X175645295Y-48833332D02*
X175550057Y-48785713D01*
X175550057Y-48785713D02*
X175502438Y-48738094D01*
X175502438Y-48738094D02*
X175454819Y-48642856D01*
X175454819Y-48642856D02*
X175454819Y-48404761D01*
X175454819Y-48404761D02*
X175502438Y-48261904D01*
X175454819Y-47928570D02*
X176454819Y-47690475D01*
X176454819Y-47690475D02*
X175740533Y-47499999D01*
X175740533Y-47499999D02*
X176454819Y-47309523D01*
X176454819Y-47309523D02*
X175454819Y-47071428D01*
X176454819Y-46166666D02*
X176454819Y-46738094D01*
X176454819Y-46452380D02*
X175454819Y-46452380D01*
X175454819Y-46452380D02*
X175597676Y-46547618D01*
X175597676Y-46547618D02*
X175692914Y-46642856D01*
X175692914Y-46642856D02*
X175740533Y-46738094D01*
X163454819Y-57011904D02*
X164264342Y-57011904D01*
X164264342Y-57011904D02*
X164359580Y-56964285D01*
X164359580Y-56964285D02*
X164407200Y-56916666D01*
X164407200Y-56916666D02*
X164454819Y-56821428D01*
X164454819Y-56821428D02*
X164454819Y-56630952D01*
X164454819Y-56630952D02*
X164407200Y-56535714D01*
X164407200Y-56535714D02*
X164359580Y-56488095D01*
X164359580Y-56488095D02*
X164264342Y-56440476D01*
X164264342Y-56440476D02*
X163454819Y-56440476D01*
X163454819Y-56059523D02*
X163454819Y-55440476D01*
X163454819Y-55440476D02*
X163835771Y-55773809D01*
X163835771Y-55773809D02*
X163835771Y-55630952D01*
X163835771Y-55630952D02*
X163883390Y-55535714D01*
X163883390Y-55535714D02*
X163931009Y-55488095D01*
X163931009Y-55488095D02*
X164026247Y-55440476D01*
X164026247Y-55440476D02*
X164264342Y-55440476D01*
X164264342Y-55440476D02*
X164359580Y-55488095D01*
X164359580Y-55488095D02*
X164407200Y-55535714D01*
X164407200Y-55535714D02*
X164454819Y-55630952D01*
X164454819Y-55630952D02*
X164454819Y-55916666D01*
X164454819Y-55916666D02*
X164407200Y-56011904D01*
X164407200Y-56011904D02*
X164359580Y-56059523D01*
X163416666Y-37954819D02*
X163416666Y-38669104D01*
X163416666Y-38669104D02*
X163369047Y-38811961D01*
X163369047Y-38811961D02*
X163273809Y-38907200D01*
X163273809Y-38907200D02*
X163130952Y-38954819D01*
X163130952Y-38954819D02*
X163035714Y-38954819D01*
X163845238Y-38050057D02*
X163892857Y-38002438D01*
X163892857Y-38002438D02*
X163988095Y-37954819D01*
X163988095Y-37954819D02*
X164226190Y-37954819D01*
X164226190Y-37954819D02*
X164321428Y-38002438D01*
X164321428Y-38002438D02*
X164369047Y-38050057D01*
X164369047Y-38050057D02*
X164416666Y-38145295D01*
X164416666Y-38145295D02*
X164416666Y-38240533D01*
X164416666Y-38240533D02*
X164369047Y-38383390D01*
X164369047Y-38383390D02*
X163797619Y-38954819D01*
X163797619Y-38954819D02*
X164416666Y-38954819D01*
X164416666Y-83454819D02*
X164416666Y-84169104D01*
X164416666Y-84169104D02*
X164369047Y-84311961D01*
X164369047Y-84311961D02*
X164273809Y-84407200D01*
X164273809Y-84407200D02*
X164130952Y-84454819D01*
X164130952Y-84454819D02*
X164035714Y-84454819D01*
X165321428Y-83788152D02*
X165321428Y-84454819D01*
X165083333Y-83407200D02*
X164845238Y-84121485D01*
X164845238Y-84121485D02*
X165464285Y-84121485D01*
X167523809Y-69728628D02*
X167523809Y-70204819D01*
X167190476Y-69204819D02*
X167523809Y-69728628D01*
X167523809Y-69728628D02*
X167857142Y-69204819D01*
X168714285Y-70204819D02*
X168142857Y-70204819D01*
X168428571Y-70204819D02*
X168428571Y-69204819D01*
X168428571Y-69204819D02*
X168333333Y-69347676D01*
X168333333Y-69347676D02*
X168238095Y-69442914D01*
X168238095Y-69442914D02*
X168142857Y-69490533D01*
X175916666Y-37954819D02*
X175916666Y-38669104D01*
X175916666Y-38669104D02*
X175869047Y-38811961D01*
X175869047Y-38811961D02*
X175773809Y-38907200D01*
X175773809Y-38907200D02*
X175630952Y-38954819D01*
X175630952Y-38954819D02*
X175535714Y-38954819D01*
X176297619Y-37954819D02*
X176916666Y-37954819D01*
X176916666Y-37954819D02*
X176583333Y-38335771D01*
X176583333Y-38335771D02*
X176726190Y-38335771D01*
X176726190Y-38335771D02*
X176821428Y-38383390D01*
X176821428Y-38383390D02*
X176869047Y-38431009D01*
X176869047Y-38431009D02*
X176916666Y-38526247D01*
X176916666Y-38526247D02*
X176916666Y-38764342D01*
X176916666Y-38764342D02*
X176869047Y-38859580D01*
X176869047Y-38859580D02*
X176821428Y-38907200D01*
X176821428Y-38907200D02*
X176726190Y-38954819D01*
X176726190Y-38954819D02*
X176440476Y-38954819D01*
X176440476Y-38954819D02*
X176345238Y-38907200D01*
X176345238Y-38907200D02*
X176297619Y-38859580D01*
X167988095Y-58454819D02*
X167988095Y-59264342D01*
X167988095Y-59264342D02*
X168035714Y-59359580D01*
X168035714Y-59359580D02*
X168083333Y-59407200D01*
X168083333Y-59407200D02*
X168178571Y-59454819D01*
X168178571Y-59454819D02*
X168369047Y-59454819D01*
X168369047Y-59454819D02*
X168464285Y-59407200D01*
X168464285Y-59407200D02*
X168511904Y-59359580D01*
X168511904Y-59359580D02*
X168559523Y-59264342D01*
X168559523Y-59264342D02*
X168559523Y-58454819D01*
X169559523Y-59454819D02*
X168988095Y-59454819D01*
X169273809Y-59454819D02*
X169273809Y-58454819D01*
X169273809Y-58454819D02*
X169178571Y-58597676D01*
X169178571Y-58597676D02*
X169083333Y-58692914D01*
X169083333Y-58692914D02*
X168988095Y-58740533D01*
X163738095Y-46704819D02*
X163738095Y-47514342D01*
X163738095Y-47514342D02*
X163785714Y-47609580D01*
X163785714Y-47609580D02*
X163833333Y-47657200D01*
X163833333Y-47657200D02*
X163928571Y-47704819D01*
X163928571Y-47704819D02*
X164119047Y-47704819D01*
X164119047Y-47704819D02*
X164214285Y-47657200D01*
X164214285Y-47657200D02*
X164261904Y-47609580D01*
X164261904Y-47609580D02*
X164309523Y-47514342D01*
X164309523Y-47514342D02*
X164309523Y-46704819D01*
X165214285Y-47038152D02*
X165214285Y-47704819D01*
X164976190Y-46657200D02*
X164738095Y-47371485D01*
X164738095Y-47371485D02*
X165357142Y-47371485D01*
X169666666Y-42704819D02*
X169666666Y-43419104D01*
X169666666Y-43419104D02*
X169619047Y-43561961D01*
X169619047Y-43561961D02*
X169523809Y-43657200D01*
X169523809Y-43657200D02*
X169380952Y-43704819D01*
X169380952Y-43704819D02*
X169285714Y-43704819D01*
X170666666Y-43704819D02*
X170095238Y-43704819D01*
X170380952Y-43704819D02*
X170380952Y-42704819D01*
X170380952Y-42704819D02*
X170285714Y-42847676D01*
X170285714Y-42847676D02*
X170190476Y-42942914D01*
X170190476Y-42942914D02*
X170095238Y-42990533D01*
D11*
%TO.C,R5*%
X170153641Y-69620000D02*
X169846359Y-69620000D01*
X170153641Y-70380000D02*
X169846359Y-70380000D01*
%TO.C,SW1*%
X171930000Y-45430000D02*
X172230000Y-45430000D01*
X171930000Y-49570000D02*
X171930000Y-45430000D01*
X172230000Y-49570000D02*
X171930000Y-49570000D01*
X174770000Y-45430000D02*
X175070000Y-45430000D01*
X175070000Y-45430000D02*
X175070000Y-49570000D01*
X175070000Y-49570000D02*
X174770000Y-49570000D01*
%TO.C,C17*%
X170692164Y-53650000D02*
X170907836Y-53650000D01*
X170692164Y-54370000D02*
X170907836Y-54370000D01*
%TO.C,R3*%
X170320000Y-58356359D02*
X170320000Y-58663641D01*
X171080000Y-58356359D02*
X171080000Y-58663641D01*
D12*
%TO.C,G\u002A\u002A\u002A*%
G36*
X173788507Y-79453609D02*
G01*
X173820851Y-79493893D01*
X173849986Y-79564332D01*
X173858863Y-79592856D01*
X173900755Y-79755236D01*
X173923636Y-79898076D01*
X173927903Y-80029151D01*
X173913957Y-80156234D01*
X173892653Y-80250403D01*
X173858632Y-80350722D01*
X173819531Y-80419168D01*
X173775786Y-80455369D01*
X173727836Y-80458953D01*
X173679368Y-80432288D01*
X173652796Y-80399754D01*
X173643409Y-80356312D01*
X173651126Y-80295994D01*
X173675867Y-80212831D01*
X173676412Y-80211251D01*
X173700872Y-80109040D01*
X173712994Y-79987003D01*
X173712545Y-79856560D01*
X173699292Y-79729132D01*
X173687511Y-79668914D01*
X173669655Y-79585563D01*
X173662256Y-79528161D01*
X173665738Y-79490684D01*
X173680528Y-79467107D01*
X173702770Y-79453283D01*
X173750099Y-79440924D01*
X173788507Y-79453609D01*
G37*
G36*
X166348287Y-79778671D02*
G01*
X166382480Y-79811206D01*
X166406646Y-79869391D01*
X166413306Y-79903688D01*
X166426471Y-79988249D01*
X166445333Y-80096421D01*
X166468149Y-80219140D01*
X166493173Y-80347345D01*
X166518662Y-80471972D01*
X166542870Y-80583960D01*
X166551837Y-80623327D01*
X166546024Y-80663092D01*
X166518212Y-80701008D01*
X166478550Y-80725764D01*
X166456398Y-80729683D01*
X166419358Y-80718300D01*
X166391147Y-80697941D01*
X166376516Y-80679506D01*
X166363350Y-80652887D01*
X166350762Y-80614141D01*
X166337869Y-80559323D01*
X166323783Y-80484487D01*
X166307619Y-80385690D01*
X166288492Y-80258986D01*
X166280832Y-80206624D01*
X166263567Y-80086168D01*
X166251289Y-79994342D01*
X166243820Y-79926667D01*
X166240987Y-79878662D01*
X166242612Y-79845850D01*
X166248521Y-79823749D01*
X166258537Y-79807881D01*
X166264917Y-79800998D01*
X166307842Y-79774398D01*
X166348287Y-79778671D01*
G37*
G36*
X173090285Y-79617329D02*
G01*
X173116083Y-79650208D01*
X173127661Y-79709151D01*
X173128499Y-79759439D01*
X173116921Y-79911575D01*
X173088086Y-80046263D01*
X173039112Y-80169256D01*
X172967116Y-80286309D01*
X172869214Y-80403179D01*
X172746387Y-80522153D01*
X172674536Y-80584798D01*
X172620972Y-80625931D01*
X172580692Y-80648133D01*
X172548695Y-80653985D01*
X172519979Y-80646070D01*
X172513192Y-80642507D01*
X172472524Y-80610738D01*
X172456337Y-80568587D01*
X172454808Y-80542556D01*
X172460255Y-80517791D01*
X172479180Y-80486757D01*
X172515056Y-80445207D01*
X172571359Y-80388896D01*
X172612524Y-80349878D01*
X172719027Y-80244694D01*
X172800481Y-80150036D01*
X172860627Y-80059278D01*
X172903205Y-79965797D01*
X172931956Y-79862969D01*
X172949592Y-79752888D01*
X172964423Y-79677437D01*
X172988747Y-79630946D01*
X173025164Y-79609581D01*
X173048485Y-79607124D01*
X173090285Y-79617329D01*
G37*
G36*
X169141139Y-79817725D02*
G01*
X169168156Y-79863281D01*
X169187170Y-79935420D01*
X169198847Y-80036077D01*
X169203854Y-80167186D01*
X169204155Y-80216028D01*
X169199420Y-80324592D01*
X169186246Y-80441208D01*
X169166187Y-80559159D01*
X169140794Y-80671729D01*
X169111617Y-80772200D01*
X169080209Y-80853856D01*
X169048121Y-80909977D01*
X169042253Y-80917004D01*
X168998919Y-80942664D01*
X168947075Y-80943812D01*
X168900816Y-80920674D01*
X168894793Y-80914645D01*
X168880495Y-80895022D01*
X168873587Y-80871696D01*
X168874936Y-80839279D01*
X168885405Y-80792388D01*
X168905859Y-80725637D01*
X168937161Y-80633641D01*
X168942226Y-80619107D01*
X168994111Y-80435519D01*
X169018874Y-80254566D01*
X169018051Y-80064050D01*
X169015854Y-80034366D01*
X169009761Y-79942420D01*
X169009817Y-79878276D01*
X169017028Y-79836627D01*
X169032396Y-79812162D01*
X169056927Y-79799572D01*
X169060436Y-79798632D01*
X169105455Y-79796820D01*
X169141139Y-79817725D01*
G37*
G36*
X171033882Y-79734756D02*
G01*
X171048265Y-79741750D01*
X171061813Y-79751842D01*
X171070978Y-79768897D01*
X171076601Y-79798809D01*
X171079520Y-79847470D01*
X171080579Y-79920772D01*
X171080673Y-79968917D01*
X171071945Y-80194082D01*
X171045248Y-80394395D01*
X170999811Y-80573759D01*
X170934863Y-80736081D01*
X170925613Y-80754815D01*
X170874415Y-80849352D01*
X170829745Y-80914659D01*
X170788425Y-80953581D01*
X170747274Y-80968960D01*
X170703115Y-80963639D01*
X170695165Y-80960912D01*
X170649933Y-80934043D01*
X170630043Y-80894637D01*
X170635582Y-80840272D01*
X170666641Y-80768528D01*
X170704619Y-80705116D01*
X170753142Y-80618913D01*
X170797372Y-80520741D01*
X170821441Y-80453265D01*
X170847893Y-80351803D01*
X170872159Y-80231963D01*
X170892323Y-80105917D01*
X170906472Y-79985837D01*
X170912692Y-79883895D01*
X170912820Y-79872206D01*
X170921013Y-79794300D01*
X170944462Y-79744902D01*
X170982355Y-79724794D01*
X171033882Y-79734756D01*
G37*
G36*
X170090590Y-79874362D02*
G01*
X170109654Y-79888996D01*
X170120213Y-79912916D01*
X170124548Y-79954805D01*
X170125075Y-80005635D01*
X170112979Y-80169051D01*
X170078011Y-80351521D01*
X170019737Y-80555276D01*
X170016103Y-80566366D01*
X169974104Y-80690183D01*
X169938847Y-80785155D01*
X169908607Y-80854859D01*
X169881660Y-80902870D01*
X169856281Y-80932766D01*
X169832251Y-80947570D01*
X169799553Y-80959831D01*
X169781574Y-80961325D01*
X169761075Y-80951363D01*
X169748681Y-80944227D01*
X169710112Y-80914551D01*
X169692334Y-80877373D01*
X169694972Y-80826959D01*
X169717655Y-80757577D01*
X169734051Y-80719202D01*
X169767846Y-80637803D01*
X169804026Y-80540902D01*
X169840094Y-80436288D01*
X169873555Y-80331749D01*
X169901915Y-80235076D01*
X169922678Y-80154057D01*
X169933250Y-80097361D01*
X169946396Y-80001830D01*
X169961267Y-79935237D01*
X169979491Y-79893008D01*
X170002698Y-79870573D01*
X170015794Y-79865564D01*
X170061913Y-79865172D01*
X170090590Y-79874362D01*
G37*
G36*
X172031619Y-79666226D02*
G01*
X172057361Y-79695602D01*
X172072413Y-79749804D01*
X172078587Y-79821141D01*
X172077237Y-79902367D01*
X172068791Y-80002957D01*
X172054941Y-80109937D01*
X172037378Y-80210335D01*
X172017794Y-80291177D01*
X172016918Y-80294063D01*
X171977611Y-80411290D01*
X171935426Y-80518144D01*
X171892682Y-80609971D01*
X171851701Y-80682118D01*
X171814801Y-80729931D01*
X171791043Y-80747084D01*
X171758925Y-80758549D01*
X171745578Y-80762058D01*
X171730057Y-80754849D01*
X171704418Y-80742581D01*
X171668398Y-80708543D01*
X171651587Y-80658062D01*
X171655352Y-80616320D01*
X171665623Y-80589857D01*
X171686701Y-80540471D01*
X171715332Y-80475658D01*
X171742624Y-80415250D01*
X171784382Y-80311469D01*
X171823214Y-80192510D01*
X171856698Y-80068047D01*
X171882418Y-79947753D01*
X171897953Y-79841301D01*
X171901473Y-79780055D01*
X171912109Y-79713519D01*
X171942693Y-79672010D01*
X171991836Y-79657393D01*
X171992945Y-79657387D01*
X172031619Y-79666226D01*
G37*
G36*
X167176339Y-79799972D02*
G01*
X167199785Y-79816756D01*
X167210986Y-79831097D01*
X167220188Y-79852271D01*
X167228093Y-79884808D01*
X167235403Y-79933238D01*
X167242818Y-80002090D01*
X167251041Y-80095893D01*
X167259444Y-80201913D01*
X167269967Y-80337692D01*
X167278089Y-80443948D01*
X167283820Y-80524579D01*
X167287171Y-80583485D01*
X167288152Y-80624563D01*
X167286773Y-80651714D01*
X167283044Y-80668836D01*
X167276975Y-80679828D01*
X167268576Y-80688588D01*
X167260727Y-80696067D01*
X167212811Y-80725596D01*
X167163721Y-80722306D01*
X167128224Y-80697814D01*
X167116459Y-80682318D01*
X167106701Y-80659239D01*
X167098582Y-80625018D01*
X167091734Y-80576098D01*
X167085789Y-80508922D01*
X167080381Y-80419931D01*
X167075141Y-80305568D01*
X167069701Y-80162276D01*
X167068061Y-80115591D01*
X167064886Y-80012349D01*
X167063824Y-79937392D01*
X167065177Y-79885547D01*
X167069248Y-79851638D01*
X167076339Y-79830491D01*
X167085449Y-79818197D01*
X167129632Y-79793885D01*
X167176339Y-79799972D01*
G37*
G36*
X168130299Y-79807344D02*
G01*
X168145087Y-79817876D01*
X168155639Y-79833950D01*
X168161891Y-79859395D01*
X168163780Y-79898040D01*
X168161244Y-79953714D01*
X168154220Y-80030244D01*
X168142644Y-80131460D01*
X168126453Y-80261191D01*
X168122296Y-80293704D01*
X168107725Y-80409152D01*
X168097481Y-80496869D01*
X168091334Y-80562323D01*
X168089048Y-80610980D01*
X168090391Y-80648308D01*
X168095131Y-80679773D01*
X168103033Y-80710842D01*
X168104325Y-80715288D01*
X168118945Y-80793971D01*
X168109507Y-80850856D01*
X168075452Y-80888033D01*
X168055674Y-80897530D01*
X168023160Y-80909182D01*
X168009298Y-80912922D01*
X167993399Y-80906645D01*
X167970891Y-80897591D01*
X167931168Y-80864082D01*
X167903024Y-80802737D01*
X167886844Y-80717301D01*
X167883012Y-80611522D01*
X167891915Y-80489146D01*
X167913936Y-80353921D01*
X167914668Y-80350360D01*
X167932066Y-80261440D01*
X167948915Y-80167340D01*
X167962392Y-80084082D01*
X167965923Y-80059498D01*
X167980815Y-79959885D01*
X167995095Y-79888913D01*
X168010407Y-79841792D01*
X168028396Y-79813728D01*
X168050708Y-79799932D01*
X168055504Y-79798546D01*
X168101623Y-79798153D01*
X168130299Y-79807344D01*
G37*
G36*
X167385519Y-75976524D02*
G01*
X167460399Y-75989791D01*
X167506424Y-76014699D01*
X167526909Y-76053500D01*
X167528694Y-76073905D01*
X167514135Y-76117704D01*
X167470500Y-76144920D01*
X167397850Y-76155517D01*
X167385672Y-76155672D01*
X167329035Y-76158282D01*
X167296328Y-76167977D01*
X167278247Y-76187556D01*
X167277964Y-76188080D01*
X167261267Y-76250006D01*
X167263629Y-76330467D01*
X167283333Y-76421705D01*
X167318662Y-76515964D01*
X167367901Y-76605486D01*
X167371537Y-76610949D01*
X167452472Y-76746491D01*
X167503268Y-76868277D01*
X167524090Y-76976852D01*
X167515101Y-77072763D01*
X167512787Y-77080953D01*
X167468502Y-77179259D01*
X167394950Y-77281102D01*
X167295518Y-77382487D01*
X167177735Y-77476476D01*
X167113738Y-77515047D01*
X167063622Y-77527148D01*
X167021347Y-77513250D01*
X166995467Y-77490773D01*
X166966575Y-77451750D01*
X166958472Y-77413890D01*
X166972935Y-77372441D01*
X167011739Y-77322654D01*
X167076661Y-77259778D01*
X167084479Y-77252747D01*
X167173697Y-77167423D01*
X167234909Y-77093169D01*
X167269211Y-77024442D01*
X167277696Y-76955697D01*
X167261457Y-76881388D01*
X167221590Y-76795971D01*
X167186363Y-76736407D01*
X167127212Y-76632771D01*
X167088740Y-76541026D01*
X167067462Y-76449847D01*
X167059896Y-76347908D01*
X167059722Y-76324744D01*
X167061653Y-76253139D01*
X167069423Y-76201109D01*
X167086313Y-76154818D01*
X167111072Y-76108288D01*
X167161139Y-76038183D01*
X167218857Y-75995134D01*
X167291340Y-75975725D01*
X167385519Y-75976524D01*
G37*
G36*
X171320002Y-77485094D02*
G01*
X171349744Y-77503621D01*
X171391337Y-77537628D01*
X171447685Y-77589619D01*
X171521691Y-77662096D01*
X171585614Y-77726418D01*
X171669914Y-77812530D01*
X171733431Y-77879373D01*
X171779449Y-77930991D01*
X171811254Y-77971431D01*
X171832130Y-78004738D01*
X171845361Y-78034958D01*
X171850995Y-78053282D01*
X171862913Y-78108506D01*
X171861524Y-78151872D01*
X171845980Y-78202628D01*
X171844227Y-78207252D01*
X171816467Y-78262095D01*
X171776883Y-78298340D01*
X171744568Y-78316007D01*
X171666779Y-78340036D01*
X171569967Y-78349429D01*
X171465417Y-78343842D01*
X171379249Y-78327155D01*
X171295368Y-78293430D01*
X171220965Y-78243144D01*
X171166539Y-78183868D01*
X171156051Y-78166192D01*
X171138528Y-78107389D01*
X171132244Y-78028177D01*
X171136338Y-77951320D01*
X171333169Y-77951320D01*
X171345381Y-78017385D01*
X171375368Y-78064413D01*
X171403452Y-78093800D01*
X171432136Y-78109260D01*
X171473504Y-78115168D01*
X171517782Y-78115963D01*
X171576805Y-78113013D01*
X171610667Y-78104789D01*
X171616820Y-78097485D01*
X171605298Y-78079015D01*
X171574141Y-78043513D01*
X171528464Y-77996536D01*
X171486972Y-77956377D01*
X171424895Y-77899248D01*
X171382442Y-77865956D01*
X171355815Y-77856377D01*
X171341213Y-77870384D01*
X171334838Y-77907854D01*
X171333169Y-77951320D01*
X171136338Y-77951320D01*
X171136961Y-77939630D01*
X171152437Y-77852822D01*
X171163662Y-77814893D01*
X171183889Y-77734312D01*
X171189790Y-77658720D01*
X171189213Y-77648629D01*
X171192337Y-77568280D01*
X171216738Y-77513448D01*
X171262220Y-77484433D01*
X171299207Y-77479544D01*
X171320002Y-77485094D01*
G37*
G36*
X169877491Y-75192383D02*
G01*
X169908831Y-75210684D01*
X169922625Y-75242563D01*
X169924604Y-75270088D01*
X169920949Y-75299312D01*
X169906176Y-75320595D01*
X169874576Y-75337074D01*
X169820439Y-75351884D01*
X169750079Y-75365942D01*
X169654590Y-75397046D01*
X169584558Y-75449818D01*
X169540475Y-75523677D01*
X169522830Y-75618044D01*
X169522493Y-75634794D01*
X169526429Y-75675003D01*
X169541239Y-75714022D01*
X169571431Y-75761057D01*
X169606829Y-75807067D01*
X169678859Y-75908335D01*
X169743466Y-76019983D01*
X169796594Y-76133384D01*
X169834188Y-76239911D01*
X169851969Y-76328464D01*
X169855985Y-76436236D01*
X169843126Y-76521564D01*
X169809875Y-76589905D01*
X169752715Y-76646719D01*
X169668129Y-76697462D01*
X169592175Y-76731691D01*
X169515172Y-76766282D01*
X169439370Y-76804827D01*
X169377571Y-76840678D01*
X169361287Y-76851594D01*
X169289741Y-76893712D01*
X169231505Y-76907332D01*
X169182846Y-76892806D01*
X169156812Y-76870852D01*
X169124729Y-76817243D01*
X169125673Y-76761387D01*
X169159440Y-76705342D01*
X169174835Y-76689815D01*
X169237831Y-76640835D01*
X169319763Y-76589737D01*
X169407435Y-76543913D01*
X169487650Y-76510757D01*
X169503231Y-76505825D01*
X169555867Y-76483225D01*
X169595289Y-76453500D01*
X169601787Y-76445280D01*
X169619262Y-76390405D01*
X169615714Y-76317344D01*
X169593129Y-76232269D01*
X169553494Y-76141354D01*
X169498796Y-76050773D01*
X169457369Y-75996504D01*
X169371762Y-75875869D01*
X169319242Y-75757503D01*
X169299582Y-75640058D01*
X169312556Y-75522183D01*
X169357657Y-75403080D01*
X169390395Y-75342776D01*
X169420119Y-75303098D01*
X169456766Y-75273765D01*
X169510271Y-75244496D01*
X169511518Y-75243872D01*
X169581805Y-75213800D01*
X169652660Y-75196290D01*
X169740280Y-75187360D01*
X169741780Y-75187273D01*
X169823508Y-75185349D01*
X169877491Y-75192383D01*
G37*
G36*
X171875809Y-75892024D02*
G01*
X171930323Y-75906511D01*
X171959998Y-75932880D01*
X171968667Y-75971372D01*
X171954017Y-76016083D01*
X171911468Y-76044523D01*
X171843126Y-76055339D01*
X171837622Y-76055401D01*
X171774533Y-76058139D01*
X171737696Y-76070096D01*
X171722156Y-76097653D01*
X171722953Y-76147191D01*
X171729865Y-76194088D01*
X171743778Y-76253054D01*
X171768099Y-76331902D01*
X171799320Y-76420035D01*
X171831612Y-76501374D01*
X171887698Y-76638966D01*
X171928536Y-76750860D01*
X171954759Y-76840859D01*
X171967003Y-76912770D01*
X171965902Y-76970398D01*
X171952093Y-77017550D01*
X171926209Y-77058030D01*
X171924785Y-77059738D01*
X171886933Y-77099983D01*
X171847852Y-77128082D01*
X171800573Y-77146124D01*
X171738128Y-77156197D01*
X171653549Y-77160388D01*
X171587064Y-77160949D01*
X171501790Y-77160524D01*
X171443298Y-77158508D01*
X171404862Y-77153795D01*
X171379758Y-77145276D01*
X171361262Y-77131844D01*
X171351667Y-77122172D01*
X171320452Y-77068822D01*
X171321377Y-77013592D01*
X171354297Y-76962562D01*
X171355515Y-76961405D01*
X171377499Y-76943565D01*
X171402426Y-76932765D01*
X171438438Y-76927629D01*
X171493679Y-76926781D01*
X171552382Y-76928124D01*
X171621158Y-76929371D01*
X171676160Y-76928947D01*
X171709614Y-76926984D01*
X171715971Y-76925345D01*
X171720003Y-76899379D01*
X171711017Y-76847039D01*
X171690142Y-76772325D01*
X171658511Y-76679237D01*
X171617252Y-76571777D01*
X171613349Y-76562137D01*
X171577591Y-76472487D01*
X171552925Y-76404396D01*
X171537068Y-76348702D01*
X171527735Y-76296239D01*
X171522643Y-76237844D01*
X171520404Y-76189182D01*
X171518426Y-76111130D01*
X171520358Y-76057634D01*
X171527374Y-76019855D01*
X171540649Y-75988950D01*
X171548844Y-75975143D01*
X171581130Y-75934578D01*
X171621833Y-75908286D01*
X171678310Y-75893624D01*
X171757920Y-75887950D01*
X171792638Y-75887599D01*
X171875809Y-75892024D01*
G37*
G36*
X168333410Y-77641741D02*
G01*
X168365555Y-77654761D01*
X168408801Y-77692822D01*
X168426466Y-77743348D01*
X168415573Y-77796246D01*
X168410078Y-77805658D01*
X168396263Y-77832512D01*
X168394296Y-77861221D01*
X168404235Y-77904286D01*
X168410627Y-77925354D01*
X168424945Y-77998693D01*
X168429897Y-78087645D01*
X168426028Y-78180403D01*
X168413883Y-78265159D01*
X168394007Y-78330106D01*
X168391730Y-78334830D01*
X168333174Y-78421703D01*
X168251817Y-78491869D01*
X168142937Y-78549366D01*
X168138433Y-78551255D01*
X168009022Y-78592829D01*
X167893273Y-78603999D01*
X167790762Y-78584768D01*
X167727633Y-78553842D01*
X167657458Y-78493290D01*
X167612034Y-78419242D01*
X167595714Y-78338821D01*
X167595712Y-78338052D01*
X167597747Y-78323358D01*
X167839492Y-78323358D01*
X167858055Y-78352877D01*
X167902340Y-78361570D01*
X167937864Y-78357884D01*
X167999597Y-78342325D01*
X168059373Y-78319473D01*
X168064841Y-78316793D01*
X168133689Y-78271840D01*
X168174860Y-78217539D01*
X168194152Y-78146073D01*
X168194662Y-78141774D01*
X168197863Y-78096738D01*
X168196185Y-78069449D01*
X168193638Y-78065699D01*
X168174291Y-78073418D01*
X168138446Y-78092538D01*
X168128629Y-78098211D01*
X168078349Y-78119786D01*
X168014419Y-78137218D01*
X167984648Y-78142337D01*
X167927175Y-78153566D01*
X167890448Y-78174081D01*
X167865809Y-78211953D01*
X167845534Y-78271974D01*
X167839492Y-78323358D01*
X167597747Y-78323358D01*
X167603595Y-78281128D01*
X167624403Y-78207436D01*
X167653876Y-78128978D01*
X167687753Y-78057754D01*
X167706259Y-78026703D01*
X167764199Y-77964808D01*
X167840891Y-77928037D01*
X167939403Y-77914971D01*
X167947853Y-77914907D01*
X168019357Y-77908637D01*
X168076802Y-77891743D01*
X168114070Y-77867103D01*
X168125042Y-77837592D01*
X168123817Y-77832188D01*
X168124638Y-77783289D01*
X168152718Y-77732890D01*
X168203320Y-77689452D01*
X168203936Y-77689074D01*
X168261229Y-77656282D01*
X168301155Y-77641191D01*
X168333410Y-77641741D01*
G37*
G36*
X169943051Y-77509573D02*
G01*
X169988088Y-77537984D01*
X170038306Y-77578170D01*
X170155167Y-77688625D01*
X170241228Y-77801629D01*
X170299118Y-77922036D01*
X170331467Y-78054698D01*
X170339273Y-78133719D01*
X170342249Y-78207496D01*
X170340172Y-78259277D01*
X170331337Y-78300409D01*
X170314039Y-78342237D01*
X170305281Y-78359907D01*
X170241716Y-78450860D01*
X170150719Y-78531004D01*
X170075396Y-78576956D01*
X170024686Y-78594214D01*
X169954598Y-78606741D01*
X169876795Y-78613696D01*
X169802937Y-78614240D01*
X169744686Y-78607534D01*
X169726941Y-78602043D01*
X169648660Y-78556419D01*
X169589484Y-78497488D01*
X169553589Y-78431277D01*
X169545153Y-78363812D01*
X169548504Y-78344613D01*
X169566131Y-78311006D01*
X169601293Y-78266263D01*
X169640135Y-78226153D01*
X169721024Y-78150491D01*
X169653552Y-78020133D01*
X169620199Y-77953040D01*
X169600794Y-77904194D01*
X169592432Y-77862878D01*
X169592204Y-77818379D01*
X169592908Y-77808567D01*
X169808845Y-77808567D01*
X169813139Y-77844170D01*
X169832879Y-77889568D01*
X169866081Y-77946412D01*
X169899425Y-78004728D01*
X169926697Y-78060069D01*
X169939974Y-78094379D01*
X169946256Y-78171921D01*
X169925850Y-78250763D01*
X169882407Y-78317342D01*
X169855125Y-78347913D01*
X169850195Y-78363030D01*
X169865649Y-78370288D01*
X169868499Y-78370930D01*
X169925810Y-78369502D01*
X169988650Y-78347203D01*
X170036474Y-78314233D01*
X170082816Y-78248886D01*
X170102891Y-78169193D01*
X170094571Y-78084048D01*
X170092915Y-78078265D01*
X170049809Y-77965812D01*
X169994194Y-77869549D01*
X169933474Y-77800305D01*
X169881361Y-77760891D01*
X169845031Y-77749064D01*
X169822070Y-77764275D01*
X169817492Y-77773863D01*
X169808845Y-77808567D01*
X169592908Y-77808567D01*
X169593587Y-77799117D01*
X169601083Y-77742260D01*
X169617006Y-77703355D01*
X169649130Y-77667050D01*
X169669966Y-77648325D01*
X169750398Y-77579433D01*
X169812095Y-77532222D01*
X169860883Y-77505582D01*
X169902592Y-77498402D01*
X169943051Y-77509573D01*
G37*
G36*
X170448937Y-77201701D02*
G01*
X170545080Y-77206725D01*
X170578034Y-77209856D01*
X170888764Y-77249396D01*
X171202667Y-77296679D01*
X171516292Y-77350856D01*
X171826189Y-77411077D01*
X172128908Y-77476492D01*
X172420998Y-77546252D01*
X172699009Y-77619507D01*
X172959491Y-77695407D01*
X173198993Y-77773103D01*
X173414066Y-77851744D01*
X173601258Y-77930482D01*
X173702462Y-77979313D01*
X173795636Y-78028280D01*
X173867176Y-78069674D01*
X173925974Y-78109750D01*
X173980923Y-78154758D01*
X174040912Y-78210952D01*
X174063561Y-78233245D01*
X174151140Y-78325774D01*
X174215282Y-78407368D01*
X174261135Y-78484583D01*
X174261569Y-78485456D01*
X174315980Y-78595253D01*
X174518397Y-78615491D01*
X174652953Y-78633110D01*
X174757627Y-78657162D01*
X174835747Y-78689615D01*
X174890641Y-78732439D01*
X174925638Y-78787600D01*
X174944066Y-78857068D01*
X174945518Y-78868086D01*
X174940833Y-78964823D01*
X174904814Y-79055463D01*
X174839544Y-79136399D01*
X174753580Y-79200294D01*
X174711998Y-79222648D01*
X174673613Y-79236432D01*
X174628133Y-79243679D01*
X174565265Y-79246419D01*
X174518282Y-79246743D01*
X174361976Y-79246899D01*
X174372069Y-79305540D01*
X174376221Y-79342618D01*
X174380939Y-79405711D01*
X174385756Y-79487339D01*
X174390206Y-79580026D01*
X174392090Y-79626655D01*
X174395391Y-79770635D01*
X174392543Y-79889724D01*
X174382482Y-79992150D01*
X174364144Y-80086144D01*
X174336464Y-80179935D01*
X174311766Y-80247789D01*
X174286763Y-80316413D01*
X174274666Y-80361315D01*
X174274174Y-80389124D01*
X174281193Y-80403436D01*
X174293774Y-80441687D01*
X174283529Y-80486206D01*
X174254562Y-80523323D01*
X174242909Y-80530930D01*
X174206553Y-80556550D01*
X174165605Y-80593681D01*
X174159080Y-80600476D01*
X174122243Y-80633189D01*
X174088646Y-80642990D01*
X174063317Y-80640110D01*
X174008088Y-80641457D01*
X173930679Y-80661925D01*
X173907940Y-80670100D01*
X173796774Y-80707558D01*
X173656558Y-80747687D01*
X173491567Y-80789643D01*
X173306076Y-80832579D01*
X173104358Y-80875649D01*
X172890689Y-80918006D01*
X172669342Y-80958806D01*
X172444592Y-80997201D01*
X172220713Y-81032345D01*
X172001981Y-81063393D01*
X171792669Y-81089498D01*
X171784367Y-81090449D01*
X171665808Y-81104523D01*
X171522842Y-81122381D01*
X171364206Y-81142878D01*
X171198637Y-81164867D01*
X171034873Y-81187205D01*
X170881651Y-81208745D01*
X170879746Y-81209018D01*
X170606901Y-81246013D01*
X170360821Y-81274661D01*
X170135891Y-81295229D01*
X169926494Y-81307987D01*
X169727015Y-81313203D01*
X169531837Y-81311148D01*
X169335343Y-81302089D01*
X169179024Y-81290460D01*
X169062669Y-81281367D01*
X168928930Y-81272245D01*
X168793917Y-81264124D01*
X168673739Y-81258034D01*
X168668008Y-81257784D01*
X168525688Y-81249445D01*
X168365067Y-81236332D01*
X168194256Y-81219397D01*
X168021363Y-81199595D01*
X167854501Y-81177876D01*
X167701777Y-81155194D01*
X167571303Y-81132501D01*
X167528694Y-81123958D01*
X167445067Y-81108625D01*
X167338609Y-81092465D01*
X167219923Y-81076907D01*
X167099612Y-81063376D01*
X167027848Y-81056544D01*
X166851084Y-81039730D01*
X166703941Y-81022391D01*
X166582535Y-81003693D01*
X166482979Y-80982803D01*
X166401389Y-80958888D01*
X166333877Y-80931115D01*
X166276558Y-80898651D01*
X166269511Y-80893946D01*
X166229637Y-80872459D01*
X166197359Y-80863720D01*
X166165604Y-80850004D01*
X166122516Y-80812366D01*
X166073223Y-80756075D01*
X166022853Y-80686398D01*
X166018960Y-80680448D01*
X165980391Y-80611620D01*
X165939047Y-80521382D01*
X165896257Y-80414387D01*
X165853351Y-80295288D01*
X165811659Y-80168739D01*
X165772511Y-80039393D01*
X165737237Y-79911902D01*
X165707167Y-79790921D01*
X165683631Y-79681103D01*
X165667958Y-79587100D01*
X165661480Y-79513565D01*
X165665525Y-79465153D01*
X165669034Y-79456139D01*
X165701350Y-79421456D01*
X165740647Y-79414348D01*
X165779772Y-79432004D01*
X165811573Y-79471618D01*
X165827111Y-79518209D01*
X165837264Y-79569211D01*
X165853985Y-79645518D01*
X165877729Y-79749129D01*
X165908952Y-79882043D01*
X165931235Y-79975725D01*
X165955724Y-80063213D01*
X165989601Y-80163620D01*
X166029675Y-80269250D01*
X166072752Y-80372409D01*
X166115641Y-80465401D01*
X166155149Y-80540533D01*
X166184037Y-80585059D01*
X166234564Y-80639707D01*
X166298371Y-80694477D01*
X166342580Y-80725332D01*
X166384489Y-80749370D01*
X166425700Y-80767978D01*
X166473525Y-80783232D01*
X166535278Y-80797208D01*
X166618273Y-80811984D01*
X166686049Y-80822839D01*
X166800637Y-80839673D01*
X166932777Y-80857349D01*
X167066635Y-80873840D01*
X167186378Y-80887116D01*
X167193601Y-80887851D01*
X167307617Y-80901519D01*
X167432738Y-80920047D01*
X167554743Y-80941134D01*
X167659410Y-80962475D01*
X167671108Y-80965173D01*
X167803333Y-80995516D01*
X167916213Y-81019402D01*
X168017648Y-81037852D01*
X168115535Y-81051890D01*
X168217774Y-81062537D01*
X168332265Y-81070817D01*
X168466905Y-81077751D01*
X168575857Y-81082293D01*
X168704530Y-81087753D01*
X168834380Y-81093990D01*
X168957713Y-81100581D01*
X169066836Y-81107105D01*
X169154056Y-81113137D01*
X169187401Y-81115869D01*
X169473276Y-81138740D01*
X169729169Y-81153909D01*
X169954268Y-81161339D01*
X170147763Y-81160996D01*
X170184301Y-81159933D01*
X170258573Y-81155913D01*
X170361811Y-81148187D01*
X170489731Y-81137219D01*
X170638049Y-81123472D01*
X170802481Y-81107410D01*
X170978745Y-81089497D01*
X171162556Y-81070196D01*
X171349631Y-81049971D01*
X171535686Y-81029285D01*
X171716437Y-81008602D01*
X171887602Y-80988385D01*
X172044897Y-80969098D01*
X172184037Y-80951205D01*
X172300741Y-80935169D01*
X172390722Y-80921453D01*
X172395910Y-80920592D01*
X172684888Y-80870191D01*
X172942338Y-80820753D01*
X173170211Y-80771780D01*
X173370457Y-80722775D01*
X173545026Y-80673238D01*
X173695867Y-80622672D01*
X173824930Y-80570580D01*
X173893053Y-80538219D01*
X173923998Y-80521871D01*
X173947846Y-80505338D01*
X173968045Y-80483194D01*
X173988048Y-80450017D01*
X174011305Y-80400381D01*
X174041266Y-80328864D01*
X174067820Y-80263509D01*
X174108152Y-80160614D01*
X174139159Y-80071300D01*
X174162144Y-79988205D01*
X174178408Y-79903967D01*
X174189254Y-79811225D01*
X174195982Y-79702619D01*
X174199896Y-79570786D01*
X174200952Y-79510725D01*
X174205409Y-79221648D01*
X174096504Y-79231519D01*
X174001813Y-79243632D01*
X173910960Y-79263709D01*
X173815372Y-79294400D01*
X173706480Y-79338355D01*
X173610620Y-79381762D01*
X173484003Y-79437945D01*
X173375894Y-79477839D01*
X173276767Y-79503511D01*
X173177093Y-79517029D01*
X173067347Y-79520460D01*
X172982322Y-79518096D01*
X172851750Y-79509468D01*
X172731982Y-79494553D01*
X172612495Y-79471337D01*
X172482769Y-79437808D01*
X172346410Y-79396466D01*
X172176605Y-79347869D01*
X172006940Y-79311133D01*
X171828773Y-79284934D01*
X171633466Y-79267949D01*
X171455927Y-79260009D01*
X171360425Y-79257214D01*
X171281067Y-79255769D01*
X171212926Y-79256727D01*
X171151077Y-79261140D01*
X171090592Y-79270060D01*
X171026546Y-79284538D01*
X170954011Y-79305626D01*
X170868062Y-79334376D01*
X170763771Y-79371840D01*
X170636213Y-79419069D01*
X170536148Y-79456375D01*
X170421576Y-79498347D01*
X170305828Y-79539445D01*
X170196613Y-79577027D01*
X170101640Y-79608448D01*
X170028618Y-79631065D01*
X170016754Y-79634460D01*
X169952100Y-79651929D01*
X169897394Y-79664359D01*
X169844706Y-79672526D01*
X169786105Y-79677209D01*
X169713659Y-79679184D01*
X169619436Y-79679229D01*
X169564380Y-79678795D01*
X169388038Y-79672433D01*
X169191484Y-79657207D01*
X168986425Y-79634458D01*
X168784567Y-79605526D01*
X168597616Y-79571753D01*
X168559103Y-79563688D01*
X168435544Y-79537450D01*
X168337847Y-79518002D01*
X168259232Y-79504545D01*
X168192921Y-79496281D01*
X168132137Y-79492411D01*
X168070102Y-79492138D01*
X168000037Y-79494662D01*
X167981068Y-79495606D01*
X167796976Y-79512186D01*
X167629801Y-79543846D01*
X167466349Y-79593837D01*
X167295235Y-79664580D01*
X167188489Y-79712376D01*
X167103310Y-79746907D01*
X167031363Y-79770030D01*
X166964312Y-79783603D01*
X166893821Y-79789485D01*
X166811556Y-79789533D01*
X166745151Y-79787204D01*
X166537983Y-79764590D01*
X166335852Y-79715848D01*
X166145468Y-79643260D01*
X165973543Y-79549106D01*
X165906678Y-79502342D01*
X165829593Y-79445905D01*
X165769288Y-79407588D01*
X165716922Y-79383914D01*
X165663657Y-79371405D01*
X165600651Y-79366582D01*
X165560026Y-79365952D01*
X165486903Y-79367421D01*
X165418563Y-79371888D01*
X165368578Y-79378426D01*
X165364608Y-79379271D01*
X165320618Y-79385167D01*
X165285130Y-79375595D01*
X165244058Y-79348099D01*
X165190242Y-79296398D01*
X165138432Y-79228833D01*
X165096650Y-79157386D01*
X165072913Y-79094040D01*
X165072406Y-79091613D01*
X165072563Y-79087796D01*
X165284905Y-79087796D01*
X165295688Y-79144446D01*
X165308056Y-79165490D01*
X165324220Y-79185005D01*
X165343158Y-79192252D01*
X165375127Y-79188223D01*
X165421150Y-79176416D01*
X165513064Y-79161699D01*
X165619456Y-79160359D01*
X165726543Y-79171472D01*
X165820546Y-79194116D01*
X165848893Y-79205073D01*
X165907215Y-79235392D01*
X165973064Y-79276123D01*
X166011540Y-79303180D01*
X166101898Y-79361869D01*
X166211206Y-79415265D01*
X166344943Y-79465821D01*
X166448021Y-79498455D01*
X166515604Y-79518643D01*
X166571433Y-79535397D01*
X166607416Y-79546285D01*
X166615567Y-79548810D01*
X166638882Y-79551344D01*
X166687137Y-79553564D01*
X166751764Y-79555130D01*
X166784679Y-79555537D01*
X166890487Y-79552485D01*
X166974479Y-79540340D01*
X167027621Y-79525167D01*
X167085355Y-79502843D01*
X167159663Y-79471190D01*
X167237193Y-79435957D01*
X167260620Y-79424810D01*
X167361930Y-79378372D01*
X167453260Y-79342981D01*
X167541998Y-79317200D01*
X167635530Y-79299594D01*
X167741241Y-79288727D01*
X167866518Y-79283164D01*
X167997823Y-79281520D01*
X168115371Y-79281500D01*
X168206975Y-79282770D01*
X168280191Y-79285970D01*
X168342579Y-79291737D01*
X168401696Y-79300709D01*
X168465100Y-79313526D01*
X168517216Y-79325392D01*
X168611753Y-79346048D01*
X168712010Y-79365639D01*
X168803623Y-79381460D01*
X168852309Y-79388514D01*
X168936317Y-79400024D01*
X169035765Y-79414848D01*
X169133115Y-79430342D01*
X169162269Y-79435234D01*
X169274769Y-79449900D01*
X169407295Y-79459808D01*
X169546580Y-79464004D01*
X169564380Y-79464081D01*
X169662720Y-79463565D01*
X169737890Y-79460872D01*
X169800216Y-79454671D01*
X169860028Y-79443630D01*
X169927653Y-79426418D01*
X169986149Y-79409698D01*
X170060599Y-79386807D01*
X170158182Y-79355097D01*
X170270597Y-79317359D01*
X170389544Y-79276384D01*
X170506721Y-79234965D01*
X170522296Y-79229368D01*
X170670896Y-79176227D01*
X170793588Y-79133700D01*
X170895829Y-79100600D01*
X170983073Y-79075742D01*
X171060778Y-79057940D01*
X171134399Y-79046010D01*
X171209391Y-79038765D01*
X171291211Y-79035021D01*
X171385314Y-79033591D01*
X171424142Y-79033412D01*
X171634003Y-79037671D01*
X171824632Y-79052911D01*
X172008986Y-79080782D01*
X172200016Y-79122936D01*
X172270250Y-79141207D01*
X172365983Y-79166963D01*
X172468763Y-79194632D01*
X172563688Y-79220203D01*
X172613720Y-79233690D01*
X172779552Y-79266924D01*
X172965567Y-79283644D01*
X173094515Y-79286018D01*
X173202050Y-79278382D01*
X173299365Y-79258465D01*
X173397651Y-79223996D01*
X173505256Y-79174131D01*
X173697200Y-79088538D01*
X173879181Y-79030590D01*
X174058051Y-78998944D01*
X174240659Y-78992260D01*
X174381658Y-79002531D01*
X174458112Y-79009823D01*
X174524746Y-79013576D01*
X174572912Y-79013447D01*
X174591090Y-79010835D01*
X174622777Y-78993272D01*
X174660739Y-78964356D01*
X174694774Y-78932936D01*
X174714681Y-78907865D01*
X174716425Y-78902088D01*
X174709391Y-78890096D01*
X174685797Y-78880183D01*
X174641905Y-78871738D01*
X174573974Y-78864150D01*
X174478267Y-78856808D01*
X174414841Y-78852798D01*
X174171900Y-78838190D01*
X174004353Y-78897895D01*
X173887720Y-78939094D01*
X173795672Y-78970051D01*
X173721341Y-78992079D01*
X173657860Y-79006493D01*
X173598360Y-79014609D01*
X173535973Y-79017740D01*
X173463833Y-79017201D01*
X173392810Y-79014951D01*
X173290044Y-79010108D01*
X173204297Y-79002312D01*
X173128500Y-78989415D01*
X173055586Y-78969265D01*
X172978489Y-78939714D01*
X172890140Y-78898610D01*
X172783472Y-78843805D01*
X172721066Y-78810595D01*
X172615230Y-78754662D01*
X172530653Y-78712649D01*
X172459472Y-78681899D01*
X172393826Y-78659756D01*
X172325851Y-78643560D01*
X172247687Y-78630654D01*
X172152968Y-78618560D01*
X172080301Y-78609657D01*
X172017837Y-78601566D01*
X171974753Y-78595496D01*
X171963121Y-78593553D01*
X171913086Y-78591070D01*
X171836031Y-78596578D01*
X171737194Y-78608985D01*
X171621811Y-78627202D01*
X171495118Y-78650139D01*
X171362353Y-78676707D01*
X171228751Y-78705814D01*
X171099550Y-78736373D01*
X170979986Y-78767291D01*
X170875295Y-78797481D01*
X170790715Y-78825852D01*
X170736133Y-78848920D01*
X170670204Y-78877543D01*
X170579195Y-78910671D01*
X170470791Y-78945785D01*
X170352675Y-78980366D01*
X170259696Y-79005107D01*
X170107614Y-79030405D01*
X169932674Y-79035832D01*
X169738711Y-79021771D01*
X169529563Y-78988606D01*
X169309064Y-78936724D01*
X169170054Y-78895867D01*
X169075867Y-78868103D01*
X168989322Y-78847816D01*
X168903270Y-78834379D01*
X168810567Y-78827164D01*
X168704064Y-78825543D01*
X168576616Y-78828888D01*
X168466826Y-78834073D01*
X168165220Y-78860015D01*
X167863630Y-78906600D01*
X167554527Y-78975243D01*
X167235488Y-79065771D01*
X167105758Y-79105502D01*
X167001397Y-79135577D01*
X166916108Y-79157312D01*
X166843599Y-79172022D01*
X166777575Y-79181023D01*
X166711741Y-79185632D01*
X166655460Y-79187035D01*
X166453223Y-79173001D01*
X166258965Y-79126481D01*
X166088476Y-79055400D01*
X165969353Y-78998380D01*
X165866904Y-78958081D01*
X165770921Y-78931225D01*
X165671195Y-78914529D01*
X165639197Y-78911029D01*
X165569763Y-78906435D01*
X165517689Y-78910414D01*
X165467469Y-78924990D01*
X165436965Y-78937418D01*
X165356886Y-78981907D01*
X165305751Y-79032825D01*
X165284905Y-79087796D01*
X165072563Y-79087796D01*
X165074973Y-79029337D01*
X165101786Y-78957950D01*
X165148580Y-78885947D01*
X165205463Y-78826590D01*
X165310228Y-78749689D01*
X165417126Y-78700987D01*
X165536427Y-78676174D01*
X165571375Y-78673060D01*
X165636892Y-78668094D01*
X165675864Y-78662388D01*
X165695183Y-78653061D01*
X165698663Y-78644663D01*
X165873218Y-78644663D01*
X165880651Y-78686282D01*
X165919649Y-78717195D01*
X165948667Y-78727917D01*
X165998938Y-78746669D01*
X166064184Y-78776302D01*
X166130603Y-78810532D01*
X166132967Y-78811840D01*
X166234781Y-78864315D01*
X166325201Y-78900081D01*
X166415702Y-78922034D01*
X166517760Y-78933067D01*
X166625366Y-78936038D01*
X166715887Y-78935475D01*
X166785783Y-78931522D01*
X166847905Y-78922245D01*
X166915105Y-78905711D01*
X167000236Y-78879985D01*
X167002345Y-78879321D01*
X167254982Y-78805742D01*
X167523849Y-78739452D01*
X167816301Y-78678688D01*
X167918955Y-78659600D01*
X168058163Y-78635628D01*
X168177997Y-78618285D01*
X168291599Y-78606178D01*
X168412109Y-78597912D01*
X168552668Y-78592093D01*
X168556255Y-78591976D01*
X168653465Y-78588895D01*
X168733261Y-78587147D01*
X168801286Y-78587517D01*
X168863183Y-78590790D01*
X168924595Y-78597750D01*
X168991166Y-78609182D01*
X169068539Y-78625870D01*
X169162358Y-78648598D01*
X169278266Y-78678152D01*
X169396834Y-78708827D01*
X169565548Y-78747825D01*
X169726210Y-78775935D01*
X169873306Y-78792557D01*
X170001321Y-78797086D01*
X170104741Y-78788923D01*
X170114598Y-78787183D01*
X170214681Y-78765300D01*
X170325978Y-78736133D01*
X170437280Y-78703007D01*
X170537381Y-78669245D01*
X170611543Y-78639769D01*
X170651253Y-78622206D01*
X170686879Y-78607466D01*
X170723339Y-78594133D01*
X170765551Y-78580794D01*
X170818434Y-78566036D01*
X170886905Y-78548444D01*
X170975882Y-78526604D01*
X171090283Y-78499103D01*
X171152860Y-78484148D01*
X171352719Y-78438396D01*
X171524822Y-78403501D01*
X171672941Y-78378971D01*
X171800847Y-78364310D01*
X171912313Y-78359025D01*
X172011111Y-78362622D01*
X172049789Y-78366669D01*
X172187348Y-78384153D01*
X172297496Y-78399191D01*
X172386076Y-78413462D01*
X172458932Y-78428646D01*
X172521908Y-78446422D01*
X172580845Y-78468471D01*
X172641589Y-78496470D01*
X172709982Y-78532101D01*
X172791867Y-78577043D01*
X172802845Y-78583124D01*
X172922218Y-78647503D01*
X173020972Y-78695886D01*
X173106454Y-78730736D01*
X173186011Y-78754519D01*
X173266991Y-78769698D01*
X173356740Y-78778736D01*
X173392810Y-78780971D01*
X173461637Y-78784415D01*
X173515006Y-78785148D01*
X173561287Y-78781772D01*
X173608848Y-78772888D01*
X173666059Y-78757099D01*
X173741289Y-78733007D01*
X173803298Y-78712405D01*
X173887986Y-78683749D01*
X173962331Y-78657785D01*
X174020025Y-78636775D01*
X174054761Y-78622984D01*
X174060905Y-78619941D01*
X174069943Y-78596238D01*
X174059856Y-78553503D01*
X174033790Y-78497744D01*
X173994889Y-78434967D01*
X173946299Y-78371180D01*
X173909199Y-78330162D01*
X173827715Y-78256680D01*
X173724142Y-78178315D01*
X173607953Y-78101446D01*
X173488619Y-78032449D01*
X173405194Y-77990823D01*
X173261806Y-77929849D01*
X173091287Y-77865636D01*
X172899640Y-77799918D01*
X172692874Y-77734427D01*
X172476994Y-77670898D01*
X172258005Y-77611064D01*
X172041915Y-77556659D01*
X171834728Y-77509416D01*
X171642451Y-77471068D01*
X171548658Y-77454946D01*
X171487815Y-77445983D01*
X171400289Y-77434197D01*
X171292706Y-77420424D01*
X171171694Y-77405501D01*
X171043877Y-77390262D01*
X170946682Y-77379032D01*
X170793823Y-77362172D01*
X170664654Y-77349445D01*
X170549685Y-77340300D01*
X170439425Y-77334187D01*
X170324384Y-77330555D01*
X170195072Y-77328854D01*
X170075442Y-77328513D01*
X169919958Y-77329954D01*
X169751549Y-77334026D01*
X169577277Y-77340368D01*
X169404203Y-77348620D01*
X169239389Y-77358424D01*
X169089899Y-77369418D01*
X168962792Y-77381243D01*
X168902572Y-77388280D01*
X168847958Y-77396642D01*
X168767861Y-77410590D01*
X168669566Y-77428712D01*
X168560359Y-77449590D01*
X168447526Y-77471811D01*
X168338353Y-77493959D01*
X168240125Y-77514618D01*
X168160128Y-77532374D01*
X168156992Y-77533101D01*
X168082997Y-77552457D01*
X167983782Y-77581571D01*
X167865481Y-77618377D01*
X167734226Y-77660812D01*
X167596153Y-77706809D01*
X167457395Y-77754305D01*
X167324087Y-77801235D01*
X167202361Y-77845535D01*
X167098353Y-77885138D01*
X167035410Y-77910625D01*
X166913045Y-77965079D01*
X166774368Y-78031715D01*
X166627733Y-78106124D01*
X166481494Y-78183899D01*
X166344005Y-78260630D01*
X166223620Y-78331911D01*
X166157503Y-78373887D01*
X166039492Y-78456950D01*
X165952720Y-78529859D01*
X165897268Y-78592476D01*
X165873218Y-78644663D01*
X165698663Y-78644663D01*
X165701744Y-78637229D01*
X165702440Y-78618253D01*
X165715432Y-78539578D01*
X165754994Y-78459734D01*
X165822005Y-78378056D01*
X165917343Y-78293879D01*
X166041890Y-78206539D01*
X166196523Y-78115371D01*
X166382121Y-78019709D01*
X166599565Y-77918889D01*
X166665206Y-77890108D01*
X166740335Y-77859066D01*
X166839907Y-77820218D01*
X166958616Y-77775442D01*
X167091159Y-77726616D01*
X167232231Y-77675617D01*
X167376526Y-77624322D01*
X167518741Y-77574611D01*
X167653570Y-77528361D01*
X167775710Y-77487448D01*
X167879855Y-77453752D01*
X167960701Y-77429149D01*
X167991295Y-77420697D01*
X168061718Y-77404179D01*
X168157520Y-77384280D01*
X168270912Y-77362383D01*
X168394103Y-77339874D01*
X168519304Y-77318135D01*
X168638727Y-77298552D01*
X168744580Y-77282509D01*
X168829075Y-77271391D01*
X168835554Y-77270658D01*
X168977566Y-77256545D01*
X169136791Y-77243585D01*
X169308386Y-77231947D01*
X169487504Y-77221800D01*
X169669303Y-77213314D01*
X169848937Y-77206656D01*
X170021562Y-77201997D01*
X170182333Y-77199506D01*
X170326406Y-77199350D01*
X170448937Y-77201701D01*
G37*
D11*
%TO.C,R4*%
X171320000Y-58356359D02*
X171320000Y-58663641D01*
X172080000Y-58356359D02*
X172080000Y-58663641D01*
%TO.C,C9*%
X174390000Y-58832836D02*
X174390000Y-58617164D01*
X175110000Y-58832836D02*
X175110000Y-58617164D01*
%TO.C,R6*%
X166596359Y-52620000D02*
X166903641Y-52620000D01*
X166596359Y-53380000D02*
X166903641Y-53380000D01*
%TO.C,C3*%
X164627836Y-64890000D02*
X164412164Y-64890000D01*
X164627836Y-65610000D02*
X164412164Y-65610000D01*
%TO.C,C16*%
X171490000Y-73915580D02*
X171490000Y-73634420D01*
X172510000Y-73915580D02*
X172510000Y-73634420D01*
%TO.C,C2*%
X171390000Y-71142164D02*
X171390000Y-71357836D01*
X172110000Y-71142164D02*
X172110000Y-71357836D01*
%TO.C,U3*%
X165325000Y-55115000D02*
X168325000Y-55115000D01*
X165325000Y-57385000D02*
X168325000Y-57385000D01*
X164775000Y-55200000D02*
X164495000Y-55200000D01*
X164775000Y-54920000D01*
X164775000Y-55200000D01*
G36*
X164775000Y-55200000D02*
G01*
X164495000Y-55200000D01*
X164775000Y-54920000D01*
X164775000Y-55200000D01*
G37*
%TO.C,C1*%
X165340000Y-60087836D02*
X165340000Y-59872164D01*
X166060000Y-60087836D02*
X166060000Y-59872164D01*
%TO.C,C7*%
X176140000Y-65642164D02*
X176140000Y-65857836D01*
X176860000Y-65642164D02*
X176860000Y-65857836D01*
%TO.C,R1*%
X171120000Y-43146359D02*
X171120000Y-43453641D01*
X171880000Y-43146359D02*
X171880000Y-43453641D01*
%TO.C,J2*%
X159730000Y-34490000D02*
X161110000Y-34490000D01*
X159730000Y-35870000D02*
X159730000Y-34490000D01*
X159730000Y-37140000D02*
X159730000Y-85510000D01*
X159730000Y-37140000D02*
X162490000Y-37140000D01*
X159730000Y-85510000D02*
X162490000Y-85510000D01*
X162490000Y-37140000D02*
X162490000Y-85510000D01*
%TO.C,C6*%
X167742164Y-53890000D02*
X167957836Y-53890000D01*
X167742164Y-54610000D02*
X167957836Y-54610000D01*
%TO.C,C8*%
X170692164Y-54640000D02*
X170907836Y-54640000D01*
X170692164Y-55360000D02*
X170907836Y-55360000D01*
%TO.C,C15*%
X165240000Y-72384420D02*
X165240000Y-72665580D01*
X166260000Y-72384420D02*
X166260000Y-72665580D01*
%TO.C,C13*%
X165490000Y-43884420D02*
X165490000Y-44165580D01*
X166510000Y-43884420D02*
X166510000Y-44165580D01*
%TO.C,R7*%
X165686359Y-53870000D02*
X165993641Y-53870000D01*
X165686359Y-54630000D02*
X165993641Y-54630000D01*
%TO.C,R2*%
X168320000Y-43856359D02*
X168320000Y-44163641D01*
X169080000Y-43856359D02*
X169080000Y-44163641D01*
%TO.C,J4*%
X166080000Y-85270000D02*
X166080000Y-83890000D01*
X167460000Y-85270000D02*
X166080000Y-85270000D01*
X168730000Y-82510000D02*
X173920000Y-82510000D01*
X168730000Y-85270000D02*
X168730000Y-82510000D01*
X168730000Y-85270000D02*
X173920000Y-85270000D01*
X173920000Y-85270000D02*
X173920000Y-82510000D01*
%TO.C,C14*%
X167640580Y-48990000D02*
X167359420Y-48990000D01*
X167640580Y-50010000D02*
X167359420Y-50010000D01*
%TO.C,C11*%
X172390000Y-58837836D02*
X172390000Y-58622164D01*
X173110000Y-58837836D02*
X173110000Y-58622164D01*
%TO.C,C12*%
X170692164Y-55640000D02*
X170907836Y-55640000D01*
X170692164Y-56360000D02*
X170907836Y-56360000D01*
%TO.C,C4*%
X173390000Y-58837836D02*
X173390000Y-58622164D01*
X174110000Y-58837836D02*
X174110000Y-58622164D01*
%TO.C,Y1*%
X170960000Y-70640000D02*
X166840000Y-70640000D01*
X170960000Y-74060000D02*
X170960000Y-70640000D01*
%TO.C,J3*%
X177510000Y-34490000D02*
X178890000Y-34490000D01*
X177510000Y-35870000D02*
X177510000Y-34490000D01*
X177510000Y-37140000D02*
X177510000Y-85510000D01*
X177510000Y-37140000D02*
X180270000Y-37140000D01*
X177510000Y-85510000D02*
X180270000Y-85510000D01*
X180270000Y-37140000D02*
X180270000Y-85510000D01*
%TO.C,U1*%
X166390000Y-61040000D02*
X166390000Y-60630000D01*
X166390000Y-67610000D02*
X166390000Y-66960000D01*
X167040000Y-60390000D02*
X166690000Y-60390000D01*
X167040000Y-67610000D02*
X166390000Y-67610000D01*
X172960000Y-60390000D02*
X173610000Y-60390000D01*
X172960000Y-67610000D02*
X173610000Y-67610000D01*
X173610000Y-60390000D02*
X173610000Y-61040000D01*
X173610000Y-67610000D02*
X173610000Y-66960000D01*
X166390000Y-60390000D02*
X166150000Y-60060000D01*
X166630000Y-60060000D01*
X166390000Y-60390000D01*
G36*
X166390000Y-60390000D02*
G01*
X166150000Y-60060000D01*
X166630000Y-60060000D01*
X166390000Y-60390000D01*
G37*
%TO.C,U4*%
X165940000Y-46687500D02*
X165940000Y-46037500D01*
X165940000Y-46687500D02*
X165940000Y-47337500D01*
X169060000Y-46687500D02*
X169060000Y-46037500D01*
X169060000Y-46687500D02*
X169060000Y-47337500D01*
X165990000Y-47850000D02*
X165660000Y-48090000D01*
X165660000Y-47610000D01*
X165990000Y-47850000D01*
G36*
X165990000Y-47850000D02*
G01*
X165660000Y-48090000D01*
X165660000Y-47610000D01*
X165990000Y-47850000D01*
G37*
%TO.C,C5*%
X174642164Y-59890000D02*
X174857836Y-59890000D01*
X174642164Y-60610000D02*
X174857836Y-60610000D01*
%TO.C,C10*%
X172390000Y-71142164D02*
X172390000Y-71357836D01*
X173110000Y-71142164D02*
X173110000Y-71357836D01*
%TO.C,J1*%
X165300000Y-35000000D02*
X165300000Y-33100000D01*
X165300000Y-38900000D02*
X165300000Y-36900000D01*
X174700000Y-33100000D02*
X165300000Y-33100000D01*
X174700000Y-35000000D02*
X174700000Y-33100000D01*
X174700000Y-38900000D02*
X174700000Y-36900000D01*
%TD*%
M02*
