%TF.GenerationSoftware,KiCad,Pcbnew,9.0.2*%
%TF.CreationDate,2026-03-15T21:02:35+02:00*%
%TF.ProjectId,RP2040,52503230-3430-42e6-9b69-6361645f7063,rev?*%
%TF.SameCoordinates,Original*%
%TF.FileFunction,Copper,L1,Top*%
%TF.FilePolarity,Positive*%
%FSLAX46Y46*%
G04 Gerber Fmt 4.6, Leading zero omitted, Abs format (unit mm)*
G04 Created by KiCad (PCBNEW 9.0.2) date 2026-03-15 21:02:35*
%MOMM*%
%LPD*%
G01*
G04 APERTURE LIST*
G04 Aperture macros list*
%AMRoundRect*
0 Rectangle with rounded corners*
0 $1 Rounding radius*
0 $2 $3 $4 $5 $6 $7 $8 $9 X,Y pos of 4 corners*
0 Add a 4 corners polygon primitive as box body*
4,1,4,$2,$3,$4,$5,$6,$7,$8,$9,$2,$3,0*
0 Add four circle primitives for the rounded corners*
1,1,$1+$1,$2,$3*
1,1,$1+$1,$4,$5*
1,1,$1+$1,$6,$7*
1,1,$1+$1,$8,$9*
0 Add four rect primitives between the rounded corners*
20,1,$1+$1,$2,$3,$4,$5,0*
20,1,$1+$1,$4,$5,$6,$7,0*
20,1,$1+$1,$6,$7,$8,$9,0*
20,1,$1+$1,$8,$9,$2,$3,0*%
G04 Aperture macros list end*
%TA.AperFunction,SMDPad,CuDef*%
%ADD10RoundRect,0.135000X0.135000X0.185000X-0.135000X0.185000X-0.135000X-0.185000X0.135000X-0.185000X0*%
%TD*%
%TA.AperFunction,SMDPad,CuDef*%
%ADD11RoundRect,0.200000X-0.800000X0.200000X-0.800000X-0.200000X0.800000X-0.200000X0.800000X0.200000X0*%
%TD*%
%TA.AperFunction,SMDPad,CuDef*%
%ADD12RoundRect,0.140000X-0.140000X-0.170000X0.140000X-0.170000X0.140000X0.170000X-0.140000X0.170000X0*%
%TD*%
%TA.AperFunction,SMDPad,CuDef*%
%ADD13RoundRect,0.135000X-0.185000X0.135000X-0.185000X-0.135000X0.185000X-0.135000X0.185000X0.135000X0*%
%TD*%
%TA.AperFunction,SMDPad,CuDef*%
%ADD14RoundRect,0.140000X0.170000X-0.140000X0.170000X0.140000X-0.170000X0.140000X-0.170000X-0.140000X0*%
%TD*%
%TA.AperFunction,SMDPad,CuDef*%
%ADD15RoundRect,0.135000X-0.135000X-0.185000X0.135000X-0.185000X0.135000X0.185000X-0.135000X0.185000X0*%
%TD*%
%TA.AperFunction,SMDPad,CuDef*%
%ADD16RoundRect,0.140000X0.140000X0.170000X-0.140000X0.170000X-0.140000X-0.170000X0.140000X-0.170000X0*%
%TD*%
%TA.AperFunction,SMDPad,CuDef*%
%ADD17RoundRect,0.225000X0.250000X-0.225000X0.250000X0.225000X-0.250000X0.225000X-0.250000X-0.225000X0*%
%TD*%
%TA.AperFunction,SMDPad,CuDef*%
%ADD18RoundRect,0.140000X-0.170000X0.140000X-0.170000X-0.140000X0.170000X-0.140000X0.170000X0.140000X0*%
%TD*%
%TA.AperFunction,SMDPad,CuDef*%
%ADD19RoundRect,0.062500X-0.387500X-0.062500X0.387500X-0.062500X0.387500X0.062500X-0.387500X0.062500X0*%
%TD*%
%TA.AperFunction,HeatsinkPad*%
%ADD20R,0.200000X1.600000*%
%TD*%
%TA.AperFunction,ComponentPad*%
%ADD21R,1.700000X1.700000*%
%TD*%
%TA.AperFunction,ComponentPad*%
%ADD22C,1.700000*%
%TD*%
%TA.AperFunction,SMDPad,CuDef*%
%ADD23RoundRect,0.225000X-0.250000X0.225000X-0.250000X-0.225000X0.250000X-0.225000X0.250000X0.225000X0*%
%TD*%
%TA.AperFunction,SMDPad,CuDef*%
%ADD24RoundRect,0.225000X0.225000X0.250000X-0.225000X0.250000X-0.225000X-0.250000X0.225000X-0.250000X0*%
%TD*%
%TA.AperFunction,SMDPad,CuDef*%
%ADD25RoundRect,0.250000X0.450000X0.350000X-0.450000X0.350000X-0.450000X-0.350000X0.450000X-0.350000X0*%
%TD*%
%TA.AperFunction,SMDPad,CuDef*%
%ADD26RoundRect,0.050000X-0.387500X-0.050000X0.387500X-0.050000X0.387500X0.050000X-0.387500X0.050000X0*%
%TD*%
%TA.AperFunction,SMDPad,CuDef*%
%ADD27RoundRect,0.050000X-0.050000X-0.387500X0.050000X-0.387500X0.050000X0.387500X-0.050000X0.387500X0*%
%TD*%
%TA.AperFunction,HeatsinkPad*%
%ADD28R,3.200000X3.200000*%
%TD*%
%TA.AperFunction,SMDPad,CuDef*%
%ADD29RoundRect,0.150000X0.150000X-0.587500X0.150000X0.587500X-0.150000X0.587500X-0.150000X-0.587500X0*%
%TD*%
%TA.AperFunction,SMDPad,CuDef*%
%ADD30R,0.600000X1.450000*%
%TD*%
%TA.AperFunction,SMDPad,CuDef*%
%ADD31R,0.300000X1.450000*%
%TD*%
%TA.AperFunction,HeatsinkPad*%
%ADD32O,1.000000X2.100000*%
%TD*%
%TA.AperFunction,HeatsinkPad*%
%ADD33O,1.000000X1.600000*%
%TD*%
%TA.AperFunction,ViaPad*%
%ADD34C,0.600000*%
%TD*%
%TA.AperFunction,Conductor*%
%ADD35C,0.200000*%
%TD*%
G04 APERTURE END LIST*
D10*
%TO.P,R5,1*%
%TO.N,Net-(C16-Pad2)*%
X170510000Y-70000000D03*
%TO.P,R5,2*%
%TO.N,XOUT*%
X169490000Y-70000000D03*
%TD*%
D11*
%TO.P,SW1,1,1*%
%TO.N,GND*%
X173500000Y-45400000D03*
%TO.P,SW1,2,2*%
%TO.N,Net-(R7-Pad1)*%
X173500000Y-49600000D03*
%TD*%
D12*
%TO.P,C17,1*%
%TO.N,+3V3*%
X170320000Y-54010000D03*
%TO.P,C17,2*%
%TO.N,GND*%
X171280000Y-54010000D03*
%TD*%
D13*
%TO.P,R3,1*%
%TO.N,USB_D+*%
X170700000Y-58000000D03*
%TO.P,R3,2*%
%TO.N,Net-(U1-USB_DP)*%
X170700000Y-59020000D03*
%TD*%
%TO.P,R4,1*%
%TO.N,USB_D-*%
X171700000Y-58000000D03*
%TO.P,R4,2*%
%TO.N,Net-(U1-USB_DM)*%
X171700000Y-59020000D03*
%TD*%
D14*
%TO.P,C9,1*%
%TO.N,+3V3*%
X174750000Y-59205000D03*
%TO.P,C9,2*%
%TO.N,GND*%
X174750000Y-58245000D03*
%TD*%
D15*
%TO.P,R6,1*%
%TO.N,QSPI_SS*%
X166240000Y-53000000D03*
%TO.P,R6,2*%
%TO.N,+3V3*%
X167260000Y-53000000D03*
%TD*%
D16*
%TO.P,C3,1*%
%TO.N,+3V3*%
X165000000Y-65250000D03*
%TO.P,C3,2*%
%TO.N,GND*%
X164040000Y-65250000D03*
%TD*%
D17*
%TO.P,C16,1*%
%TO.N,GND*%
X172000000Y-74550000D03*
%TO.P,C16,2*%
%TO.N,Net-(C16-Pad2)*%
X172000000Y-73000000D03*
%TD*%
D18*
%TO.P,C2,1*%
%TO.N,+3V3*%
X171750000Y-70770000D03*
%TO.P,C2,2*%
%TO.N,GND*%
X171750000Y-71730000D03*
%TD*%
D19*
%TO.P,U3,1,~{CS}*%
%TO.N,QSPI_SS*%
X165400000Y-55500000D03*
%TO.P,U3,2,DO/IO_{1}*%
%TO.N,QSPI_SD1*%
X165400000Y-56000000D03*
%TO.P,U3,3,~{WP}/IO_{2}*%
%TO.N,QSPI_SD2*%
X165400000Y-56500000D03*
%TO.P,U3,4,GND*%
%TO.N,GND*%
X165400000Y-57000000D03*
%TO.P,U3,5,DI/IO_{0}*%
%TO.N,QSPI_SD0*%
X168250000Y-57000000D03*
%TO.P,U3,6,CLK*%
%TO.N,QSPI_SCLK*%
X168250000Y-56500000D03*
%TO.P,U3,7,~{HOLD}/~{RESET}/IO_{3}*%
%TO.N,QSPI_SD3*%
X168250000Y-56000000D03*
%TO.P,U3,8,VCC*%
%TO.N,+3V3*%
X168250000Y-55500000D03*
D20*
%TO.P,U3,9*%
%TO.N,N/C*%
X166825000Y-56250000D03*
%TD*%
D14*
%TO.P,C1,1*%
%TO.N,+3V3*%
X165700000Y-60460000D03*
%TO.P,C1,2*%
%TO.N,GND*%
X165700000Y-59500000D03*
%TD*%
D18*
%TO.P,C7,1*%
%TO.N,+3V3*%
X176500000Y-65270000D03*
%TO.P,C7,2*%
%TO.N,GND*%
X176500000Y-66230000D03*
%TD*%
D13*
%TO.P,R1,1*%
%TO.N,Net-(J1-CC1)*%
X171500000Y-42790000D03*
%TO.P,R1,2*%
%TO.N,GND*%
X171500000Y-43810000D03*
%TD*%
D21*
%TO.P,J2,1,Pin_1*%
%TO.N,GPIO_0*%
X161110000Y-35870000D03*
D22*
%TO.P,J2,2,Pin_2*%
%TO.N,GPIO_01*%
X161110000Y-38410000D03*
%TO.P,J2,3,Pin_3*%
%TO.N,GND*%
X161110000Y-40950000D03*
%TO.P,J2,4,Pin_4*%
%TO.N,GPIO_02*%
X161110000Y-43490000D03*
%TO.P,J2,5,Pin_5*%
%TO.N,GPIO_03*%
X161110000Y-46030000D03*
%TO.P,J2,6,Pin_6*%
%TO.N,GPIO_04*%
X161110000Y-48570000D03*
%TO.P,J2,7,Pin_7*%
%TO.N,GPIO_05*%
X161110000Y-51110000D03*
%TO.P,J2,8,Pin_8*%
%TO.N,GND*%
X161110000Y-53650000D03*
%TO.P,J2,9,Pin_9*%
%TO.N,GPIO_06*%
X161110000Y-56190000D03*
%TO.P,J2,10,Pin_10*%
%TO.N,GPIO_07*%
X161110000Y-58730000D03*
%TO.P,J2,11,Pin_11*%
%TO.N,GPIO_08*%
X161110000Y-61270000D03*
%TO.P,J2,12,Pin_12*%
%TO.N,GPIO_09*%
X161110000Y-63810000D03*
%TO.P,J2,13,Pin_13*%
%TO.N,GND*%
X161110000Y-66350000D03*
%TO.P,J2,14,Pin_14*%
%TO.N,GPIO_10*%
X161110000Y-68890000D03*
%TO.P,J2,15,Pin_15*%
%TO.N,GPIO_11*%
X161110000Y-71430000D03*
%TO.P,J2,16,Pin_16*%
%TO.N,GPIO_12*%
X161110000Y-73970000D03*
%TO.P,J2,17,Pin_17*%
%TO.N,GPIO_13*%
X161110000Y-76510000D03*
%TO.P,J2,18,Pin_18*%
%TO.N,GND*%
X161110000Y-79050000D03*
%TO.P,J2,19,Pin_19*%
%TO.N,GPIO_14*%
X161110000Y-81590000D03*
%TO.P,J2,20,Pin_20*%
%TO.N,GPIO_15*%
X161110000Y-84130000D03*
%TD*%
D12*
%TO.P,C6,1*%
%TO.N,+3V3*%
X167370000Y-54250000D03*
%TO.P,C6,2*%
%TO.N,GND*%
X168330000Y-54250000D03*
%TD*%
%TO.P,C8,1*%
%TO.N,+3V3*%
X170320000Y-55000000D03*
%TO.P,C8,2*%
%TO.N,GND*%
X171280000Y-55000000D03*
%TD*%
D23*
%TO.P,C15,1*%
%TO.N,GND*%
X165750000Y-71750000D03*
%TO.P,C15,2*%
%TO.N,XIN*%
X165750000Y-73300000D03*
%TD*%
%TO.P,C13,1*%
%TO.N,VBUS*%
X166000000Y-43250000D03*
%TO.P,C13,2*%
%TO.N,GND*%
X166000000Y-44800000D03*
%TD*%
D15*
%TO.P,R7,1*%
%TO.N,Net-(R7-Pad1)*%
X165330000Y-54250000D03*
%TO.P,R7,2*%
%TO.N,QSPI_SS*%
X166350000Y-54250000D03*
%TD*%
D13*
%TO.P,R2,1*%
%TO.N,Net-(J1-CC2)*%
X168700000Y-43500000D03*
%TO.P,R2,2*%
%TO.N,GND*%
X168700000Y-44520000D03*
%TD*%
D21*
%TO.P,J4,1,Pin_1*%
%TO.N,SWCLK*%
X167460000Y-83890000D03*
D22*
%TO.P,J4,2,Pin_2*%
%TO.N,GND*%
X170000000Y-83890000D03*
%TO.P,J4,3,Pin_3*%
%TO.N,SWD*%
X172540000Y-83890000D03*
%TD*%
D24*
%TO.P,C14,1*%
%TO.N,+3V3*%
X168275000Y-49500000D03*
%TO.P,C14,2*%
%TO.N,GND*%
X166725000Y-49500000D03*
%TD*%
D14*
%TO.P,C11,1*%
%TO.N,+1V1*%
X172750000Y-59210000D03*
%TO.P,C11,2*%
%TO.N,GND*%
X172750000Y-58250000D03*
%TD*%
D12*
%TO.P,C12,1*%
%TO.N,+1V1*%
X170320000Y-56000000D03*
%TO.P,C12,2*%
%TO.N,GND*%
X171280000Y-56000000D03*
%TD*%
D14*
%TO.P,C4,1*%
%TO.N,+3V3*%
X173750000Y-59210000D03*
%TO.P,C4,2*%
%TO.N,GND*%
X173750000Y-58250000D03*
%TD*%
D25*
%TO.P,Y1,1,1*%
%TO.N,Net-(C16-Pad2)*%
X170000000Y-71500000D03*
%TO.P,Y1,2,2*%
%TO.N,GND*%
X167800000Y-71500000D03*
%TO.P,Y1,3,3*%
%TO.N,XIN*%
X167800000Y-73200000D03*
%TO.P,Y1,4,4*%
%TO.N,GND*%
X170000000Y-73200000D03*
%TD*%
D21*
%TO.P,J3,1,Pin_1*%
%TO.N,VBUS*%
X178890000Y-35870000D03*
D22*
%TO.P,J3,2,Pin_2*%
%TO.N,GPIO_29_ADC_3*%
X178890000Y-38410000D03*
%TO.P,J3,3,Pin_3*%
%TO.N,GND*%
X178890000Y-40950000D03*
%TO.P,J3,4,Pin_4*%
%TO.N,GPIO_28_ADC_2*%
X178890000Y-43490000D03*
%TO.P,J3,5,Pin_5*%
%TO.N,+3V3*%
X178890000Y-46030000D03*
%TO.P,J3,6,Pin_6*%
%TO.N,GPIO_27_ADC_1*%
X178890000Y-48570000D03*
%TO.P,J3,7,Pin_7*%
%TO.N,GPIO_26_ADC_0*%
X178890000Y-51110000D03*
%TO.P,J3,8,Pin_8*%
%TO.N,GND*%
X178890000Y-53650000D03*
%TO.P,J3,9,Pin_9*%
%TO.N,GPIO_24*%
X178890000Y-56190000D03*
%TO.P,J3,10,Pin_10*%
%TO.N,GPIO_23*%
X178890000Y-58730000D03*
%TO.P,J3,11,Pin_11*%
%TO.N,RUN*%
X178890000Y-61270000D03*
%TO.P,J3,12,Pin_12*%
%TO.N,GPIO_22*%
X178890000Y-63810000D03*
%TO.P,J3,13,Pin_13*%
%TO.N,GND*%
X178890000Y-66350000D03*
%TO.P,J3,14,Pin_14*%
%TO.N,GPIO_21*%
X178890000Y-68890000D03*
%TO.P,J3,15,Pin_15*%
%TO.N,GPIO_20*%
X178890000Y-71430000D03*
%TO.P,J3,16,Pin_16*%
%TO.N,GPIO_19*%
X178890000Y-73970000D03*
%TO.P,J3,17,Pin_17*%
%TO.N,GPIO_18*%
X178890000Y-76510000D03*
%TO.P,J3,18,Pin_18*%
%TO.N,GND*%
X178890000Y-79050000D03*
%TO.P,J3,19,Pin_19*%
%TO.N,GPIO_17*%
X178890000Y-81590000D03*
%TO.P,J3,20,Pin_20*%
%TO.N,GPIO_16*%
X178890000Y-84130000D03*
%TD*%
D26*
%TO.P,U1,1,IOVDD*%
%TO.N,+3V3*%
X166562500Y-61400000D03*
%TO.P,U1,2,GPIO0*%
%TO.N,GPIO_0*%
X166562500Y-61800000D03*
%TO.P,U1,3,GPIO1*%
%TO.N,GPIO_01*%
X166562500Y-62200000D03*
%TO.P,U1,4,GPIO2*%
%TO.N,GPIO_02*%
X166562500Y-62600000D03*
%TO.P,U1,5,GPIO3*%
%TO.N,GPIO_03*%
X166562500Y-63000000D03*
%TO.P,U1,6,GPIO4*%
%TO.N,GPIO_04*%
X166562500Y-63400000D03*
%TO.P,U1,7,GPIO5*%
%TO.N,GPIO_05*%
X166562500Y-63800000D03*
%TO.P,U1,8,GPIO6*%
%TO.N,GPIO_06*%
X166562500Y-64200000D03*
%TO.P,U1,9,GPIO7*%
%TO.N,GPIO_07*%
X166562500Y-64600000D03*
%TO.P,U1,10,IOVDD*%
%TO.N,+3V3*%
X166562500Y-65000000D03*
%TO.P,U1,11,GPIO8*%
%TO.N,GPIO_08*%
X166562500Y-65400000D03*
%TO.P,U1,12,GPIO9*%
%TO.N,GPIO_09*%
X166562500Y-65800000D03*
%TO.P,U1,13,GPIO10*%
%TO.N,GPIO_10*%
X166562500Y-66200000D03*
%TO.P,U1,14,GPIO11*%
%TO.N,GPIO_11*%
X166562500Y-66600000D03*
D27*
%TO.P,U1,15,GPIO12*%
%TO.N,GPIO_12*%
X167400000Y-67437500D03*
%TO.P,U1,16,GPIO13*%
%TO.N,GPIO_13*%
X167800000Y-67437500D03*
%TO.P,U1,17,GPIO14*%
%TO.N,GPIO_14*%
X168200000Y-67437500D03*
%TO.P,U1,18,GPIO15*%
%TO.N,GPIO_15*%
X168600000Y-67437500D03*
%TO.P,U1,19,TESTEN*%
%TO.N,GND*%
X169000000Y-67437500D03*
%TO.P,U1,20,XIN*%
%TO.N,XIN*%
X169400000Y-67437500D03*
%TO.P,U1,21,XOUT*%
%TO.N,XOUT*%
X169800000Y-67437500D03*
%TO.P,U1,22,IOVDD*%
%TO.N,+3V3*%
X170200000Y-67437500D03*
%TO.P,U1,23,DVDD*%
%TO.N,+1V1*%
X170600000Y-67437500D03*
%TO.P,U1,24,SWCLK*%
%TO.N,SWCLK*%
X171000000Y-67437500D03*
%TO.P,U1,25,SWD*%
%TO.N,SWD*%
X171400000Y-67437500D03*
%TO.P,U1,26,RUN*%
%TO.N,RUN*%
X171800000Y-67437500D03*
%TO.P,U1,27,GPIO16*%
%TO.N,GPIO_16*%
X172200000Y-67437500D03*
%TO.P,U1,28,GPIO17*%
%TO.N,GPIO_17*%
X172600000Y-67437500D03*
D26*
%TO.P,U1,29,GPIO18*%
%TO.N,GPIO_18*%
X173437500Y-66600000D03*
%TO.P,U1,30,GPIO19*%
%TO.N,GPIO_19*%
X173437500Y-66200000D03*
%TO.P,U1,31,GPIO20*%
%TO.N,GPIO_20*%
X173437500Y-65800000D03*
%TO.P,U1,32,GPIO21*%
%TO.N,GPIO_21*%
X173437500Y-65400000D03*
%TO.P,U1,33,IOVDD*%
%TO.N,+3V3*%
X173437500Y-65000000D03*
%TO.P,U1,34,GPIO22*%
%TO.N,GPIO_22*%
X173437500Y-64600000D03*
%TO.P,U1,35,GPIO23*%
%TO.N,GPIO_23*%
X173437500Y-64200000D03*
%TO.P,U1,36,GPIO24*%
%TO.N,GPIO_24*%
X173437500Y-63800000D03*
%TO.P,U1,37,GPIO25*%
%TO.N,unconnected-(U1-GPIO25-Pad37)*%
X173437500Y-63400000D03*
%TO.P,U1,38,GPIO26_ADC0*%
%TO.N,GPIO_26_ADC_0*%
X173437500Y-63000000D03*
%TO.P,U1,39,GPIO27_ADC1*%
%TO.N,GPIO_27_ADC_1*%
X173437500Y-62600000D03*
%TO.P,U1,40,GPIO28_ADC2*%
%TO.N,GPIO_28_ADC_2*%
X173437500Y-62200000D03*
%TO.P,U1,41,GPIO29_ADC3*%
%TO.N,GPIO_29_ADC_3*%
X173437500Y-61800000D03*
%TO.P,U1,42,IOVDD*%
%TO.N,+3V3*%
X173437500Y-61400000D03*
D27*
%TO.P,U1,43,ADC_AVDD*%
X172600000Y-60562500D03*
%TO.P,U1,44,VREG_IN*%
X172200000Y-60562500D03*
%TO.P,U1,45,VREG_VOUT*%
%TO.N,+1V1*%
X171800000Y-60562500D03*
%TO.P,U1,46,USB_DM*%
%TO.N,Net-(U1-USB_DM)*%
X171400000Y-60562500D03*
%TO.P,U1,47,USB_DP*%
%TO.N,Net-(U1-USB_DP)*%
X171000000Y-60562500D03*
%TO.P,U1,48,USB_VDD*%
%TO.N,+3V3*%
X170600000Y-60562500D03*
%TO.P,U1,49,IOVDD*%
X170200000Y-60562500D03*
%TO.P,U1,50,DVDD*%
%TO.N,+1V1*%
X169800000Y-60562500D03*
%TO.P,U1,51,QSPI_SD3*%
%TO.N,QSPI_SD3*%
X169400000Y-60562500D03*
%TO.P,U1,52,QSPI_SCLK*%
%TO.N,QSPI_SCLK*%
X169000000Y-60562500D03*
%TO.P,U1,53,QSPI_SD0*%
%TO.N,QSPI_SD0*%
X168600000Y-60562500D03*
%TO.P,U1,54,QSPI_SD2*%
%TO.N,QSPI_SD2*%
X168200000Y-60562500D03*
%TO.P,U1,55,QSPI_SD1*%
%TO.N,QSPI_SD1*%
X167800000Y-60562500D03*
%TO.P,U1,56,QSPI_SS*%
%TO.N,QSPI_SS*%
X167400000Y-60562500D03*
D28*
%TO.P,U1,57,GND*%
%TO.N,GND*%
X170000000Y-64000000D03*
%TD*%
D29*
%TO.P,U4,1,GND*%
%TO.N,GND*%
X166550000Y-47625000D03*
%TO.P,U4,2,VO*%
%TO.N,+3V3*%
X168450000Y-47625000D03*
%TO.P,U4,3,VI*%
%TO.N,VBUS*%
X167500000Y-45750000D03*
%TD*%
D12*
%TO.P,C5,1*%
%TO.N,+3V3*%
X174270000Y-60250000D03*
%TO.P,C5,2*%
%TO.N,GND*%
X175230000Y-60250000D03*
%TD*%
D18*
%TO.P,C10,1*%
%TO.N,+1V1*%
X172750000Y-70770000D03*
%TO.P,C10,2*%
%TO.N,GND*%
X172750000Y-71730000D03*
%TD*%
D30*
%TO.P,J1,A1,GND*%
%TO.N,GND*%
X173250000Y-41045000D03*
%TO.P,J1,A4,VBUS*%
%TO.N,VBUS*%
X172450000Y-41045000D03*
D31*
%TO.P,J1,A5,CC1*%
%TO.N,Net-(J1-CC1)*%
X171250000Y-41045000D03*
%TO.P,J1,A6,D+*%
%TO.N,USB_D+*%
X170250000Y-41045000D03*
%TO.P,J1,A7,D-*%
%TO.N,USB_D-*%
X169750000Y-41045000D03*
%TO.P,J1,A8*%
%TO.N,N/C*%
X168750000Y-41045000D03*
D30*
%TO.P,J1,A9,VBUS*%
%TO.N,VBUS*%
X167550000Y-41045000D03*
%TO.P,J1,A12,GND*%
%TO.N,GND*%
X166750000Y-41045000D03*
%TO.P,J1,B1,GND*%
X166750000Y-41045000D03*
%TO.P,J1,B4,VBUS*%
%TO.N,VBUS*%
X167550000Y-41045000D03*
D31*
%TO.P,J1,B5,CC2*%
%TO.N,Net-(J1-CC2)*%
X168250000Y-41045000D03*
%TO.P,J1,B6,D+*%
%TO.N,USB_D+*%
X169250000Y-41045000D03*
%TO.P,J1,B7,D-*%
%TO.N,USB_D-*%
X170750000Y-41045000D03*
%TO.P,J1,B8*%
%TO.N,N/C*%
X171750000Y-41045000D03*
D30*
%TO.P,J1,B9,VBUS*%
%TO.N,VBUS*%
X172450000Y-41045000D03*
%TO.P,J1,B12,GND*%
%TO.N,GND*%
X173250000Y-41045000D03*
D32*
%TO.P,J1,S1,SHIELD*%
X174320000Y-40130000D03*
D33*
X174320000Y-35950000D03*
D32*
X165680000Y-40130000D03*
D33*
X165680000Y-35950000D03*
%TD*%
D34*
%TO.N,GND*%
X162400000Y-78000000D03*
X170500000Y-61750000D03*
X173800000Y-71800000D03*
X170000000Y-74500000D03*
X168750000Y-45500000D03*
X168000000Y-63500000D03*
X173200000Y-42800000D03*
X165750000Y-74500000D03*
X173500000Y-56750000D03*
X166500000Y-70750000D03*
X171000000Y-53000000D03*
X175800000Y-36000000D03*
X176500000Y-67250000D03*
X170000000Y-38200000D03*
X163000000Y-67000000D03*
X165500000Y-57250000D03*
X166000000Y-46000000D03*
X163250000Y-65250000D03*
X166562500Y-59750000D03*
X175650000Y-57500000D03*
X169000000Y-66600000D03*
X173250000Y-69250000D03*
%TO.N,+3V3*%
X169250000Y-50500000D03*
X169250000Y-53500000D03*
X170399999Y-59790000D03*
X175250000Y-55750000D03*
X175500000Y-58750000D03*
%TO.N,+1V1*%
X171500000Y-61750000D03*
X169558429Y-55709899D03*
X173750000Y-70750000D03*
%TO.N,GPIO_02*%
X164799765Y-62400000D03*
%TO.N,GPIO_0*%
X165575266Y-61475737D03*
%TO.N,GPIO_01*%
X164751000Y-61500000D03*
%TO.N,GPIO_08*%
X167500000Y-66220813D03*
%TO.N,GPIO_28_ADC_2*%
X175750000Y-61750000D03*
%TO.N,RUN*%
X172500000Y-65500000D03*
%TO.N,GPIO_29_ADC_3*%
X175000000Y-61250000D03*
%TO.N,SWD*%
X171341022Y-66315295D03*
%TO.N,SWCLK*%
X170549265Y-66200735D03*
%TO.N,Net-(R7-Pad1)*%
X165750000Y-51750000D03*
X173500000Y-51250000D03*
%TD*%
D35*
%TO.N,GND*%
X169000000Y-67437500D02*
X169000000Y-66600000D01*
X176500000Y-67250000D02*
X177990000Y-67250000D01*
X166562500Y-59750000D02*
X165950000Y-59750000D01*
X171280000Y-56000000D02*
X171280000Y-55000000D01*
X176135000Y-59345000D02*
X176135000Y-57985000D01*
X173800000Y-71800000D02*
X172820000Y-71800000D01*
X172750000Y-57750000D02*
X172750000Y-58250000D01*
X171280000Y-53280000D02*
X171000000Y-53000000D01*
X168750000Y-44570000D02*
X168700000Y-44520000D01*
X166000000Y-46000000D02*
X166000000Y-44800000D01*
X167250000Y-71500000D02*
X167800000Y-71500000D01*
X173200000Y-41095000D02*
X173250000Y-41045000D01*
X170000000Y-74500000D02*
X170000000Y-73200000D01*
X176500000Y-67250000D02*
X176500000Y-66230000D01*
X173500000Y-56750000D02*
X173500000Y-57000000D01*
X170000000Y-64000000D02*
X170000000Y-62750000D01*
X168250000Y-54330000D02*
X168330000Y-54250000D01*
X171280000Y-55000000D02*
X171280000Y-54010000D01*
X171280000Y-54010000D02*
X171280000Y-53280000D01*
X172820000Y-71800000D02*
X172750000Y-71730000D01*
X164040000Y-65250000D02*
X163250000Y-65250000D01*
X168275000Y-54195000D02*
X168330000Y-54250000D01*
X173500000Y-57000000D02*
X172750000Y-57750000D01*
X167250000Y-71500000D02*
X166500000Y-70750000D01*
X174750000Y-58245000D02*
X174905000Y-58245000D01*
X174905000Y-58245000D02*
X175650000Y-57500000D01*
X173500000Y-57500000D02*
X173750000Y-57750000D01*
X168750000Y-45500000D02*
X168750000Y-44570000D01*
X173750000Y-57750000D02*
X173750000Y-58250000D01*
X173500000Y-56750000D02*
X173500000Y-57500000D01*
X176135000Y-57985000D02*
X175650000Y-57500000D01*
X165500000Y-57250000D02*
X165500000Y-57100000D01*
X173200000Y-42800000D02*
X173200000Y-41095000D01*
X165500000Y-57100000D02*
X165400000Y-57000000D01*
X171750000Y-71730000D02*
X172750000Y-71730000D01*
X165950000Y-59750000D02*
X165700000Y-59500000D01*
X175230000Y-60250000D02*
X176135000Y-59345000D01*
X177990000Y-67250000D02*
X178890000Y-66350000D01*
X169000000Y-65000000D02*
X170000000Y-64000000D01*
%TO.N,+3V3*%
X170320000Y-55000000D02*
X170320000Y-54010000D01*
X171750000Y-70100000D02*
X171750000Y-70770000D01*
X168450000Y-48075000D02*
X168275000Y-48250000D01*
X166562500Y-61322500D02*
X165700000Y-60460000D01*
X167370000Y-54250000D02*
X167370000Y-53110000D01*
X170200000Y-60562500D02*
X170200000Y-61095774D01*
X176230000Y-65000000D02*
X176500000Y-65270000D01*
X167250000Y-65000000D02*
X166562500Y-65000000D01*
X166562500Y-65000000D02*
X165250000Y-65000000D01*
X169250000Y-50475000D02*
X168275000Y-49500000D01*
X169250000Y-50500000D02*
X169250000Y-50475000D01*
X170200000Y-67437500D02*
X170200000Y-68550000D01*
X169250000Y-55000000D02*
X168750000Y-55500000D01*
X170600000Y-59990001D02*
X170399999Y-59790000D01*
X172600000Y-60360000D02*
X172980000Y-59980000D01*
X172500000Y-61750000D02*
X172500000Y-64597774D01*
X174270000Y-60250000D02*
X174000000Y-60250000D01*
X173230000Y-59730000D02*
X173750000Y-59210000D01*
X168275000Y-47800000D02*
X168450000Y-47625000D01*
X176000000Y-55000000D02*
X176000000Y-48920000D01*
X170200000Y-66700000D02*
X169500000Y-66000000D01*
X174745000Y-59210000D02*
X174750000Y-59205000D01*
X169250000Y-53500000D02*
X169810000Y-53500000D01*
X168275000Y-49500000D02*
X168275000Y-47800000D01*
X169810000Y-53500000D02*
X170320000Y-54010000D01*
X172500000Y-64597774D02*
X172903226Y-65001000D01*
X169746774Y-61551000D02*
X170201000Y-61096774D01*
X169250000Y-55000000D02*
X169250000Y-53500000D01*
X173437500Y-61400000D02*
X172850000Y-61400000D01*
X168000000Y-65500000D02*
X167500000Y-65000000D01*
X167370000Y-54250000D02*
X167370000Y-54620000D01*
X170320000Y-53320000D02*
X168275000Y-51275000D01*
X173437500Y-65000000D02*
X176230000Y-65000000D01*
X170200000Y-67437500D02*
X170200000Y-66700000D01*
X167370000Y-53110000D02*
X167260000Y-53000000D01*
X168000000Y-65750000D02*
X168000000Y-65500000D01*
X166562500Y-61400000D02*
X167150000Y-61400000D01*
X173437500Y-60812500D02*
X173437500Y-61400000D01*
X172903226Y-65001000D02*
X172904226Y-65000000D01*
X174000000Y-60250000D02*
X173437500Y-60812500D01*
X170200000Y-59989999D02*
X170399999Y-59790000D01*
X167301000Y-61551000D02*
X167301000Y-64949000D01*
X166562500Y-61400000D02*
X166562500Y-61322500D01*
X172200000Y-60562500D02*
X172600000Y-60562500D01*
X168275000Y-51275000D02*
X168275000Y-49500000D01*
X169500000Y-66000000D02*
X168250000Y-66000000D01*
X174270000Y-59685000D02*
X174750000Y-59205000D01*
X173750000Y-59210000D02*
X174745000Y-59210000D01*
X172980000Y-59980000D02*
X173230000Y-59730000D01*
X170600000Y-60562500D02*
X170600000Y-59990001D01*
X167500000Y-65000000D02*
X167250000Y-65000000D01*
X170200000Y-68550000D02*
X171750000Y-70100000D01*
X176000000Y-48920000D02*
X178890000Y-46030000D01*
X168750000Y-55500000D02*
X168250000Y-55500000D01*
X167370000Y-54620000D02*
X168250000Y-55500000D01*
X167301000Y-61551000D02*
X169746774Y-61551000D01*
X175250000Y-55750000D02*
X176000000Y-55000000D01*
X170200000Y-61095774D02*
X170201000Y-61096774D01*
X167150000Y-61400000D02*
X167301000Y-61551000D01*
X174750000Y-59205000D02*
X175045000Y-59205000D01*
X175045000Y-59205000D02*
X175500000Y-58750000D01*
X167301000Y-64949000D02*
X167250000Y-65000000D01*
X168250000Y-66000000D02*
X168000000Y-65750000D01*
X170320000Y-54010000D02*
X170320000Y-53320000D01*
X172600000Y-60562500D02*
X172600000Y-60360000D01*
X172904226Y-65000000D02*
X173437500Y-65000000D01*
X174270000Y-60250000D02*
X174270000Y-59685000D01*
X165250000Y-65000000D02*
X165000000Y-65250000D01*
X172850000Y-61400000D02*
X172500000Y-61750000D01*
X170200000Y-60562500D02*
X170200000Y-59989999D01*
%TO.N,+1V1*%
X172770000Y-70750000D02*
X172750000Y-70770000D01*
X170029899Y-55709899D02*
X170320000Y-56000000D01*
X171800000Y-60562500D02*
X171800000Y-61450000D01*
X171800000Y-59950000D02*
X171929000Y-59821000D01*
X169800000Y-58000000D02*
X169801000Y-57999000D01*
X172750000Y-70500000D02*
X172750000Y-70770000D01*
X171800000Y-60562500D02*
X171800000Y-59950000D01*
X170600000Y-67437500D02*
X170600000Y-68350000D01*
X169800000Y-58000000D02*
X169800000Y-57751000D01*
X171929000Y-59821000D02*
X172139000Y-59821000D01*
X171800000Y-61450000D02*
X171500000Y-61750000D01*
X169558429Y-55709899D02*
X170029899Y-55709899D01*
X173750000Y-70750000D02*
X172770000Y-70750000D01*
X169801000Y-57999000D02*
X169801000Y-56519000D01*
X172139000Y-59821000D02*
X172750000Y-59210000D01*
X169800000Y-60562500D02*
X169800000Y-58000000D01*
X170600000Y-68350000D02*
X172750000Y-70500000D01*
X169801000Y-56519000D02*
X170320000Y-56000000D01*
%TO.N,VBUS*%
X167500000Y-44750000D02*
X167500000Y-45750000D01*
X167550000Y-40120000D02*
X167550000Y-41045000D01*
X175600000Y-37400000D02*
X177130000Y-35870000D01*
X172450000Y-41045000D02*
X172214000Y-40809000D01*
X166000000Y-43250000D02*
X167500000Y-44750000D01*
X174133992Y-37400000D02*
X175600000Y-37400000D01*
X166000000Y-43250000D02*
X167550000Y-41700000D01*
X172214000Y-39319992D02*
X168350008Y-39319992D01*
X167550000Y-41700000D02*
X167550000Y-41045000D01*
X177130000Y-35870000D02*
X178890000Y-35870000D01*
X172214000Y-40809000D02*
X172214000Y-39319992D01*
X168350008Y-39319992D02*
X167550000Y-40120000D01*
X172214000Y-39319992D02*
X174133992Y-37400000D01*
%TO.N,XIN*%
X165750000Y-73300000D02*
X167700000Y-73300000D01*
X168919000Y-68620874D02*
X169400000Y-68139874D01*
X167700000Y-73300000D02*
X167800000Y-73200000D01*
X168919000Y-72081000D02*
X168919000Y-68620874D01*
X169400000Y-68139874D02*
X169400000Y-67437500D01*
X167800000Y-73200000D02*
X168919000Y-72081000D01*
%TO.N,Net-(C16-Pad2)*%
X170510000Y-70000000D02*
X170500000Y-70000000D01*
X171500000Y-73000000D02*
X170000000Y-71500000D01*
X169490000Y-70990000D02*
X170000000Y-71500000D01*
X172000000Y-73000000D02*
X171500000Y-73000000D01*
X170510000Y-70000000D02*
X170510000Y-70990000D01*
X170510000Y-70990000D02*
X170000000Y-71500000D01*
%TO.N,USB_D-*%
X170750000Y-40087000D02*
X170682000Y-40019000D01*
X173000000Y-52931802D02*
X173000000Y-56336397D01*
X170750000Y-41045000D02*
X170750000Y-40087000D01*
X170682000Y-40019000D02*
X169799000Y-40019000D01*
X173000000Y-56336397D02*
X171700000Y-57636397D01*
X171700000Y-58000000D02*
X171750000Y-57950000D01*
X169750000Y-40068000D02*
X169750000Y-41045000D01*
X170725000Y-42157501D02*
X170725000Y-50656802D01*
X170750000Y-41045000D02*
X170750000Y-42132501D01*
X171700000Y-57636397D02*
X171700000Y-58000000D01*
X169799000Y-40019000D02*
X169750000Y-40068000D01*
X170750000Y-42132501D02*
X170725000Y-42157501D01*
X170725000Y-50656802D02*
X173000000Y-52931802D01*
%TO.N,Net-(J1-CC2)*%
X168250000Y-43050000D02*
X168250000Y-41045000D01*
X168700000Y-43500000D02*
X168250000Y-43050000D01*
%TO.N,USB_D+*%
X170201000Y-42071000D02*
X169299000Y-42071000D01*
X172275000Y-56425000D02*
X170700000Y-58000000D01*
X170250000Y-42022000D02*
X170201000Y-42071000D01*
X170275000Y-42157501D02*
X170275000Y-50843198D01*
X170250000Y-42132501D02*
X170275000Y-42157501D01*
X169299000Y-42071000D02*
X169250000Y-42022000D01*
X172275000Y-52843198D02*
X172275000Y-56425000D01*
X170275000Y-50843198D02*
X172275000Y-52843198D01*
X169250000Y-42022000D02*
X169250000Y-41045000D01*
X170250000Y-41045000D02*
X170250000Y-42132501D01*
X170250000Y-41045000D02*
X170250000Y-42022000D01*
%TO.N,Net-(J1-CC1)*%
X171500000Y-42790000D02*
X171250000Y-42540000D01*
X171250000Y-42540000D02*
X171250000Y-41045000D01*
%TO.N,GPIO_02*%
X166562500Y-62600000D02*
X164999765Y-62600000D01*
X164999765Y-62600000D02*
X164799765Y-62400000D01*
%TO.N,GPIO_05*%
X163302000Y-59787800D02*
X162662000Y-59147800D01*
X166562500Y-63800000D02*
X163617100Y-63800000D01*
X162662000Y-59147800D02*
X162662000Y-52662000D01*
X163617100Y-63800000D02*
X163302000Y-63484900D01*
X163302000Y-63484900D02*
X163302000Y-59787800D01*
X162662000Y-52662000D02*
X161110000Y-51110000D01*
%TO.N,GPIO_0*%
X166562500Y-61800000D02*
X165899529Y-61800000D01*
X165899529Y-61800000D02*
X165575266Y-61475737D01*
%TO.N,GPIO_13*%
X162954550Y-74665450D02*
X161110000Y-76510000D01*
X167800000Y-67972774D02*
X167272774Y-68500000D01*
X165204550Y-68500000D02*
X162954550Y-70750000D01*
X167272774Y-68500000D02*
X165204550Y-68500000D01*
X162954550Y-70750000D02*
X162954550Y-74665450D01*
X167800000Y-67437500D02*
X167800000Y-67972774D01*
%TO.N,GPIO_01*%
X166562500Y-62200000D02*
X165451000Y-62200000D01*
X165451000Y-62200000D02*
X164751000Y-61500000D01*
%TO.N,GPIO_14*%
X161110000Y-81590000D02*
X163355550Y-79344450D01*
X163355550Y-70916100D02*
X165370650Y-68901000D01*
X165370650Y-68901000D02*
X167438874Y-68901000D01*
X163355550Y-79344450D02*
X163355550Y-70916100D01*
X167438874Y-68901000D02*
X168200000Y-68139874D01*
X168200000Y-68139874D02*
X168200000Y-67437500D01*
%TO.N,GPIO_06*%
X162901000Y-63651000D02*
X163450000Y-64200000D01*
X162901000Y-59953900D02*
X162901000Y-63651000D01*
X161110000Y-56190000D02*
X162261000Y-57341000D01*
X163450000Y-64200000D02*
X166562500Y-64200000D01*
X162261000Y-57341000D02*
X162261000Y-59313900D01*
X162261000Y-59313900D02*
X162901000Y-59953900D01*
%TO.N,GPIO_15*%
X167604974Y-69302000D02*
X168578487Y-68328487D01*
X165536750Y-69302000D02*
X167604974Y-69302000D01*
X163756550Y-81483450D02*
X163756550Y-71082200D01*
X168600000Y-68306974D02*
X168578487Y-68328487D01*
X168600000Y-67437500D02*
X168600000Y-68306974D01*
X168578487Y-68328487D02*
X168602000Y-68304974D01*
X161110000Y-84130000D02*
X163756550Y-81483450D01*
X163756550Y-71082200D02*
X165536750Y-69302000D01*
%TO.N,GPIO_03*%
X163464000Y-48384000D02*
X161110000Y-46030000D01*
X163464000Y-58815600D02*
X163464000Y-48384000D01*
X166562500Y-63000000D02*
X164500000Y-63000000D01*
X164151000Y-62651000D02*
X164151000Y-59502600D01*
X164151000Y-59502600D02*
X163464000Y-58815600D01*
X164500000Y-63000000D02*
X164151000Y-62651000D01*
%TO.N,GPIO_12*%
X161110000Y-73970000D02*
X162553550Y-72526450D01*
X165008100Y-68099000D02*
X166738500Y-68099000D01*
X162553550Y-70553550D02*
X165008100Y-68099000D01*
X162553550Y-72526450D02*
X162553550Y-70553550D01*
X161110000Y-73970000D02*
X161110000Y-73322900D01*
X166738500Y-68099000D02*
X167400000Y-67437500D01*
%TO.N,GPIO_08*%
X167333900Y-65401000D02*
X167098774Y-65401000D01*
X167097774Y-65400000D02*
X167098774Y-65401000D01*
X166562500Y-65400000D02*
X167097774Y-65400000D01*
X167500000Y-66220813D02*
X167500000Y-65567100D01*
X167500000Y-65567100D02*
X167333900Y-65401000D01*
%TO.N,GPIO_04*%
X163750000Y-59668700D02*
X163063000Y-58981700D01*
X163900000Y-63400000D02*
X163750000Y-63250000D01*
X163063000Y-58981700D02*
X163063000Y-50523000D01*
X166562500Y-63400000D02*
X163900000Y-63400000D01*
X163750000Y-63250000D02*
X163750000Y-59668700D01*
X163063000Y-50523000D02*
X161110000Y-48570000D01*
%TO.N,GPIO_07*%
X162500000Y-64000000D02*
X162500000Y-60120000D01*
X166562500Y-64600000D02*
X163100000Y-64600000D01*
X163100000Y-64600000D02*
X162500000Y-64000000D01*
X162500000Y-60120000D02*
X161110000Y-58730000D01*
%TO.N,GPIO_09*%
X165800000Y-65800000D02*
X165739000Y-65861000D01*
X165739000Y-65861000D02*
X162611000Y-65861000D01*
X161110000Y-64360000D02*
X161110000Y-63810000D01*
X166562500Y-65800000D02*
X165800000Y-65800000D01*
X162611000Y-65861000D02*
X161110000Y-64360000D01*
%TO.N,GPIO_10*%
X166562500Y-66200000D02*
X165967100Y-66200000D01*
X165905100Y-66262000D02*
X165488000Y-66262000D01*
X165488000Y-66262000D02*
X162860000Y-68890000D01*
X162860000Y-68890000D02*
X161110000Y-68890000D01*
X165967100Y-66200000D02*
X165905100Y-66262000D01*
%TO.N,GPIO_11*%
X161110000Y-71430000D02*
X165790000Y-66750000D01*
X166412500Y-66750000D02*
X166562500Y-66600000D01*
X165790000Y-66750000D02*
X166412500Y-66750000D01*
%TO.N,GPIO_24*%
X177338000Y-57742000D02*
X178890000Y-56190000D01*
X177338000Y-63094900D02*
X177338000Y-57742000D01*
X176632900Y-63800000D02*
X177338000Y-63094900D01*
X173437500Y-63800000D02*
X176632900Y-63800000D01*
%TO.N,GPIO_28_ADC_2*%
X173437500Y-62200000D02*
X175300000Y-62200000D01*
X175300000Y-62200000D02*
X175750000Y-61750000D01*
%TO.N,GPIO_23*%
X177739000Y-59881000D02*
X178890000Y-58730000D01*
X176800000Y-64200000D02*
X177739000Y-63261000D01*
X177739000Y-63261000D02*
X177739000Y-59881000D01*
X173437500Y-64200000D02*
X176800000Y-64200000D01*
%TO.N,GPIO_18*%
X177099000Y-74719000D02*
X177099000Y-70773200D01*
X173437500Y-67111700D02*
X173437500Y-66601000D01*
X177099000Y-70773200D02*
X173437500Y-67111700D01*
X178890000Y-76510000D02*
X177099000Y-74719000D01*
%TO.N,GPIO_16*%
X178380000Y-84130000D02*
X176250000Y-82000000D01*
X172199000Y-68051450D02*
X172199000Y-67973774D01*
X178890000Y-84130000D02*
X178380000Y-84130000D01*
X172199000Y-67973774D02*
X172200000Y-67972774D01*
X176250000Y-71250000D02*
X173500000Y-68500000D01*
X172647550Y-68500000D02*
X172199000Y-68051450D01*
X172200000Y-67972774D02*
X172200000Y-67437500D01*
X176250000Y-82000000D02*
X176250000Y-71250000D01*
X173500000Y-68500000D02*
X172647550Y-68500000D01*
%TO.N,GPIO_22*%
X173437500Y-64600000D02*
X178100000Y-64600000D01*
X178100000Y-64600000D02*
X178890000Y-63810000D01*
%TO.N,GPIO_20*%
X174604000Y-66264126D02*
X174604000Y-67144000D01*
X174604000Y-67144000D02*
X178890000Y-71430000D01*
X174139874Y-65800000D02*
X174604000Y-66264126D01*
X173437500Y-65800000D02*
X174139874Y-65800000D01*
%TO.N,GPIO_21*%
X176917100Y-68890000D02*
X175013550Y-66986450D01*
X174306974Y-65400000D02*
X175013550Y-66106576D01*
X178890000Y-68890000D02*
X176917100Y-68890000D01*
X175013550Y-66986450D02*
X175013550Y-66106576D01*
X173437500Y-65400000D02*
X174306974Y-65400000D01*
%TO.N,RUN*%
X171800000Y-66902226D02*
X172500000Y-66202226D01*
X171800000Y-67437500D02*
X171800000Y-66902226D01*
X172500000Y-66202226D02*
X172500000Y-65500000D01*
%TO.N,GPIO_26_ADC_0*%
X173437500Y-63000000D02*
X176750000Y-63000000D01*
X176750000Y-63000000D02*
X176937000Y-62813000D01*
X176937000Y-62813000D02*
X176937000Y-53063000D01*
X176937000Y-53063000D02*
X178890000Y-51110000D01*
%TO.N,GPIO_17*%
X172912500Y-67750000D02*
X172600000Y-67437500D01*
X176698000Y-70948000D02*
X173500000Y-67750000D01*
X172600000Y-67885350D02*
X172600000Y-67437500D01*
X178890000Y-81590000D02*
X176698000Y-79398000D01*
X173500000Y-67750000D02*
X172912500Y-67750000D01*
X176698000Y-79398000D02*
X176698000Y-70948000D01*
%TO.N,GPIO_29_ADC_3*%
X174450000Y-61800000D02*
X175000000Y-61250000D01*
X173437500Y-61800000D02*
X174450000Y-61800000D01*
%TO.N,GPIO_19*%
X178890000Y-73970000D02*
X177500000Y-72580000D01*
X174203000Y-67310100D02*
X174203000Y-66430226D01*
X177500000Y-72580000D02*
X177500000Y-70607100D01*
X177500000Y-70607100D02*
X174203000Y-67310100D01*
X174203000Y-66430226D02*
X173972774Y-66200000D01*
X173972774Y-66200000D02*
X173437500Y-66200000D01*
%TO.N,GPIO_27_ADC_1*%
X173437500Y-62600000D02*
X176400000Y-62600000D01*
X176536000Y-62464000D02*
X176536000Y-50924000D01*
X176400000Y-62600000D02*
X176536000Y-62464000D01*
X176536000Y-50924000D02*
X178890000Y-48570000D01*
%TO.N,SWD*%
X171400000Y-67437500D02*
X171400000Y-66374273D01*
X171400000Y-66374273D02*
X171341022Y-66315295D01*
%TO.N,SWCLK*%
X170549265Y-66498265D02*
X170549265Y-66200735D01*
X170549265Y-66200735D02*
X170746414Y-66200735D01*
X170796774Y-66699000D02*
X170750000Y-66699000D01*
X171000000Y-67437500D02*
X171000000Y-66902226D01*
X170750000Y-66699000D02*
X170549265Y-66498265D01*
X171000000Y-66902226D02*
X170796774Y-66699000D01*
%TO.N,Net-(U1-USB_DP)*%
X171000000Y-59320000D02*
X170700000Y-59020000D01*
X171000000Y-60562500D02*
X171000000Y-59320000D01*
%TO.N,Net-(U1-USB_DM)*%
X171400000Y-60562500D02*
X171400000Y-59320000D01*
X171400000Y-59320000D02*
X171700000Y-59020000D01*
%TO.N,XOUT*%
X169800000Y-68306974D02*
X169798000Y-68304974D01*
X169490000Y-70000000D02*
X169490000Y-68616974D01*
X169490000Y-68616974D02*
X169800000Y-68306974D01*
X169800000Y-68306974D02*
X169800000Y-67437500D01*
%TO.N,QSPI_SS*%
X164833900Y-58401000D02*
X166016800Y-58401000D01*
X166240000Y-54140000D02*
X166350000Y-54250000D01*
X166016800Y-58401000D02*
X166615800Y-59000000D01*
X164099000Y-57666100D02*
X164833900Y-58401000D01*
X166615800Y-59000000D02*
X167250000Y-59000000D01*
X164558551Y-55808551D02*
X164099000Y-56268102D01*
X167250000Y-59000000D02*
X167400000Y-59150000D01*
X164867102Y-55500000D02*
X164558551Y-55808551D01*
X165400000Y-55500000D02*
X165750000Y-55500000D01*
X167400000Y-59150000D02*
X167400000Y-60562500D01*
X166350000Y-54900000D02*
X166350000Y-54250000D01*
X165750000Y-55500000D02*
X166350000Y-54900000D01*
X164099000Y-56268102D02*
X164099000Y-57666100D01*
X165400000Y-55500000D02*
X164867102Y-55500000D01*
X166240000Y-53000000D02*
X166240000Y-54140000D01*
%TO.N,Net-(R7-Pad1)*%
X173500000Y-51250000D02*
X173500000Y-49600000D01*
X165750000Y-51750000D02*
X165330000Y-52170000D01*
X165330000Y-52170000D02*
X165330000Y-54250000D01*
%TO.N,QSPI_SD3*%
X169000000Y-56000000D02*
X168250000Y-56000000D01*
X169400000Y-56400000D02*
X169000000Y-56000000D01*
X169400000Y-60562500D02*
X169400000Y-56400000D01*
%TO.N,QSPI_SD1*%
X164500000Y-57500000D02*
X165000000Y-58000000D01*
X164500000Y-56434202D02*
X164500000Y-57500000D01*
X166182900Y-58000000D02*
X166682900Y-58500000D01*
X165400000Y-56000000D02*
X164934202Y-56000000D01*
X165000000Y-58000000D02*
X166182900Y-58000000D01*
X167682900Y-58500000D02*
X167800000Y-58617100D01*
X166682900Y-58500000D02*
X167682900Y-58500000D01*
X167800000Y-58617100D02*
X167800000Y-60562500D01*
X164934202Y-56000000D02*
X164500000Y-56434202D01*
%TO.N,QSPI_SD2*%
X166750000Y-58000000D02*
X167750000Y-58000000D01*
X166424000Y-57674000D02*
X166750000Y-58000000D01*
X168200000Y-58450000D02*
X168200000Y-60562500D01*
X166424000Y-57056898D02*
X166424000Y-57674000D01*
X165867102Y-56500000D02*
X166424000Y-57056898D01*
X167750000Y-58000000D02*
X168200000Y-58450000D01*
X165400000Y-56500000D02*
X165867102Y-56500000D01*
%TO.N,QSPI_SD0*%
X168250000Y-57000000D02*
X168600000Y-57350000D01*
X168600000Y-57350000D02*
X168600000Y-60562500D01*
%TO.N,QSPI_SCLK*%
X168250000Y-56500000D02*
X168715798Y-56500000D01*
X169000000Y-56784202D02*
X169000000Y-60562500D01*
X168715798Y-56500000D02*
X169000000Y-56784202D01*
%TD*%
%TA.AperFunction,Conductor*%
%TO.N,GND*%
G36*
X171618654Y-68100371D02*
G01*
X171619190Y-68100301D01*
X171619477Y-68100385D01*
X171619750Y-68100390D01*
X171635496Y-68102930D01*
X171680009Y-68122585D01*
X171705135Y-68125500D01*
X171775380Y-68125499D01*
X171785189Y-68127082D01*
X171848237Y-68157193D01*
X171872825Y-68187499D01*
X171918527Y-68266658D01*
X171918529Y-68266661D01*
X171918530Y-68266662D01*
X172432337Y-68780469D01*
X172494020Y-68816082D01*
X172512262Y-68826614D01*
X172601406Y-68850500D01*
X173303456Y-68850500D01*
X173370495Y-68870185D01*
X173391137Y-68886819D01*
X175863181Y-71358862D01*
X175896666Y-71420185D01*
X175899500Y-71446543D01*
X175899500Y-82046146D01*
X175905467Y-82068413D01*
X175905467Y-82068415D01*
X175905468Y-82068415D01*
X175923386Y-82135289D01*
X175923387Y-82135290D01*
X175969527Y-82215208D01*
X175969531Y-82215213D01*
X177753181Y-83998863D01*
X177786666Y-84060186D01*
X177789500Y-84086544D01*
X177789500Y-84216610D01*
X177804678Y-84312445D01*
X177816598Y-84387701D01*
X177850724Y-84492730D01*
X177870128Y-84552447D01*
X177948768Y-84706788D01*
X178018390Y-84802614D01*
X178041870Y-84868421D01*
X178026045Y-84936475D01*
X177975939Y-84985170D01*
X177918072Y-84999500D01*
X173266819Y-84999500D01*
X173199780Y-84979815D01*
X173154025Y-84927011D01*
X173144081Y-84857853D01*
X173173106Y-84794297D01*
X173193929Y-84775185D01*
X173256928Y-84729414D01*
X173379414Y-84606928D01*
X173481232Y-84466788D01*
X173559873Y-84312445D01*
X173613402Y-84147701D01*
X173640500Y-83976611D01*
X173640500Y-83803389D01*
X173613402Y-83632299D01*
X173559873Y-83467555D01*
X173481232Y-83313212D01*
X173379414Y-83173072D01*
X173256928Y-83050586D01*
X173116788Y-82948768D01*
X172962445Y-82870127D01*
X172797701Y-82816598D01*
X172797699Y-82816597D01*
X172797698Y-82816597D01*
X172666271Y-82795781D01*
X172626611Y-82789500D01*
X172453389Y-82789500D01*
X172413728Y-82795781D01*
X172282302Y-82816597D01*
X172117552Y-82870128D01*
X171963211Y-82948768D01*
X171883256Y-83006859D01*
X171823072Y-83050586D01*
X171823070Y-83050588D01*
X171823069Y-83050588D01*
X171700588Y-83173069D01*
X171700588Y-83173070D01*
X171700586Y-83173072D01*
X171689181Y-83188770D01*
X171598768Y-83313211D01*
X171520128Y-83467552D01*
X171520127Y-83467554D01*
X171520127Y-83467555D01*
X171510594Y-83496893D01*
X171466597Y-83632302D01*
X171440117Y-83799493D01*
X171439500Y-83803389D01*
X171439500Y-83976611D01*
X171466598Y-84147701D01*
X171520127Y-84312445D01*
X171598768Y-84466788D01*
X171700586Y-84606928D01*
X171823072Y-84729414D01*
X171886068Y-84775183D01*
X171928732Y-84830512D01*
X171934711Y-84900125D01*
X171902105Y-84961920D01*
X171841266Y-84996278D01*
X171813181Y-84999500D01*
X170741861Y-84999500D01*
X170674822Y-84979815D01*
X170629067Y-84927011D01*
X170618243Y-84865774D01*
X170618533Y-84862085D01*
X170129410Y-84372962D01*
X170192993Y-84355925D01*
X170307007Y-84290099D01*
X170400099Y-84197007D01*
X170465925Y-84082993D01*
X170482962Y-84019409D01*
X170972085Y-84508532D01*
X170983568Y-84492730D01*
X171065745Y-84331452D01*
X171065748Y-84331444D01*
X171121682Y-84159293D01*
X171150000Y-83980506D01*
X171150000Y-83799493D01*
X171121682Y-83620706D01*
X171065748Y-83448555D01*
X171065747Y-83448552D01*
X170983571Y-83287275D01*
X170983566Y-83287267D01*
X170972085Y-83271466D01*
X170482962Y-83760589D01*
X170465925Y-83697007D01*
X170400099Y-83582993D01*
X170307007Y-83489901D01*
X170192993Y-83424075D01*
X170129409Y-83407037D01*
X170618533Y-82917913D01*
X170602730Y-82906431D01*
X170441447Y-82824252D01*
X170441444Y-82824251D01*
X170269293Y-82768317D01*
X170090506Y-82740000D01*
X169909494Y-82740000D01*
X169730706Y-82768317D01*
X169558555Y-82824251D01*
X169558547Y-82824254D01*
X169397269Y-82906432D01*
X169381466Y-82917912D01*
X169381466Y-82917913D01*
X169870591Y-83407037D01*
X169807007Y-83424075D01*
X169692993Y-83489901D01*
X169599901Y-83582993D01*
X169534075Y-83697007D01*
X169517037Y-83760590D01*
X169027913Y-83271466D01*
X169027912Y-83271466D01*
X169016432Y-83287269D01*
X168934254Y-83448547D01*
X168934251Y-83448555D01*
X168878317Y-83620706D01*
X168850000Y-83799493D01*
X168850000Y-83980506D01*
X168878317Y-84159293D01*
X168934251Y-84331444D01*
X168934252Y-84331447D01*
X169016431Y-84492730D01*
X169027913Y-84508532D01*
X169027913Y-84508533D01*
X169517037Y-84019409D01*
X169534075Y-84082993D01*
X169599901Y-84197007D01*
X169692993Y-84290099D01*
X169807007Y-84355925D01*
X169870590Y-84372962D01*
X169381466Y-84862085D01*
X169381757Y-84865771D01*
X169367393Y-84934149D01*
X169318341Y-84983905D01*
X169258139Y-84999500D01*
X168664542Y-84999500D01*
X168597503Y-84979815D01*
X168551748Y-84927011D01*
X168541804Y-84857853D01*
X168544012Y-84849804D01*
X168543584Y-84849719D01*
X168560499Y-84764678D01*
X168560500Y-84764676D01*
X168560500Y-83015323D01*
X168555336Y-82989364D01*
X168555336Y-82989363D01*
X168545967Y-82942264D01*
X168545966Y-82942260D01*
X168529697Y-82917912D01*
X168490601Y-82859399D01*
X168407740Y-82804034D01*
X168407739Y-82804033D01*
X168407735Y-82804032D01*
X168334677Y-82789500D01*
X168334674Y-82789500D01*
X166585326Y-82789500D01*
X166585323Y-82789500D01*
X166512264Y-82804032D01*
X166512260Y-82804033D01*
X166429399Y-82859399D01*
X166374033Y-82942260D01*
X166374032Y-82942264D01*
X166359500Y-83015321D01*
X166359500Y-84764678D01*
X166376416Y-84849719D01*
X166372431Y-84850511D01*
X166377493Y-84897490D01*
X166346231Y-84959976D01*
X166286150Y-84995642D01*
X166255458Y-84999500D01*
X162081928Y-84999500D01*
X162014889Y-84979815D01*
X161969134Y-84927011D01*
X161959190Y-84857853D01*
X161981610Y-84802614D01*
X161987653Y-84794297D01*
X162051232Y-84706788D01*
X162129873Y-84552445D01*
X162183402Y-84387701D01*
X162210500Y-84216611D01*
X162210500Y-84043389D01*
X162183402Y-83872299D01*
X162129873Y-83707555D01*
X162129869Y-83707547D01*
X162128401Y-83703029D01*
X162126406Y-83633188D01*
X162158649Y-83577031D01*
X164037020Y-81698662D01*
X164083164Y-81618738D01*
X164107050Y-81529594D01*
X164107050Y-74816102D01*
X171225000Y-74816102D01*
X171235131Y-74900467D01*
X171235131Y-74900468D01*
X171288077Y-75034729D01*
X171375278Y-75149721D01*
X171490270Y-75236922D01*
X171624532Y-75289868D01*
X171708898Y-75300000D01*
X171750000Y-75300000D01*
X172250000Y-75300000D01*
X172291102Y-75300000D01*
X172375467Y-75289868D01*
X172375468Y-75289868D01*
X172509729Y-75236922D01*
X172624721Y-75149721D01*
X172711922Y-75034729D01*
X172764868Y-74900468D01*
X172764868Y-74900467D01*
X172775000Y-74816102D01*
X172775000Y-74800000D01*
X172250000Y-74800000D01*
X172250000Y-75300000D01*
X171750000Y-75300000D01*
X171750000Y-74800000D01*
X171225000Y-74800000D01*
X171225000Y-74816102D01*
X164107050Y-74816102D01*
X164107050Y-71483897D01*
X164975000Y-71483897D01*
X164975000Y-71500000D01*
X165500000Y-71500000D01*
X166000000Y-71500000D01*
X166525000Y-71500000D01*
X166525000Y-71483897D01*
X166514868Y-71399532D01*
X166514868Y-71399531D01*
X166461922Y-71265270D01*
X166395864Y-71178159D01*
X166395863Y-71178158D01*
X166374722Y-71150279D01*
X166317579Y-71106946D01*
X166800000Y-71106946D01*
X166800000Y-71250000D01*
X167550000Y-71250000D01*
X167550000Y-70600000D01*
X167306946Y-70600000D01*
X167218556Y-70610613D01*
X167077904Y-70666079D01*
X166957435Y-70757435D01*
X166866079Y-70877904D01*
X166810613Y-71018556D01*
X166800000Y-71106946D01*
X166317579Y-71106946D01*
X166259729Y-71063077D01*
X166125467Y-71010131D01*
X166041102Y-71000000D01*
X166000000Y-71000000D01*
X166000000Y-71500000D01*
X165500000Y-71500000D01*
X165500000Y-71000000D01*
X165458898Y-71000000D01*
X165374532Y-71010131D01*
X165374531Y-71010131D01*
X165240270Y-71063077D01*
X165125278Y-71150278D01*
X165038077Y-71265270D01*
X164985131Y-71399531D01*
X164985131Y-71399532D01*
X164975000Y-71483897D01*
X164107050Y-71483897D01*
X164107050Y-71278744D01*
X164126735Y-71211705D01*
X164143369Y-71191063D01*
X165645613Y-69688819D01*
X165706936Y-69655334D01*
X165733294Y-69652500D01*
X167651116Y-69652500D01*
X167651118Y-69652500D01*
X167740262Y-69628614D01*
X167820186Y-69582470D01*
X168356819Y-69045835D01*
X168418142Y-69012351D01*
X168487833Y-69017335D01*
X168543767Y-69059206D01*
X168568184Y-69124671D01*
X168568500Y-69133517D01*
X168568500Y-70502186D01*
X168548815Y-70569225D01*
X168496011Y-70614980D01*
X168426853Y-70624924D01*
X168399011Y-70617541D01*
X168381444Y-70610614D01*
X168293054Y-70600000D01*
X168050000Y-70600000D01*
X168050000Y-71376000D01*
X168030315Y-71443039D01*
X167977511Y-71488794D01*
X167926000Y-71500000D01*
X167800000Y-71500000D01*
X167800000Y-71626000D01*
X167780315Y-71693039D01*
X167727511Y-71738794D01*
X167676000Y-71750000D01*
X166800000Y-71750000D01*
X166800000Y-71893053D01*
X166810613Y-71981443D01*
X166866079Y-72122095D01*
X166957436Y-72242566D01*
X167009523Y-72282065D01*
X167051047Y-72338257D01*
X167055598Y-72407979D01*
X167021733Y-72469093D01*
X167008910Y-72480135D01*
X166992452Y-72492455D01*
X166906206Y-72607664D01*
X166906202Y-72607671D01*
X166855908Y-72742517D01*
X166849501Y-72802116D01*
X166849500Y-72802135D01*
X166849500Y-72825500D01*
X166846949Y-72834185D01*
X166848238Y-72843147D01*
X166837259Y-72867187D01*
X166829815Y-72892539D01*
X166822974Y-72898466D01*
X166819213Y-72906703D01*
X166796978Y-72920992D01*
X166777011Y-72938294D01*
X166766496Y-72940581D01*
X166760435Y-72944477D01*
X166725500Y-72949500D01*
X166546783Y-72949500D01*
X166479744Y-72929815D01*
X166433989Y-72877011D01*
X166430610Y-72868857D01*
X166421628Y-72844774D01*
X166339687Y-72735313D01*
X166230226Y-72653372D01*
X166230225Y-72653371D01*
X166228862Y-72652351D01*
X166186991Y-72596417D01*
X166182007Y-72526726D01*
X166215492Y-72465403D01*
X166252400Y-72441196D01*
X166252335Y-72441080D01*
X166254031Y-72440125D01*
X166257688Y-72437728D01*
X166259725Y-72436924D01*
X166259729Y-72436922D01*
X166374721Y-72349721D01*
X166461922Y-72234729D01*
X166514868Y-72100468D01*
X166514868Y-72100467D01*
X166525000Y-72016102D01*
X166525000Y-72000000D01*
X164975000Y-72000000D01*
X164975000Y-72016102D01*
X164985131Y-72100467D01*
X164985131Y-72100468D01*
X165038077Y-72234729D01*
X165125278Y-72349721D01*
X165240270Y-72436922D01*
X165240272Y-72436923D01*
X165242315Y-72437729D01*
X165243904Y-72438965D01*
X165247665Y-72441080D01*
X165247347Y-72441644D01*
X165297460Y-72480635D01*
X165320653Y-72546542D01*
X165304533Y-72614527D01*
X165271137Y-72652351D01*
X165160313Y-72735313D01*
X165078373Y-72844771D01*
X165030587Y-72972889D01*
X165024500Y-73029498D01*
X165024500Y-73570481D01*
X165024501Y-73570490D01*
X165030587Y-73627114D01*
X165062786Y-73713439D01*
X165078372Y-73755226D01*
X165160313Y-73864687D01*
X165269774Y-73946628D01*
X165397886Y-73994412D01*
X165454515Y-74000500D01*
X166045484Y-74000499D01*
X166102114Y-73994412D01*
X166230226Y-73946628D01*
X166339687Y-73864687D01*
X166421628Y-73755226D01*
X166430602Y-73731163D01*
X166443871Y-73713439D01*
X166453070Y-73693297D01*
X166464401Y-73686014D01*
X166472473Y-73675233D01*
X166493218Y-73667495D01*
X166511848Y-73655523D01*
X166533766Y-73652371D01*
X166537937Y-73650816D01*
X166546783Y-73650500D01*
X166767209Y-73650500D01*
X166834248Y-73670185D01*
X166880003Y-73722989D01*
X166883391Y-73731167D01*
X166906202Y-73792328D01*
X166906206Y-73792335D01*
X166992452Y-73907544D01*
X166992455Y-73907547D01*
X167107664Y-73993793D01*
X167107671Y-73993797D01*
X167242517Y-74044091D01*
X167242516Y-74044091D01*
X167249444Y-74044835D01*
X167302127Y-74050500D01*
X168297872Y-74050499D01*
X168357483Y-74044091D01*
X168492331Y-73993796D01*
X168607546Y-73907546D01*
X168693796Y-73792331D01*
X168744091Y-73657483D01*
X168750500Y-73597873D01*
X168750500Y-73593053D01*
X169000000Y-73593053D01*
X169010613Y-73681443D01*
X169066079Y-73822095D01*
X169157435Y-73942564D01*
X169277904Y-74033920D01*
X169418556Y-74089386D01*
X169506946Y-74100000D01*
X169750000Y-74100000D01*
X170250000Y-74100000D01*
X170493054Y-74100000D01*
X170581443Y-74089386D01*
X170722095Y-74033920D01*
X170842564Y-73942564D01*
X170933920Y-73822095D01*
X170989386Y-73681443D01*
X171000000Y-73593053D01*
X171000000Y-73450000D01*
X170250000Y-73450000D01*
X170250000Y-74100000D01*
X169750000Y-74100000D01*
X169750000Y-73450000D01*
X169000000Y-73450000D01*
X169000000Y-73593053D01*
X168750500Y-73593053D01*
X168750499Y-73196683D01*
X168750499Y-72798807D01*
X168751620Y-72798807D01*
X168766634Y-72735292D01*
X168786679Y-72709001D01*
X168788914Y-72706766D01*
X168850226Y-72673271D01*
X168919918Y-72678240D01*
X168975861Y-72720098D01*
X169000293Y-72785557D01*
X168999873Y-72803225D01*
X169000221Y-72803246D01*
X169000000Y-72806937D01*
X169000000Y-72950000D01*
X170902957Y-72950000D01*
X170969996Y-72969685D01*
X170990638Y-72986319D01*
X171243530Y-73239211D01*
X171277015Y-73300534D01*
X171279138Y-73313637D01*
X171280586Y-73327110D01*
X171280586Y-73327111D01*
X171307265Y-73398638D01*
X171328372Y-73455226D01*
X171394099Y-73543028D01*
X171410314Y-73564688D01*
X171521136Y-73647648D01*
X171563008Y-73703581D01*
X171567992Y-73773273D01*
X171534507Y-73834596D01*
X171497600Y-73858805D01*
X171497665Y-73858920D01*
X171495991Y-73859861D01*
X171492325Y-73862266D01*
X171490277Y-73863073D01*
X171490270Y-73863077D01*
X171375278Y-73950278D01*
X171288077Y-74065270D01*
X171235131Y-74199531D01*
X171235131Y-74199532D01*
X171225000Y-74283897D01*
X171225000Y-74300000D01*
X172775000Y-74300000D01*
X172775000Y-74283897D01*
X172764868Y-74199532D01*
X172764868Y-74199531D01*
X172711922Y-74065270D01*
X172624721Y-73950278D01*
X172509729Y-73863077D01*
X172509720Y-73863072D01*
X172507678Y-73862267D01*
X172506089Y-73861031D01*
X172502335Y-73858920D01*
X172502652Y-73858356D01*
X172452536Y-73819359D01*
X172429345Y-73753450D01*
X172445469Y-73685466D01*
X172478863Y-73647648D01*
X172480226Y-73646628D01*
X172589687Y-73564687D01*
X172671628Y-73455226D01*
X172719412Y-73327114D01*
X172722270Y-73300534D01*
X172725499Y-73270501D01*
X172725499Y-73270494D01*
X172725500Y-73270485D01*
X172725499Y-72729516D01*
X172721254Y-72690025D01*
X172719412Y-72672885D01*
X172672287Y-72546542D01*
X172671628Y-72544774D01*
X172589687Y-72435313D01*
X172589685Y-72435311D01*
X172589684Y-72435310D01*
X172549689Y-72405370D01*
X172507818Y-72349437D01*
X172500246Y-72307467D01*
X173000000Y-72307467D01*
X173002729Y-72307212D01*
X173127919Y-72263405D01*
X173234641Y-72184641D01*
X173313403Y-72077922D01*
X173347668Y-71980000D01*
X173000000Y-71980000D01*
X173000000Y-72307467D01*
X172500246Y-72307467D01*
X172500000Y-72306104D01*
X172500000Y-71980000D01*
X171874000Y-71980000D01*
X171806961Y-71960315D01*
X171761206Y-71907511D01*
X171750000Y-71856000D01*
X171750000Y-71604000D01*
X171769685Y-71536961D01*
X171822489Y-71491206D01*
X171874000Y-71480000D01*
X173347668Y-71480000D01*
X173314819Y-71386121D01*
X173311258Y-71316343D01*
X173345987Y-71255715D01*
X173407980Y-71223488D01*
X173477556Y-71229893D01*
X173493858Y-71237778D01*
X173537515Y-71262984D01*
X173677525Y-71300500D01*
X173677528Y-71300500D01*
X173822472Y-71300500D01*
X173822475Y-71300500D01*
X173962485Y-71262984D01*
X174088015Y-71190509D01*
X174190509Y-71088015D01*
X174262984Y-70962485D01*
X174300500Y-70822475D01*
X174300500Y-70677525D01*
X174262984Y-70537515D01*
X174245842Y-70507825D01*
X174190511Y-70411988D01*
X174190506Y-70411982D01*
X174088017Y-70309493D01*
X174088011Y-70309488D01*
X173962488Y-70237017D01*
X173962489Y-70237017D01*
X173951006Y-70233940D01*
X173822475Y-70199500D01*
X173677525Y-70199500D01*
X173548993Y-70233940D01*
X173537511Y-70237017D01*
X173411988Y-70309488D01*
X173411981Y-70309494D01*
X173369543Y-70351932D01*
X173308220Y-70385416D01*
X173238528Y-70380431D01*
X173194182Y-70351931D01*
X173152396Y-70310145D01*
X173152393Y-70310143D01*
X173152391Y-70310141D01*
X173042175Y-70253983D01*
X173031453Y-70252284D01*
X172968320Y-70222353D01*
X172963175Y-70217493D01*
X171073302Y-68327620D01*
X171039817Y-68266297D01*
X171044801Y-68196605D01*
X171086673Y-68140672D01*
X171111129Y-68126402D01*
X171119760Y-68122611D01*
X171119991Y-68122585D01*
X171150146Y-68109269D01*
X171184671Y-68104821D01*
X171219190Y-68100301D01*
X171219361Y-68100351D01*
X171219442Y-68100341D01*
X171219629Y-68100430D01*
X171250086Y-68109373D01*
X171280007Y-68122584D01*
X171280009Y-68122585D01*
X171305135Y-68125500D01*
X171494864Y-68125499D01*
X171519991Y-68122585D01*
X171549913Y-68109372D01*
X171567863Y-68107022D01*
X171584461Y-68099784D01*
X171618654Y-68100371D01*
G37*
%TD.AperFunction*%
%TA.AperFunction,Conductor*%
G36*
X177253703Y-75369831D02*
G01*
X177260181Y-75375863D01*
X177841347Y-75957029D01*
X177874832Y-76018352D01*
X177871597Y-76083028D01*
X177816597Y-76252301D01*
X177816597Y-76252304D01*
X177789500Y-76423389D01*
X177789500Y-76596611D01*
X177816598Y-76767701D01*
X177870127Y-76932445D01*
X177948768Y-77086788D01*
X178050586Y-77226928D01*
X178173072Y-77349414D01*
X178313212Y-77451232D01*
X178467555Y-77529873D01*
X178632299Y-77583402D01*
X178803389Y-77610500D01*
X178803390Y-77610500D01*
X178976610Y-77610500D01*
X178976611Y-77610500D01*
X179147701Y-77583402D01*
X179312445Y-77529873D01*
X179466788Y-77451232D01*
X179606928Y-77349414D01*
X179729414Y-77226928D01*
X179775183Y-77163931D01*
X179830512Y-77121268D01*
X179900125Y-77115289D01*
X179961920Y-77147895D01*
X179996278Y-77208734D01*
X179999500Y-77236819D01*
X179999500Y-78308138D01*
X179979815Y-78375177D01*
X179927011Y-78420932D01*
X179865773Y-78431756D01*
X179862086Y-78431465D01*
X179372962Y-78920589D01*
X179355925Y-78857007D01*
X179290099Y-78742993D01*
X179197007Y-78649901D01*
X179082993Y-78584075D01*
X179019409Y-78567037D01*
X179508533Y-78077913D01*
X179492730Y-78066431D01*
X179331447Y-77984252D01*
X179331444Y-77984251D01*
X179159293Y-77928317D01*
X178980506Y-77900000D01*
X178799494Y-77900000D01*
X178620706Y-77928317D01*
X178448555Y-77984251D01*
X178448547Y-77984254D01*
X178287269Y-78066432D01*
X178271466Y-78077912D01*
X178271466Y-78077913D01*
X178760591Y-78567037D01*
X178697007Y-78584075D01*
X178582993Y-78649901D01*
X178489901Y-78742993D01*
X178424075Y-78857007D01*
X178407037Y-78920590D01*
X177917913Y-78431466D01*
X177917912Y-78431466D01*
X177906432Y-78447269D01*
X177824254Y-78608547D01*
X177824251Y-78608555D01*
X177768317Y-78780706D01*
X177740000Y-78959493D01*
X177740000Y-79140506D01*
X177768317Y-79319293D01*
X177824251Y-79491444D01*
X177824252Y-79491447D01*
X177906431Y-79652730D01*
X177917913Y-79668532D01*
X177917913Y-79668533D01*
X178407037Y-79179409D01*
X178424075Y-79242993D01*
X178489901Y-79357007D01*
X178582993Y-79450099D01*
X178697007Y-79515925D01*
X178760590Y-79532962D01*
X178271466Y-80022085D01*
X178271466Y-80022086D01*
X178287267Y-80033566D01*
X178287275Y-80033571D01*
X178448552Y-80115747D01*
X178448555Y-80115748D01*
X178620706Y-80171682D01*
X178799494Y-80200000D01*
X178980506Y-80200000D01*
X179159293Y-80171682D01*
X179331444Y-80115748D01*
X179331452Y-80115745D01*
X179492730Y-80033568D01*
X179508532Y-80022085D01*
X179508533Y-80022085D01*
X179019410Y-79532962D01*
X179082993Y-79515925D01*
X179197007Y-79450099D01*
X179290099Y-79357007D01*
X179355925Y-79242993D01*
X179372962Y-79179409D01*
X179862084Y-79668532D01*
X179865772Y-79668242D01*
X179934149Y-79682606D01*
X179983905Y-79731658D01*
X179999500Y-79791860D01*
X179999500Y-80863180D01*
X179979815Y-80930219D01*
X179927011Y-80975974D01*
X179857853Y-80985918D01*
X179794297Y-80956893D01*
X179775183Y-80936066D01*
X179729418Y-80873078D01*
X179729414Y-80873072D01*
X179606928Y-80750586D01*
X179466788Y-80648768D01*
X179312445Y-80570127D01*
X179147701Y-80516598D01*
X179147699Y-80516597D01*
X179147698Y-80516597D01*
X179016271Y-80495781D01*
X178976611Y-80489500D01*
X178803389Y-80489500D01*
X178771192Y-80494599D01*
X178632301Y-80516597D01*
X178463028Y-80571597D01*
X178393186Y-80573592D01*
X178337029Y-80541347D01*
X177084819Y-79289137D01*
X177070115Y-79262209D01*
X177053523Y-79236391D01*
X177052631Y-79230190D01*
X177051334Y-79227814D01*
X177048500Y-79201456D01*
X177048500Y-75463544D01*
X177068185Y-75396505D01*
X177120989Y-75350750D01*
X177190147Y-75340806D01*
X177253703Y-75369831D01*
G37*
%TD.AperFunction*%
%TA.AperFunction,Conductor*%
G36*
X162924384Y-75293811D02*
G01*
X162980317Y-75335683D01*
X163004734Y-75401147D01*
X163005050Y-75409993D01*
X163005050Y-79147906D01*
X162985365Y-79214945D01*
X162968731Y-79235587D01*
X161662970Y-80541347D01*
X161601647Y-80574832D01*
X161536971Y-80571597D01*
X161367698Y-80516597D01*
X161236271Y-80495781D01*
X161196611Y-80489500D01*
X161023389Y-80489500D01*
X160983728Y-80495781D01*
X160852302Y-80516597D01*
X160687552Y-80570128D01*
X160533211Y-80648768D01*
X160453256Y-80706859D01*
X160393072Y-80750586D01*
X160393070Y-80750588D01*
X160393069Y-80750588D01*
X160270588Y-80873069D01*
X160270581Y-80873078D01*
X160224817Y-80936066D01*
X160169487Y-80978732D01*
X160099874Y-80984710D01*
X160038079Y-80952104D01*
X160003722Y-80891265D01*
X160000500Y-80863180D01*
X160000500Y-79791861D01*
X160020185Y-79724822D01*
X160072989Y-79679067D01*
X160134229Y-79668243D01*
X160137913Y-79668533D01*
X160627037Y-79179409D01*
X160644075Y-79242993D01*
X160709901Y-79357007D01*
X160802993Y-79450099D01*
X160917007Y-79515925D01*
X160980590Y-79532962D01*
X160491466Y-80022085D01*
X160491466Y-80022086D01*
X160507267Y-80033566D01*
X160507275Y-80033571D01*
X160668552Y-80115747D01*
X160668555Y-80115748D01*
X160840706Y-80171682D01*
X161019494Y-80200000D01*
X161200506Y-80200000D01*
X161379293Y-80171682D01*
X161551444Y-80115748D01*
X161551452Y-80115745D01*
X161712730Y-80033568D01*
X161728532Y-80022085D01*
X161728533Y-80022085D01*
X161239410Y-79532962D01*
X161302993Y-79515925D01*
X161417007Y-79450099D01*
X161510099Y-79357007D01*
X161575925Y-79242993D01*
X161592962Y-79179410D01*
X162082085Y-79668533D01*
X162082085Y-79668532D01*
X162093568Y-79652730D01*
X162175745Y-79491452D01*
X162175748Y-79491444D01*
X162231682Y-79319293D01*
X162260000Y-79140506D01*
X162260000Y-78959493D01*
X162231682Y-78780706D01*
X162175748Y-78608555D01*
X162175747Y-78608552D01*
X162093571Y-78447275D01*
X162093566Y-78447267D01*
X162082085Y-78431466D01*
X161592962Y-78920589D01*
X161575925Y-78857007D01*
X161510099Y-78742993D01*
X161417007Y-78649901D01*
X161302993Y-78584075D01*
X161239409Y-78567037D01*
X161728533Y-78077913D01*
X161712730Y-78066431D01*
X161551447Y-77984252D01*
X161551444Y-77984251D01*
X161379293Y-77928317D01*
X161200506Y-77900000D01*
X161019494Y-77900000D01*
X160840706Y-77928317D01*
X160668555Y-77984251D01*
X160668547Y-77984254D01*
X160507269Y-78066432D01*
X160491466Y-78077912D01*
X160491466Y-78077913D01*
X160980591Y-78567037D01*
X160917007Y-78584075D01*
X160802993Y-78649901D01*
X160709901Y-78742993D01*
X160644075Y-78857007D01*
X160627037Y-78920590D01*
X160137913Y-78431466D01*
X160134229Y-78431756D01*
X160120618Y-78428896D01*
X160106853Y-78430876D01*
X160087101Y-78421855D01*
X160065852Y-78417392D01*
X160055948Y-78407628D01*
X160043297Y-78401851D01*
X160031556Y-78383582D01*
X160016095Y-78368340D01*
X160012268Y-78353569D01*
X160005523Y-78343073D01*
X160000500Y-78308138D01*
X160000500Y-77236819D01*
X160020185Y-77169780D01*
X160072989Y-77124025D01*
X160142147Y-77114081D01*
X160205703Y-77143106D01*
X160224814Y-77163929D01*
X160270586Y-77226928D01*
X160393072Y-77349414D01*
X160533212Y-77451232D01*
X160687555Y-77529873D01*
X160852299Y-77583402D01*
X161023389Y-77610500D01*
X161023390Y-77610500D01*
X161196610Y-77610500D01*
X161196611Y-77610500D01*
X161367701Y-77583402D01*
X161532445Y-77529873D01*
X161686788Y-77451232D01*
X161826928Y-77349414D01*
X161949414Y-77226928D01*
X162051232Y-77086788D01*
X162129873Y-76932445D01*
X162183402Y-76767701D01*
X162210500Y-76596611D01*
X162210500Y-76423389D01*
X162183402Y-76252299D01*
X162129873Y-76087555D01*
X162129869Y-76087547D01*
X162128401Y-76083029D01*
X162126406Y-76013188D01*
X162158649Y-75957031D01*
X162793370Y-75322311D01*
X162854692Y-75288827D01*
X162924384Y-75293811D01*
G37*
%TD.AperFunction*%
%TA.AperFunction,Conductor*%
G36*
X162445997Y-66170458D02*
G01*
X162475712Y-66187614D01*
X162564856Y-66211500D01*
X162564857Y-66211500D01*
X162657144Y-66211500D01*
X164743457Y-66211500D01*
X164810496Y-66231185D01*
X164856251Y-66283989D01*
X164866195Y-66353147D01*
X164837170Y-66416703D01*
X164831139Y-66423179D01*
X163782636Y-67471682D01*
X162751137Y-68503181D01*
X162689814Y-68536666D01*
X162663456Y-68539500D01*
X162242519Y-68539500D01*
X162175480Y-68519815D01*
X162132034Y-68471795D01*
X162051231Y-68313211D01*
X161949414Y-68173072D01*
X161826928Y-68050586D01*
X161686788Y-67948768D01*
X161532445Y-67870127D01*
X161367701Y-67816598D01*
X161367699Y-67816597D01*
X161367698Y-67816597D01*
X161236271Y-67795781D01*
X161196611Y-67789500D01*
X161023389Y-67789500D01*
X160983728Y-67795781D01*
X160852302Y-67816597D01*
X160687552Y-67870128D01*
X160533211Y-67948768D01*
X160470003Y-67994692D01*
X160393072Y-68050586D01*
X160393070Y-68050588D01*
X160393069Y-68050588D01*
X160270588Y-68173069D01*
X160270581Y-68173078D01*
X160224817Y-68236066D01*
X160169487Y-68278732D01*
X160099874Y-68284710D01*
X160038079Y-68252104D01*
X160003722Y-68191265D01*
X160000500Y-68163180D01*
X160000500Y-67091861D01*
X160020185Y-67024822D01*
X160072989Y-66979067D01*
X160134229Y-66968243D01*
X160137913Y-66968533D01*
X160627037Y-66479409D01*
X160644075Y-66542993D01*
X160709901Y-66657007D01*
X160802993Y-66750099D01*
X160917007Y-66815925D01*
X160980590Y-66832962D01*
X160491466Y-67322085D01*
X160491466Y-67322086D01*
X160507267Y-67333566D01*
X160507275Y-67333571D01*
X160668552Y-67415747D01*
X160668555Y-67415748D01*
X160840706Y-67471682D01*
X161019494Y-67500000D01*
X161200506Y-67500000D01*
X161379293Y-67471682D01*
X161551444Y-67415748D01*
X161551452Y-67415745D01*
X161712730Y-67333568D01*
X161728532Y-67322085D01*
X161728533Y-67322085D01*
X161239410Y-66832962D01*
X161302993Y-66815925D01*
X161417007Y-66750099D01*
X161510099Y-66657007D01*
X161575925Y-66542993D01*
X161592962Y-66479409D01*
X162082085Y-66968532D01*
X162093568Y-66952730D01*
X162175745Y-66791452D01*
X162175748Y-66791444D01*
X162231682Y-66619293D01*
X162260000Y-66440506D01*
X162260000Y-66277846D01*
X162279685Y-66210807D01*
X162332489Y-66165052D01*
X162401647Y-66155108D01*
X162445997Y-66170458D01*
G37*
%TD.AperFunction*%
%TA.AperFunction,Conductor*%
G36*
X179961920Y-64447895D02*
G01*
X179996278Y-64508734D01*
X179999500Y-64536819D01*
X179999500Y-65608138D01*
X179979815Y-65675177D01*
X179927011Y-65720932D01*
X179865773Y-65731756D01*
X179862086Y-65731465D01*
X179372962Y-66220589D01*
X179355925Y-66157007D01*
X179290099Y-66042993D01*
X179197007Y-65949901D01*
X179082993Y-65884075D01*
X179019409Y-65867037D01*
X179508533Y-65377913D01*
X179492730Y-65366431D01*
X179331447Y-65284252D01*
X179331444Y-65284251D01*
X179159293Y-65228317D01*
X178980506Y-65200000D01*
X178799494Y-65200000D01*
X178620706Y-65228317D01*
X178448555Y-65284251D01*
X178448547Y-65284254D01*
X178287269Y-65366432D01*
X178271466Y-65377912D01*
X178271466Y-65377913D01*
X178760591Y-65867037D01*
X178697007Y-65884075D01*
X178582993Y-65949901D01*
X178489901Y-66042993D01*
X178424075Y-66157007D01*
X178407037Y-66220590D01*
X177917913Y-65731466D01*
X177917912Y-65731466D01*
X177906432Y-65747269D01*
X177824254Y-65908547D01*
X177824251Y-65908555D01*
X177768317Y-66080706D01*
X177740000Y-66259493D01*
X177740000Y-66440506D01*
X177768317Y-66619293D01*
X177824251Y-66791444D01*
X177824252Y-66791447D01*
X177906431Y-66952730D01*
X177917913Y-66968532D01*
X177917913Y-66968533D01*
X178407037Y-66479409D01*
X178424075Y-66542993D01*
X178489901Y-66657007D01*
X178582993Y-66750099D01*
X178697007Y-66815925D01*
X178760590Y-66832962D01*
X178271466Y-67322085D01*
X178271466Y-67322086D01*
X178287267Y-67333566D01*
X178287275Y-67333571D01*
X178448552Y-67415747D01*
X178448555Y-67415748D01*
X178620706Y-67471682D01*
X178799494Y-67500000D01*
X178980506Y-67500000D01*
X179159293Y-67471682D01*
X179331444Y-67415748D01*
X179331452Y-67415745D01*
X179492730Y-67333568D01*
X179508532Y-67322085D01*
X179508533Y-67322085D01*
X179019410Y-66832962D01*
X179082993Y-66815925D01*
X179197007Y-66750099D01*
X179290099Y-66657007D01*
X179355925Y-66542993D01*
X179372962Y-66479410D01*
X179862084Y-66968532D01*
X179865772Y-66968242D01*
X179934149Y-66982606D01*
X179983905Y-67031658D01*
X179999500Y-67091860D01*
X179999500Y-68163180D01*
X179979815Y-68230219D01*
X179927011Y-68275974D01*
X179857853Y-68285918D01*
X179794297Y-68256893D01*
X179775183Y-68236066D01*
X179729418Y-68173078D01*
X179729414Y-68173072D01*
X179606928Y-68050586D01*
X179466788Y-67948768D01*
X179312445Y-67870127D01*
X179147701Y-67816598D01*
X179147699Y-67816597D01*
X179147698Y-67816597D01*
X179016271Y-67795781D01*
X178976611Y-67789500D01*
X178803389Y-67789500D01*
X178763728Y-67795781D01*
X178632302Y-67816597D01*
X178467552Y-67870128D01*
X178313211Y-67948768D01*
X178250003Y-67994692D01*
X178173072Y-68050586D01*
X178173070Y-68050588D01*
X178173069Y-68050588D01*
X178050588Y-68173069D01*
X178050588Y-68173070D01*
X178050586Y-68173072D01*
X178027521Y-68204818D01*
X177948768Y-68313211D01*
X177867966Y-68471795D01*
X177819991Y-68522591D01*
X177757481Y-68539500D01*
X177113644Y-68539500D01*
X177046605Y-68519815D01*
X177025963Y-68503181D01*
X175400369Y-66877587D01*
X175366884Y-66816264D01*
X175364050Y-66789906D01*
X175364050Y-66480000D01*
X175902332Y-66480000D01*
X175936596Y-66577922D01*
X176015358Y-66684641D01*
X176122080Y-66763405D01*
X176247271Y-66807212D01*
X176247269Y-66807212D01*
X176250000Y-66807467D01*
X176750000Y-66807467D01*
X176752729Y-66807212D01*
X176877919Y-66763405D01*
X176984641Y-66684641D01*
X177063403Y-66577922D01*
X177097668Y-66480000D01*
X176750000Y-66480000D01*
X176750000Y-66807467D01*
X176250000Y-66807467D01*
X176250000Y-66480000D01*
X175902332Y-66480000D01*
X175364050Y-66480000D01*
X175364050Y-66060434D01*
X175364050Y-66060432D01*
X175340164Y-65971288D01*
X175340161Y-65971282D01*
X175294023Y-65891370D01*
X175294020Y-65891367D01*
X175294019Y-65891364D01*
X175228762Y-65826107D01*
X175107974Y-65705319D01*
X174964837Y-65562181D01*
X174931352Y-65500858D01*
X174936336Y-65431166D01*
X174978208Y-65375233D01*
X175043672Y-65350816D01*
X175052518Y-65350500D01*
X175819303Y-65350500D01*
X175886342Y-65370185D01*
X175932097Y-65422989D01*
X175941776Y-65455100D01*
X175953983Y-65532175D01*
X176010141Y-65642391D01*
X176010142Y-65642392D01*
X176014572Y-65651086D01*
X176012545Y-65652118D01*
X176031520Y-65705319D01*
X176015686Y-65773371D01*
X176007491Y-65786017D01*
X175936597Y-65882075D01*
X175902332Y-65980000D01*
X177097668Y-65980000D01*
X177063403Y-65882077D01*
X176992508Y-65786018D01*
X176968537Y-65720389D01*
X176983852Y-65652219D01*
X176988830Y-65644408D01*
X176989856Y-65642393D01*
X176989859Y-65642391D01*
X177046017Y-65532175D01*
X177046017Y-65532173D01*
X177046018Y-65532172D01*
X177046018Y-65532171D01*
X177060500Y-65440735D01*
X177060500Y-65425172D01*
X177060499Y-65099260D01*
X177059649Y-65093892D01*
X177068607Y-65024599D01*
X177113606Y-64971149D01*
X177180358Y-64950513D01*
X177182123Y-64950500D01*
X178146142Y-64950500D01*
X178146144Y-64950500D01*
X178235288Y-64926614D01*
X178315212Y-64880470D01*
X178337029Y-64858652D01*
X178398351Y-64825167D01*
X178463029Y-64828402D01*
X178467552Y-64829871D01*
X178467555Y-64829873D01*
X178632299Y-64883402D01*
X178803389Y-64910500D01*
X178803390Y-64910500D01*
X178976610Y-64910500D01*
X178976611Y-64910500D01*
X179147701Y-64883402D01*
X179312445Y-64829873D01*
X179466788Y-64751232D01*
X179606928Y-64649414D01*
X179729414Y-64526928D01*
X179775183Y-64463931D01*
X179830512Y-64421268D01*
X179900125Y-64415289D01*
X179961920Y-64447895D01*
G37*
%TD.AperFunction*%
%TA.AperFunction,Conductor*%
G36*
X168151767Y-66339731D02*
G01*
X168166239Y-66340420D01*
X168203856Y-66350500D01*
X169303456Y-66350500D01*
X169370495Y-66370185D01*
X169391137Y-66386819D01*
X169542137Y-66537819D01*
X169552211Y-66556268D01*
X169566271Y-66571896D01*
X169568619Y-66586318D01*
X169575622Y-66599142D01*
X169574122Y-66620110D01*
X169577501Y-66640857D01*
X169571680Y-66654258D01*
X169570638Y-66668834D01*
X169558040Y-66685661D01*
X169549666Y-66704943D01*
X169537521Y-66713071D01*
X169528766Y-66724767D01*
X169509072Y-66732112D01*
X169491601Y-66743806D01*
X169468035Y-66747418D01*
X169463302Y-66749184D01*
X169456766Y-66749478D01*
X169455574Y-66749500D01*
X169305136Y-66749501D01*
X169280009Y-66752415D01*
X169279165Y-66752787D01*
X169270331Y-66752952D01*
X169242403Y-66745314D01*
X169213560Y-66740374D01*
X169151248Y-66709911D01*
X169083219Y-66700000D01*
X168916786Y-66700000D01*
X168848750Y-66709912D01*
X168786436Y-66740375D01*
X168717691Y-66752147D01*
X168694870Y-66749500D01*
X168505142Y-66749500D01*
X168505118Y-66749502D01*
X168480014Y-66752413D01*
X168480010Y-66752414D01*
X168450083Y-66765628D01*
X168380804Y-66774697D01*
X168349915Y-66765627D01*
X168319992Y-66752415D01*
X168294865Y-66749500D01*
X168105142Y-66749500D01*
X168105118Y-66749502D01*
X168080014Y-66752413D01*
X168071013Y-66754863D01*
X168070027Y-66751240D01*
X168018534Y-66757840D01*
X167955430Y-66727844D01*
X167918561Y-66668494D01*
X167919632Y-66598633D01*
X167929340Y-66575755D01*
X167936334Y-66563002D01*
X167940509Y-66558828D01*
X168012984Y-66433298D01*
X168018245Y-66413663D01*
X168025430Y-66400564D01*
X168040019Y-66386029D01*
X168050736Y-66368446D01*
X168064268Y-66361871D01*
X168074928Y-66351252D01*
X168095058Y-66346912D01*
X168113581Y-66337914D01*
X168132603Y-66338819D01*
X168143229Y-66336529D01*
X168151767Y-66339731D01*
G37*
%TD.AperFunction*%
%TA.AperFunction,Conductor*%
G36*
X160205703Y-64443106D02*
G01*
X160224814Y-64463929D01*
X160270586Y-64526928D01*
X160393072Y-64649414D01*
X160533212Y-64751232D01*
X160687555Y-64829873D01*
X160852299Y-64883402D01*
X161023389Y-64910500D01*
X161113456Y-64910500D01*
X161142896Y-64919144D01*
X161172883Y-64925668D01*
X161177898Y-64929422D01*
X161180495Y-64930185D01*
X161201137Y-64946819D01*
X161242637Y-64988319D01*
X161276122Y-65049642D01*
X161271138Y-65119334D01*
X161229266Y-65175267D01*
X161163802Y-65199684D01*
X161154956Y-65200000D01*
X161019494Y-65200000D01*
X160840706Y-65228317D01*
X160668555Y-65284251D01*
X160668547Y-65284254D01*
X160507269Y-65366432D01*
X160491466Y-65377912D01*
X160491466Y-65377913D01*
X160980590Y-65867037D01*
X160917007Y-65884075D01*
X160802993Y-65949901D01*
X160709901Y-66042993D01*
X160644075Y-66157007D01*
X160627037Y-66220590D01*
X160137913Y-65731466D01*
X160134229Y-65731756D01*
X160065852Y-65717392D01*
X160016095Y-65668340D01*
X160000500Y-65608138D01*
X160000500Y-64536819D01*
X160020185Y-64469780D01*
X160072989Y-64424025D01*
X160142147Y-64414081D01*
X160205703Y-64443106D01*
G37*
%TD.AperFunction*%
%TA.AperFunction,Conductor*%
G36*
X170816106Y-61225704D02*
G01*
X170819190Y-61225301D01*
X170821444Y-61225962D01*
X170823555Y-61226065D01*
X170837290Y-61228722D01*
X170880009Y-61247585D01*
X170905135Y-61250500D01*
X170949840Y-61250499D01*
X170961506Y-61252757D01*
X171023585Y-61284818D01*
X171058476Y-61345353D01*
X171055101Y-61415141D01*
X171045337Y-61436499D01*
X170987017Y-61537511D01*
X170987016Y-61537515D01*
X170949500Y-61677525D01*
X170949500Y-61822475D01*
X170973678Y-61912706D01*
X170987017Y-61962488D01*
X171059488Y-62088011D01*
X171059490Y-62088013D01*
X171059491Y-62088015D01*
X171161985Y-62190509D01*
X171161986Y-62190510D01*
X171161988Y-62190511D01*
X171287511Y-62262982D01*
X171287512Y-62262982D01*
X171287515Y-62262984D01*
X171427525Y-62300500D01*
X171427528Y-62300500D01*
X171572472Y-62300500D01*
X171572475Y-62300500D01*
X171712485Y-62262984D01*
X171838015Y-62190509D01*
X171937819Y-62090705D01*
X171999142Y-62057220D01*
X172068834Y-62062204D01*
X172124767Y-62104076D01*
X172149184Y-62169540D01*
X172149500Y-62178386D01*
X172149500Y-64643917D01*
X172165314Y-64702939D01*
X172165315Y-64702941D01*
X172169884Y-64719991D01*
X172173386Y-64733062D01*
X172219530Y-64812986D01*
X172251085Y-64844541D01*
X172258856Y-64857370D01*
X172264117Y-64877228D01*
X172273961Y-64895255D01*
X172272884Y-64910314D01*
X172276751Y-64924909D01*
X172270442Y-64944455D01*
X172268977Y-64964947D01*
X172259927Y-64977034D01*
X172255291Y-64991402D01*
X172239414Y-65004436D01*
X172227105Y-65020880D01*
X172214797Y-65028999D01*
X172161988Y-65059489D01*
X172161982Y-65059493D01*
X172059493Y-65161982D01*
X172059488Y-65161988D01*
X171987017Y-65287511D01*
X171987016Y-65287515D01*
X171949500Y-65427525D01*
X171949500Y-65572475D01*
X171980389Y-65687752D01*
X171987017Y-65712488D01*
X172059488Y-65838011D01*
X172059493Y-65838017D01*
X172113181Y-65891705D01*
X172127884Y-65918632D01*
X172144477Y-65944451D01*
X172145368Y-65950651D01*
X172146666Y-65953028D01*
X172149500Y-65979386D01*
X172149500Y-66005682D01*
X172129815Y-66072721D01*
X172113180Y-66093364D01*
X172058372Y-66148171D01*
X171997049Y-66181655D01*
X171927357Y-66176670D01*
X171871424Y-66134799D01*
X171856127Y-66107933D01*
X171854007Y-66102814D01*
X171854006Y-66102810D01*
X171854003Y-66102805D01*
X171854002Y-66102802D01*
X171781533Y-65977283D01*
X171781528Y-65977277D01*
X171679039Y-65874788D01*
X171679033Y-65874783D01*
X171553510Y-65802312D01*
X171553511Y-65802312D01*
X171542028Y-65799235D01*
X171413497Y-65764795D01*
X171268547Y-65764795D01*
X171140015Y-65799235D01*
X171128533Y-65802312D01*
X171084668Y-65827638D01*
X171016768Y-65844111D01*
X170950741Y-65821258D01*
X170934988Y-65807933D01*
X170887283Y-65760229D01*
X170887282Y-65760228D01*
X170887280Y-65760226D01*
X170887278Y-65760225D01*
X170887276Y-65760223D01*
X170761753Y-65687752D01*
X170761754Y-65687752D01*
X170750271Y-65684675D01*
X170621740Y-65650235D01*
X170476790Y-65650235D01*
X170348258Y-65684675D01*
X170336776Y-65687752D01*
X170211253Y-65760223D01*
X170211247Y-65760228D01*
X170108758Y-65862717D01*
X170108753Y-65862723D01*
X170097917Y-65881492D01*
X170047348Y-65929706D01*
X169978740Y-65942926D01*
X169913877Y-65916956D01*
X169902851Y-65907169D01*
X169715213Y-65719531D01*
X169715208Y-65719527D01*
X169635289Y-65673386D01*
X169631091Y-65672261D01*
X169623819Y-65670313D01*
X169623818Y-65670312D01*
X169555914Y-65652118D01*
X169546144Y-65649500D01*
X169546143Y-65649500D01*
X168474500Y-65649500D01*
X168407461Y-65629815D01*
X168361706Y-65577011D01*
X168350500Y-65525500D01*
X168350500Y-65453858D01*
X168350500Y-65453856D01*
X168326614Y-65364712D01*
X168315472Y-65345413D01*
X168280470Y-65284788D01*
X168000118Y-65004436D01*
X167715214Y-64719531D01*
X167713494Y-64718538D01*
X167712332Y-64717319D01*
X167708767Y-64714584D01*
X167709193Y-64714027D01*
X167665281Y-64667968D01*
X167651500Y-64611154D01*
X167651500Y-62025500D01*
X167671185Y-61958461D01*
X167723989Y-61912706D01*
X167775500Y-61901500D01*
X169792916Y-61901500D01*
X169792918Y-61901500D01*
X169882062Y-61877614D01*
X169889695Y-61873207D01*
X169961986Y-61831470D01*
X170481470Y-61311986D01*
X170481472Y-61311981D01*
X170486414Y-61305542D01*
X170487554Y-61306416D01*
X170531732Y-61264288D01*
X170588560Y-61250499D01*
X170694856Y-61250499D01*
X170694864Y-61250499D01*
X170694879Y-61250497D01*
X170694882Y-61250497D01*
X170719987Y-61247586D01*
X170719987Y-61247585D01*
X170719991Y-61247585D01*
X170749913Y-61234372D01*
X170769736Y-61231777D01*
X170788302Y-61224360D01*
X170816106Y-61225704D01*
G37*
%TD.AperFunction*%
%TA.AperFunction,Conductor*%
G36*
X162270398Y-64268648D02*
G01*
X162286635Y-64282317D01*
X162884788Y-64880470D01*
X162964712Y-64926614D01*
X163053856Y-64950500D01*
X163362665Y-64950500D01*
X163429704Y-64970185D01*
X163454355Y-64991020D01*
X163462531Y-65000000D01*
X163916000Y-65000000D01*
X163983039Y-65019685D01*
X164028794Y-65072489D01*
X164040000Y-65124000D01*
X164040000Y-65376000D01*
X164020315Y-65443039D01*
X163967511Y-65488794D01*
X163916000Y-65500000D01*
X163440531Y-65500000D01*
X163430166Y-65506305D01*
X163398184Y-65510500D01*
X162807544Y-65510500D01*
X162740505Y-65490815D01*
X162719863Y-65474181D01*
X161948693Y-64703011D01*
X161915208Y-64641688D01*
X161920192Y-64571996D01*
X161946589Y-64530921D01*
X161946250Y-64530632D01*
X161948374Y-64528144D01*
X161948693Y-64527649D01*
X161949414Y-64526928D01*
X162051232Y-64386788D01*
X162088470Y-64313701D01*
X162136442Y-64262908D01*
X162204263Y-64246112D01*
X162270398Y-64268648D01*
G37*
%TD.AperFunction*%
%TA.AperFunction,Conductor*%
G36*
X176138152Y-59028981D02*
G01*
X176178680Y-59085895D01*
X176185500Y-59126452D01*
X176185500Y-61150999D01*
X176165815Y-61218038D01*
X176113011Y-61263793D01*
X176043853Y-61273737D01*
X175999500Y-61258386D01*
X175962488Y-61237017D01*
X175962489Y-61237017D01*
X175942933Y-61231777D01*
X175822475Y-61199500D01*
X175677525Y-61199500D01*
X175677523Y-61199500D01*
X175669469Y-61200561D01*
X175669157Y-61198197D01*
X175647001Y-61196802D01*
X175614379Y-61196013D01*
X175612322Y-61194620D01*
X175609844Y-61194464D01*
X175583551Y-61175130D01*
X175556532Y-61156827D01*
X175554935Y-61154088D01*
X175553554Y-61153072D01*
X175549326Y-61144463D01*
X175536376Y-61122241D01*
X175534077Y-61116234D01*
X175512984Y-61037515D01*
X175486174Y-60991080D01*
X175482665Y-60981910D01*
X175480627Y-60956480D01*
X175474612Y-60931686D01*
X175477883Y-60922232D01*
X175477085Y-60912263D01*
X175489119Y-60889768D01*
X175497464Y-60865659D01*
X175505326Y-60859475D01*
X175510045Y-60850656D01*
X175532330Y-60838238D01*
X175552384Y-60822468D01*
X175557520Y-60820542D01*
X175577922Y-60813403D01*
X175684641Y-60734641D01*
X175763405Y-60627919D01*
X175807212Y-60502727D01*
X175807213Y-60502725D01*
X175807469Y-60500000D01*
X175354000Y-60500000D01*
X175286961Y-60480315D01*
X175241206Y-60427511D01*
X175230000Y-60376000D01*
X175230000Y-60124000D01*
X175249685Y-60056961D01*
X175302489Y-60011206D01*
X175354000Y-60000000D01*
X175807467Y-60000000D01*
X175807212Y-59997270D01*
X175763405Y-59872080D01*
X175684641Y-59765358D01*
X175577919Y-59686594D01*
X175452732Y-59642788D01*
X175452720Y-59642786D01*
X175423007Y-59640000D01*
X175410308Y-59640000D01*
X175381896Y-59631657D01*
X175352847Y-59625883D01*
X175348740Y-59621921D01*
X175343269Y-59620315D01*
X175323880Y-59597939D01*
X175302562Y-59577374D01*
X175301249Y-59571821D01*
X175297514Y-59567511D01*
X175293299Y-59538199D01*
X175286485Y-59509379D01*
X175288224Y-59502903D01*
X175287570Y-59498353D01*
X175293366Y-59474762D01*
X175296234Y-59466629D01*
X175298999Y-59462793D01*
X175299835Y-59459682D01*
X175300460Y-59458456D01*
X175301669Y-59459072D01*
X175325496Y-59420185D01*
X175408865Y-59336818D01*
X175470188Y-59303333D01*
X175496545Y-59300500D01*
X175572472Y-59300500D01*
X175572475Y-59300500D01*
X175712485Y-59262984D01*
X175838015Y-59190509D01*
X175940509Y-59088015D01*
X175954113Y-59064451D01*
X176004680Y-59016237D01*
X176073287Y-59003013D01*
X176138152Y-59028981D01*
G37*
%TD.AperFunction*%
%TA.AperFunction,Conductor*%
G36*
X164019703Y-58082931D02*
G01*
X164026181Y-58088963D01*
X164618688Y-58681470D01*
X164618690Y-58681471D01*
X164618694Y-58681474D01*
X164684609Y-58719530D01*
X164684610Y-58719530D01*
X164698612Y-58727614D01*
X164787756Y-58751500D01*
X164787757Y-58751500D01*
X164880044Y-58751500D01*
X165236691Y-58751500D01*
X165303730Y-58771185D01*
X165349485Y-58823989D01*
X165359429Y-58893147D01*
X165330404Y-58956703D01*
X165310325Y-58975270D01*
X165215358Y-59045358D01*
X165136596Y-59152077D01*
X165102332Y-59250000D01*
X166318787Y-59250000D01*
X166385826Y-59269685D01*
X166394276Y-59275626D01*
X166400591Y-59280472D01*
X166435281Y-59300500D01*
X166480512Y-59326614D01*
X166569656Y-59350500D01*
X166925500Y-59350500D01*
X166992539Y-59370185D01*
X167038294Y-59422989D01*
X167049500Y-59474500D01*
X167049500Y-60608644D01*
X167049500Y-60608646D01*
X167049500Y-60799255D01*
X167049501Y-60925500D01*
X167046950Y-60934186D01*
X167048239Y-60943147D01*
X167037261Y-60967183D01*
X167029817Y-60992539D01*
X167022974Y-60998467D01*
X167019214Y-61006703D01*
X166996982Y-61020989D01*
X166977013Y-61038294D01*
X166966497Y-61040581D01*
X166960436Y-61044477D01*
X166925501Y-61049500D01*
X166836544Y-61049500D01*
X166769505Y-61029815D01*
X166748863Y-61013181D01*
X166296818Y-60561136D01*
X166263333Y-60499813D01*
X166260499Y-60473455D01*
X166260499Y-60289260D01*
X166246018Y-60197829D01*
X166246018Y-60197828D01*
X166246017Y-60197826D01*
X166246017Y-60197825D01*
X166189859Y-60087609D01*
X166189857Y-60087607D01*
X166185428Y-60078914D01*
X166187455Y-60077880D01*
X166168480Y-60024684D01*
X166184310Y-59956631D01*
X166192508Y-59943981D01*
X166263403Y-59847922D01*
X166297668Y-59750000D01*
X165102332Y-59750000D01*
X165136596Y-59847922D01*
X165207491Y-59943981D01*
X165231462Y-60009610D01*
X165216147Y-60077780D01*
X165211170Y-60085589D01*
X165153981Y-60197827D01*
X165153981Y-60197828D01*
X165139500Y-60289264D01*
X165139500Y-60630739D01*
X165153981Y-60722170D01*
X165153981Y-60722171D01*
X165153982Y-60722174D01*
X165153983Y-60722175D01*
X165208982Y-60830117D01*
X165210142Y-60832392D01*
X165210145Y-60832396D01*
X165237432Y-60859683D01*
X165241764Y-60867617D01*
X165249003Y-60873034D01*
X165258246Y-60897801D01*
X165270917Y-60921006D01*
X165270272Y-60930024D01*
X165273433Y-60938494D01*
X165267818Y-60964326D01*
X165265933Y-60990698D01*
X165260122Y-60999741D01*
X165258595Y-61006769D01*
X165237449Y-61035028D01*
X165234907Y-61037571D01*
X165173591Y-61071068D01*
X165103898Y-61066097D01*
X165085217Y-61057298D01*
X164963485Y-60987016D01*
X164823475Y-60949500D01*
X164678525Y-60949500D01*
X164657592Y-60955108D01*
X164587743Y-60953446D01*
X164529881Y-60914283D01*
X164502377Y-60850055D01*
X164501500Y-60835334D01*
X164501500Y-59456458D01*
X164501500Y-59456456D01*
X164477614Y-59367312D01*
X164473418Y-59360044D01*
X164473418Y-59360043D01*
X164431472Y-59287391D01*
X164431467Y-59287385D01*
X163850819Y-58706737D01*
X163817334Y-58645414D01*
X163814500Y-58619056D01*
X163814500Y-58176644D01*
X163834185Y-58109605D01*
X163886989Y-58063850D01*
X163956147Y-58053906D01*
X164019703Y-58082931D01*
G37*
%TD.AperFunction*%
%TA.AperFunction,Conductor*%
G36*
X177732539Y-36240185D02*
G01*
X177778294Y-36292989D01*
X177789500Y-36344500D01*
X177789500Y-36744678D01*
X177804032Y-36817735D01*
X177804033Y-36817739D01*
X177804034Y-36817740D01*
X177859399Y-36900601D01*
X177904002Y-36930403D01*
X177942260Y-36955966D01*
X177942264Y-36955967D01*
X178015321Y-36970499D01*
X178015324Y-36970500D01*
X178015326Y-36970500D01*
X179764676Y-36970500D01*
X179764677Y-36970499D01*
X179781719Y-36967109D01*
X179849719Y-36953584D01*
X179850511Y-36957568D01*
X179897490Y-36952507D01*
X179959976Y-36983769D01*
X179995642Y-37043850D01*
X179999500Y-37074542D01*
X179999500Y-37683180D01*
X179979815Y-37750219D01*
X179927011Y-37795974D01*
X179857853Y-37805918D01*
X179794297Y-37776893D01*
X179775183Y-37756066D01*
X179729418Y-37693078D01*
X179729414Y-37693072D01*
X179606928Y-37570586D01*
X179466788Y-37468768D01*
X179312445Y-37390127D01*
X179147701Y-37336598D01*
X179147699Y-37336597D01*
X179147698Y-37336597D01*
X179016271Y-37315781D01*
X178976611Y-37309500D01*
X178803389Y-37309500D01*
X178763728Y-37315781D01*
X178632302Y-37336597D01*
X178467552Y-37390128D01*
X178313211Y-37468768D01*
X178233256Y-37526859D01*
X178173072Y-37570586D01*
X178173070Y-37570588D01*
X178173069Y-37570588D01*
X178050588Y-37693069D01*
X178050588Y-37693070D01*
X178050586Y-37693072D01*
X178050582Y-37693078D01*
X177948768Y-37833211D01*
X177870128Y-37987552D01*
X177816597Y-38152302D01*
X177789500Y-38323389D01*
X177789500Y-38496611D01*
X177816598Y-38667701D01*
X177870127Y-38832445D01*
X177948768Y-38986788D01*
X178050586Y-39126928D01*
X178173072Y-39249414D01*
X178313212Y-39351232D01*
X178467555Y-39429873D01*
X178632299Y-39483402D01*
X178803389Y-39510500D01*
X178803390Y-39510500D01*
X178976610Y-39510500D01*
X178976611Y-39510500D01*
X179147701Y-39483402D01*
X179312445Y-39429873D01*
X179466788Y-39351232D01*
X179606928Y-39249414D01*
X179729414Y-39126928D01*
X179775183Y-39063931D01*
X179830512Y-39021268D01*
X179900125Y-39015289D01*
X179961920Y-39047895D01*
X179996278Y-39108734D01*
X179999500Y-39136819D01*
X179999500Y-40208138D01*
X179979815Y-40275177D01*
X179927011Y-40320932D01*
X179865773Y-40331756D01*
X179862086Y-40331465D01*
X179372962Y-40820589D01*
X179355925Y-40757007D01*
X179290099Y-40642993D01*
X179197007Y-40549901D01*
X179082993Y-40484075D01*
X179019409Y-40467037D01*
X179508533Y-39977913D01*
X179492730Y-39966431D01*
X179331447Y-39884252D01*
X179331444Y-39884251D01*
X179159293Y-39828317D01*
X178980506Y-39800000D01*
X178799494Y-39800000D01*
X178620706Y-39828317D01*
X178448555Y-39884251D01*
X178448547Y-39884254D01*
X178287269Y-39966432D01*
X178271466Y-39977912D01*
X178271466Y-39977913D01*
X178760591Y-40467037D01*
X178697007Y-40484075D01*
X178582993Y-40549901D01*
X178489901Y-40642993D01*
X178424075Y-40757007D01*
X178407037Y-40820590D01*
X177917913Y-40331466D01*
X177917912Y-40331466D01*
X177906432Y-40347269D01*
X177824254Y-40508547D01*
X177824251Y-40508555D01*
X177768317Y-40680706D01*
X177740000Y-40859493D01*
X177740000Y-41040506D01*
X177768317Y-41219293D01*
X177824251Y-41391444D01*
X177824252Y-41391447D01*
X177906431Y-41552730D01*
X177917913Y-41568532D01*
X177917913Y-41568533D01*
X178407037Y-41079409D01*
X178424075Y-41142993D01*
X178489901Y-41257007D01*
X178582993Y-41350099D01*
X178697007Y-41415925D01*
X178760590Y-41432962D01*
X178271466Y-41922085D01*
X178271466Y-41922086D01*
X178287267Y-41933566D01*
X178287275Y-41933571D01*
X178448552Y-42015747D01*
X178448555Y-42015748D01*
X178620706Y-42071682D01*
X178799494Y-42100000D01*
X178980506Y-42100000D01*
X179159293Y-42071682D01*
X179331444Y-42015748D01*
X179331452Y-42015745D01*
X179492730Y-41933568D01*
X179508532Y-41922085D01*
X179508533Y-41922085D01*
X179019410Y-41432962D01*
X179082993Y-41415925D01*
X179197007Y-41350099D01*
X179290099Y-41257007D01*
X179355925Y-41142993D01*
X179372962Y-41079410D01*
X179862084Y-41568532D01*
X179865772Y-41568242D01*
X179934149Y-41582606D01*
X179983905Y-41631658D01*
X179999500Y-41691860D01*
X179999500Y-42763180D01*
X179979815Y-42830219D01*
X179927011Y-42875974D01*
X179857853Y-42885918D01*
X179794297Y-42856893D01*
X179775183Y-42836066D01*
X179729418Y-42773078D01*
X179729414Y-42773072D01*
X179606928Y-42650586D01*
X179466788Y-42548768D01*
X179312445Y-42470127D01*
X179147701Y-42416598D01*
X179147699Y-42416597D01*
X179147698Y-42416597D01*
X179016271Y-42395781D01*
X178976611Y-42389500D01*
X178803389Y-42389500D01*
X178763728Y-42395781D01*
X178632302Y-42416597D01*
X178467552Y-42470128D01*
X178313211Y-42548768D01*
X178238056Y-42603372D01*
X178173072Y-42650586D01*
X178173070Y-42650588D01*
X178173069Y-42650588D01*
X178050588Y-42773069D01*
X178050588Y-42773070D01*
X178050586Y-42773072D01*
X178050582Y-42773078D01*
X177948768Y-42913211D01*
X177870128Y-43067552D01*
X177816597Y-43232302D01*
X177789500Y-43403389D01*
X177789500Y-43576610D01*
X177816410Y-43746518D01*
X177816598Y-43747701D01*
X177870127Y-43912445D01*
X177948768Y-44066788D01*
X178050586Y-44206928D01*
X178173072Y-44329414D01*
X178313212Y-44431232D01*
X178467555Y-44509873D01*
X178632299Y-44563402D01*
X178803389Y-44590500D01*
X178803390Y-44590500D01*
X178976610Y-44590500D01*
X178976611Y-44590500D01*
X179147701Y-44563402D01*
X179312445Y-44509873D01*
X179466788Y-44431232D01*
X179606928Y-44329414D01*
X179729414Y-44206928D01*
X179775183Y-44143931D01*
X179830512Y-44101268D01*
X179900125Y-44095289D01*
X179961920Y-44127895D01*
X179996278Y-44188734D01*
X179999500Y-44216819D01*
X179999500Y-45303180D01*
X179979815Y-45370219D01*
X179927011Y-45415974D01*
X179857853Y-45425918D01*
X179794297Y-45396893D01*
X179775183Y-45376066D01*
X179729418Y-45313078D01*
X179729414Y-45313072D01*
X179606928Y-45190586D01*
X179466788Y-45088768D01*
X179312445Y-45010127D01*
X179147701Y-44956598D01*
X179147699Y-44956597D01*
X179147698Y-44956597D01*
X179016271Y-44935781D01*
X178976611Y-44929500D01*
X178803389Y-44929500D01*
X178763728Y-44935781D01*
X178632302Y-44956597D01*
X178632299Y-44956598D01*
X178512040Y-44995673D01*
X178467552Y-45010128D01*
X178313211Y-45088768D01*
X178233256Y-45146859D01*
X178173072Y-45190586D01*
X178173070Y-45190588D01*
X178173069Y-45190588D01*
X178050588Y-45313069D01*
X178050588Y-45313070D01*
X178050586Y-45313072D01*
X178009066Y-45370219D01*
X177948768Y-45453211D01*
X177870128Y-45607552D01*
X177816597Y-45772302D01*
X177789500Y-45943389D01*
X177789500Y-46116610D01*
X177816597Y-46287698D01*
X177871597Y-46456970D01*
X177873592Y-46526811D01*
X177841347Y-46582969D01*
X175719531Y-48704786D01*
X175719529Y-48704788D01*
X175710741Y-48720011D01*
X175702376Y-48734500D01*
X175687881Y-48759606D01*
X175673386Y-48784711D01*
X175649500Y-48873856D01*
X175649500Y-54803456D01*
X175629815Y-54870495D01*
X175613181Y-54891137D01*
X175341137Y-55163181D01*
X175279814Y-55196666D01*
X175253456Y-55199500D01*
X175177525Y-55199500D01*
X175048993Y-55233940D01*
X175037511Y-55237017D01*
X174911988Y-55309488D01*
X174911982Y-55309493D01*
X174809493Y-55411982D01*
X174809488Y-55411988D01*
X174737017Y-55537511D01*
X174737016Y-55537515D01*
X174699500Y-55677525D01*
X174699500Y-55822475D01*
X174737016Y-55962485D01*
X174737017Y-55962488D01*
X174809488Y-56088011D01*
X174809490Y-56088013D01*
X174809491Y-56088015D01*
X174911985Y-56190509D01*
X174911986Y-56190510D01*
X174911988Y-56190511D01*
X175037511Y-56262982D01*
X175037512Y-56262982D01*
X175037515Y-56262984D01*
X175177525Y-56300500D01*
X175177528Y-56300500D01*
X175322472Y-56300500D01*
X175322475Y-56300500D01*
X175462485Y-56262984D01*
X175588015Y-56190509D01*
X175690509Y-56088015D01*
X175762984Y-55962485D01*
X175800500Y-55822475D01*
X175800500Y-55746544D01*
X175809144Y-55717103D01*
X175815668Y-55687117D01*
X175819422Y-55682101D01*
X175820185Y-55679505D01*
X175836819Y-55658863D01*
X175973819Y-55521863D01*
X176035142Y-55488378D01*
X176104834Y-55493362D01*
X176160767Y-55535234D01*
X176185184Y-55600698D01*
X176185500Y-55609544D01*
X176185500Y-58373547D01*
X176165815Y-58440586D01*
X176113011Y-58486341D01*
X176043853Y-58496285D01*
X175980297Y-58467260D01*
X175954114Y-58435548D01*
X175940513Y-58411991D01*
X175940510Y-58411988D01*
X175940509Y-58411985D01*
X175838015Y-58309491D01*
X175838013Y-58309490D01*
X175838011Y-58309488D01*
X175712488Y-58237017D01*
X175712489Y-58237017D01*
X175687477Y-58230315D01*
X175572475Y-58199500D01*
X175483999Y-58199500D01*
X175416960Y-58179815D01*
X175371205Y-58127011D01*
X175359999Y-58075500D01*
X175359999Y-58051999D01*
X175357213Y-58022279D01*
X175313403Y-57897077D01*
X175234641Y-57790358D01*
X175127919Y-57711594D01*
X175002727Y-57667787D01*
X175002725Y-57667786D01*
X175000000Y-57667530D01*
X175000000Y-58121000D01*
X174980315Y-58188039D01*
X174927511Y-58233794D01*
X174876000Y-58245000D01*
X174750000Y-58245000D01*
X174750000Y-58371000D01*
X174747906Y-58378128D01*
X174749155Y-58385452D01*
X174738196Y-58411196D01*
X174730315Y-58438039D01*
X174724700Y-58442903D01*
X174721791Y-58449740D01*
X174698652Y-58465474D01*
X174677511Y-58483794D01*
X174668726Y-58485824D01*
X174664015Y-58489029D01*
X174635483Y-58493510D01*
X174629222Y-58494958D01*
X174436860Y-58499958D01*
X174436044Y-58499741D01*
X174433638Y-58500000D01*
X172874000Y-58500000D01*
X172806961Y-58480315D01*
X172761206Y-58427511D01*
X172750000Y-58376000D01*
X172750000Y-58250000D01*
X172624000Y-58250000D01*
X172556961Y-58230315D01*
X172511206Y-58177511D01*
X172500000Y-58126000D01*
X172500000Y-57706511D01*
X172409248Y-57675620D01*
X172404861Y-57672530D01*
X173000000Y-57672530D01*
X173000000Y-58000000D01*
X173500000Y-58000000D01*
X173500000Y-57672531D01*
X173499999Y-57672530D01*
X174000000Y-57672530D01*
X174000000Y-58000000D01*
X174036037Y-58000000D01*
X174040004Y-57997834D01*
X174066362Y-57995000D01*
X174500000Y-57995000D01*
X174500000Y-57667531D01*
X174499999Y-57667530D01*
X174497274Y-57667786D01*
X174497272Y-57667787D01*
X174372080Y-57711594D01*
X174320245Y-57749850D01*
X174254616Y-57773820D01*
X174186446Y-57758504D01*
X174172978Y-57749849D01*
X174127919Y-57716594D01*
X174002727Y-57672787D01*
X174002725Y-57672786D01*
X174000000Y-57672530D01*
X173499999Y-57672530D01*
X173497274Y-57672786D01*
X173497272Y-57672787D01*
X173372078Y-57716595D01*
X173372077Y-57716595D01*
X173323633Y-57752349D01*
X173258004Y-57776320D01*
X173189834Y-57761004D01*
X173176367Y-57752349D01*
X173127921Y-57716595D01*
X173002727Y-57672787D01*
X173002725Y-57672786D01*
X173000000Y-57672530D01*
X172404861Y-57672530D01*
X172385235Y-57658705D01*
X172359748Y-57644103D01*
X172356999Y-57638815D01*
X172352127Y-57635383D01*
X172341069Y-57608166D01*
X172327525Y-57582107D01*
X172328071Y-57576173D01*
X172325828Y-57570651D01*
X172331239Y-57541782D01*
X172333934Y-57512532D01*
X172337835Y-57506595D01*
X172338701Y-57501978D01*
X172345846Y-57494406D01*
X172361521Y-57470556D01*
X173280470Y-56551609D01*
X173326614Y-56471685D01*
X173336791Y-56433702D01*
X173350500Y-56382541D01*
X173350500Y-52885658D01*
X173326614Y-52796514D01*
X173319844Y-52784788D01*
X173319844Y-52784787D01*
X173280474Y-52716596D01*
X173280468Y-52716588D01*
X171111819Y-50547939D01*
X171078334Y-50486616D01*
X171075500Y-50460258D01*
X171075500Y-49345730D01*
X172249500Y-49345730D01*
X172249500Y-49854269D01*
X172252353Y-49884699D01*
X172252353Y-49884701D01*
X172297206Y-50012880D01*
X172297207Y-50012882D01*
X172377850Y-50122150D01*
X172487118Y-50202793D01*
X172528545Y-50217289D01*
X172615299Y-50247646D01*
X172645730Y-50250500D01*
X172645734Y-50250500D01*
X173025500Y-50250500D01*
X173092539Y-50270185D01*
X173138294Y-50322989D01*
X173149500Y-50374500D01*
X173149500Y-50770614D01*
X173129815Y-50837653D01*
X173113181Y-50858295D01*
X173059493Y-50911982D01*
X173059488Y-50911988D01*
X172987017Y-51037511D01*
X172987016Y-51037515D01*
X172949500Y-51177525D01*
X172949500Y-51322475D01*
X172987016Y-51462485D01*
X172987017Y-51462488D01*
X173059488Y-51588011D01*
X173059490Y-51588013D01*
X173059491Y-51588015D01*
X173161985Y-51690509D01*
X173161986Y-51690510D01*
X173161988Y-51690511D01*
X173287511Y-51762982D01*
X173287512Y-51762982D01*
X173287515Y-51762984D01*
X173427525Y-51800500D01*
X173427528Y-51800500D01*
X173572472Y-51800500D01*
X173572475Y-51800500D01*
X173712485Y-51762984D01*
X173838015Y-51690509D01*
X173940509Y-51588015D01*
X174012984Y-51462485D01*
X174050500Y-51322475D01*
X174050500Y-51177525D01*
X174012984Y-51037515D01*
X174004828Y-51023389D01*
X173940511Y-50911988D01*
X173940506Y-50911982D01*
X173886819Y-50858295D01*
X173853334Y-50796972D01*
X173850500Y-50770614D01*
X173850500Y-50374500D01*
X173870185Y-50307461D01*
X173922989Y-50261706D01*
X173974500Y-50250500D01*
X174354270Y-50250500D01*
X174384699Y-50247646D01*
X174384701Y-50247646D01*
X174448790Y-50225219D01*
X174512882Y-50202793D01*
X174622150Y-50122150D01*
X174702793Y-50012882D01*
X174725219Y-49948790D01*
X174747646Y-49884701D01*
X174747646Y-49884699D01*
X174750500Y-49854269D01*
X174750500Y-49345730D01*
X174747646Y-49315300D01*
X174747646Y-49315298D01*
X174710063Y-49207895D01*
X174702793Y-49187118D01*
X174622150Y-49077850D01*
X174512882Y-48997207D01*
X174512880Y-48997206D01*
X174384700Y-48952353D01*
X174354270Y-48949500D01*
X174354266Y-48949500D01*
X172645734Y-48949500D01*
X172645730Y-48949500D01*
X172615300Y-48952353D01*
X172615298Y-48952353D01*
X172487119Y-48997206D01*
X172487117Y-48997207D01*
X172377850Y-49077850D01*
X172297207Y-49187117D01*
X172297206Y-49187119D01*
X172252353Y-49315298D01*
X172252353Y-49315300D01*
X172249500Y-49345730D01*
X171075500Y-49345730D01*
X171075500Y-45650000D01*
X172200234Y-45650000D01*
X172206401Y-45707375D01*
X172256645Y-45842086D01*
X172256649Y-45842093D01*
X172342809Y-45957187D01*
X172342812Y-45957190D01*
X172457906Y-46043350D01*
X172457913Y-46043354D01*
X172592620Y-46093596D01*
X172592627Y-46093598D01*
X172652155Y-46099999D01*
X172652172Y-46100000D01*
X173250000Y-46100000D01*
X173750000Y-46100000D01*
X174347828Y-46100000D01*
X174347844Y-46099999D01*
X174407372Y-46093598D01*
X174407379Y-46093596D01*
X174542086Y-46043354D01*
X174542093Y-46043350D01*
X174657187Y-45957190D01*
X174657190Y-45957187D01*
X174743350Y-45842093D01*
X174743354Y-45842086D01*
X174793598Y-45707375D01*
X174799766Y-45650000D01*
X173750000Y-45650000D01*
X173750000Y-46100000D01*
X173250000Y-46100000D01*
X173250000Y-45650000D01*
X172200234Y-45650000D01*
X171075500Y-45650000D01*
X171075500Y-45150000D01*
X172200234Y-45150000D01*
X173250000Y-45150000D01*
X173750000Y-45150000D01*
X174799765Y-45150000D01*
X174793598Y-45092624D01*
X174743354Y-44957913D01*
X174743350Y-44957906D01*
X174657190Y-44842812D01*
X174657187Y-44842809D01*
X174542093Y-44756649D01*
X174542086Y-44756645D01*
X174407379Y-44706403D01*
X174407372Y-44706401D01*
X174347844Y-44700000D01*
X173750000Y-44700000D01*
X173750000Y-45150000D01*
X173250000Y-45150000D01*
X173250000Y-44700000D01*
X172652155Y-44700000D01*
X172592627Y-44706401D01*
X172592620Y-44706403D01*
X172457913Y-44756645D01*
X172457906Y-44756649D01*
X172342812Y-44842809D01*
X172342809Y-44842812D01*
X172256649Y-44957906D01*
X172256645Y-44957913D01*
X172206401Y-45092624D01*
X172200234Y-45150000D01*
X171075500Y-45150000D01*
X171075500Y-44496803D01*
X171095185Y-44429764D01*
X171147989Y-44384009D01*
X171217147Y-44374065D01*
X171225963Y-44375660D01*
X171233215Y-44377244D01*
X171249999Y-44378817D01*
X171750000Y-44378817D01*
X171766780Y-44377244D01*
X171890561Y-44333931D01*
X171996065Y-44256065D01*
X172073933Y-44150559D01*
X172073934Y-44150557D01*
X172105621Y-44060000D01*
X171750000Y-44060000D01*
X171750000Y-44378817D01*
X171249999Y-44378817D01*
X171250000Y-44378816D01*
X171250000Y-43934000D01*
X171269685Y-43866961D01*
X171322489Y-43821206D01*
X171374000Y-43810000D01*
X171500000Y-43810000D01*
X171500000Y-43684000D01*
X171519685Y-43616961D01*
X171572489Y-43571206D01*
X171624000Y-43560000D01*
X172105622Y-43560000D01*
X172105621Y-43559999D01*
X172073934Y-43469442D01*
X172073933Y-43469440D01*
X171996064Y-43363933D01*
X171994149Y-43362520D01*
X171992566Y-43360435D01*
X171989495Y-43357364D01*
X171989915Y-43356943D01*
X171951901Y-43306871D01*
X171946445Y-43237214D01*
X171979515Y-43175666D01*
X171979959Y-43175219D01*
X172003076Y-43152102D01*
X172003076Y-43152100D01*
X172003078Y-43152099D01*
X172031329Y-43094310D01*
X172059582Y-43036518D01*
X172070500Y-42961582D01*
X172070500Y-42618418D01*
X172059582Y-42543482D01*
X172044769Y-42513181D01*
X172003078Y-42427900D01*
X172003076Y-42427897D01*
X171912102Y-42336923D01*
X171912099Y-42336921D01*
X171796521Y-42280419D01*
X171796519Y-42280418D01*
X171796518Y-42280418D01*
X171733439Y-42271227D01*
X171721569Y-42269498D01*
X171717102Y-42269175D01*
X171717233Y-42267366D01*
X171715814Y-42266949D01*
X171706853Y-42268238D01*
X171682812Y-42257259D01*
X171657461Y-42249815D01*
X171651533Y-42242974D01*
X171643297Y-42239213D01*
X171629007Y-42216978D01*
X171611706Y-42197011D01*
X171609418Y-42186496D01*
X171605523Y-42180435D01*
X171600500Y-42145500D01*
X171600500Y-42144500D01*
X171620185Y-42077461D01*
X171672989Y-42031706D01*
X171724500Y-42020500D01*
X171924676Y-42020500D01*
X172000808Y-42005356D01*
X172049192Y-42005356D01*
X172125323Y-42020500D01*
X172748449Y-42020500D01*
X172798534Y-42031065D01*
X172880123Y-42067089D01*
X172905206Y-42069999D01*
X173000000Y-42069998D01*
X173000000Y-41805841D01*
X173000500Y-41795673D01*
X173000500Y-40919000D01*
X173003050Y-40910314D01*
X173001762Y-40901353D01*
X173012740Y-40877312D01*
X173020185Y-40851961D01*
X173027025Y-40846033D01*
X173030787Y-40837797D01*
X173053021Y-40823507D01*
X173072989Y-40806206D01*
X173083503Y-40803918D01*
X173089565Y-40800023D01*
X173124500Y-40795000D01*
X173126000Y-40795000D01*
X173193039Y-40814685D01*
X173238794Y-40867489D01*
X173250000Y-40919000D01*
X173250000Y-41045000D01*
X173376000Y-41045000D01*
X173443039Y-41064685D01*
X173488794Y-41117489D01*
X173500000Y-41169000D01*
X173500000Y-42069999D01*
X173594786Y-42069999D01*
X173594808Y-42069997D01*
X173619869Y-42067091D01*
X173619873Y-42067090D01*
X173722474Y-42021788D01*
X173722479Y-42021785D01*
X173801785Y-41942479D01*
X173801788Y-41942474D01*
X173847089Y-41839876D01*
X173849999Y-41814794D01*
X173849999Y-41536812D01*
X173869683Y-41469773D01*
X173922487Y-41424018D01*
X173991646Y-41414074D01*
X174021451Y-41422251D01*
X174069999Y-41442360D01*
X174070000Y-41442360D01*
X174070000Y-40846988D01*
X174079940Y-40864205D01*
X174135795Y-40920060D01*
X174204204Y-40959556D01*
X174280504Y-40980000D01*
X174359496Y-40980000D01*
X174435796Y-40959556D01*
X174504205Y-40920060D01*
X174560060Y-40864205D01*
X174570000Y-40846988D01*
X174570000Y-41442360D01*
X174698934Y-41388954D01*
X174698952Y-41388944D01*
X174829965Y-41301404D01*
X174829973Y-41301398D01*
X174941398Y-41189973D01*
X174941401Y-41189969D01*
X175028947Y-41058948D01*
X175028952Y-41058939D01*
X175089256Y-40913352D01*
X175105750Y-40830430D01*
X175105751Y-40830426D01*
X175119999Y-40758796D01*
X175120000Y-40758794D01*
X175120000Y-40380000D01*
X174620000Y-40380000D01*
X174620000Y-39880000D01*
X175120000Y-39880000D01*
X175120000Y-39501206D01*
X175119999Y-39501202D01*
X175089258Y-39346656D01*
X175089256Y-39346648D01*
X175028952Y-39201060D01*
X175028947Y-39201051D01*
X174941401Y-39070030D01*
X174941398Y-39070026D01*
X174829973Y-38958601D01*
X174829969Y-38958598D01*
X174698948Y-38871052D01*
X174698938Y-38871047D01*
X174570000Y-38817639D01*
X174570000Y-39413011D01*
X174560060Y-39395795D01*
X174504205Y-39339940D01*
X174435796Y-39300444D01*
X174359496Y-39280000D01*
X174280504Y-39280000D01*
X174204204Y-39300444D01*
X174135795Y-39339940D01*
X174079940Y-39395795D01*
X174070000Y-39413011D01*
X174070000Y-38817639D01*
X174069999Y-38817639D01*
X173941061Y-38871047D01*
X173941051Y-38871052D01*
X173810030Y-38958598D01*
X173810026Y-38958601D01*
X173698601Y-39070026D01*
X173698598Y-39070030D01*
X173611052Y-39201051D01*
X173611049Y-39201057D01*
X173587446Y-39258040D01*
X173543604Y-39312443D01*
X173477310Y-39334507D01*
X173409611Y-39317227D01*
X173365498Y-39272587D01*
X173350515Y-39246635D01*
X173243365Y-39139485D01*
X173159408Y-39091012D01*
X173111193Y-39040444D01*
X173097971Y-38971837D01*
X173123939Y-38906972D01*
X173133719Y-38895953D01*
X174242855Y-37786819D01*
X174304178Y-37753334D01*
X174330536Y-37750500D01*
X175646142Y-37750500D01*
X175646144Y-37750500D01*
X175735288Y-37726614D01*
X175815212Y-37680470D01*
X177238863Y-36256819D01*
X177300186Y-36223334D01*
X177326544Y-36220500D01*
X177665500Y-36220500D01*
X177732539Y-36240185D01*
G37*
%TD.AperFunction*%
%TA.AperFunction,Conductor*%
G36*
X169800882Y-50774262D02*
G01*
X169812284Y-50772065D01*
X169834522Y-50780967D01*
X169858017Y-50785650D01*
X169866369Y-50793716D01*
X169877149Y-50798031D01*
X169891043Y-50817542D01*
X169908278Y-50834185D01*
X169914906Y-50851051D01*
X169917679Y-50854945D01*
X169918608Y-50860473D01*
X169921187Y-50867034D01*
X169924500Y-50881078D01*
X169924500Y-50889342D01*
X169940321Y-50948386D01*
X169940796Y-50950160D01*
X169940802Y-50950184D01*
X169948384Y-50978483D01*
X169948385Y-50978484D01*
X169994527Y-51058406D01*
X169994531Y-51058411D01*
X171888181Y-52952061D01*
X171921666Y-53013384D01*
X171924500Y-53039742D01*
X171924500Y-53419850D01*
X171904815Y-53486889D01*
X171852011Y-53532644D01*
X171782853Y-53542588D01*
X171726866Y-53519620D01*
X171627920Y-53446594D01*
X171530000Y-53412330D01*
X171530000Y-56622955D01*
X171510315Y-56689994D01*
X171493681Y-56710636D01*
X170761137Y-57443181D01*
X170699814Y-57476666D01*
X170673456Y-57479500D01*
X170478418Y-57479500D01*
X170432556Y-57486182D01*
X170403479Y-57490418D01*
X170329959Y-57526360D01*
X170261086Y-57538118D01*
X170196789Y-57510775D01*
X170157483Y-57453010D01*
X170151500Y-57414959D01*
X170151500Y-56715544D01*
X170160144Y-56686103D01*
X170166668Y-56656117D01*
X170170422Y-56651101D01*
X170171185Y-56648505D01*
X170187819Y-56627863D01*
X170218864Y-56596818D01*
X170280187Y-56563333D01*
X170306545Y-56560499D01*
X170490739Y-56560499D01*
X170490739Y-56560498D01*
X170546860Y-56551610D01*
X170582170Y-56546018D01*
X170582171Y-56546018D01*
X170582172Y-56546017D01*
X170582175Y-56546017D01*
X170692391Y-56489859D01*
X170692392Y-56489857D01*
X170701086Y-56485428D01*
X170702119Y-56487456D01*
X170755303Y-56468480D01*
X170823357Y-56484305D01*
X170836018Y-56492508D01*
X170932077Y-56563403D01*
X171030000Y-56597668D01*
X171030000Y-53412330D01*
X171029999Y-53412330D01*
X170932079Y-53446594D01*
X170868134Y-53493788D01*
X170802505Y-53517759D01*
X170734334Y-53502444D01*
X170685266Y-53452703D01*
X170670500Y-53394018D01*
X170670500Y-53273858D01*
X170670500Y-53273856D01*
X170646614Y-53184712D01*
X170640075Y-53173386D01*
X170600470Y-53104788D01*
X168661819Y-51166137D01*
X168647115Y-51139209D01*
X168630523Y-51113391D01*
X168629631Y-51107190D01*
X168628334Y-51104814D01*
X168625500Y-51078456D01*
X168625500Y-50953386D01*
X168645185Y-50886347D01*
X168697989Y-50840592D01*
X168767147Y-50830648D01*
X168830703Y-50859673D01*
X168837181Y-50865705D01*
X168911985Y-50940509D01*
X168911986Y-50940510D01*
X168911988Y-50940511D01*
X169037511Y-51012982D01*
X169037512Y-51012982D01*
X169037515Y-51012984D01*
X169177525Y-51050500D01*
X169177528Y-51050500D01*
X169322472Y-51050500D01*
X169322475Y-51050500D01*
X169462485Y-51012984D01*
X169588015Y-50940509D01*
X169690509Y-50838015D01*
X169693112Y-50833505D01*
X169710447Y-50816975D01*
X169724467Y-50797550D01*
X169735273Y-50793302D01*
X169743677Y-50785290D01*
X169767198Y-50780755D01*
X169789495Y-50771993D01*
X169800882Y-50774262D01*
G37*
%TD.AperFunction*%
%TA.AperFunction,Conductor*%
G36*
X179961920Y-51747895D02*
G01*
X179996278Y-51808734D01*
X179999500Y-51836819D01*
X179999500Y-52908138D01*
X179979815Y-52975177D01*
X179927011Y-53020932D01*
X179865773Y-53031756D01*
X179862086Y-53031465D01*
X179372962Y-53520589D01*
X179355925Y-53457007D01*
X179290099Y-53342993D01*
X179197007Y-53249901D01*
X179082993Y-53184075D01*
X179019409Y-53167037D01*
X179508533Y-52677913D01*
X179492730Y-52666431D01*
X179331447Y-52584252D01*
X179331444Y-52584251D01*
X179159293Y-52528317D01*
X178980506Y-52500000D01*
X178799494Y-52500000D01*
X178620706Y-52528317D01*
X178448555Y-52584251D01*
X178448547Y-52584254D01*
X178287269Y-52666432D01*
X178271466Y-52677912D01*
X178271466Y-52677913D01*
X178760591Y-53167037D01*
X178697007Y-53184075D01*
X178582993Y-53249901D01*
X178489901Y-53342993D01*
X178424075Y-53457007D01*
X178407037Y-53520590D01*
X177917913Y-53031466D01*
X177917912Y-53031466D01*
X177906432Y-53047269D01*
X177824254Y-53208547D01*
X177824251Y-53208555D01*
X177768317Y-53380706D01*
X177740000Y-53559493D01*
X177740000Y-53740506D01*
X177768317Y-53919293D01*
X177824251Y-54091444D01*
X177824252Y-54091447D01*
X177906431Y-54252730D01*
X177917913Y-54268532D01*
X177917913Y-54268533D01*
X178407037Y-53779409D01*
X178424075Y-53842993D01*
X178489901Y-53957007D01*
X178582993Y-54050099D01*
X178697007Y-54115925D01*
X178760590Y-54132962D01*
X178271466Y-54622085D01*
X178271466Y-54622086D01*
X178287267Y-54633566D01*
X178287275Y-54633571D01*
X178448552Y-54715747D01*
X178448555Y-54715748D01*
X178620706Y-54771682D01*
X178799494Y-54800000D01*
X178980506Y-54800000D01*
X179159293Y-54771682D01*
X179331444Y-54715748D01*
X179331452Y-54715745D01*
X179492730Y-54633568D01*
X179508532Y-54622085D01*
X179508533Y-54622085D01*
X179019410Y-54132962D01*
X179082993Y-54115925D01*
X179197007Y-54050099D01*
X179290099Y-53957007D01*
X179355925Y-53842993D01*
X179372962Y-53779410D01*
X179862084Y-54268532D01*
X179865772Y-54268242D01*
X179934149Y-54282606D01*
X179983905Y-54331658D01*
X179999500Y-54391860D01*
X179999500Y-55463180D01*
X179979815Y-55530219D01*
X179927011Y-55575974D01*
X179857853Y-55585918D01*
X179794297Y-55556893D01*
X179775183Y-55536066D01*
X179729418Y-55473078D01*
X179729414Y-55473072D01*
X179606928Y-55350586D01*
X179466788Y-55248768D01*
X179312445Y-55170127D01*
X179147701Y-55116598D01*
X179147699Y-55116597D01*
X179147698Y-55116597D01*
X179016271Y-55095781D01*
X178976611Y-55089500D01*
X178803389Y-55089500D01*
X178763728Y-55095781D01*
X178632302Y-55116597D01*
X178467552Y-55170128D01*
X178313211Y-55248768D01*
X178233256Y-55306859D01*
X178173072Y-55350586D01*
X178173070Y-55350588D01*
X178173069Y-55350588D01*
X178050588Y-55473069D01*
X178050588Y-55473070D01*
X178050586Y-55473072D01*
X178031022Y-55500000D01*
X177948768Y-55613211D01*
X177870128Y-55767552D01*
X177816597Y-55932302D01*
X177789500Y-56103389D01*
X177789500Y-56276610D01*
X177816597Y-56447698D01*
X177871597Y-56616970D01*
X177873592Y-56686811D01*
X177841347Y-56742969D01*
X177499181Y-57085136D01*
X177437858Y-57118621D01*
X177368167Y-57113637D01*
X177312233Y-57071766D01*
X177287816Y-57006301D01*
X177287500Y-56997455D01*
X177287500Y-53259543D01*
X177307185Y-53192504D01*
X177323814Y-53171866D01*
X178337031Y-52158649D01*
X178398352Y-52125166D01*
X178463029Y-52128401D01*
X178467547Y-52129869D01*
X178467555Y-52129873D01*
X178632299Y-52183402D01*
X178803389Y-52210500D01*
X178803390Y-52210500D01*
X178976610Y-52210500D01*
X178976611Y-52210500D01*
X179147701Y-52183402D01*
X179312445Y-52129873D01*
X179466788Y-52051232D01*
X179606928Y-51949414D01*
X179729414Y-51826928D01*
X179775183Y-51763931D01*
X179830512Y-51721268D01*
X179900125Y-51715289D01*
X179961920Y-51747895D01*
G37*
%TD.AperFunction*%
%TA.AperFunction,Conductor*%
G36*
X164986881Y-35020185D02*
G01*
X165032636Y-35072989D01*
X165042580Y-35142147D01*
X165022944Y-35193391D01*
X164971052Y-35271051D01*
X164971047Y-35271060D01*
X164910743Y-35416648D01*
X164910741Y-35416656D01*
X164880000Y-35571202D01*
X164880000Y-35700000D01*
X165380000Y-35700000D01*
X165380000Y-36200000D01*
X164880000Y-36200000D01*
X164880000Y-36328797D01*
X164910741Y-36483343D01*
X164910743Y-36483351D01*
X164971047Y-36628939D01*
X164971052Y-36628948D01*
X165058598Y-36759969D01*
X165058601Y-36759973D01*
X165170026Y-36871398D01*
X165170034Y-36871404D01*
X165301047Y-36958944D01*
X165301065Y-36958954D01*
X165429999Y-37012360D01*
X165430000Y-37012360D01*
X165430000Y-36416988D01*
X165439940Y-36434205D01*
X165495795Y-36490060D01*
X165564204Y-36529556D01*
X165640504Y-36550000D01*
X165719496Y-36550000D01*
X165795796Y-36529556D01*
X165864205Y-36490060D01*
X165920060Y-36434205D01*
X165930000Y-36416988D01*
X165930000Y-37012360D01*
X166058934Y-36958954D01*
X166058952Y-36958944D01*
X166189965Y-36871404D01*
X166189973Y-36871398D01*
X166301398Y-36759973D01*
X166301401Y-36759969D01*
X166388947Y-36628948D01*
X166388952Y-36628939D01*
X166449256Y-36483351D01*
X166449258Y-36483343D01*
X166479999Y-36328797D01*
X166480000Y-36328794D01*
X166480000Y-36200000D01*
X165980000Y-36200000D01*
X165980000Y-35700000D01*
X166480000Y-35700000D01*
X166480000Y-35571206D01*
X166479999Y-35571202D01*
X166449258Y-35416656D01*
X166449256Y-35416648D01*
X166388952Y-35271060D01*
X166388947Y-35271051D01*
X166337056Y-35193391D01*
X166316178Y-35126714D01*
X166334662Y-35059333D01*
X166386641Y-35012643D01*
X166440158Y-35000500D01*
X173559842Y-35000500D01*
X173626881Y-35020185D01*
X173672636Y-35072989D01*
X173682580Y-35142147D01*
X173662944Y-35193391D01*
X173611052Y-35271051D01*
X173611047Y-35271060D01*
X173550743Y-35416648D01*
X173550741Y-35416656D01*
X173520000Y-35571202D01*
X173520000Y-35700000D01*
X174020000Y-35700000D01*
X174020000Y-36200000D01*
X173520000Y-36200000D01*
X173520000Y-36328797D01*
X173550741Y-36483343D01*
X173550743Y-36483351D01*
X173611047Y-36628939D01*
X173611052Y-36628948D01*
X173698598Y-36759969D01*
X173698601Y-36759973D01*
X173810026Y-36871398D01*
X173810034Y-36871404D01*
X173898332Y-36930403D01*
X173943138Y-36984015D01*
X173951845Y-37053340D01*
X173921691Y-37116367D01*
X173917123Y-37121186D01*
X172105137Y-38933173D01*
X172043814Y-38966658D01*
X172017456Y-38969492D01*
X168303864Y-38969492D01*
X168216313Y-38992951D01*
X168216312Y-38992950D01*
X168214727Y-38993375D01*
X168214714Y-38993380D01*
X168134799Y-39039519D01*
X168134798Y-39039520D01*
X167815515Y-39358802D01*
X167754192Y-39392286D01*
X167684500Y-39387302D01*
X167628567Y-39345430D01*
X167620447Y-39333120D01*
X167605975Y-39308054D01*
X167570515Y-39246635D01*
X167463365Y-39139485D01*
X167379408Y-39091012D01*
X167332136Y-39063719D01*
X167255205Y-39043106D01*
X167185766Y-39024500D01*
X167034234Y-39024500D01*
X166887863Y-39063719D01*
X166756635Y-39139485D01*
X166756632Y-39139487D01*
X166649487Y-39246632D01*
X166649481Y-39246641D01*
X166634499Y-39272589D01*
X166583931Y-39320803D01*
X166515324Y-39334024D01*
X166450460Y-39308054D01*
X166412553Y-39258038D01*
X166388954Y-39201064D01*
X166388947Y-39201051D01*
X166301401Y-39070030D01*
X166301398Y-39070026D01*
X166189973Y-38958601D01*
X166189969Y-38958598D01*
X166058948Y-38871052D01*
X166058938Y-38871047D01*
X165930000Y-38817639D01*
X165930000Y-39413011D01*
X165920060Y-39395795D01*
X165864205Y-39339940D01*
X165795796Y-39300444D01*
X165719496Y-39280000D01*
X165640504Y-39280000D01*
X165564204Y-39300444D01*
X165495795Y-39339940D01*
X165439940Y-39395795D01*
X165430000Y-39413011D01*
X165430000Y-38817639D01*
X165429999Y-38817639D01*
X165301061Y-38871047D01*
X165301051Y-38871052D01*
X165170030Y-38958598D01*
X165170026Y-38958601D01*
X165058601Y-39070026D01*
X165058598Y-39070030D01*
X164971052Y-39201051D01*
X164971047Y-39201060D01*
X164910743Y-39346648D01*
X164910741Y-39346656D01*
X164880000Y-39501202D01*
X164880000Y-39880000D01*
X165380000Y-39880000D01*
X165380000Y-40380000D01*
X164880000Y-40380000D01*
X164880000Y-40758797D01*
X164910741Y-40913343D01*
X164910743Y-40913351D01*
X164971047Y-41058939D01*
X164971052Y-41058948D01*
X165058598Y-41189969D01*
X165058601Y-41189973D01*
X165170026Y-41301398D01*
X165170034Y-41301404D01*
X165301047Y-41388944D01*
X165301065Y-41388954D01*
X165429999Y-41442360D01*
X165430000Y-41442360D01*
X165430000Y-40846988D01*
X165439940Y-40864205D01*
X165495795Y-40920060D01*
X165564204Y-40959556D01*
X165640504Y-40980000D01*
X165719496Y-40980000D01*
X165795796Y-40959556D01*
X165864205Y-40920060D01*
X165920060Y-40864205D01*
X165930000Y-40846988D01*
X165930000Y-41442359D01*
X165978547Y-41422251D01*
X166048017Y-41414782D01*
X166110496Y-41446057D01*
X166146148Y-41506146D01*
X166150000Y-41536812D01*
X166150000Y-41814785D01*
X166150002Y-41814808D01*
X166152908Y-41839869D01*
X166152909Y-41839873D01*
X166198211Y-41942474D01*
X166198214Y-41942479D01*
X166277520Y-42021785D01*
X166277525Y-42021788D01*
X166380123Y-42067089D01*
X166400606Y-42069466D01*
X166464930Y-42096746D01*
X166504294Y-42154471D01*
X166506201Y-42224315D01*
X166473996Y-42280321D01*
X166241135Y-42513181D01*
X166179812Y-42546666D01*
X166153454Y-42549500D01*
X165704518Y-42549500D01*
X165704509Y-42549501D01*
X165647885Y-42555587D01*
X165519773Y-42603372D01*
X165410313Y-42685313D01*
X165328373Y-42794771D01*
X165280587Y-42922889D01*
X165274500Y-42979498D01*
X165274500Y-43520481D01*
X165274501Y-43520490D01*
X165280587Y-43577114D01*
X165295450Y-43616961D01*
X165328372Y-43705226D01*
X165406804Y-43810000D01*
X165410314Y-43814688D01*
X165521136Y-43897648D01*
X165563008Y-43953581D01*
X165567992Y-44023273D01*
X165534507Y-44084596D01*
X165497600Y-44108805D01*
X165497665Y-44108920D01*
X165495991Y-44109861D01*
X165492325Y-44112266D01*
X165490277Y-44113073D01*
X165490270Y-44113077D01*
X165375278Y-44200278D01*
X165288077Y-44315270D01*
X165235131Y-44449531D01*
X165235131Y-44449532D01*
X165225000Y-44533897D01*
X165225000Y-44550000D01*
X166752957Y-44550000D01*
X166782397Y-44558644D01*
X166812384Y-44565168D01*
X166817399Y-44568922D01*
X166819996Y-44569685D01*
X166840638Y-44586319D01*
X167012931Y-44758612D01*
X167046416Y-44819935D01*
X167041432Y-44889627D01*
X167025569Y-44919177D01*
X167021949Y-44924158D01*
X166973599Y-45019049D01*
X166925624Y-45069845D01*
X166857803Y-45086639D01*
X166791668Y-45064101D01*
X166775434Y-45050434D01*
X166775000Y-45050000D01*
X166250000Y-45050000D01*
X166250000Y-45550000D01*
X166291102Y-45550000D01*
X166375467Y-45539868D01*
X166375468Y-45539868D01*
X166509729Y-45486922D01*
X166624721Y-45399721D01*
X166711922Y-45284729D01*
X166716080Y-45277335D01*
X166718394Y-45278636D01*
X166753044Y-45234098D01*
X166818950Y-45210899D01*
X166886935Y-45227015D01*
X166935416Y-45277328D01*
X166949500Y-45334726D01*
X166949500Y-46369017D01*
X166959253Y-46430596D01*
X166963430Y-46456971D01*
X166963821Y-46459436D01*
X166954865Y-46528730D01*
X166909868Y-46582181D01*
X166843116Y-46602820D01*
X166800392Y-46595874D01*
X166800000Y-46595737D01*
X166800000Y-47375000D01*
X167149999Y-47375000D01*
X167149999Y-46983303D01*
X167147148Y-46952893D01*
X167126036Y-46892557D01*
X167122475Y-46822778D01*
X167157204Y-46762151D01*
X167219198Y-46729924D01*
X167262477Y-46729130D01*
X167282025Y-46732226D01*
X167318481Y-46738000D01*
X167681518Y-46737999D01*
X167775304Y-46723146D01*
X167775305Y-46723145D01*
X167784943Y-46721619D01*
X167785263Y-46723643D01*
X167842500Y-46722004D01*
X167902335Y-46758080D01*
X167933168Y-46820779D01*
X167925209Y-46890193D01*
X167921472Y-46898226D01*
X167914353Y-46912197D01*
X167914352Y-46912198D01*
X167899500Y-47005975D01*
X167899500Y-48244017D01*
X167914354Y-48337804D01*
X167917370Y-48347085D01*
X167914985Y-48347859D01*
X167924500Y-48387486D01*
X167924500Y-48703216D01*
X167904815Y-48770255D01*
X167852011Y-48816010D01*
X167843835Y-48819397D01*
X167819776Y-48828370D01*
X167819773Y-48828372D01*
X167710313Y-48910313D01*
X167627351Y-49021137D01*
X167571417Y-49063008D01*
X167501725Y-49067992D01*
X167440402Y-49034507D01*
X167416195Y-48997600D01*
X167416080Y-48997665D01*
X167415131Y-48995977D01*
X167412729Y-48992315D01*
X167411923Y-48990272D01*
X167411922Y-48990270D01*
X167324721Y-48875278D01*
X167209729Y-48788077D01*
X167068806Y-48732505D01*
X167013662Y-48689599D01*
X166990469Y-48623691D01*
X167006589Y-48555707D01*
X167016885Y-48542220D01*
X167016274Y-48541769D01*
X167102346Y-48425145D01*
X167147149Y-48297104D01*
X167147149Y-48297100D01*
X167150000Y-48266706D01*
X167150000Y-47875000D01*
X166800000Y-47875000D01*
X166800000Y-48595000D01*
X166851000Y-48595000D01*
X166918039Y-48614685D01*
X166963794Y-48667489D01*
X166975000Y-48719000D01*
X166975000Y-50275000D01*
X166991102Y-50275000D01*
X167075467Y-50264868D01*
X167075468Y-50264868D01*
X167209729Y-50211922D01*
X167324721Y-50124721D01*
X167411922Y-50009729D01*
X167411924Y-50009725D01*
X167412728Y-50007688D01*
X167413962Y-50006101D01*
X167416080Y-50002335D01*
X167416645Y-50002652D01*
X167455631Y-49952542D01*
X167521538Y-49929346D01*
X167589523Y-49945464D01*
X167627351Y-49978862D01*
X167628371Y-49980225D01*
X167628372Y-49980226D01*
X167710313Y-50089687D01*
X167819774Y-50171628D01*
X167843836Y-50180602D01*
X167899767Y-50222473D01*
X167924184Y-50287937D01*
X167924500Y-50296783D01*
X167924500Y-51321144D01*
X167945495Y-51399500D01*
X167948386Y-51410288D01*
X167949368Y-51411988D01*
X167994529Y-51490210D01*
X167994531Y-51490213D01*
X169243875Y-52739557D01*
X169277360Y-52800880D01*
X169272376Y-52870572D01*
X169230504Y-52926505D01*
X169184770Y-52945136D01*
X169185376Y-52947397D01*
X169177527Y-52949500D01*
X169177525Y-52949500D01*
X169051386Y-52983299D01*
X169037511Y-52987017D01*
X168911988Y-53059488D01*
X168911982Y-53059493D01*
X168809493Y-53161982D01*
X168809488Y-53161988D01*
X168737017Y-53287511D01*
X168737016Y-53287515D01*
X168699500Y-53427525D01*
X168699500Y-53427527D01*
X168699500Y-53519383D01*
X168679815Y-53586422D01*
X168627011Y-53632177D01*
X168603674Y-53635532D01*
X168580000Y-53652330D01*
X168580000Y-54847668D01*
X168580093Y-54847734D01*
X168589830Y-54846078D01*
X168659222Y-54854237D01*
X168713187Y-54898616D01*
X168734592Y-54965127D01*
X168716641Y-55032651D01*
X168698316Y-55056001D01*
X168666136Y-55088181D01*
X168604815Y-55121666D01*
X168578455Y-55124500D01*
X168421544Y-55124500D01*
X168397671Y-55117490D01*
X168372955Y-55114584D01*
X168364725Y-55107815D01*
X168354505Y-55104815D01*
X168333863Y-55088181D01*
X168116319Y-54870637D01*
X168082834Y-54809314D01*
X168080000Y-54782956D01*
X168080000Y-53652330D01*
X168079999Y-53652330D01*
X167982079Y-53686594D01*
X167918134Y-53733788D01*
X167905873Y-53738266D01*
X167896011Y-53746812D01*
X167873688Y-53750021D01*
X167852505Y-53757759D01*
X167839771Y-53754898D01*
X167826853Y-53756756D01*
X167806338Y-53747387D01*
X167784334Y-53742444D01*
X167775168Y-53733152D01*
X167763297Y-53727731D01*
X167751104Y-53708758D01*
X167735266Y-53692703D01*
X167731714Y-53678586D01*
X167725523Y-53668953D01*
X167720500Y-53634018D01*
X167720500Y-53425603D01*
X167733100Y-53371142D01*
X167746862Y-53342993D01*
X167769582Y-53296518D01*
X167780500Y-53221582D01*
X167780500Y-52778418D01*
X167769582Y-52703482D01*
X167757082Y-52677913D01*
X167713078Y-52587900D01*
X167713076Y-52587897D01*
X167622102Y-52496923D01*
X167622099Y-52496921D01*
X167506521Y-52440419D01*
X167506519Y-52440418D01*
X167506518Y-52440418D01*
X167431582Y-52429500D01*
X167088418Y-52429500D01*
X167013482Y-52440418D01*
X167013480Y-52440418D01*
X167013478Y-52440419D01*
X166897900Y-52496921D01*
X166897897Y-52496923D01*
X166837681Y-52557140D01*
X166776358Y-52590625D01*
X166706666Y-52585641D01*
X166662319Y-52557140D01*
X166602102Y-52496923D01*
X166602099Y-52496921D01*
X166486521Y-52440419D01*
X166486519Y-52440418D01*
X166486518Y-52440418D01*
X166411582Y-52429500D01*
X166136845Y-52429500D01*
X166069806Y-52409815D01*
X166024051Y-52357011D01*
X166014107Y-52287853D01*
X166043132Y-52224297D01*
X166074844Y-52198114D01*
X166088008Y-52190513D01*
X166088007Y-52190513D01*
X166088015Y-52190509D01*
X166190509Y-52088015D01*
X166262984Y-51962485D01*
X166300500Y-51822475D01*
X166300500Y-51677525D01*
X166262984Y-51537515D01*
X166262669Y-51536970D01*
X166190511Y-51411988D01*
X166190506Y-51411982D01*
X166088017Y-51309493D01*
X166088011Y-51309488D01*
X165962488Y-51237017D01*
X165962489Y-51237017D01*
X165951006Y-51233940D01*
X165822475Y-51199500D01*
X165677525Y-51199500D01*
X165548993Y-51233940D01*
X165537511Y-51237017D01*
X165411988Y-51309488D01*
X165411982Y-51309493D01*
X165309493Y-51411982D01*
X165309488Y-51411988D01*
X165237017Y-51537511D01*
X165237016Y-51537515D01*
X165199500Y-51677525D01*
X165199500Y-51677527D01*
X165199500Y-51753456D01*
X165192016Y-51778941D01*
X165188175Y-51805229D01*
X165181468Y-51814864D01*
X165179815Y-51820495D01*
X165169024Y-51834876D01*
X165166212Y-51838105D01*
X165049530Y-51954788D01*
X165025787Y-51995913D01*
X165019798Y-52006284D01*
X165019795Y-52006289D01*
X165003386Y-52034711D01*
X164979500Y-52123856D01*
X164979500Y-53683959D01*
X164959815Y-53750998D01*
X164943181Y-53771640D01*
X164876923Y-53837897D01*
X164876921Y-53837900D01*
X164820419Y-53953478D01*
X164820418Y-53953480D01*
X164820418Y-53953482D01*
X164809500Y-54028418D01*
X164809500Y-54471582D01*
X164820418Y-54546518D01*
X164820418Y-54546519D01*
X164820419Y-54546521D01*
X164876921Y-54662099D01*
X164876923Y-54662102D01*
X164967897Y-54753076D01*
X164967900Y-54753078D01*
X165062378Y-54799265D01*
X165083482Y-54809582D01*
X165158418Y-54820500D01*
X165158423Y-54820500D01*
X165501577Y-54820500D01*
X165501582Y-54820500D01*
X165576518Y-54809582D01*
X165629329Y-54783763D01*
X165698202Y-54772004D01*
X165762499Y-54799347D01*
X165801807Y-54857111D01*
X165803645Y-54926956D01*
X165771471Y-54982845D01*
X165666135Y-55088181D01*
X165604812Y-55121666D01*
X165578454Y-55124500D01*
X164975819Y-55124500D01*
X164930243Y-55130500D01*
X164930236Y-55130502D01*
X164914411Y-55137882D01*
X164862006Y-55149500D01*
X164820958Y-55149500D01*
X164743979Y-55170125D01*
X164743980Y-55170126D01*
X164731815Y-55173385D01*
X164731811Y-55173387D01*
X164651893Y-55219527D01*
X164651888Y-55219531D01*
X164278079Y-55593341D01*
X164026181Y-55845238D01*
X163964858Y-55878723D01*
X163895166Y-55873739D01*
X163839233Y-55831867D01*
X163814816Y-55766403D01*
X163814500Y-55757557D01*
X163814500Y-49791102D01*
X165975000Y-49791102D01*
X165985131Y-49875467D01*
X165985131Y-49875468D01*
X166038077Y-50009729D01*
X166125278Y-50124721D01*
X166240270Y-50211922D01*
X166374532Y-50264868D01*
X166458898Y-50275000D01*
X166475000Y-50275000D01*
X166475000Y-49750000D01*
X165975000Y-49750000D01*
X165975000Y-49791102D01*
X163814500Y-49791102D01*
X163814500Y-48337858D01*
X163814500Y-48337856D01*
X163795433Y-48266696D01*
X165950001Y-48266696D01*
X165952851Y-48297106D01*
X165997653Y-48425145D01*
X166078207Y-48534292D01*
X166194831Y-48620364D01*
X166192894Y-48622987D01*
X166231245Y-48660308D01*
X166247024Y-48728372D01*
X166223500Y-48794163D01*
X166198157Y-48820012D01*
X166125279Y-48875277D01*
X166038077Y-48990270D01*
X165985131Y-49124531D01*
X165985131Y-49124532D01*
X165975000Y-49208897D01*
X165975000Y-49250000D01*
X166475000Y-49250000D01*
X166475000Y-48792500D01*
X166424000Y-48792500D01*
X166356961Y-48772815D01*
X166311206Y-48720011D01*
X166300000Y-48668500D01*
X166300000Y-47875000D01*
X165950001Y-47875000D01*
X165950001Y-48266696D01*
X163795433Y-48266696D01*
X163790614Y-48248712D01*
X163744470Y-48168788D01*
X162558975Y-46983293D01*
X165950000Y-46983293D01*
X165950000Y-47375000D01*
X166300000Y-47375000D01*
X166300000Y-46595737D01*
X166299999Y-46595737D01*
X166187355Y-46635153D01*
X166078207Y-46715707D01*
X165997653Y-46824854D01*
X165952850Y-46952895D01*
X165952850Y-46952899D01*
X165950000Y-46983293D01*
X162558975Y-46983293D01*
X162158651Y-46582969D01*
X162125167Y-46521647D01*
X162128402Y-46456971D01*
X162129873Y-46452445D01*
X162183402Y-46287701D01*
X162210500Y-46116611D01*
X162210500Y-45943389D01*
X162183402Y-45772299D01*
X162129873Y-45607555D01*
X162051232Y-45453212D01*
X161949414Y-45313072D01*
X161826928Y-45190586D01*
X161698904Y-45097571D01*
X161686789Y-45088768D01*
X161642304Y-45066102D01*
X165225000Y-45066102D01*
X165235131Y-45150467D01*
X165235131Y-45150468D01*
X165288077Y-45284729D01*
X165375278Y-45399721D01*
X165490270Y-45486922D01*
X165624532Y-45539868D01*
X165708898Y-45550000D01*
X165750000Y-45550000D01*
X165750000Y-45050000D01*
X165225000Y-45050000D01*
X165225000Y-45066102D01*
X161642304Y-45066102D01*
X161532447Y-45010128D01*
X161532446Y-45010127D01*
X161532445Y-45010127D01*
X161367701Y-44956598D01*
X161367699Y-44956597D01*
X161367698Y-44956597D01*
X161236271Y-44935781D01*
X161196611Y-44929500D01*
X161023389Y-44929500D01*
X160983728Y-44935781D01*
X160852302Y-44956597D01*
X160852299Y-44956598D01*
X160732040Y-44995673D01*
X160687552Y-45010128D01*
X160533211Y-45088768D01*
X160453256Y-45146859D01*
X160393072Y-45190586D01*
X160393070Y-45190588D01*
X160393069Y-45190588D01*
X160270588Y-45313069D01*
X160270581Y-45313078D01*
X160224817Y-45376066D01*
X160169487Y-45418732D01*
X160099874Y-45424710D01*
X160038079Y-45392104D01*
X160003722Y-45331265D01*
X160000500Y-45303180D01*
X160000500Y-44216819D01*
X160020185Y-44149780D01*
X160072989Y-44104025D01*
X160142147Y-44094081D01*
X160205703Y-44123106D01*
X160224814Y-44143929D01*
X160270586Y-44206928D01*
X160393072Y-44329414D01*
X160533212Y-44431232D01*
X160687555Y-44509873D01*
X160852299Y-44563402D01*
X161023389Y-44590500D01*
X161023390Y-44590500D01*
X161196610Y-44590500D01*
X161196611Y-44590500D01*
X161367701Y-44563402D01*
X161532445Y-44509873D01*
X161686788Y-44431232D01*
X161826928Y-44329414D01*
X161949414Y-44206928D01*
X162051232Y-44066788D01*
X162129873Y-43912445D01*
X162183402Y-43747701D01*
X162210500Y-43576611D01*
X162210500Y-43403389D01*
X162183402Y-43232299D01*
X162129873Y-43067555D01*
X162051232Y-42913212D01*
X161949414Y-42773072D01*
X161826928Y-42650586D01*
X161686788Y-42548768D01*
X161532445Y-42470127D01*
X161367701Y-42416598D01*
X161367699Y-42416597D01*
X161367698Y-42416597D01*
X161236271Y-42395781D01*
X161196611Y-42389500D01*
X161023389Y-42389500D01*
X160983728Y-42395781D01*
X160852302Y-42416597D01*
X160687552Y-42470128D01*
X160533211Y-42548768D01*
X160458056Y-42603372D01*
X160393072Y-42650586D01*
X160393070Y-42650588D01*
X160393069Y-42650588D01*
X160270588Y-42773069D01*
X160270581Y-42773078D01*
X160224817Y-42836066D01*
X160169487Y-42878732D01*
X160099874Y-42884710D01*
X160038079Y-42852104D01*
X160003722Y-42791265D01*
X160000500Y-42763180D01*
X160000500Y-41691861D01*
X160020185Y-41624822D01*
X160072989Y-41579067D01*
X160134229Y-41568243D01*
X160137913Y-41568533D01*
X160627037Y-41079409D01*
X160644075Y-41142993D01*
X160709901Y-41257007D01*
X160802993Y-41350099D01*
X160917007Y-41415925D01*
X160980590Y-41432962D01*
X160491466Y-41922085D01*
X160491466Y-41922086D01*
X160507267Y-41933566D01*
X160507275Y-41933571D01*
X160668552Y-42015747D01*
X160668555Y-42015748D01*
X160840706Y-42071682D01*
X161019494Y-42100000D01*
X161200506Y-42100000D01*
X161379293Y-42071682D01*
X161551444Y-42015748D01*
X161551452Y-42015745D01*
X161712730Y-41933568D01*
X161728532Y-41922085D01*
X161728533Y-41922085D01*
X161239410Y-41432962D01*
X161302993Y-41415925D01*
X161417007Y-41350099D01*
X161510099Y-41257007D01*
X161575925Y-41142993D01*
X161592962Y-41079409D01*
X162082085Y-41568532D01*
X162093568Y-41552730D01*
X162175745Y-41391452D01*
X162175748Y-41391444D01*
X162231682Y-41219293D01*
X162260000Y-41040506D01*
X162260000Y-40859493D01*
X162231682Y-40680706D01*
X162175748Y-40508555D01*
X162175747Y-40508552D01*
X162112759Y-40384933D01*
X162093571Y-40347275D01*
X162093566Y-40347267D01*
X162082085Y-40331466D01*
X161592962Y-40820589D01*
X161575925Y-40757007D01*
X161510099Y-40642993D01*
X161417007Y-40549901D01*
X161302993Y-40484075D01*
X161239409Y-40467037D01*
X161728533Y-39977913D01*
X161712730Y-39966431D01*
X161551447Y-39884252D01*
X161551444Y-39884251D01*
X161379293Y-39828317D01*
X161200506Y-39800000D01*
X161019494Y-39800000D01*
X160840706Y-39828317D01*
X160668555Y-39884251D01*
X160668547Y-39884254D01*
X160507269Y-39966432D01*
X160491466Y-39977912D01*
X160491466Y-39977913D01*
X160980591Y-40467037D01*
X160917007Y-40484075D01*
X160802993Y-40549901D01*
X160709901Y-40642993D01*
X160644075Y-40757007D01*
X160627037Y-40820590D01*
X160137913Y-40331466D01*
X160134229Y-40331756D01*
X160120618Y-40328896D01*
X160106853Y-40330876D01*
X160087101Y-40321855D01*
X160065852Y-40317392D01*
X160055948Y-40307628D01*
X160043297Y-40301851D01*
X160031556Y-40283582D01*
X160016095Y-40268340D01*
X160012268Y-40253569D01*
X160005523Y-40243073D01*
X160000500Y-40208138D01*
X160000500Y-39136819D01*
X160020185Y-39069780D01*
X160072989Y-39024025D01*
X160142147Y-39014081D01*
X160205703Y-39043106D01*
X160224814Y-39063929D01*
X160270586Y-39126928D01*
X160393072Y-39249414D01*
X160533212Y-39351232D01*
X160687555Y-39429873D01*
X160852299Y-39483402D01*
X161023389Y-39510500D01*
X161023390Y-39510500D01*
X161196610Y-39510500D01*
X161196611Y-39510500D01*
X161367701Y-39483402D01*
X161532445Y-39429873D01*
X161686788Y-39351232D01*
X161826928Y-39249414D01*
X161949414Y-39126928D01*
X162051232Y-38986788D01*
X162129873Y-38832445D01*
X162183402Y-38667701D01*
X162210500Y-38496611D01*
X162210500Y-38323389D01*
X162183402Y-38152299D01*
X162129873Y-37987555D01*
X162051232Y-37833212D01*
X161949414Y-37693072D01*
X161826928Y-37570586D01*
X161686788Y-37468768D01*
X161532445Y-37390127D01*
X161367701Y-37336598D01*
X161367699Y-37336597D01*
X161367698Y-37336597D01*
X161236271Y-37315781D01*
X161196611Y-37309500D01*
X161023389Y-37309500D01*
X160983728Y-37315781D01*
X160852302Y-37336597D01*
X160687552Y-37390128D01*
X160533211Y-37468768D01*
X160453256Y-37526859D01*
X160393072Y-37570586D01*
X160393070Y-37570588D01*
X160393069Y-37570588D01*
X160270588Y-37693069D01*
X160270581Y-37693078D01*
X160224817Y-37756066D01*
X160169487Y-37798732D01*
X160099874Y-37804710D01*
X160038079Y-37772104D01*
X160003722Y-37711265D01*
X160000500Y-37683180D01*
X160000500Y-37074542D01*
X160020185Y-37007503D01*
X160072989Y-36961748D01*
X160142147Y-36951804D01*
X160150195Y-36954012D01*
X160150281Y-36953584D01*
X160235321Y-36970499D01*
X160235324Y-36970500D01*
X160235326Y-36970500D01*
X161984676Y-36970500D01*
X161984677Y-36970499D01*
X162057740Y-36955966D01*
X162140601Y-36900601D01*
X162195966Y-36817740D01*
X162210500Y-36744674D01*
X162210500Y-35124500D01*
X162230185Y-35057461D01*
X162282989Y-35011706D01*
X162334500Y-35000500D01*
X164919842Y-35000500D01*
X164986881Y-35020185D01*
G37*
%TD.AperFunction*%
%TA.AperFunction,Conductor*%
G36*
X162082085Y-54268532D02*
G01*
X162087185Y-54261515D01*
X162142517Y-54218852D01*
X162212131Y-54212876D01*
X162273925Y-54245485D01*
X162308279Y-54306325D01*
X162311500Y-54334405D01*
X162311500Y-55607519D01*
X162291815Y-55674558D01*
X162239011Y-55720313D01*
X162169853Y-55730257D01*
X162106297Y-55701232D01*
X162077015Y-55663814D01*
X162051231Y-55613211D01*
X162048567Y-55609544D01*
X161949414Y-55473072D01*
X161826928Y-55350586D01*
X161686788Y-55248768D01*
X161532445Y-55170127D01*
X161367701Y-55116598D01*
X161367699Y-55116597D01*
X161367698Y-55116597D01*
X161236271Y-55095781D01*
X161196611Y-55089500D01*
X161023389Y-55089500D01*
X160983728Y-55095781D01*
X160852302Y-55116597D01*
X160687552Y-55170128D01*
X160533211Y-55248768D01*
X160453256Y-55306859D01*
X160393072Y-55350586D01*
X160393070Y-55350588D01*
X160393069Y-55350588D01*
X160270588Y-55473069D01*
X160270581Y-55473078D01*
X160224817Y-55536066D01*
X160169487Y-55578732D01*
X160099874Y-55584710D01*
X160038079Y-55552104D01*
X160003722Y-55491265D01*
X160000500Y-55463180D01*
X160000500Y-54391861D01*
X160020185Y-54324822D01*
X160072989Y-54279067D01*
X160134229Y-54268243D01*
X160137913Y-54268533D01*
X160627037Y-53779409D01*
X160644075Y-53842993D01*
X160709901Y-53957007D01*
X160802993Y-54050099D01*
X160917007Y-54115925D01*
X160980590Y-54132962D01*
X160491466Y-54622085D01*
X160491466Y-54622086D01*
X160507267Y-54633566D01*
X160507275Y-54633571D01*
X160668552Y-54715747D01*
X160668555Y-54715748D01*
X160840706Y-54771682D01*
X161019494Y-54800000D01*
X161200506Y-54800000D01*
X161379293Y-54771682D01*
X161551444Y-54715748D01*
X161551452Y-54715745D01*
X161712730Y-54633568D01*
X161728532Y-54622085D01*
X161728533Y-54622085D01*
X161239410Y-54132962D01*
X161302993Y-54115925D01*
X161417007Y-54050099D01*
X161510099Y-53957007D01*
X161575925Y-53842993D01*
X161592962Y-53779409D01*
X162082085Y-54268532D01*
G37*
%TD.AperFunction*%
%TA.AperFunction,Conductor*%
G36*
X160205703Y-51743106D02*
G01*
X160224814Y-51763929D01*
X160270586Y-51826928D01*
X160393072Y-51949414D01*
X160533212Y-52051232D01*
X160687555Y-52129873D01*
X160852299Y-52183402D01*
X161023389Y-52210500D01*
X161023390Y-52210500D01*
X161196610Y-52210500D01*
X161196611Y-52210500D01*
X161367701Y-52183402D01*
X161532445Y-52129873D01*
X161532447Y-52129871D01*
X161536971Y-52128402D01*
X161606812Y-52126407D01*
X161662970Y-52158652D01*
X162275181Y-52770863D01*
X162308666Y-52832186D01*
X162311500Y-52858544D01*
X162311500Y-52965594D01*
X162291815Y-53032633D01*
X162239011Y-53078388D01*
X162169853Y-53088332D01*
X162106297Y-53059307D01*
X162087183Y-53038481D01*
X162082086Y-53031466D01*
X162082085Y-53031466D01*
X161592962Y-53520589D01*
X161575925Y-53457007D01*
X161510099Y-53342993D01*
X161417007Y-53249901D01*
X161302993Y-53184075D01*
X161239409Y-53167037D01*
X161728533Y-52677913D01*
X161712730Y-52666431D01*
X161551447Y-52584252D01*
X161551444Y-52584251D01*
X161379293Y-52528317D01*
X161200506Y-52500000D01*
X161019494Y-52500000D01*
X160840706Y-52528317D01*
X160668555Y-52584251D01*
X160668547Y-52584254D01*
X160507269Y-52666432D01*
X160491466Y-52677912D01*
X160491466Y-52677913D01*
X160980591Y-53167037D01*
X160917007Y-53184075D01*
X160802993Y-53249901D01*
X160709901Y-53342993D01*
X160644075Y-53457007D01*
X160627037Y-53520590D01*
X160137913Y-53031466D01*
X160134229Y-53031756D01*
X160120618Y-53028896D01*
X160106853Y-53030876D01*
X160087101Y-53021855D01*
X160065852Y-53017392D01*
X160055948Y-53007628D01*
X160043297Y-53001851D01*
X160031556Y-52983582D01*
X160016095Y-52968340D01*
X160012268Y-52953569D01*
X160005523Y-52943073D01*
X160000500Y-52908138D01*
X160000500Y-51836819D01*
X160020185Y-51769780D01*
X160072989Y-51724025D01*
X160142147Y-51714081D01*
X160205703Y-51743106D01*
G37*
%TD.AperFunction*%
%TA.AperFunction,Conductor*%
G36*
X168858625Y-42040185D02*
G01*
X168904380Y-42092989D01*
X168911357Y-42112398D01*
X168920239Y-42145543D01*
X168923386Y-42157288D01*
X168923387Y-42157290D01*
X168969527Y-42237208D01*
X168969529Y-42237211D01*
X168969530Y-42237212D01*
X169083787Y-42351469D01*
X169149658Y-42389500D01*
X169163712Y-42397614D01*
X169252856Y-42421500D01*
X169800500Y-42421500D01*
X169867539Y-42441185D01*
X169913294Y-42493989D01*
X169924500Y-42545500D01*
X169924500Y-50104495D01*
X169904815Y-50171534D01*
X169852011Y-50217289D01*
X169782853Y-50227233D01*
X169719297Y-50198208D01*
X169693114Y-50166496D01*
X169690513Y-50161991D01*
X169690510Y-50161988D01*
X169690509Y-50161985D01*
X169588015Y-50059491D01*
X169588013Y-50059490D01*
X169588011Y-50059488D01*
X169462488Y-49987017D01*
X169462489Y-49987017D01*
X169451006Y-49983940D01*
X169322475Y-49949500D01*
X169322472Y-49949500D01*
X169271544Y-49949500D01*
X169242103Y-49940855D01*
X169212117Y-49934332D01*
X169207101Y-49930577D01*
X169204505Y-49929815D01*
X169183863Y-49913181D01*
X169011818Y-49741136D01*
X168978333Y-49679813D01*
X168975499Y-49653455D01*
X168975499Y-49204518D01*
X168975498Y-49204509D01*
X168969412Y-49147885D01*
X168951588Y-49100101D01*
X168921628Y-49019774D01*
X168839687Y-48910313D01*
X168730226Y-48828372D01*
X168722444Y-48824123D01*
X168723142Y-48822843D01*
X168674892Y-48786716D01*
X168650482Y-48721249D01*
X168665341Y-48652978D01*
X168714752Y-48603578D01*
X168717873Y-48601931D01*
X168725300Y-48598146D01*
X168725304Y-48598146D01*
X168838342Y-48540550D01*
X168928050Y-48450842D01*
X168985646Y-48337804D01*
X168985646Y-48337802D01*
X168985647Y-48337801D01*
X169000499Y-48244024D01*
X169000500Y-48244019D01*
X169000499Y-47005982D01*
X168985646Y-46912196D01*
X168928050Y-46799158D01*
X168928046Y-46799154D01*
X168928045Y-46799152D01*
X168838347Y-46709454D01*
X168838344Y-46709452D01*
X168838342Y-46709450D01*
X168752184Y-46665550D01*
X168725301Y-46651852D01*
X168631524Y-46637000D01*
X168268482Y-46637000D01*
X168197649Y-46648218D01*
X168174696Y-46651854D01*
X168174695Y-46651854D01*
X168165057Y-46653381D01*
X168164736Y-46651359D01*
X168107478Y-46652989D01*
X168047649Y-46616902D01*
X168016827Y-46554198D01*
X168024799Y-46484785D01*
X168028514Y-46476800D01*
X168035646Y-46462804D01*
X168036180Y-46459436D01*
X168050499Y-46369024D01*
X168050500Y-46369019D01*
X168050499Y-45130982D01*
X168050499Y-45130981D01*
X168050499Y-45130977D01*
X168047943Y-45114840D01*
X168056897Y-45045547D01*
X168101894Y-44992095D01*
X168168645Y-44971455D01*
X168235959Y-44990180D01*
X168244051Y-44995673D01*
X168309438Y-45043931D01*
X168433219Y-45087244D01*
X168449999Y-45088817D01*
X168950000Y-45088817D01*
X168966780Y-45087244D01*
X169090561Y-45043931D01*
X169196065Y-44966065D01*
X169273933Y-44860559D01*
X169273934Y-44860557D01*
X169305621Y-44770000D01*
X168950000Y-44770000D01*
X168950000Y-45088817D01*
X168449999Y-45088817D01*
X168450000Y-45088816D01*
X168450000Y-44770000D01*
X168094378Y-44770000D01*
X168075630Y-44796423D01*
X168020782Y-44839707D01*
X167951240Y-44846467D01*
X167889083Y-44814556D01*
X167854045Y-44754107D01*
X167850500Y-44724668D01*
X167850500Y-44703858D01*
X167850500Y-44703856D01*
X167826614Y-44614712D01*
X167810221Y-44586319D01*
X167780473Y-44534794D01*
X167780470Y-44534791D01*
X167780469Y-44534788D01*
X167715212Y-44469531D01*
X166761818Y-43516137D01*
X166728333Y-43454814D01*
X166725499Y-43428456D01*
X166725499Y-43071544D01*
X166745184Y-43004505D01*
X166761818Y-42983863D01*
X167202203Y-42543478D01*
X167687821Y-42057860D01*
X167749142Y-42024377D01*
X167818834Y-42029361D01*
X167874767Y-42071233D01*
X167899184Y-42136697D01*
X167899500Y-42145543D01*
X167899500Y-43096144D01*
X167909779Y-43134505D01*
X167923386Y-43185289D01*
X167923387Y-43185290D01*
X167969527Y-43265208D01*
X167969531Y-43265213D01*
X168093181Y-43388863D01*
X168126666Y-43450186D01*
X168129500Y-43476544D01*
X168129500Y-43671582D01*
X168140418Y-43746518D01*
X168140418Y-43746519D01*
X168140419Y-43746521D01*
X168196921Y-43862099D01*
X168196923Y-43862102D01*
X168219893Y-43885072D01*
X168253378Y-43946395D01*
X168248394Y-44016087D01*
X168210220Y-44067079D01*
X168210505Y-44067364D01*
X168208526Y-44069342D01*
X168206522Y-44072020D01*
X168205855Y-44072516D01*
X168203937Y-44073931D01*
X168203936Y-44073932D01*
X168126066Y-44179440D01*
X168126065Y-44179442D01*
X168094378Y-44269999D01*
X168094378Y-44270000D01*
X169305622Y-44270000D01*
X169305621Y-44269999D01*
X169273934Y-44179442D01*
X169273933Y-44179440D01*
X169196064Y-44073933D01*
X169194149Y-44072520D01*
X169192566Y-44070435D01*
X169189495Y-44067364D01*
X169189915Y-44066943D01*
X169151901Y-44016871D01*
X169146445Y-43947214D01*
X169179515Y-43885666D01*
X169179959Y-43885219D01*
X169203076Y-43862102D01*
X169203076Y-43862100D01*
X169203078Y-43862099D01*
X169231329Y-43804310D01*
X169259582Y-43746518D01*
X169270500Y-43671582D01*
X169270500Y-43328418D01*
X169259582Y-43253482D01*
X169226245Y-43185290D01*
X169203078Y-43137900D01*
X169203076Y-43137897D01*
X169112102Y-43046923D01*
X169112099Y-43046921D01*
X168996521Y-42990419D01*
X168996519Y-42990418D01*
X168996518Y-42990418D01*
X168921582Y-42979500D01*
X168921577Y-42979500D01*
X168726544Y-42979500D01*
X168697103Y-42970855D01*
X168667117Y-42964332D01*
X168662101Y-42960577D01*
X168659505Y-42959815D01*
X168638863Y-42943181D01*
X168636819Y-42941137D01*
X168603334Y-42879814D01*
X168600500Y-42853456D01*
X168600500Y-42144500D01*
X168620185Y-42077461D01*
X168672989Y-42031706D01*
X168724500Y-42020500D01*
X168791586Y-42020500D01*
X168858625Y-42040185D01*
G37*
%TD.AperFunction*%
%TA.AperFunction,Conductor*%
G36*
X166693039Y-40814685D02*
G01*
X166738794Y-40867489D01*
X166750000Y-40919000D01*
X166750000Y-41045000D01*
X166875500Y-41045000D01*
X166942539Y-41064685D01*
X166988294Y-41117489D01*
X166999500Y-41169000D01*
X166999500Y-41703455D01*
X166979815Y-41770494D01*
X166963181Y-41791136D01*
X166711681Y-42042636D01*
X166650358Y-42076121D01*
X166580666Y-42071137D01*
X166524733Y-42029265D01*
X166500316Y-41963801D01*
X166500000Y-41954955D01*
X166500000Y-41295000D01*
X166144000Y-41295000D01*
X166076961Y-41275315D01*
X166031206Y-41222511D01*
X166020000Y-41171000D01*
X166020000Y-40919000D01*
X166039685Y-40851961D01*
X166092489Y-40806206D01*
X166144000Y-40795000D01*
X166626000Y-40795000D01*
X166693039Y-40814685D01*
G37*
%TD.AperFunction*%
%TA.AperFunction,Conductor*%
G36*
X177732539Y-35020185D02*
G01*
X177778294Y-35072989D01*
X177789500Y-35124500D01*
X177789500Y-35395500D01*
X177769815Y-35462539D01*
X177717011Y-35508294D01*
X177665500Y-35519500D01*
X177083856Y-35519500D01*
X176994712Y-35543386D01*
X176994709Y-35543387D01*
X176914791Y-35589527D01*
X176914786Y-35589531D01*
X175491137Y-37013181D01*
X175429814Y-37046666D01*
X175403456Y-37049500D01*
X174951234Y-37049500D01*
X174884195Y-37029815D01*
X174838440Y-36977011D01*
X174828496Y-36907853D01*
X174857521Y-36844297D01*
X174863553Y-36837819D01*
X174941398Y-36759973D01*
X174941401Y-36759969D01*
X175028947Y-36628948D01*
X175028952Y-36628939D01*
X175089256Y-36483351D01*
X175089258Y-36483343D01*
X175119999Y-36328797D01*
X175120000Y-36328794D01*
X175120000Y-36200000D01*
X174620000Y-36200000D01*
X174620000Y-35700000D01*
X175120000Y-35700000D01*
X175120000Y-35571206D01*
X175119999Y-35571202D01*
X175089258Y-35416656D01*
X175089256Y-35416648D01*
X175028952Y-35271060D01*
X175028947Y-35271051D01*
X174977056Y-35193391D01*
X174956178Y-35126714D01*
X174974662Y-35059333D01*
X175026641Y-35012643D01*
X175080158Y-35000500D01*
X177665500Y-35000500D01*
X177732539Y-35020185D01*
G37*
%TD.AperFunction*%
%TD*%
M02*
