%TF.GenerationSoftware,KiCad,Pcbnew,9.0.2*%
%TF.CreationDate,2026-03-15T21:02:35+02:00*%
%TF.ProjectId,RP2040,52503230-3430-42e6-9b69-6361645f7063,rev?*%
%TF.SameCoordinates,Original*%
%TF.FileFunction,Copper,L2,Bot*%
%TF.FilePolarity,Positive*%
%FSLAX46Y46*%
G04 Gerber Fmt 4.6, Leading zero omitted, Abs format (unit mm)*
G04 Created by KiCad (PCBNEW 9.0.2) date 2026-03-15 21:02:35*
%MOMM*%
%LPD*%
G01*
G04 APERTURE LIST*
%TA.AperFunction,ComponentPad*%
%ADD10R,1.700000X1.700000*%
%TD*%
%TA.AperFunction,ComponentPad*%
%ADD11C,1.700000*%
%TD*%
%TA.AperFunction,HeatsinkPad*%
%ADD12O,1.000000X2.100000*%
%TD*%
%TA.AperFunction,HeatsinkPad*%
%ADD13O,1.000000X1.600000*%
%TD*%
%TA.AperFunction,ViaPad*%
%ADD14C,0.600000*%
%TD*%
%TA.AperFunction,Conductor*%
%ADD15C,0.200000*%
%TD*%
G04 APERTURE END LIST*
D10*
%TO.P,J2,1,Pin_1*%
%TO.N,GPIO_0*%
X161110000Y-35870000D03*
D11*
%TO.P,J2,2,Pin_2*%
%TO.N,GPIO_01*%
X161110000Y-38410000D03*
%TO.P,J2,3,Pin_3*%
%TO.N,GND*%
X161110000Y-40950000D03*
%TO.P,J2,4,Pin_4*%
%TO.N,GPIO_02*%
X161110000Y-43490000D03*
%TO.P,J2,5,Pin_5*%
%TO.N,GPIO_03*%
X161110000Y-46030000D03*
%TO.P,J2,6,Pin_6*%
%TO.N,GPIO_04*%
X161110000Y-48570000D03*
%TO.P,J2,7,Pin_7*%
%TO.N,GPIO_05*%
X161110000Y-51110000D03*
%TO.P,J2,8,Pin_8*%
%TO.N,GND*%
X161110000Y-53650000D03*
%TO.P,J2,9,Pin_9*%
%TO.N,GPIO_06*%
X161110000Y-56190000D03*
%TO.P,J2,10,Pin_10*%
%TO.N,GPIO_07*%
X161110000Y-58730000D03*
%TO.P,J2,11,Pin_11*%
%TO.N,GPIO_08*%
X161110000Y-61270000D03*
%TO.P,J2,12,Pin_12*%
%TO.N,GPIO_09*%
X161110000Y-63810000D03*
%TO.P,J2,13,Pin_13*%
%TO.N,GND*%
X161110000Y-66350000D03*
%TO.P,J2,14,Pin_14*%
%TO.N,GPIO_10*%
X161110000Y-68890000D03*
%TO.P,J2,15,Pin_15*%
%TO.N,GPIO_11*%
X161110000Y-71430000D03*
%TO.P,J2,16,Pin_16*%
%TO.N,GPIO_12*%
X161110000Y-73970000D03*
%TO.P,J2,17,Pin_17*%
%TO.N,GPIO_13*%
X161110000Y-76510000D03*
%TO.P,J2,18,Pin_18*%
%TO.N,GND*%
X161110000Y-79050000D03*
%TO.P,J2,19,Pin_19*%
%TO.N,GPIO_14*%
X161110000Y-81590000D03*
%TO.P,J2,20,Pin_20*%
%TO.N,GPIO_15*%
X161110000Y-84130000D03*
%TD*%
D10*
%TO.P,J4,1,Pin_1*%
%TO.N,SWCLK*%
X167460000Y-83890000D03*
D11*
%TO.P,J4,2,Pin_2*%
%TO.N,GND*%
X170000000Y-83890000D03*
%TO.P,J4,3,Pin_3*%
%TO.N,SWD*%
X172540000Y-83890000D03*
%TD*%
D10*
%TO.P,J3,1,Pin_1*%
%TO.N,VBUS*%
X178890000Y-35870000D03*
D11*
%TO.P,J3,2,Pin_2*%
%TO.N,GPIO_29_ADC_3*%
X178890000Y-38410000D03*
%TO.P,J3,3,Pin_3*%
%TO.N,GND*%
X178890000Y-40950000D03*
%TO.P,J3,4,Pin_4*%
%TO.N,GPIO_28_ADC_2*%
X178890000Y-43490000D03*
%TO.P,J3,5,Pin_5*%
%TO.N,+3V3*%
X178890000Y-46030000D03*
%TO.P,J3,6,Pin_6*%
%TO.N,GPIO_27_ADC_1*%
X178890000Y-48570000D03*
%TO.P,J3,7,Pin_7*%
%TO.N,GPIO_26_ADC_0*%
X178890000Y-51110000D03*
%TO.P,J3,8,Pin_8*%
%TO.N,GND*%
X178890000Y-53650000D03*
%TO.P,J3,9,Pin_9*%
%TO.N,GPIO_24*%
X178890000Y-56190000D03*
%TO.P,J3,10,Pin_10*%
%TO.N,GPIO_23*%
X178890000Y-58730000D03*
%TO.P,J3,11,Pin_11*%
%TO.N,RUN*%
X178890000Y-61270000D03*
%TO.P,J3,12,Pin_12*%
%TO.N,GPIO_22*%
X178890000Y-63810000D03*
%TO.P,J3,13,Pin_13*%
%TO.N,GND*%
X178890000Y-66350000D03*
%TO.P,J3,14,Pin_14*%
%TO.N,GPIO_21*%
X178890000Y-68890000D03*
%TO.P,J3,15,Pin_15*%
%TO.N,GPIO_20*%
X178890000Y-71430000D03*
%TO.P,J3,16,Pin_16*%
%TO.N,GPIO_19*%
X178890000Y-73970000D03*
%TO.P,J3,17,Pin_17*%
%TO.N,GPIO_18*%
X178890000Y-76510000D03*
%TO.P,J3,18,Pin_18*%
%TO.N,GND*%
X178890000Y-79050000D03*
%TO.P,J3,19,Pin_19*%
%TO.N,GPIO_17*%
X178890000Y-81590000D03*
%TO.P,J3,20,Pin_20*%
%TO.N,GPIO_16*%
X178890000Y-84130000D03*
%TD*%
D12*
%TO.P,J1,S1,SHIELD*%
%TO.N,GND*%
X174320000Y-40130000D03*
D13*
X174320000Y-35950000D03*
D12*
X165680000Y-40130000D03*
D13*
X165680000Y-35950000D03*
%TD*%
D14*
%TO.N,GND*%
X162400000Y-78000000D03*
X170500000Y-61750000D03*
X173800000Y-71800000D03*
X170000000Y-74500000D03*
X168750000Y-45500000D03*
X168000000Y-63500000D03*
X173200000Y-42800000D03*
X165750000Y-74500000D03*
X173500000Y-56750000D03*
X166500000Y-70750000D03*
X171000000Y-53000000D03*
X175800000Y-36000000D03*
X176500000Y-67250000D03*
X170000000Y-38200000D03*
X163000000Y-67000000D03*
X165500000Y-57250000D03*
X166000000Y-46000000D03*
X163250000Y-65250000D03*
X166562500Y-59750000D03*
X175650000Y-57500000D03*
X169000000Y-66600000D03*
X173250000Y-69250000D03*
%TO.N,+3V3*%
X169250000Y-50500000D03*
X169250000Y-53500000D03*
X170399999Y-59790000D03*
X175250000Y-55750000D03*
X175500000Y-58750000D03*
%TO.N,+1V1*%
X171500000Y-61750000D03*
X169558429Y-55709899D03*
X173750000Y-70750000D03*
%TO.N,GPIO_02*%
X164799765Y-62400000D03*
%TO.N,GPIO_0*%
X165575266Y-61475737D03*
%TO.N,GPIO_01*%
X164751000Y-61500000D03*
%TO.N,GPIO_08*%
X167500000Y-66220813D03*
%TO.N,GPIO_28_ADC_2*%
X175750000Y-61750000D03*
%TO.N,RUN*%
X172500000Y-65500000D03*
%TO.N,GPIO_29_ADC_3*%
X175000000Y-61250000D03*
%TO.N,SWD*%
X171341022Y-66315295D03*
%TO.N,SWCLK*%
X170549265Y-66200735D03*
%TO.N,Net-(R7-Pad1)*%
X165750000Y-51750000D03*
X173500000Y-51250000D03*
%TD*%
D15*
%TO.N,GND*%
X161250000Y-66210000D02*
X161110000Y-66350000D01*
%TO.N,+3V3*%
X175250000Y-55750000D02*
X175250000Y-50750000D01*
X169250000Y-54500000D02*
X169250000Y-53500000D01*
X170399999Y-55649999D02*
X169250000Y-54500000D01*
X175000000Y-50500000D02*
X169250000Y-50500000D01*
X175250000Y-50750000D02*
X175000000Y-50500000D01*
X175049000Y-55951000D02*
X175250000Y-55750000D01*
X175500000Y-58750000D02*
X175049000Y-58299000D01*
X175049000Y-58299000D02*
X175049000Y-55951000D01*
X170399999Y-59790000D02*
X170399999Y-55649999D01*
%TO.N,+1V1*%
X170250000Y-60750000D02*
X169558429Y-60058429D01*
X172250000Y-69250000D02*
X173750000Y-70750000D01*
X170639434Y-60750000D02*
X170250000Y-60750000D01*
X171500000Y-61610566D02*
X170639434Y-60750000D01*
X172250000Y-66250000D02*
X172250000Y-69250000D01*
X171500000Y-61750000D02*
X171500000Y-65500000D01*
X171500000Y-61750000D02*
X171500000Y-61610566D01*
X171500000Y-65500000D02*
X172250000Y-66250000D01*
X169558429Y-60058429D02*
X169558429Y-55709899D01*
%TO.N,GPIO_02*%
X161110000Y-43490000D02*
X163448000Y-45828000D01*
X164799765Y-62400000D02*
X164699765Y-62500000D01*
X163448000Y-45828000D02*
X163448000Y-61048235D01*
X163448000Y-61048235D02*
X164799765Y-62400000D01*
%TO.N,GPIO_0*%
X165575266Y-61475737D02*
X165575266Y-61325266D01*
X164250000Y-39010000D02*
X161110000Y-35870000D01*
X164250000Y-60000000D02*
X164250000Y-39010000D01*
X165575266Y-61325266D02*
X164250000Y-60000000D01*
%TO.N,GPIO_01*%
X164751000Y-61500000D02*
X163849000Y-60598000D01*
X163849000Y-60598000D02*
X163849000Y-41149000D01*
X163849000Y-41149000D02*
X161110000Y-38410000D01*
%TO.N,GPIO_08*%
X162500000Y-65750000D02*
X162970813Y-66220813D01*
X162500000Y-62660000D02*
X162500000Y-65750000D01*
X161110000Y-61270000D02*
X162500000Y-62660000D01*
X162970813Y-66220813D02*
X167500000Y-66220813D01*
%TO.N,GPIO_28_ADC_2*%
X175750000Y-61750000D02*
X176651000Y-60849000D01*
X176651000Y-45729000D02*
X178890000Y-43490000D01*
X176651000Y-60849000D02*
X176651000Y-45729000D01*
%TO.N,RUN*%
X176750000Y-65500000D02*
X172500000Y-65500000D01*
X177500000Y-62660000D02*
X177500000Y-64750000D01*
X177500000Y-64750000D02*
X176750000Y-65500000D01*
X178890000Y-61270000D02*
X177500000Y-62660000D01*
%TO.N,GPIO_29_ADC_3*%
X175000000Y-61250000D02*
X175250000Y-61000000D01*
X175750000Y-61000000D02*
X176250000Y-60500000D01*
X176250000Y-60500000D02*
X176250000Y-41050000D01*
X175250000Y-61000000D02*
X175750000Y-61000000D01*
X176250000Y-41050000D02*
X178890000Y-38410000D01*
%TO.N,SWD*%
X171341022Y-66315295D02*
X171555416Y-66529689D01*
X171555416Y-67500000D02*
X171555416Y-82905416D01*
X171555416Y-66529689D02*
X171555416Y-67500000D01*
X171555416Y-82905416D02*
X172540000Y-83890000D01*
%TO.N,SWCLK*%
X170549265Y-66200735D02*
X167460000Y-69290000D01*
X167460000Y-69290000D02*
X167460000Y-83890000D01*
%TO.N,Net-(R7-Pad1)*%
X165750000Y-51750000D02*
X173000000Y-51750000D01*
X173000000Y-51750000D02*
X173500000Y-51250000D01*
%TD*%
%TA.AperFunction,Conductor*%
%TO.N,GND*%
G36*
X164986881Y-35020185D02*
G01*
X165032636Y-35072989D01*
X165042580Y-35142147D01*
X165022944Y-35193391D01*
X164971052Y-35271051D01*
X164971047Y-35271060D01*
X164910743Y-35416648D01*
X164910741Y-35416656D01*
X164880000Y-35571202D01*
X164880000Y-35700000D01*
X165380000Y-35700000D01*
X165380000Y-36200000D01*
X164880000Y-36200000D01*
X164880000Y-36328797D01*
X164910741Y-36483343D01*
X164910743Y-36483351D01*
X164971047Y-36628939D01*
X164971052Y-36628948D01*
X165058598Y-36759969D01*
X165058601Y-36759973D01*
X165170026Y-36871398D01*
X165170034Y-36871404D01*
X165301047Y-36958944D01*
X165301065Y-36958954D01*
X165429999Y-37012360D01*
X165430000Y-37012360D01*
X165430000Y-36416988D01*
X165439940Y-36434205D01*
X165495795Y-36490060D01*
X165564204Y-36529556D01*
X165640504Y-36550000D01*
X165719496Y-36550000D01*
X165795796Y-36529556D01*
X165864205Y-36490060D01*
X165920060Y-36434205D01*
X165930000Y-36416988D01*
X165930000Y-37012360D01*
X166058934Y-36958954D01*
X166058952Y-36958944D01*
X166189965Y-36871404D01*
X166189973Y-36871398D01*
X166301398Y-36759973D01*
X166301401Y-36759969D01*
X166388947Y-36628948D01*
X166388952Y-36628939D01*
X166449256Y-36483351D01*
X166449258Y-36483343D01*
X166479999Y-36328797D01*
X166480000Y-36328794D01*
X166480000Y-36200000D01*
X165980000Y-36200000D01*
X165980000Y-35700000D01*
X166480000Y-35700000D01*
X166480000Y-35571206D01*
X166479999Y-35571202D01*
X166449258Y-35416656D01*
X166449256Y-35416648D01*
X166388952Y-35271060D01*
X166388947Y-35271051D01*
X166337056Y-35193391D01*
X166316178Y-35126714D01*
X166334662Y-35059333D01*
X166386641Y-35012643D01*
X166440158Y-35000500D01*
X173559842Y-35000500D01*
X173626881Y-35020185D01*
X173672636Y-35072989D01*
X173682580Y-35142147D01*
X173662944Y-35193391D01*
X173611052Y-35271051D01*
X173611047Y-35271060D01*
X173550743Y-35416648D01*
X173550741Y-35416656D01*
X173520000Y-35571202D01*
X173520000Y-35700000D01*
X174020000Y-35700000D01*
X174020000Y-36200000D01*
X173520000Y-36200000D01*
X173520000Y-36328797D01*
X173550741Y-36483343D01*
X173550743Y-36483351D01*
X173611047Y-36628939D01*
X173611052Y-36628948D01*
X173698598Y-36759969D01*
X173698601Y-36759973D01*
X173810026Y-36871398D01*
X173810034Y-36871404D01*
X173941047Y-36958944D01*
X173941065Y-36958954D01*
X174069999Y-37012360D01*
X174070000Y-37012360D01*
X174070000Y-36416988D01*
X174079940Y-36434205D01*
X174135795Y-36490060D01*
X174204204Y-36529556D01*
X174280504Y-36550000D01*
X174359496Y-36550000D01*
X174435796Y-36529556D01*
X174504205Y-36490060D01*
X174560060Y-36434205D01*
X174570000Y-36416988D01*
X174570000Y-37012360D01*
X174698934Y-36958954D01*
X174698952Y-36958944D01*
X174829965Y-36871404D01*
X174829973Y-36871398D01*
X174941398Y-36759973D01*
X174941401Y-36759969D01*
X175028947Y-36628948D01*
X175028952Y-36628939D01*
X175089256Y-36483351D01*
X175089258Y-36483343D01*
X175119999Y-36328797D01*
X175120000Y-36328794D01*
X175120000Y-36200000D01*
X174620000Y-36200000D01*
X174620000Y-35700000D01*
X175120000Y-35700000D01*
X175120000Y-35571206D01*
X175119999Y-35571202D01*
X175089258Y-35416656D01*
X175089256Y-35416648D01*
X175028952Y-35271060D01*
X175028947Y-35271051D01*
X174977056Y-35193391D01*
X174956178Y-35126714D01*
X174974662Y-35059333D01*
X175026641Y-35012643D01*
X175080158Y-35000500D01*
X177665500Y-35000500D01*
X177732539Y-35020185D01*
X177778294Y-35072989D01*
X177789500Y-35124500D01*
X177789500Y-36744678D01*
X177804032Y-36817735D01*
X177804033Y-36817739D01*
X177804034Y-36817740D01*
X177859399Y-36900601D01*
X177936031Y-36951804D01*
X177942260Y-36955966D01*
X177942264Y-36955967D01*
X178015321Y-36970499D01*
X178015324Y-36970500D01*
X178015326Y-36970500D01*
X179764676Y-36970500D01*
X179764677Y-36970499D01*
X179781719Y-36967109D01*
X179849719Y-36953584D01*
X179850511Y-36957568D01*
X179897490Y-36952507D01*
X179959976Y-36983769D01*
X179995642Y-37043850D01*
X179999500Y-37074542D01*
X179999500Y-37683180D01*
X179979815Y-37750219D01*
X179927011Y-37795974D01*
X179857853Y-37805918D01*
X179794297Y-37776893D01*
X179775183Y-37756066D01*
X179729418Y-37693078D01*
X179729414Y-37693072D01*
X179606928Y-37570586D01*
X179466788Y-37468768D01*
X179312445Y-37390127D01*
X179147701Y-37336598D01*
X179147699Y-37336597D01*
X179147698Y-37336597D01*
X179016271Y-37315781D01*
X178976611Y-37309500D01*
X178803389Y-37309500D01*
X178763728Y-37315781D01*
X178632302Y-37336597D01*
X178467552Y-37390128D01*
X178313211Y-37468768D01*
X178233256Y-37526859D01*
X178173072Y-37570586D01*
X178173070Y-37570588D01*
X178173069Y-37570588D01*
X178050588Y-37693069D01*
X178050588Y-37693070D01*
X178050586Y-37693072D01*
X178050582Y-37693078D01*
X177948768Y-37833211D01*
X177870128Y-37987552D01*
X177816597Y-38152302D01*
X177789500Y-38323389D01*
X177789500Y-38496610D01*
X177816597Y-38667698D01*
X177871597Y-38836970D01*
X177873592Y-38906811D01*
X177841347Y-38962969D01*
X175969531Y-40834786D01*
X175969529Y-40834789D01*
X175950050Y-40868529D01*
X175950049Y-40868531D01*
X175923386Y-40914710D01*
X175899500Y-41003856D01*
X175899500Y-55321614D01*
X175893261Y-55342859D01*
X175891682Y-55364948D01*
X175883609Y-55375731D01*
X175879815Y-55388653D01*
X175863081Y-55403152D01*
X175849810Y-55420881D01*
X175837189Y-55425588D01*
X175827011Y-55434408D01*
X175805093Y-55437559D01*
X175784346Y-55445298D01*
X175771185Y-55442435D01*
X175757853Y-55444352D01*
X175737709Y-55435152D01*
X175716073Y-55430446D01*
X175698347Y-55417177D01*
X175694297Y-55415327D01*
X175687819Y-55409295D01*
X175636819Y-55358295D01*
X175603334Y-55296972D01*
X175600500Y-55270614D01*
X175600500Y-50703858D01*
X175600500Y-50703856D01*
X175576614Y-50614712D01*
X175576611Y-50614706D01*
X175530473Y-50534794D01*
X175530470Y-50534791D01*
X175530469Y-50534788D01*
X175465212Y-50469531D01*
X175215212Y-50219530D01*
X175135288Y-50173386D01*
X175125335Y-50170719D01*
X175118050Y-50168767D01*
X175118049Y-50168766D01*
X175062250Y-50153815D01*
X175046144Y-50149500D01*
X175046143Y-50149500D01*
X169729386Y-50149500D01*
X169662347Y-50129815D01*
X169641705Y-50113181D01*
X169588017Y-50059493D01*
X169588011Y-50059488D01*
X169462488Y-49987017D01*
X169462489Y-49987017D01*
X169451006Y-49983940D01*
X169322475Y-49949500D01*
X169177525Y-49949500D01*
X169048993Y-49983940D01*
X169037511Y-49987017D01*
X168911988Y-50059488D01*
X168911982Y-50059493D01*
X168809493Y-50161982D01*
X168809488Y-50161988D01*
X168737017Y-50287511D01*
X168737016Y-50287515D01*
X168699500Y-50427525D01*
X168699500Y-50572475D01*
X168737016Y-50712485D01*
X168737017Y-50712488D01*
X168809488Y-50838011D01*
X168809490Y-50838013D01*
X168809491Y-50838015D01*
X168911985Y-50940509D01*
X168911986Y-50940510D01*
X168911988Y-50940511D01*
X169037511Y-51012982D01*
X169037512Y-51012982D01*
X169037515Y-51012984D01*
X169177525Y-51050500D01*
X169177528Y-51050500D01*
X169322472Y-51050500D01*
X169322475Y-51050500D01*
X169462485Y-51012984D01*
X169588015Y-50940509D01*
X169641705Y-50886819D01*
X169703028Y-50853334D01*
X169729386Y-50850500D01*
X172880214Y-50850500D01*
X172947253Y-50870185D01*
X172993008Y-50922989D01*
X173002952Y-50992147D01*
X172989885Y-51029900D01*
X172990128Y-51030001D01*
X172988442Y-51034071D01*
X172987603Y-51036496D01*
X172987018Y-51037507D01*
X172987017Y-51037510D01*
X172972460Y-51091837D01*
X172949500Y-51177525D01*
X172949500Y-51177527D01*
X172949500Y-51253456D01*
X172940855Y-51282896D01*
X172934332Y-51312883D01*
X172930577Y-51317898D01*
X172929815Y-51320495D01*
X172913181Y-51341137D01*
X172891137Y-51363181D01*
X172829814Y-51396666D01*
X172803456Y-51399500D01*
X166229386Y-51399500D01*
X166162347Y-51379815D01*
X166141705Y-51363181D01*
X166088017Y-51309493D01*
X166088011Y-51309488D01*
X165962488Y-51237017D01*
X165962489Y-51237017D01*
X165951006Y-51233940D01*
X165822475Y-51199500D01*
X165677525Y-51199500D01*
X165548993Y-51233940D01*
X165537511Y-51237017D01*
X165411988Y-51309488D01*
X165411982Y-51309493D01*
X165309493Y-51411982D01*
X165309488Y-51411988D01*
X165237017Y-51537511D01*
X165237016Y-51537515D01*
X165199500Y-51677525D01*
X165199500Y-51822475D01*
X165203344Y-51836819D01*
X165237017Y-51962488D01*
X165309488Y-52088011D01*
X165309490Y-52088013D01*
X165309491Y-52088015D01*
X165411985Y-52190509D01*
X165411986Y-52190510D01*
X165411988Y-52190511D01*
X165537511Y-52262982D01*
X165537512Y-52262982D01*
X165537515Y-52262984D01*
X165677525Y-52300500D01*
X165677528Y-52300500D01*
X165822472Y-52300500D01*
X165822475Y-52300500D01*
X165962485Y-52262984D01*
X166088015Y-52190509D01*
X166141705Y-52136819D01*
X166203028Y-52103334D01*
X166229386Y-52100500D01*
X173046142Y-52100500D01*
X173046144Y-52100500D01*
X173135288Y-52076614D01*
X173145912Y-52070480D01*
X173215212Y-52030470D01*
X173408863Y-51836819D01*
X173470186Y-51803334D01*
X173496544Y-51800500D01*
X173572472Y-51800500D01*
X173572475Y-51800500D01*
X173712485Y-51762984D01*
X173838015Y-51690509D01*
X173940509Y-51588015D01*
X174012984Y-51462485D01*
X174050500Y-51322475D01*
X174050500Y-51177525D01*
X174012984Y-51037515D01*
X174012982Y-51037512D01*
X174012982Y-51037510D01*
X174012981Y-51037507D01*
X174012397Y-51036496D01*
X174012163Y-51035534D01*
X174009872Y-51030001D01*
X174010734Y-51029643D01*
X173995927Y-50968595D01*
X174018781Y-50902569D01*
X174073704Y-50859381D01*
X174119786Y-50850500D01*
X174775500Y-50850500D01*
X174842539Y-50870185D01*
X174888294Y-50922989D01*
X174899500Y-50974500D01*
X174899500Y-55270614D01*
X174879815Y-55337653D01*
X174863181Y-55358295D01*
X174809493Y-55411982D01*
X174809488Y-55411988D01*
X174737017Y-55537511D01*
X174737016Y-55537515D01*
X174699500Y-55677525D01*
X174699500Y-55677527D01*
X174699500Y-55822475D01*
X174701439Y-55829712D01*
X174701439Y-55893885D01*
X174698500Y-55904854D01*
X174698500Y-55904856D01*
X174698500Y-58345144D01*
X174716410Y-58411985D01*
X174722386Y-58434288D01*
X174768530Y-58514212D01*
X174913182Y-58658863D01*
X174946666Y-58720185D01*
X174949500Y-58746543D01*
X174949500Y-58822475D01*
X174987016Y-58962485D01*
X174987017Y-58962488D01*
X175059488Y-59088011D01*
X175059490Y-59088013D01*
X175059491Y-59088015D01*
X175161985Y-59190509D01*
X175161986Y-59190510D01*
X175161988Y-59190511D01*
X175287511Y-59262982D01*
X175287512Y-59262982D01*
X175287515Y-59262984D01*
X175427525Y-59300500D01*
X175427528Y-59300500D01*
X175572472Y-59300500D01*
X175572475Y-59300500D01*
X175712485Y-59262984D01*
X175713495Y-59262400D01*
X175714457Y-59262167D01*
X175719999Y-59259872D01*
X175720356Y-59260735D01*
X175781393Y-59245925D01*
X175847421Y-59268774D01*
X175890615Y-59323692D01*
X175899500Y-59369785D01*
X175899500Y-60303456D01*
X175879815Y-60370495D01*
X175863181Y-60391137D01*
X175641137Y-60613181D01*
X175579814Y-60646666D01*
X175553456Y-60649500D01*
X175203856Y-60649500D01*
X175114710Y-60673386D01*
X175098256Y-60682887D01*
X175036255Y-60699500D01*
X174927525Y-60699500D01*
X174798993Y-60733940D01*
X174787511Y-60737017D01*
X174661988Y-60809488D01*
X174661982Y-60809493D01*
X174559493Y-60911982D01*
X174559488Y-60911988D01*
X174487017Y-61037511D01*
X174487016Y-61037515D01*
X174449500Y-61177525D01*
X174449500Y-61322475D01*
X174487016Y-61462485D01*
X174487017Y-61462488D01*
X174559488Y-61588011D01*
X174559490Y-61588013D01*
X174559491Y-61588015D01*
X174661985Y-61690509D01*
X174661986Y-61690510D01*
X174661988Y-61690511D01*
X174787511Y-61762982D01*
X174787512Y-61762982D01*
X174787515Y-61762984D01*
X174927525Y-61800500D01*
X174927528Y-61800500D01*
X175072474Y-61800500D01*
X175072475Y-61800500D01*
X175072475Y-61800499D01*
X175080532Y-61799439D01*
X175080959Y-61802688D01*
X175135466Y-61803937D01*
X175193364Y-61843047D01*
X175217590Y-61889987D01*
X175224627Y-61916248D01*
X175237017Y-61962488D01*
X175309488Y-62088011D01*
X175309490Y-62088013D01*
X175309491Y-62088015D01*
X175411985Y-62190509D01*
X175411986Y-62190510D01*
X175411988Y-62190511D01*
X175537511Y-62262982D01*
X175537512Y-62262982D01*
X175537515Y-62262984D01*
X175677525Y-62300500D01*
X175677528Y-62300500D01*
X175822472Y-62300500D01*
X175822475Y-62300500D01*
X175962485Y-62262984D01*
X176088015Y-62190509D01*
X176190509Y-62088015D01*
X176262984Y-61962485D01*
X176300500Y-61822475D01*
X176300500Y-61746543D01*
X176320185Y-61679504D01*
X176336819Y-61658862D01*
X176592419Y-61403262D01*
X176931469Y-61064212D01*
X176977614Y-60984288D01*
X176987203Y-60948500D01*
X177001500Y-60895144D01*
X177001500Y-45925543D01*
X177021185Y-45858504D01*
X177037814Y-45837867D01*
X178337031Y-44538649D01*
X178398352Y-44505166D01*
X178463029Y-44508401D01*
X178467547Y-44509869D01*
X178467555Y-44509873D01*
X178632299Y-44563402D01*
X178803389Y-44590500D01*
X178803390Y-44590500D01*
X178976610Y-44590500D01*
X178976611Y-44590500D01*
X179147701Y-44563402D01*
X179312445Y-44509873D01*
X179466788Y-44431232D01*
X179606928Y-44329414D01*
X179729414Y-44206928D01*
X179775183Y-44143931D01*
X179830512Y-44101268D01*
X179900125Y-44095289D01*
X179961920Y-44127895D01*
X179996278Y-44188734D01*
X179999500Y-44216819D01*
X179999500Y-45303180D01*
X179979815Y-45370219D01*
X179927011Y-45415974D01*
X179857853Y-45425918D01*
X179794297Y-45396893D01*
X179775183Y-45376066D01*
X179729418Y-45313078D01*
X179729414Y-45313072D01*
X179606928Y-45190586D01*
X179466788Y-45088768D01*
X179312445Y-45010127D01*
X179147701Y-44956598D01*
X179147699Y-44956597D01*
X179147698Y-44956597D01*
X179016271Y-44935781D01*
X178976611Y-44929500D01*
X178803389Y-44929500D01*
X178763728Y-44935781D01*
X178632302Y-44956597D01*
X178467552Y-45010128D01*
X178313211Y-45088768D01*
X178233256Y-45146859D01*
X178173072Y-45190586D01*
X178173070Y-45190588D01*
X178173069Y-45190588D01*
X178050588Y-45313069D01*
X178050588Y-45313070D01*
X178050586Y-45313072D01*
X178050582Y-45313078D01*
X177948768Y-45453211D01*
X177870128Y-45607552D01*
X177816597Y-45772302D01*
X177790534Y-45936862D01*
X177789500Y-45943389D01*
X177789500Y-46116611D01*
X177816598Y-46287701D01*
X177870127Y-46452445D01*
X177948768Y-46606788D01*
X178050586Y-46746928D01*
X178173072Y-46869414D01*
X178313212Y-46971232D01*
X178467555Y-47049873D01*
X178632299Y-47103402D01*
X178803389Y-47130500D01*
X178803390Y-47130500D01*
X178976610Y-47130500D01*
X178976611Y-47130500D01*
X179147701Y-47103402D01*
X179312445Y-47049873D01*
X179466788Y-46971232D01*
X179606928Y-46869414D01*
X179729414Y-46746928D01*
X179775183Y-46683931D01*
X179830512Y-46641268D01*
X179900125Y-46635289D01*
X179961920Y-46667895D01*
X179996278Y-46728734D01*
X179999500Y-46756819D01*
X179999500Y-47843180D01*
X179979815Y-47910219D01*
X179927011Y-47955974D01*
X179857853Y-47965918D01*
X179794297Y-47936893D01*
X179775183Y-47916066D01*
X179729418Y-47853078D01*
X179729414Y-47853072D01*
X179606928Y-47730586D01*
X179466788Y-47628768D01*
X179312445Y-47550127D01*
X179147701Y-47496598D01*
X179147699Y-47496597D01*
X179147698Y-47496597D01*
X179016271Y-47475781D01*
X178976611Y-47469500D01*
X178803389Y-47469500D01*
X178763728Y-47475781D01*
X178632302Y-47496597D01*
X178467552Y-47550128D01*
X178313211Y-47628768D01*
X178233256Y-47686859D01*
X178173072Y-47730586D01*
X178173070Y-47730588D01*
X178173069Y-47730588D01*
X178050588Y-47853069D01*
X178050588Y-47853070D01*
X178050586Y-47853072D01*
X178050582Y-47853078D01*
X177948768Y-47993211D01*
X177870128Y-48147552D01*
X177816597Y-48312302D01*
X177789500Y-48483389D01*
X177789500Y-48656611D01*
X177816598Y-48827701D01*
X177870127Y-48992445D01*
X177948768Y-49146788D01*
X178050586Y-49286928D01*
X178173072Y-49409414D01*
X178313212Y-49511232D01*
X178467555Y-49589873D01*
X178632299Y-49643402D01*
X178803389Y-49670500D01*
X178803390Y-49670500D01*
X178976610Y-49670500D01*
X178976611Y-49670500D01*
X179147701Y-49643402D01*
X179312445Y-49589873D01*
X179466788Y-49511232D01*
X179606928Y-49409414D01*
X179729414Y-49286928D01*
X179775183Y-49223931D01*
X179830512Y-49181268D01*
X179900125Y-49175289D01*
X179961920Y-49207895D01*
X179996278Y-49268734D01*
X179999500Y-49296819D01*
X179999500Y-50383180D01*
X179979815Y-50450219D01*
X179927011Y-50495974D01*
X179857853Y-50505918D01*
X179794297Y-50476893D01*
X179775183Y-50456066D01*
X179729418Y-50393078D01*
X179729414Y-50393072D01*
X179606928Y-50270586D01*
X179466788Y-50168768D01*
X179312445Y-50090127D01*
X179147701Y-50036598D01*
X179147699Y-50036597D01*
X179147698Y-50036597D01*
X179016271Y-50015781D01*
X178976611Y-50009500D01*
X178803389Y-50009500D01*
X178763728Y-50015781D01*
X178632302Y-50036597D01*
X178467552Y-50090128D01*
X178313211Y-50168768D01*
X178243344Y-50219530D01*
X178173072Y-50270586D01*
X178173070Y-50270588D01*
X178173069Y-50270588D01*
X178050588Y-50393069D01*
X178050588Y-50393070D01*
X178050586Y-50393072D01*
X178025553Y-50427527D01*
X177948768Y-50533211D01*
X177870128Y-50687552D01*
X177816597Y-50852302D01*
X177789500Y-51023389D01*
X177789500Y-51196610D01*
X177812390Y-51341137D01*
X177816598Y-51367701D01*
X177870127Y-51532445D01*
X177948768Y-51686788D01*
X178050586Y-51826928D01*
X178173072Y-51949414D01*
X178313212Y-52051232D01*
X178467555Y-52129873D01*
X178632299Y-52183402D01*
X178803389Y-52210500D01*
X178803390Y-52210500D01*
X178976610Y-52210500D01*
X178976611Y-52210500D01*
X179147701Y-52183402D01*
X179312445Y-52129873D01*
X179466788Y-52051232D01*
X179606928Y-51949414D01*
X179729414Y-51826928D01*
X179775183Y-51763931D01*
X179830512Y-51721268D01*
X179900125Y-51715289D01*
X179961920Y-51747895D01*
X179996278Y-51808734D01*
X179999500Y-51836819D01*
X179999500Y-52908138D01*
X179979815Y-52975177D01*
X179927011Y-53020932D01*
X179865773Y-53031756D01*
X179862086Y-53031465D01*
X179372962Y-53520589D01*
X179355925Y-53457007D01*
X179290099Y-53342993D01*
X179197007Y-53249901D01*
X179082993Y-53184075D01*
X179019409Y-53167037D01*
X179508533Y-52677913D01*
X179492730Y-52666431D01*
X179331447Y-52584252D01*
X179331444Y-52584251D01*
X179159293Y-52528317D01*
X178980506Y-52500000D01*
X178799494Y-52500000D01*
X178620706Y-52528317D01*
X178448555Y-52584251D01*
X178448547Y-52584254D01*
X178287269Y-52666432D01*
X178271466Y-52677912D01*
X178271466Y-52677913D01*
X178760591Y-53167037D01*
X178697007Y-53184075D01*
X178582993Y-53249901D01*
X178489901Y-53342993D01*
X178424075Y-53457007D01*
X178407037Y-53520590D01*
X177917913Y-53031466D01*
X177917912Y-53031466D01*
X177906432Y-53047269D01*
X177824254Y-53208547D01*
X177824251Y-53208555D01*
X177768317Y-53380706D01*
X177740000Y-53559493D01*
X177740000Y-53740506D01*
X177768317Y-53919293D01*
X177824251Y-54091444D01*
X177824252Y-54091447D01*
X177906431Y-54252730D01*
X177917913Y-54268532D01*
X177917913Y-54268533D01*
X178407037Y-53779409D01*
X178424075Y-53842993D01*
X178489901Y-53957007D01*
X178582993Y-54050099D01*
X178697007Y-54115925D01*
X178760590Y-54132962D01*
X178271466Y-54622085D01*
X178271466Y-54622086D01*
X178287267Y-54633566D01*
X178287275Y-54633571D01*
X178448552Y-54715747D01*
X178448555Y-54715748D01*
X178620706Y-54771682D01*
X178799494Y-54800000D01*
X178980506Y-54800000D01*
X179159293Y-54771682D01*
X179331444Y-54715748D01*
X179331452Y-54715745D01*
X179492730Y-54633568D01*
X179508532Y-54622085D01*
X179508533Y-54622085D01*
X179019410Y-54132962D01*
X179082993Y-54115925D01*
X179197007Y-54050099D01*
X179290099Y-53957007D01*
X179355925Y-53842993D01*
X179372962Y-53779410D01*
X179862084Y-54268532D01*
X179865772Y-54268242D01*
X179934149Y-54282606D01*
X179983905Y-54331658D01*
X179999500Y-54391860D01*
X179999500Y-55463180D01*
X179979815Y-55530219D01*
X179927011Y-55575974D01*
X179857853Y-55585918D01*
X179794297Y-55556893D01*
X179775183Y-55536066D01*
X179729418Y-55473078D01*
X179729414Y-55473072D01*
X179606928Y-55350586D01*
X179466788Y-55248768D01*
X179312445Y-55170127D01*
X179147701Y-55116598D01*
X179147699Y-55116597D01*
X179147698Y-55116597D01*
X179016271Y-55095781D01*
X178976611Y-55089500D01*
X178803389Y-55089500D01*
X178763728Y-55095781D01*
X178632302Y-55116597D01*
X178467552Y-55170128D01*
X178313211Y-55248768D01*
X178246865Y-55296972D01*
X178173072Y-55350586D01*
X178173070Y-55350588D01*
X178173069Y-55350588D01*
X178050588Y-55473069D01*
X178050588Y-55473070D01*
X178050586Y-55473072D01*
X178009066Y-55530219D01*
X177948768Y-55613211D01*
X177870128Y-55767552D01*
X177816597Y-55932302D01*
X177811817Y-55962485D01*
X177789500Y-56103389D01*
X177789500Y-56276611D01*
X177816598Y-56447701D01*
X177870127Y-56612445D01*
X177948768Y-56766788D01*
X178050586Y-56906928D01*
X178173072Y-57029414D01*
X178313212Y-57131232D01*
X178467555Y-57209873D01*
X178632299Y-57263402D01*
X178803389Y-57290500D01*
X178803390Y-57290500D01*
X178976610Y-57290500D01*
X178976611Y-57290500D01*
X179147701Y-57263402D01*
X179312445Y-57209873D01*
X179466788Y-57131232D01*
X179606928Y-57029414D01*
X179729414Y-56906928D01*
X179775183Y-56843931D01*
X179830512Y-56801268D01*
X179900125Y-56795289D01*
X179961920Y-56827895D01*
X179996278Y-56888734D01*
X179999500Y-56916819D01*
X179999500Y-58003180D01*
X179979815Y-58070219D01*
X179927011Y-58115974D01*
X179857853Y-58125918D01*
X179794297Y-58096893D01*
X179775183Y-58076066D01*
X179729418Y-58013078D01*
X179729414Y-58013072D01*
X179606928Y-57890586D01*
X179466788Y-57788768D01*
X179312445Y-57710127D01*
X179147701Y-57656598D01*
X179147699Y-57656597D01*
X179147698Y-57656597D01*
X179016271Y-57635781D01*
X178976611Y-57629500D01*
X178803389Y-57629500D01*
X178763728Y-57635781D01*
X178632302Y-57656597D01*
X178467552Y-57710128D01*
X178313211Y-57788768D01*
X178233256Y-57846859D01*
X178173072Y-57890586D01*
X178173070Y-57890588D01*
X178173069Y-57890588D01*
X178050588Y-58013069D01*
X178050588Y-58013070D01*
X178050586Y-58013072D01*
X178050582Y-58013078D01*
X177948768Y-58153211D01*
X177870128Y-58307552D01*
X177870127Y-58307554D01*
X177870127Y-58307555D01*
X177849520Y-58370976D01*
X177816597Y-58472302D01*
X177789500Y-58643389D01*
X177789500Y-58816610D01*
X177812604Y-58962488D01*
X177816598Y-58987701D01*
X177870127Y-59152445D01*
X177948768Y-59306788D01*
X178050586Y-59446928D01*
X178173072Y-59569414D01*
X178313212Y-59671232D01*
X178467555Y-59749873D01*
X178632299Y-59803402D01*
X178803389Y-59830500D01*
X178803390Y-59830500D01*
X178976610Y-59830500D01*
X178976611Y-59830500D01*
X179147701Y-59803402D01*
X179312445Y-59749873D01*
X179466788Y-59671232D01*
X179606928Y-59569414D01*
X179729414Y-59446928D01*
X179775183Y-59383931D01*
X179830512Y-59341268D01*
X179900125Y-59335289D01*
X179961920Y-59367895D01*
X179996278Y-59428734D01*
X179999500Y-59456819D01*
X179999500Y-60543180D01*
X179979815Y-60610219D01*
X179927011Y-60655974D01*
X179857853Y-60665918D01*
X179794297Y-60636893D01*
X179775183Y-60616066D01*
X179729418Y-60553078D01*
X179729414Y-60553072D01*
X179606928Y-60430586D01*
X179466788Y-60328768D01*
X179312445Y-60250127D01*
X179147701Y-60196598D01*
X179147699Y-60196597D01*
X179147698Y-60196597D01*
X179016271Y-60175781D01*
X178976611Y-60169500D01*
X178803389Y-60169500D01*
X178763728Y-60175781D01*
X178632302Y-60196597D01*
X178467552Y-60250128D01*
X178313211Y-60328768D01*
X178255780Y-60370495D01*
X178173072Y-60430586D01*
X178173070Y-60430588D01*
X178173069Y-60430588D01*
X178050588Y-60553069D01*
X178050588Y-60553070D01*
X178050586Y-60553072D01*
X178050582Y-60553078D01*
X177948768Y-60693211D01*
X177870128Y-60847552D01*
X177816597Y-61012302D01*
X177789500Y-61183389D01*
X177789500Y-61356610D01*
X177816597Y-61527698D01*
X177871597Y-61696970D01*
X177873592Y-61766811D01*
X177841347Y-61822969D01*
X177219531Y-62444786D01*
X177219527Y-62444791D01*
X177173387Y-62524709D01*
X177173386Y-62524712D01*
X177149500Y-62613856D01*
X177149500Y-64553456D01*
X177129815Y-64620495D01*
X177113181Y-64641137D01*
X176641137Y-65113181D01*
X176579814Y-65146666D01*
X176553456Y-65149500D01*
X172979386Y-65149500D01*
X172912347Y-65129815D01*
X172891705Y-65113181D01*
X172838017Y-65059493D01*
X172838011Y-65059488D01*
X172712488Y-64987017D01*
X172712489Y-64987017D01*
X172701006Y-64983940D01*
X172572475Y-64949500D01*
X172427525Y-64949500D01*
X172298993Y-64983940D01*
X172287511Y-64987017D01*
X172161988Y-65059488D01*
X172161982Y-65059493D01*
X172062181Y-65159295D01*
X172000858Y-65192780D01*
X171931166Y-65187796D01*
X171875233Y-65145924D01*
X171850816Y-65080460D01*
X171850500Y-65071614D01*
X171850500Y-62229386D01*
X171870185Y-62162347D01*
X171886819Y-62141705D01*
X171940509Y-62088015D01*
X172012984Y-61962485D01*
X172050500Y-61822475D01*
X172050500Y-61677525D01*
X172012984Y-61537515D01*
X171969665Y-61462485D01*
X171940511Y-61411988D01*
X171940506Y-61411982D01*
X171838017Y-61309493D01*
X171838011Y-61309488D01*
X171712488Y-61237017D01*
X171712481Y-61237014D01*
X171621150Y-61212541D01*
X171565564Y-61180448D01*
X170854647Y-60469531D01*
X170854642Y-60469527D01*
X170769120Y-60420151D01*
X170720904Y-60369584D01*
X170707681Y-60300977D01*
X170733650Y-60236112D01*
X170743423Y-60225099D01*
X170840508Y-60128015D01*
X170912983Y-60002485D01*
X170950499Y-59862475D01*
X170950499Y-59717525D01*
X170912983Y-59577515D01*
X170891068Y-59539558D01*
X170840510Y-59451988D01*
X170840505Y-59451982D01*
X170786818Y-59398295D01*
X170753333Y-59336972D01*
X170750499Y-59310614D01*
X170750499Y-55603857D01*
X170750499Y-55603855D01*
X170726613Y-55514711D01*
X170724667Y-55511341D01*
X170720479Y-55504086D01*
X170720477Y-55504084D01*
X170702576Y-55473078D01*
X170680469Y-55434787D01*
X169636819Y-54391137D01*
X169603334Y-54329814D01*
X169600500Y-54303456D01*
X169600500Y-53979386D01*
X169620185Y-53912347D01*
X169636819Y-53891705D01*
X169690509Y-53838015D01*
X169762984Y-53712485D01*
X169800500Y-53572475D01*
X169800500Y-53427525D01*
X169762984Y-53287515D01*
X169741267Y-53249901D01*
X169690511Y-53161988D01*
X169690506Y-53161982D01*
X169588017Y-53059493D01*
X169588011Y-53059488D01*
X169462488Y-52987017D01*
X169462489Y-52987017D01*
X169449669Y-52983582D01*
X169322475Y-52949500D01*
X169177525Y-52949500D01*
X169050331Y-52983582D01*
X169037511Y-52987017D01*
X168911988Y-53059488D01*
X168911982Y-53059493D01*
X168809493Y-53161982D01*
X168809488Y-53161988D01*
X168737017Y-53287511D01*
X168737016Y-53287515D01*
X168699500Y-53427525D01*
X168699500Y-53572475D01*
X168737016Y-53712485D01*
X168737017Y-53712488D01*
X168809488Y-53838011D01*
X168809493Y-53838017D01*
X168863181Y-53891705D01*
X168896666Y-53953028D01*
X168899500Y-53979386D01*
X168899500Y-54546144D01*
X168919849Y-54622085D01*
X168923386Y-54635287D01*
X168923387Y-54635290D01*
X168969527Y-54715208D01*
X168969531Y-54715213D01*
X169298426Y-55044108D01*
X169331911Y-55105431D01*
X169326927Y-55175123D01*
X169285055Y-55231056D01*
X169272746Y-55239176D01*
X169220414Y-55269390D01*
X169220411Y-55269392D01*
X169117922Y-55371881D01*
X169117917Y-55371887D01*
X169045446Y-55497410D01*
X169045445Y-55497414D01*
X169007929Y-55637424D01*
X169007929Y-55782374D01*
X169045445Y-55922384D01*
X169045446Y-55922387D01*
X169117917Y-56047910D01*
X169117922Y-56047916D01*
X169171610Y-56101604D01*
X169205095Y-56162927D01*
X169207929Y-56189285D01*
X169207929Y-60104572D01*
X169230951Y-60190494D01*
X169231813Y-60193712D01*
X169231816Y-60193719D01*
X169277956Y-60273637D01*
X169277958Y-60273640D01*
X169277959Y-60273641D01*
X170034788Y-61030470D01*
X170112327Y-61075237D01*
X170112328Y-61075238D01*
X170113785Y-61076078D01*
X170114712Y-61076614D01*
X170203856Y-61100500D01*
X170442890Y-61100500D01*
X170509929Y-61120185D01*
X170530571Y-61136819D01*
X170924611Y-61530859D01*
X170958096Y-61592182D01*
X170956706Y-61650630D01*
X170949500Y-61677525D01*
X170949500Y-61822475D01*
X170974627Y-61916248D01*
X170987017Y-61962488D01*
X171059488Y-62088011D01*
X171059493Y-62088017D01*
X171113181Y-62141705D01*
X171146666Y-62203028D01*
X171149500Y-62229386D01*
X171149500Y-65546144D01*
X171167873Y-65614712D01*
X171173386Y-65635288D01*
X171178375Y-65643930D01*
X171182236Y-65655037D01*
X171183392Y-65678666D01*
X171188968Y-65701652D01*
X171185069Y-65712915D01*
X171185652Y-65724823D01*
X171173851Y-65745325D01*
X171166114Y-65767678D01*
X171155356Y-65777456D01*
X171150797Y-65785378D01*
X171141158Y-65790363D01*
X171127110Y-65803133D01*
X171084669Y-65827637D01*
X171016769Y-65844111D01*
X170950742Y-65821259D01*
X170934988Y-65807933D01*
X170887283Y-65760229D01*
X170887282Y-65760228D01*
X170887280Y-65760226D01*
X170887278Y-65760225D01*
X170887276Y-65760223D01*
X170761753Y-65687752D01*
X170761754Y-65687752D01*
X170746191Y-65683582D01*
X170621740Y-65650235D01*
X170476790Y-65650235D01*
X170352339Y-65683582D01*
X170336776Y-65687752D01*
X170211253Y-65760223D01*
X170211247Y-65760228D01*
X170108758Y-65862717D01*
X170108753Y-65862723D01*
X170036282Y-65988246D01*
X170036281Y-65988250D01*
X169998765Y-66128260D01*
X169998765Y-66128262D01*
X169998765Y-66204191D01*
X169979080Y-66271230D01*
X169962446Y-66291872D01*
X167179531Y-69074786D01*
X167179529Y-69074789D01*
X167156481Y-69114711D01*
X167156480Y-69114712D01*
X167133387Y-69154709D01*
X167133386Y-69154712D01*
X167109500Y-69243856D01*
X167109500Y-82665500D01*
X167089815Y-82732539D01*
X167037011Y-82778294D01*
X166985500Y-82789500D01*
X166585323Y-82789500D01*
X166512264Y-82804032D01*
X166512260Y-82804033D01*
X166429399Y-82859399D01*
X166374033Y-82942260D01*
X166374032Y-82942264D01*
X166359500Y-83015321D01*
X166359500Y-84764678D01*
X166376416Y-84849719D01*
X166372431Y-84850511D01*
X166377493Y-84897490D01*
X166346231Y-84959976D01*
X166286150Y-84995642D01*
X166255458Y-84999500D01*
X162081928Y-84999500D01*
X162014889Y-84979815D01*
X161969134Y-84927011D01*
X161959190Y-84857853D01*
X161981610Y-84802614D01*
X161987653Y-84794297D01*
X162051232Y-84706788D01*
X162129873Y-84552445D01*
X162183402Y-84387701D01*
X162210500Y-84216611D01*
X162210500Y-84043389D01*
X162183402Y-83872299D01*
X162129873Y-83707555D01*
X162051232Y-83553212D01*
X161949414Y-83413072D01*
X161826928Y-83290586D01*
X161686788Y-83188768D01*
X161532445Y-83110127D01*
X161367701Y-83056598D01*
X161367699Y-83056597D01*
X161367698Y-83056597D01*
X161236271Y-83035781D01*
X161196611Y-83029500D01*
X161023389Y-83029500D01*
X160983728Y-83035781D01*
X160852302Y-83056597D01*
X160687552Y-83110128D01*
X160533211Y-83188768D01*
X160453256Y-83246859D01*
X160393072Y-83290586D01*
X160393070Y-83290588D01*
X160393069Y-83290588D01*
X160270588Y-83413069D01*
X160270581Y-83413078D01*
X160224817Y-83476066D01*
X160169487Y-83518732D01*
X160099874Y-83524710D01*
X160038079Y-83492104D01*
X160003722Y-83431265D01*
X160000500Y-83403180D01*
X160000500Y-82316819D01*
X160020185Y-82249780D01*
X160072989Y-82204025D01*
X160142147Y-82194081D01*
X160205703Y-82223106D01*
X160224814Y-82243929D01*
X160270586Y-82306928D01*
X160393072Y-82429414D01*
X160533212Y-82531232D01*
X160687555Y-82609873D01*
X160852299Y-82663402D01*
X161023389Y-82690500D01*
X161023390Y-82690500D01*
X161196610Y-82690500D01*
X161196611Y-82690500D01*
X161367701Y-82663402D01*
X161532445Y-82609873D01*
X161686788Y-82531232D01*
X161826928Y-82429414D01*
X161949414Y-82306928D01*
X162051232Y-82166788D01*
X162129873Y-82012445D01*
X162183402Y-81847701D01*
X162210500Y-81676611D01*
X162210500Y-81503389D01*
X162183402Y-81332299D01*
X162129873Y-81167555D01*
X162051232Y-81013212D01*
X161949414Y-80873072D01*
X161826928Y-80750586D01*
X161686788Y-80648768D01*
X161532445Y-80570127D01*
X161367701Y-80516598D01*
X161367699Y-80516597D01*
X161367698Y-80516597D01*
X161236271Y-80495781D01*
X161196611Y-80489500D01*
X161023389Y-80489500D01*
X160983728Y-80495781D01*
X160852302Y-80516597D01*
X160687552Y-80570128D01*
X160533211Y-80648768D01*
X160453256Y-80706859D01*
X160393072Y-80750586D01*
X160393070Y-80750588D01*
X160393069Y-80750588D01*
X160270588Y-80873069D01*
X160270581Y-80873078D01*
X160224817Y-80936066D01*
X160169487Y-80978732D01*
X160099874Y-80984710D01*
X160038079Y-80952104D01*
X160003722Y-80891265D01*
X160000500Y-80863180D01*
X160000500Y-79791861D01*
X160020185Y-79724822D01*
X160072989Y-79679067D01*
X160134229Y-79668243D01*
X160137913Y-79668533D01*
X160627037Y-79179409D01*
X160644075Y-79242993D01*
X160709901Y-79357007D01*
X160802993Y-79450099D01*
X160917007Y-79515925D01*
X160980590Y-79532962D01*
X160491466Y-80022085D01*
X160491466Y-80022086D01*
X160507267Y-80033566D01*
X160507275Y-80033571D01*
X160668552Y-80115747D01*
X160668555Y-80115748D01*
X160840706Y-80171682D01*
X161019494Y-80200000D01*
X161200506Y-80200000D01*
X161379293Y-80171682D01*
X161551444Y-80115748D01*
X161551452Y-80115745D01*
X161712730Y-80033568D01*
X161728532Y-80022085D01*
X161728533Y-80022085D01*
X161239410Y-79532962D01*
X161302993Y-79515925D01*
X161417007Y-79450099D01*
X161510099Y-79357007D01*
X161575925Y-79242993D01*
X161592962Y-79179410D01*
X162082085Y-79668533D01*
X162082085Y-79668532D01*
X162093568Y-79652730D01*
X162175745Y-79491452D01*
X162175748Y-79491444D01*
X162231682Y-79319293D01*
X162260000Y-79140506D01*
X162260000Y-78959493D01*
X162231682Y-78780706D01*
X162175748Y-78608555D01*
X162175747Y-78608552D01*
X162093571Y-78447275D01*
X162093566Y-78447267D01*
X162082085Y-78431466D01*
X161592962Y-78920589D01*
X161575925Y-78857007D01*
X161510099Y-78742993D01*
X161417007Y-78649901D01*
X161302993Y-78584075D01*
X161239409Y-78567037D01*
X161728533Y-78077913D01*
X161712730Y-78066431D01*
X161551447Y-77984252D01*
X161551444Y-77984251D01*
X161379293Y-77928317D01*
X161200506Y-77900000D01*
X161019494Y-77900000D01*
X160840706Y-77928317D01*
X160668555Y-77984251D01*
X160668547Y-77984254D01*
X160507269Y-78066432D01*
X160491466Y-78077912D01*
X160491466Y-78077913D01*
X160980591Y-78567037D01*
X160917007Y-78584075D01*
X160802993Y-78649901D01*
X160709901Y-78742993D01*
X160644075Y-78857007D01*
X160627037Y-78920590D01*
X160137913Y-78431466D01*
X160134229Y-78431756D01*
X160120618Y-78428896D01*
X160106853Y-78430876D01*
X160087101Y-78421855D01*
X160065852Y-78417392D01*
X160055948Y-78407628D01*
X160043297Y-78401851D01*
X160031556Y-78383582D01*
X160016095Y-78368340D01*
X160012268Y-78353569D01*
X160005523Y-78343073D01*
X160000500Y-78308138D01*
X160000500Y-77236819D01*
X160020185Y-77169780D01*
X160072989Y-77124025D01*
X160142147Y-77114081D01*
X160205703Y-77143106D01*
X160224814Y-77163929D01*
X160270586Y-77226928D01*
X160393072Y-77349414D01*
X160533212Y-77451232D01*
X160687555Y-77529873D01*
X160852299Y-77583402D01*
X161023389Y-77610500D01*
X161023390Y-77610500D01*
X161196610Y-77610500D01*
X161196611Y-77610500D01*
X161367701Y-77583402D01*
X161532445Y-77529873D01*
X161686788Y-77451232D01*
X161826928Y-77349414D01*
X161949414Y-77226928D01*
X162051232Y-77086788D01*
X162129873Y-76932445D01*
X162183402Y-76767701D01*
X162210500Y-76596611D01*
X162210500Y-76423389D01*
X162183402Y-76252299D01*
X162129873Y-76087555D01*
X162051232Y-75933212D01*
X161949414Y-75793072D01*
X161826928Y-75670586D01*
X161686788Y-75568768D01*
X161532445Y-75490127D01*
X161367701Y-75436598D01*
X161367699Y-75436597D01*
X161367698Y-75436597D01*
X161236271Y-75415781D01*
X161196611Y-75409500D01*
X161023389Y-75409500D01*
X160983728Y-75415781D01*
X160852302Y-75436597D01*
X160687552Y-75490128D01*
X160533211Y-75568768D01*
X160453256Y-75626859D01*
X160393072Y-75670586D01*
X160393070Y-75670588D01*
X160393069Y-75670588D01*
X160270588Y-75793069D01*
X160270581Y-75793078D01*
X160224817Y-75856066D01*
X160169487Y-75898732D01*
X160099874Y-75904710D01*
X160038079Y-75872104D01*
X160003722Y-75811265D01*
X160000500Y-75783180D01*
X160000500Y-74696819D01*
X160020185Y-74629780D01*
X160072989Y-74584025D01*
X160142147Y-74574081D01*
X160205703Y-74603106D01*
X160224814Y-74623929D01*
X160270586Y-74686928D01*
X160393072Y-74809414D01*
X160533212Y-74911232D01*
X160687555Y-74989873D01*
X160852299Y-75043402D01*
X161023389Y-75070500D01*
X161023390Y-75070500D01*
X161196610Y-75070500D01*
X161196611Y-75070500D01*
X161367701Y-75043402D01*
X161532445Y-74989873D01*
X161686788Y-74911232D01*
X161826928Y-74809414D01*
X161949414Y-74686928D01*
X162051232Y-74546788D01*
X162129873Y-74392445D01*
X162183402Y-74227701D01*
X162210500Y-74056611D01*
X162210500Y-73883389D01*
X162183402Y-73712299D01*
X162129873Y-73547555D01*
X162051232Y-73393212D01*
X161949414Y-73253072D01*
X161826928Y-73130586D01*
X161686788Y-73028768D01*
X161532445Y-72950127D01*
X161367701Y-72896598D01*
X161367699Y-72896597D01*
X161367698Y-72896597D01*
X161236271Y-72875781D01*
X161196611Y-72869500D01*
X161023389Y-72869500D01*
X160983728Y-72875781D01*
X160852302Y-72896597D01*
X160687552Y-72950128D01*
X160533211Y-73028768D01*
X160453256Y-73086859D01*
X160393072Y-73130586D01*
X160393070Y-73130588D01*
X160393069Y-73130588D01*
X160270588Y-73253069D01*
X160270581Y-73253078D01*
X160224817Y-73316066D01*
X160169487Y-73358732D01*
X160099874Y-73364710D01*
X160038079Y-73332104D01*
X160003722Y-73271265D01*
X160000500Y-73243180D01*
X160000500Y-72156819D01*
X160020185Y-72089780D01*
X160072989Y-72044025D01*
X160142147Y-72034081D01*
X160205703Y-72063106D01*
X160224814Y-72083929D01*
X160270586Y-72146928D01*
X160393072Y-72269414D01*
X160533212Y-72371232D01*
X160687555Y-72449873D01*
X160852299Y-72503402D01*
X161023389Y-72530500D01*
X161023390Y-72530500D01*
X161196610Y-72530500D01*
X161196611Y-72530500D01*
X161367701Y-72503402D01*
X161532445Y-72449873D01*
X161686788Y-72371232D01*
X161826928Y-72269414D01*
X161949414Y-72146928D01*
X162051232Y-72006788D01*
X162129873Y-71852445D01*
X162183402Y-71687701D01*
X162210500Y-71516611D01*
X162210500Y-71343389D01*
X162183402Y-71172299D01*
X162129873Y-71007555D01*
X162051232Y-70853212D01*
X161949414Y-70713072D01*
X161826928Y-70590586D01*
X161686788Y-70488768D01*
X161532445Y-70410127D01*
X161367701Y-70356598D01*
X161367699Y-70356597D01*
X161367698Y-70356597D01*
X161236271Y-70335781D01*
X161196611Y-70329500D01*
X161023389Y-70329500D01*
X160983728Y-70335781D01*
X160852302Y-70356597D01*
X160687552Y-70410128D01*
X160533211Y-70488768D01*
X160466123Y-70537511D01*
X160393072Y-70590586D01*
X160393070Y-70590588D01*
X160393069Y-70590588D01*
X160270588Y-70713069D01*
X160270581Y-70713078D01*
X160224817Y-70776066D01*
X160169487Y-70818732D01*
X160099874Y-70824710D01*
X160038079Y-70792104D01*
X160003722Y-70731265D01*
X160000500Y-70703180D01*
X160000500Y-69616819D01*
X160020185Y-69549780D01*
X160072989Y-69504025D01*
X160142147Y-69494081D01*
X160205703Y-69523106D01*
X160224814Y-69543929D01*
X160270586Y-69606928D01*
X160393072Y-69729414D01*
X160533212Y-69831232D01*
X160687555Y-69909873D01*
X160852299Y-69963402D01*
X161023389Y-69990500D01*
X161023390Y-69990500D01*
X161196610Y-69990500D01*
X161196611Y-69990500D01*
X161367701Y-69963402D01*
X161532445Y-69909873D01*
X161686788Y-69831232D01*
X161826928Y-69729414D01*
X161949414Y-69606928D01*
X162051232Y-69466788D01*
X162129873Y-69312445D01*
X162183402Y-69147701D01*
X162210500Y-68976611D01*
X162210500Y-68803389D01*
X162183402Y-68632299D01*
X162129873Y-68467555D01*
X162051232Y-68313212D01*
X161949414Y-68173072D01*
X161826928Y-68050586D01*
X161686788Y-67948768D01*
X161532445Y-67870127D01*
X161367701Y-67816598D01*
X161367699Y-67816597D01*
X161367698Y-67816597D01*
X161236271Y-67795781D01*
X161196611Y-67789500D01*
X161023389Y-67789500D01*
X160983728Y-67795781D01*
X160852302Y-67816597D01*
X160687552Y-67870128D01*
X160533211Y-67948768D01*
X160453256Y-68006859D01*
X160393072Y-68050586D01*
X160393070Y-68050588D01*
X160393069Y-68050588D01*
X160270588Y-68173069D01*
X160270581Y-68173078D01*
X160224817Y-68236066D01*
X160169487Y-68278732D01*
X160099874Y-68284710D01*
X160038079Y-68252104D01*
X160003722Y-68191265D01*
X160000500Y-68163180D01*
X160000500Y-67091861D01*
X160020185Y-67024822D01*
X160072989Y-66979067D01*
X160134229Y-66968243D01*
X160137913Y-66968533D01*
X160627037Y-66479409D01*
X160644075Y-66542993D01*
X160709901Y-66657007D01*
X160802993Y-66750099D01*
X160917007Y-66815925D01*
X160980590Y-66832962D01*
X160491466Y-67322085D01*
X160491466Y-67322086D01*
X160507267Y-67333566D01*
X160507275Y-67333571D01*
X160668552Y-67415747D01*
X160668555Y-67415748D01*
X160840706Y-67471682D01*
X161019494Y-67500000D01*
X161200506Y-67500000D01*
X161379293Y-67471682D01*
X161551444Y-67415748D01*
X161551452Y-67415745D01*
X161712730Y-67333568D01*
X161728532Y-67322085D01*
X161728533Y-67322085D01*
X161239410Y-66832962D01*
X161302993Y-66815925D01*
X161417007Y-66750099D01*
X161510099Y-66657007D01*
X161575925Y-66542993D01*
X161592962Y-66479409D01*
X162082085Y-66968532D01*
X162093568Y-66952730D01*
X162175745Y-66791452D01*
X162175748Y-66791444D01*
X162231682Y-66619293D01*
X162260000Y-66440506D01*
X162260000Y-66305044D01*
X162279685Y-66238005D01*
X162332489Y-66192250D01*
X162401647Y-66182306D01*
X162465203Y-66211331D01*
X162471681Y-66217363D01*
X162755601Y-66501283D01*
X162755602Y-66501284D01*
X162755604Y-66501285D01*
X162806152Y-66530468D01*
X162806154Y-66530470D01*
X162806155Y-66530470D01*
X162835525Y-66547427D01*
X162924669Y-66571313D01*
X167020614Y-66571313D01*
X167087653Y-66590998D01*
X167108295Y-66607632D01*
X167161985Y-66661322D01*
X167161986Y-66661323D01*
X167161988Y-66661324D01*
X167287511Y-66733795D01*
X167287512Y-66733795D01*
X167287515Y-66733797D01*
X167427525Y-66771313D01*
X167427528Y-66771313D01*
X167572472Y-66771313D01*
X167572475Y-66771313D01*
X167712485Y-66733797D01*
X167838015Y-66661322D01*
X167940509Y-66558828D01*
X168012984Y-66433298D01*
X168050500Y-66293288D01*
X168050500Y-66148338D01*
X168012984Y-66008328D01*
X167955375Y-65908547D01*
X167940511Y-65882801D01*
X167940506Y-65882795D01*
X167838017Y-65780306D01*
X167838011Y-65780301D01*
X167712488Y-65707830D01*
X167712489Y-65707830D01*
X167689432Y-65701652D01*
X167572475Y-65670313D01*
X167427525Y-65670313D01*
X167310568Y-65701652D01*
X167287511Y-65707830D01*
X167161988Y-65780301D01*
X167161982Y-65780306D01*
X167108295Y-65833994D01*
X167046972Y-65867479D01*
X167020614Y-65870313D01*
X163167357Y-65870313D01*
X163100318Y-65850628D01*
X163079676Y-65833994D01*
X162886819Y-65641137D01*
X162853334Y-65579814D01*
X162850500Y-65553456D01*
X162850500Y-62613858D01*
X162850500Y-62613856D01*
X162826614Y-62524712D01*
X162780470Y-62444788D01*
X162158651Y-61822969D01*
X162125167Y-61761647D01*
X162128402Y-61696971D01*
X162131245Y-61688222D01*
X162183402Y-61527701D01*
X162210500Y-61356611D01*
X162210500Y-61183389D01*
X162183402Y-61012299D01*
X162129873Y-60847555D01*
X162051232Y-60693212D01*
X161949414Y-60553072D01*
X161826928Y-60430586D01*
X161686788Y-60328768D01*
X161532445Y-60250127D01*
X161367701Y-60196598D01*
X161367699Y-60196597D01*
X161367698Y-60196597D01*
X161236271Y-60175781D01*
X161196611Y-60169500D01*
X161023389Y-60169500D01*
X160983728Y-60175781D01*
X160852302Y-60196597D01*
X160687552Y-60250128D01*
X160533211Y-60328768D01*
X160475780Y-60370495D01*
X160393072Y-60430586D01*
X160393070Y-60430588D01*
X160393069Y-60430588D01*
X160270588Y-60553069D01*
X160270581Y-60553078D01*
X160224817Y-60616066D01*
X160169487Y-60658732D01*
X160099874Y-60664710D01*
X160038079Y-60632104D01*
X160003722Y-60571265D01*
X160000500Y-60543180D01*
X160000500Y-59456819D01*
X160020185Y-59389780D01*
X160072989Y-59344025D01*
X160142147Y-59334081D01*
X160205703Y-59363106D01*
X160224814Y-59383929D01*
X160270586Y-59446928D01*
X160393072Y-59569414D01*
X160533212Y-59671232D01*
X160687555Y-59749873D01*
X160852299Y-59803402D01*
X161023389Y-59830500D01*
X161023390Y-59830500D01*
X161196610Y-59830500D01*
X161196611Y-59830500D01*
X161367701Y-59803402D01*
X161532445Y-59749873D01*
X161686788Y-59671232D01*
X161826928Y-59569414D01*
X161949414Y-59446928D01*
X162051232Y-59306788D01*
X162129873Y-59152445D01*
X162183402Y-58987701D01*
X162210500Y-58816611D01*
X162210500Y-58643389D01*
X162183402Y-58472299D01*
X162129873Y-58307555D01*
X162051232Y-58153212D01*
X161949414Y-58013072D01*
X161826928Y-57890586D01*
X161686788Y-57788768D01*
X161532445Y-57710127D01*
X161367701Y-57656598D01*
X161367699Y-57656597D01*
X161367698Y-57656597D01*
X161236271Y-57635781D01*
X161196611Y-57629500D01*
X161023389Y-57629500D01*
X160983728Y-57635781D01*
X160852302Y-57656597D01*
X160687552Y-57710128D01*
X160533211Y-57788768D01*
X160453256Y-57846859D01*
X160393072Y-57890586D01*
X160393070Y-57890588D01*
X160393069Y-57890588D01*
X160270588Y-58013069D01*
X160270581Y-58013078D01*
X160224817Y-58076066D01*
X160169487Y-58118732D01*
X160099874Y-58124710D01*
X160038079Y-58092104D01*
X160003722Y-58031265D01*
X160000500Y-58003180D01*
X160000500Y-56916819D01*
X160020185Y-56849780D01*
X160072989Y-56804025D01*
X160142147Y-56794081D01*
X160205703Y-56823106D01*
X160224814Y-56843929D01*
X160270586Y-56906928D01*
X160393072Y-57029414D01*
X160533212Y-57131232D01*
X160687555Y-57209873D01*
X160852299Y-57263402D01*
X161023389Y-57290500D01*
X161023390Y-57290500D01*
X161196610Y-57290500D01*
X161196611Y-57290500D01*
X161367701Y-57263402D01*
X161532445Y-57209873D01*
X161686788Y-57131232D01*
X161826928Y-57029414D01*
X161949414Y-56906928D01*
X162051232Y-56766788D01*
X162129873Y-56612445D01*
X162183402Y-56447701D01*
X162210500Y-56276611D01*
X162210500Y-56103389D01*
X162183402Y-55932299D01*
X162129873Y-55767555D01*
X162051232Y-55613212D01*
X161949414Y-55473072D01*
X161826928Y-55350586D01*
X161686788Y-55248768D01*
X161532445Y-55170127D01*
X161367701Y-55116598D01*
X161367699Y-55116597D01*
X161367698Y-55116597D01*
X161236271Y-55095781D01*
X161196611Y-55089500D01*
X161023389Y-55089500D01*
X160983728Y-55095781D01*
X160852302Y-55116597D01*
X160687552Y-55170128D01*
X160533211Y-55248768D01*
X160466865Y-55296972D01*
X160393072Y-55350586D01*
X160393070Y-55350588D01*
X160393069Y-55350588D01*
X160270588Y-55473069D01*
X160270581Y-55473078D01*
X160224817Y-55536066D01*
X160169487Y-55578732D01*
X160099874Y-55584710D01*
X160038079Y-55552104D01*
X160003722Y-55491265D01*
X160000500Y-55463180D01*
X160000500Y-54391861D01*
X160020185Y-54324822D01*
X160072989Y-54279067D01*
X160134229Y-54268243D01*
X160137913Y-54268533D01*
X160627037Y-53779409D01*
X160644075Y-53842993D01*
X160709901Y-53957007D01*
X160802993Y-54050099D01*
X160917007Y-54115925D01*
X160980590Y-54132962D01*
X160491466Y-54622085D01*
X160491466Y-54622086D01*
X160507267Y-54633566D01*
X160507275Y-54633571D01*
X160668552Y-54715747D01*
X160668555Y-54715748D01*
X160840706Y-54771682D01*
X161019494Y-54800000D01*
X161200506Y-54800000D01*
X161379293Y-54771682D01*
X161551444Y-54715748D01*
X161551452Y-54715745D01*
X161712730Y-54633568D01*
X161728532Y-54622085D01*
X161728533Y-54622085D01*
X161239410Y-54132962D01*
X161302993Y-54115925D01*
X161417007Y-54050099D01*
X161510099Y-53957007D01*
X161575925Y-53842993D01*
X161592962Y-53779409D01*
X162082085Y-54268532D01*
X162093568Y-54252730D01*
X162175745Y-54091452D01*
X162175748Y-54091444D01*
X162231682Y-53919293D01*
X162260000Y-53740506D01*
X162260000Y-53559493D01*
X162231682Y-53380706D01*
X162175748Y-53208555D01*
X162175747Y-53208552D01*
X162093571Y-53047275D01*
X162093566Y-53047267D01*
X162082085Y-53031466D01*
X161592962Y-53520589D01*
X161575925Y-53457007D01*
X161510099Y-53342993D01*
X161417007Y-53249901D01*
X161302993Y-53184075D01*
X161239409Y-53167037D01*
X161728533Y-52677913D01*
X161712730Y-52666431D01*
X161551447Y-52584252D01*
X161551444Y-52584251D01*
X161379293Y-52528317D01*
X161200506Y-52500000D01*
X161019494Y-52500000D01*
X160840706Y-52528317D01*
X160668555Y-52584251D01*
X160668547Y-52584254D01*
X160507269Y-52666432D01*
X160491466Y-52677912D01*
X160491466Y-52677913D01*
X160980591Y-53167037D01*
X160917007Y-53184075D01*
X160802993Y-53249901D01*
X160709901Y-53342993D01*
X160644075Y-53457007D01*
X160627037Y-53520590D01*
X160137913Y-53031466D01*
X160134229Y-53031756D01*
X160120618Y-53028896D01*
X160106853Y-53030876D01*
X160087101Y-53021855D01*
X160065852Y-53017392D01*
X160055948Y-53007628D01*
X160043297Y-53001851D01*
X160031556Y-52983582D01*
X160016095Y-52968340D01*
X160012268Y-52953569D01*
X160005523Y-52943073D01*
X160000500Y-52908138D01*
X160000500Y-51836819D01*
X160020185Y-51769780D01*
X160072989Y-51724025D01*
X160142147Y-51714081D01*
X160205703Y-51743106D01*
X160224814Y-51763929D01*
X160270586Y-51826928D01*
X160393072Y-51949414D01*
X160533212Y-52051232D01*
X160687555Y-52129873D01*
X160852299Y-52183402D01*
X161023389Y-52210500D01*
X161023390Y-52210500D01*
X161196610Y-52210500D01*
X161196611Y-52210500D01*
X161367701Y-52183402D01*
X161532445Y-52129873D01*
X161686788Y-52051232D01*
X161826928Y-51949414D01*
X161949414Y-51826928D01*
X162051232Y-51686788D01*
X162129873Y-51532445D01*
X162183402Y-51367701D01*
X162210500Y-51196611D01*
X162210500Y-51023389D01*
X162183402Y-50852299D01*
X162129873Y-50687555D01*
X162051232Y-50533212D01*
X161949414Y-50393072D01*
X161826928Y-50270586D01*
X161686788Y-50168768D01*
X161532445Y-50090127D01*
X161367701Y-50036598D01*
X161367699Y-50036597D01*
X161367698Y-50036597D01*
X161236271Y-50015781D01*
X161196611Y-50009500D01*
X161023389Y-50009500D01*
X160983728Y-50015781D01*
X160852302Y-50036597D01*
X160687552Y-50090128D01*
X160533211Y-50168768D01*
X160463344Y-50219530D01*
X160393072Y-50270586D01*
X160393070Y-50270588D01*
X160393069Y-50270588D01*
X160270588Y-50393069D01*
X160270581Y-50393078D01*
X160224817Y-50456066D01*
X160169487Y-50498732D01*
X160099874Y-50504710D01*
X160038079Y-50472104D01*
X160003722Y-50411265D01*
X160000500Y-50383180D01*
X160000500Y-49296819D01*
X160020185Y-49229780D01*
X160072989Y-49184025D01*
X160142147Y-49174081D01*
X160205703Y-49203106D01*
X160224814Y-49223929D01*
X160270586Y-49286928D01*
X160393072Y-49409414D01*
X160533212Y-49511232D01*
X160687555Y-49589873D01*
X160852299Y-49643402D01*
X161023389Y-49670500D01*
X161023390Y-49670500D01*
X161196610Y-49670500D01*
X161196611Y-49670500D01*
X161367701Y-49643402D01*
X161532445Y-49589873D01*
X161686788Y-49511232D01*
X161826928Y-49409414D01*
X161949414Y-49286928D01*
X162051232Y-49146788D01*
X162129873Y-48992445D01*
X162183402Y-48827701D01*
X162210500Y-48656611D01*
X162210500Y-48483389D01*
X162183402Y-48312299D01*
X162129873Y-48147555D01*
X162051232Y-47993212D01*
X161949414Y-47853072D01*
X161826928Y-47730586D01*
X161686788Y-47628768D01*
X161532445Y-47550127D01*
X161367701Y-47496598D01*
X161367699Y-47496597D01*
X161367698Y-47496597D01*
X161236271Y-47475781D01*
X161196611Y-47469500D01*
X161023389Y-47469500D01*
X160983728Y-47475781D01*
X160852302Y-47496597D01*
X160687552Y-47550128D01*
X160533211Y-47628768D01*
X160453256Y-47686859D01*
X160393072Y-47730586D01*
X160393070Y-47730588D01*
X160393069Y-47730588D01*
X160270588Y-47853069D01*
X160270581Y-47853078D01*
X160224817Y-47916066D01*
X160169487Y-47958732D01*
X160099874Y-47964710D01*
X160038079Y-47932104D01*
X160003722Y-47871265D01*
X160000500Y-47843180D01*
X160000500Y-46756819D01*
X160020185Y-46689780D01*
X160072989Y-46644025D01*
X160142147Y-46634081D01*
X160205703Y-46663106D01*
X160224814Y-46683929D01*
X160270586Y-46746928D01*
X160393072Y-46869414D01*
X160533212Y-46971232D01*
X160687555Y-47049873D01*
X160852299Y-47103402D01*
X161023389Y-47130500D01*
X161023390Y-47130500D01*
X161196610Y-47130500D01*
X161196611Y-47130500D01*
X161367701Y-47103402D01*
X161532445Y-47049873D01*
X161686788Y-46971232D01*
X161826928Y-46869414D01*
X161949414Y-46746928D01*
X162051232Y-46606788D01*
X162129873Y-46452445D01*
X162183402Y-46287701D01*
X162210500Y-46116611D01*
X162210500Y-45943389D01*
X162183402Y-45772299D01*
X162129873Y-45607555D01*
X162051232Y-45453212D01*
X161949414Y-45313072D01*
X161826928Y-45190586D01*
X161686788Y-45088768D01*
X161532445Y-45010127D01*
X161367701Y-44956598D01*
X161367699Y-44956597D01*
X161367698Y-44956597D01*
X161236271Y-44935781D01*
X161196611Y-44929500D01*
X161023389Y-44929500D01*
X160983728Y-44935781D01*
X160852302Y-44956597D01*
X160687552Y-45010128D01*
X160533211Y-45088768D01*
X160453256Y-45146859D01*
X160393072Y-45190586D01*
X160393070Y-45190588D01*
X160393069Y-45190588D01*
X160270588Y-45313069D01*
X160270581Y-45313078D01*
X160224817Y-45376066D01*
X160169487Y-45418732D01*
X160099874Y-45424710D01*
X160038079Y-45392104D01*
X160003722Y-45331265D01*
X160000500Y-45303180D01*
X160000500Y-44216819D01*
X160020185Y-44149780D01*
X160072989Y-44104025D01*
X160142147Y-44094081D01*
X160205703Y-44123106D01*
X160224814Y-44143929D01*
X160270586Y-44206928D01*
X160393072Y-44329414D01*
X160533212Y-44431232D01*
X160687555Y-44509873D01*
X160852299Y-44563402D01*
X161023389Y-44590500D01*
X161023390Y-44590500D01*
X161196610Y-44590500D01*
X161196611Y-44590500D01*
X161367701Y-44563402D01*
X161532445Y-44509873D01*
X161532454Y-44509868D01*
X161536970Y-44508401D01*
X161606811Y-44506406D01*
X161662970Y-44538651D01*
X163061181Y-45936862D01*
X163094666Y-45998185D01*
X163097500Y-46024543D01*
X163097500Y-61094379D01*
X163108461Y-61135283D01*
X163108462Y-61135289D01*
X163121384Y-61183519D01*
X163121385Y-61183521D01*
X163167527Y-61263443D01*
X163167529Y-61263446D01*
X163167530Y-61263447D01*
X163708020Y-61803937D01*
X164212946Y-62308862D01*
X164246431Y-62370185D01*
X164249265Y-62396543D01*
X164249265Y-62472475D01*
X164286781Y-62612485D01*
X164286782Y-62612488D01*
X164359253Y-62738011D01*
X164359255Y-62738013D01*
X164359256Y-62738015D01*
X164461750Y-62840509D01*
X164461751Y-62840510D01*
X164461753Y-62840511D01*
X164587276Y-62912982D01*
X164587277Y-62912982D01*
X164587280Y-62912984D01*
X164727290Y-62950500D01*
X164727293Y-62950500D01*
X164872237Y-62950500D01*
X164872240Y-62950500D01*
X165012250Y-62912984D01*
X165137780Y-62840509D01*
X165240274Y-62738015D01*
X165312749Y-62612485D01*
X165350265Y-62472475D01*
X165350265Y-62327525D01*
X165312749Y-62187515D01*
X165312747Y-62187512D01*
X165312747Y-62187510D01*
X165310104Y-62181129D01*
X165302635Y-62111660D01*
X165333911Y-62049181D01*
X165394000Y-62013529D01*
X165456756Y-62013901D01*
X165502791Y-62026237D01*
X165502794Y-62026237D01*
X165647738Y-62026237D01*
X165647741Y-62026237D01*
X165787751Y-61988721D01*
X165913281Y-61916246D01*
X166015775Y-61813752D01*
X166088250Y-61688222D01*
X166125766Y-61548212D01*
X166125766Y-61403262D01*
X166088250Y-61263252D01*
X166073101Y-61237014D01*
X166015777Y-61137725D01*
X166015772Y-61137719D01*
X165913283Y-61035230D01*
X165913277Y-61035225D01*
X165787754Y-60962754D01*
X165787747Y-60962751D01*
X165711493Y-60942318D01*
X165655907Y-60910225D01*
X164636819Y-59891137D01*
X164603334Y-59829814D01*
X164600500Y-59803456D01*
X164600500Y-39501202D01*
X164880000Y-39501202D01*
X164880000Y-39880000D01*
X165380000Y-39880000D01*
X165380000Y-40380000D01*
X164880000Y-40380000D01*
X164880000Y-40758797D01*
X164910741Y-40913343D01*
X164910743Y-40913351D01*
X164971047Y-41058939D01*
X164971052Y-41058948D01*
X165058598Y-41189969D01*
X165058601Y-41189973D01*
X165170026Y-41301398D01*
X165170034Y-41301404D01*
X165301047Y-41388944D01*
X165301065Y-41388954D01*
X165429999Y-41442360D01*
X165430000Y-41442360D01*
X165430000Y-40846988D01*
X165439940Y-40864205D01*
X165495795Y-40920060D01*
X165564204Y-40959556D01*
X165640504Y-40980000D01*
X165719496Y-40980000D01*
X165795796Y-40959556D01*
X165864205Y-40920060D01*
X165920060Y-40864205D01*
X165930000Y-40846988D01*
X165930000Y-41442360D01*
X166058934Y-41388954D01*
X166058952Y-41388944D01*
X166189965Y-41301404D01*
X166189973Y-41301398D01*
X166301398Y-41189973D01*
X166301401Y-41189969D01*
X166388947Y-41058948D01*
X166388952Y-41058939D01*
X166449256Y-40913351D01*
X166449258Y-40913343D01*
X166479999Y-40758797D01*
X166480000Y-40758794D01*
X166480000Y-40380000D01*
X165980000Y-40380000D01*
X165980000Y-39880000D01*
X166531362Y-39880000D01*
X166531362Y-39881884D01*
X166577320Y-39885163D01*
X166633261Y-39927024D01*
X166641391Y-39939346D01*
X166649485Y-39953365D01*
X166756635Y-40060515D01*
X166887865Y-40136281D01*
X167034234Y-40175500D01*
X167034236Y-40175500D01*
X167185764Y-40175500D01*
X167185766Y-40175500D01*
X167332135Y-40136281D01*
X167463365Y-40060515D01*
X167570515Y-39953365D01*
X167646281Y-39822135D01*
X167685500Y-39675766D01*
X167685500Y-39524234D01*
X172314500Y-39524234D01*
X172314500Y-39675765D01*
X172353719Y-39822136D01*
X172388215Y-39881884D01*
X172429485Y-39953365D01*
X172536635Y-40060515D01*
X172667865Y-40136281D01*
X172814234Y-40175500D01*
X172814236Y-40175500D01*
X172965764Y-40175500D01*
X172965766Y-40175500D01*
X173112135Y-40136281D01*
X173243365Y-40060515D01*
X173350515Y-39953365D01*
X173358604Y-39939353D01*
X173409168Y-39891139D01*
X173477774Y-39877914D01*
X173482985Y-39880000D01*
X174020000Y-39880000D01*
X174020000Y-40380000D01*
X173520000Y-40380000D01*
X173520000Y-40758797D01*
X173550741Y-40913343D01*
X173550743Y-40913351D01*
X173611047Y-41058939D01*
X173611052Y-41058948D01*
X173698598Y-41189969D01*
X173698601Y-41189973D01*
X173810026Y-41301398D01*
X173810034Y-41301404D01*
X173941047Y-41388944D01*
X173941065Y-41388954D01*
X174069999Y-41442360D01*
X174070000Y-41442360D01*
X174070000Y-40846988D01*
X174079940Y-40864205D01*
X174135795Y-40920060D01*
X174204204Y-40959556D01*
X174280504Y-40980000D01*
X174359496Y-40980000D01*
X174435796Y-40959556D01*
X174504205Y-40920060D01*
X174560060Y-40864205D01*
X174570000Y-40846988D01*
X174570000Y-41442360D01*
X174698934Y-41388954D01*
X174698952Y-41388944D01*
X174829965Y-41301404D01*
X174829973Y-41301398D01*
X174941398Y-41189973D01*
X174941401Y-41189969D01*
X175028947Y-41058948D01*
X175028952Y-41058939D01*
X175089256Y-40913351D01*
X175089258Y-40913343D01*
X175119999Y-40758797D01*
X175120000Y-40758794D01*
X175120000Y-40380000D01*
X174620000Y-40380000D01*
X174620000Y-39880000D01*
X175120000Y-39880000D01*
X175120000Y-39501206D01*
X175119999Y-39501202D01*
X175089258Y-39346656D01*
X175089256Y-39346648D01*
X175028952Y-39201060D01*
X175028947Y-39201051D01*
X174941401Y-39070030D01*
X174941398Y-39070026D01*
X174829973Y-38958601D01*
X174829969Y-38958598D01*
X174698948Y-38871052D01*
X174698938Y-38871047D01*
X174570000Y-38817639D01*
X174570000Y-39413011D01*
X174560060Y-39395795D01*
X174504205Y-39339940D01*
X174435796Y-39300444D01*
X174359496Y-39280000D01*
X174280504Y-39280000D01*
X174204204Y-39300444D01*
X174135795Y-39339940D01*
X174079940Y-39395795D01*
X174070000Y-39413011D01*
X174070000Y-38817639D01*
X174069999Y-38817639D01*
X173941061Y-38871047D01*
X173941051Y-38871052D01*
X173810030Y-38958598D01*
X173810026Y-38958601D01*
X173698601Y-39070026D01*
X173698598Y-39070030D01*
X173611052Y-39201051D01*
X173611049Y-39201057D01*
X173587446Y-39258040D01*
X173543604Y-39312443D01*
X173477310Y-39334507D01*
X173409611Y-39317227D01*
X173365498Y-39272587D01*
X173350515Y-39246635D01*
X173243365Y-39139485D01*
X173177750Y-39101602D01*
X173112136Y-39063719D01*
X173035205Y-39043106D01*
X172965766Y-39024500D01*
X172814234Y-39024500D01*
X172667863Y-39063719D01*
X172536635Y-39139485D01*
X172536632Y-39139487D01*
X172429487Y-39246632D01*
X172429485Y-39246635D01*
X172353719Y-39377863D01*
X172314500Y-39524234D01*
X167685500Y-39524234D01*
X167646281Y-39377865D01*
X167570515Y-39246635D01*
X167463365Y-39139485D01*
X167397750Y-39101602D01*
X167332136Y-39063719D01*
X167255205Y-39043106D01*
X167185766Y-39024500D01*
X167034234Y-39024500D01*
X166887863Y-39063719D01*
X166756635Y-39139485D01*
X166756632Y-39139487D01*
X166649487Y-39246632D01*
X166649481Y-39246641D01*
X166634499Y-39272589D01*
X166583931Y-39320803D01*
X166515324Y-39334024D01*
X166450460Y-39308054D01*
X166412553Y-39258038D01*
X166388954Y-39201064D01*
X166388947Y-39201051D01*
X166301401Y-39070030D01*
X166301398Y-39070026D01*
X166189973Y-38958601D01*
X166189969Y-38958598D01*
X166058948Y-38871052D01*
X166058938Y-38871047D01*
X165930000Y-38817639D01*
X165930000Y-39413011D01*
X165920060Y-39395795D01*
X165864205Y-39339940D01*
X165795796Y-39300444D01*
X165719496Y-39280000D01*
X165640504Y-39280000D01*
X165564204Y-39300444D01*
X165495795Y-39339940D01*
X165439940Y-39395795D01*
X165430000Y-39413011D01*
X165430000Y-38817639D01*
X165429999Y-38817639D01*
X165301061Y-38871047D01*
X165301051Y-38871052D01*
X165170030Y-38958598D01*
X165170026Y-38958601D01*
X165058601Y-39070026D01*
X165058598Y-39070030D01*
X164971052Y-39201051D01*
X164971047Y-39201060D01*
X164910743Y-39346648D01*
X164910741Y-39346656D01*
X164880000Y-39501202D01*
X164600500Y-39501202D01*
X164600500Y-38963858D01*
X164600500Y-38963856D01*
X164576614Y-38874712D01*
X164554824Y-38836971D01*
X164552212Y-38832446D01*
X164552211Y-38832445D01*
X164530470Y-38794788D01*
X162246819Y-36511137D01*
X162213334Y-36449814D01*
X162210500Y-36423456D01*
X162210500Y-35124500D01*
X162230185Y-35057461D01*
X162282989Y-35011706D01*
X162334500Y-35000500D01*
X164919842Y-35000500D01*
X164986881Y-35020185D01*
G37*
%TD.AperFunction*%
%TA.AperFunction,Conductor*%
G36*
X170939545Y-66694770D02*
G01*
X170955300Y-66708097D01*
X171003007Y-66755804D01*
X171128537Y-66828279D01*
X171135576Y-66832343D01*
X171134915Y-66833486D01*
X171182769Y-66872046D01*
X171204837Y-66938339D01*
X171204916Y-66942770D01*
X171204916Y-82951559D01*
X171222000Y-83015321D01*
X171222002Y-83015326D01*
X171225800Y-83029500D01*
X171228803Y-83040706D01*
X171274943Y-83120624D01*
X171274947Y-83120629D01*
X171491347Y-83337029D01*
X171524832Y-83398352D01*
X171521597Y-83463028D01*
X171466597Y-83632301D01*
X171440117Y-83799493D01*
X171439500Y-83803389D01*
X171439500Y-83976611D01*
X171466598Y-84147701D01*
X171520127Y-84312445D01*
X171598768Y-84466788D01*
X171700586Y-84606928D01*
X171823072Y-84729414D01*
X171886068Y-84775183D01*
X171928732Y-84830512D01*
X171934711Y-84900125D01*
X171902105Y-84961920D01*
X171841266Y-84996278D01*
X171813181Y-84999500D01*
X170741861Y-84999500D01*
X170674822Y-84979815D01*
X170629067Y-84927011D01*
X170618243Y-84865774D01*
X170618533Y-84862085D01*
X170129410Y-84372962D01*
X170192993Y-84355925D01*
X170307007Y-84290099D01*
X170400099Y-84197007D01*
X170465925Y-84082993D01*
X170482962Y-84019409D01*
X170972085Y-84508532D01*
X170983568Y-84492730D01*
X171065745Y-84331452D01*
X171065748Y-84331444D01*
X171121682Y-84159293D01*
X171150000Y-83980506D01*
X171150000Y-83799493D01*
X171121682Y-83620706D01*
X171065748Y-83448555D01*
X171065747Y-83448552D01*
X170983571Y-83287275D01*
X170983566Y-83287267D01*
X170972085Y-83271466D01*
X170482962Y-83760589D01*
X170465925Y-83697007D01*
X170400099Y-83582993D01*
X170307007Y-83489901D01*
X170192993Y-83424075D01*
X170129409Y-83407037D01*
X170618533Y-82917913D01*
X170602730Y-82906431D01*
X170441447Y-82824252D01*
X170441444Y-82824251D01*
X170269293Y-82768317D01*
X170090506Y-82740000D01*
X169909494Y-82740000D01*
X169730706Y-82768317D01*
X169558555Y-82824251D01*
X169558547Y-82824254D01*
X169397269Y-82906432D01*
X169381466Y-82917912D01*
X169381466Y-82917913D01*
X169870591Y-83407037D01*
X169807007Y-83424075D01*
X169692993Y-83489901D01*
X169599901Y-83582993D01*
X169534075Y-83697007D01*
X169517037Y-83760590D01*
X169027912Y-83271466D01*
X169016432Y-83287269D01*
X168934254Y-83448547D01*
X168934251Y-83448555D01*
X168878317Y-83620706D01*
X168850000Y-83799493D01*
X168850000Y-83980506D01*
X168878317Y-84159293D01*
X168934251Y-84331444D01*
X168934252Y-84331447D01*
X169016431Y-84492730D01*
X169027913Y-84508532D01*
X169027913Y-84508533D01*
X169517037Y-84019409D01*
X169534075Y-84082993D01*
X169599901Y-84197007D01*
X169692993Y-84290099D01*
X169807007Y-84355925D01*
X169870590Y-84372962D01*
X169381466Y-84862085D01*
X169381757Y-84865771D01*
X169367393Y-84934149D01*
X169318341Y-84983905D01*
X169258139Y-84999500D01*
X168664542Y-84999500D01*
X168597503Y-84979815D01*
X168551748Y-84927011D01*
X168541804Y-84857853D01*
X168544012Y-84849804D01*
X168543584Y-84849719D01*
X168560499Y-84764678D01*
X168560500Y-84764676D01*
X168560500Y-83015323D01*
X168555336Y-82989364D01*
X168555336Y-82989363D01*
X168545967Y-82942264D01*
X168545966Y-82942260D01*
X168529697Y-82917912D01*
X168490601Y-82859399D01*
X168407740Y-82804034D01*
X168407739Y-82804033D01*
X168407735Y-82804032D01*
X168334677Y-82789500D01*
X168334674Y-82789500D01*
X167934500Y-82789500D01*
X167867461Y-82769815D01*
X167821706Y-82717011D01*
X167810500Y-82665500D01*
X167810500Y-69486544D01*
X167830185Y-69419505D01*
X167846819Y-69398863D01*
X170458128Y-66787554D01*
X170519451Y-66754069D01*
X170545809Y-66751235D01*
X170621737Y-66751235D01*
X170621740Y-66751235D01*
X170761750Y-66713719D01*
X170761752Y-66713717D01*
X170761754Y-66713717D01*
X170761755Y-66713716D01*
X170805618Y-66688392D01*
X170873518Y-66671918D01*
X170939545Y-66694770D01*
G37*
%TD.AperFunction*%
%TA.AperFunction,Conductor*%
G36*
X179961920Y-64447895D02*
G01*
X179996278Y-64508734D01*
X179999500Y-64536819D01*
X179999500Y-65608138D01*
X179979815Y-65675177D01*
X179927011Y-65720932D01*
X179865773Y-65731756D01*
X179862086Y-65731465D01*
X179372962Y-66220589D01*
X179355925Y-66157007D01*
X179290099Y-66042993D01*
X179197007Y-65949901D01*
X179082993Y-65884075D01*
X179019409Y-65867037D01*
X179508533Y-65377913D01*
X179492730Y-65366431D01*
X179331447Y-65284252D01*
X179331444Y-65284251D01*
X179159293Y-65228317D01*
X178980506Y-65200000D01*
X178799494Y-65200000D01*
X178620706Y-65228317D01*
X178448555Y-65284251D01*
X178448547Y-65284254D01*
X178287269Y-65366432D01*
X178271466Y-65377912D01*
X178271466Y-65377913D01*
X178760591Y-65867037D01*
X178697007Y-65884075D01*
X178582993Y-65949901D01*
X178489901Y-66042993D01*
X178424075Y-66157007D01*
X178407037Y-66220590D01*
X177917913Y-65731466D01*
X177917912Y-65731466D01*
X177906432Y-65747269D01*
X177824254Y-65908547D01*
X177824251Y-65908555D01*
X177768317Y-66080706D01*
X177740000Y-66259493D01*
X177740000Y-66440506D01*
X177768317Y-66619293D01*
X177824251Y-66791444D01*
X177824252Y-66791447D01*
X177906431Y-66952730D01*
X177917913Y-66968532D01*
X177917913Y-66968533D01*
X178407037Y-66479409D01*
X178424075Y-66542993D01*
X178489901Y-66657007D01*
X178582993Y-66750099D01*
X178697007Y-66815925D01*
X178760590Y-66832962D01*
X178271466Y-67322085D01*
X178271466Y-67322086D01*
X178287267Y-67333566D01*
X178287275Y-67333571D01*
X178448552Y-67415747D01*
X178448555Y-67415748D01*
X178620706Y-67471682D01*
X178799494Y-67500000D01*
X178980506Y-67500000D01*
X179159293Y-67471682D01*
X179331444Y-67415748D01*
X179331452Y-67415745D01*
X179492730Y-67333568D01*
X179508532Y-67322085D01*
X179508533Y-67322085D01*
X179019410Y-66832962D01*
X179082993Y-66815925D01*
X179197007Y-66750099D01*
X179290099Y-66657007D01*
X179355925Y-66542993D01*
X179372962Y-66479410D01*
X179862084Y-66968532D01*
X179865772Y-66968242D01*
X179934149Y-66982606D01*
X179983905Y-67031658D01*
X179999500Y-67091860D01*
X179999500Y-68163180D01*
X179979815Y-68230219D01*
X179927011Y-68275974D01*
X179857853Y-68285918D01*
X179794297Y-68256893D01*
X179775183Y-68236066D01*
X179729418Y-68173078D01*
X179729414Y-68173072D01*
X179606928Y-68050586D01*
X179466788Y-67948768D01*
X179312445Y-67870127D01*
X179147701Y-67816598D01*
X179147699Y-67816597D01*
X179147698Y-67816597D01*
X179016271Y-67795781D01*
X178976611Y-67789500D01*
X178803389Y-67789500D01*
X178763728Y-67795781D01*
X178632302Y-67816597D01*
X178467552Y-67870128D01*
X178313211Y-67948768D01*
X178233256Y-68006859D01*
X178173072Y-68050586D01*
X178173070Y-68050588D01*
X178173069Y-68050588D01*
X178050588Y-68173069D01*
X178050588Y-68173070D01*
X178050586Y-68173072D01*
X178050582Y-68173078D01*
X177948768Y-68313211D01*
X177870128Y-68467552D01*
X177816597Y-68632302D01*
X177789500Y-68803389D01*
X177789500Y-68976611D01*
X177816598Y-69147701D01*
X177870127Y-69312445D01*
X177948768Y-69466788D01*
X178050586Y-69606928D01*
X178173072Y-69729414D01*
X178313212Y-69831232D01*
X178467555Y-69909873D01*
X178632299Y-69963402D01*
X178803389Y-69990500D01*
X178803390Y-69990500D01*
X178976610Y-69990500D01*
X178976611Y-69990500D01*
X179147701Y-69963402D01*
X179312445Y-69909873D01*
X179466788Y-69831232D01*
X179606928Y-69729414D01*
X179729414Y-69606928D01*
X179775183Y-69543931D01*
X179830512Y-69501268D01*
X179900125Y-69495289D01*
X179961920Y-69527895D01*
X179996278Y-69588734D01*
X179999500Y-69616819D01*
X179999500Y-70703180D01*
X179979815Y-70770219D01*
X179927011Y-70815974D01*
X179857853Y-70825918D01*
X179794297Y-70796893D01*
X179775183Y-70776066D01*
X179729418Y-70713078D01*
X179729414Y-70713072D01*
X179606928Y-70590586D01*
X179466788Y-70488768D01*
X179312445Y-70410127D01*
X179147701Y-70356598D01*
X179147699Y-70356597D01*
X179147698Y-70356597D01*
X179016271Y-70335781D01*
X178976611Y-70329500D01*
X178803389Y-70329500D01*
X178763728Y-70335781D01*
X178632302Y-70356597D01*
X178467552Y-70410128D01*
X178313211Y-70488768D01*
X178246123Y-70537511D01*
X178173072Y-70590586D01*
X178173070Y-70590588D01*
X178173069Y-70590588D01*
X178050588Y-70713069D01*
X178050588Y-70713070D01*
X178050586Y-70713072D01*
X178037368Y-70731265D01*
X177948768Y-70853211D01*
X177870128Y-71007552D01*
X177816597Y-71172302D01*
X177802235Y-71262982D01*
X177789500Y-71343389D01*
X177789500Y-71516611D01*
X177816598Y-71687701D01*
X177870127Y-71852445D01*
X177948768Y-72006788D01*
X178050586Y-72146928D01*
X178173072Y-72269414D01*
X178313212Y-72371232D01*
X178467555Y-72449873D01*
X178632299Y-72503402D01*
X178803389Y-72530500D01*
X178803390Y-72530500D01*
X178976610Y-72530500D01*
X178976611Y-72530500D01*
X179147701Y-72503402D01*
X179312445Y-72449873D01*
X179466788Y-72371232D01*
X179606928Y-72269414D01*
X179729414Y-72146928D01*
X179775183Y-72083931D01*
X179830512Y-72041268D01*
X179900125Y-72035289D01*
X179961920Y-72067895D01*
X179996278Y-72128734D01*
X179999500Y-72156819D01*
X179999500Y-73243180D01*
X179979815Y-73310219D01*
X179927011Y-73355974D01*
X179857853Y-73365918D01*
X179794297Y-73336893D01*
X179775183Y-73316066D01*
X179729418Y-73253078D01*
X179729414Y-73253072D01*
X179606928Y-73130586D01*
X179466788Y-73028768D01*
X179312445Y-72950127D01*
X179147701Y-72896598D01*
X179147699Y-72896597D01*
X179147698Y-72896597D01*
X179016271Y-72875781D01*
X178976611Y-72869500D01*
X178803389Y-72869500D01*
X178763728Y-72875781D01*
X178632302Y-72896597D01*
X178467552Y-72950128D01*
X178313211Y-73028768D01*
X178233256Y-73086859D01*
X178173072Y-73130586D01*
X178173070Y-73130588D01*
X178173069Y-73130588D01*
X178050588Y-73253069D01*
X178050588Y-73253070D01*
X178050586Y-73253072D01*
X178050582Y-73253078D01*
X177948768Y-73393211D01*
X177870128Y-73547552D01*
X177816597Y-73712302D01*
X177789500Y-73883389D01*
X177789500Y-74056611D01*
X177816598Y-74227701D01*
X177870127Y-74392445D01*
X177948768Y-74546788D01*
X178050586Y-74686928D01*
X178173072Y-74809414D01*
X178313212Y-74911232D01*
X178467555Y-74989873D01*
X178632299Y-75043402D01*
X178803389Y-75070500D01*
X178803390Y-75070500D01*
X178976610Y-75070500D01*
X178976611Y-75070500D01*
X179147701Y-75043402D01*
X179312445Y-74989873D01*
X179466788Y-74911232D01*
X179606928Y-74809414D01*
X179729414Y-74686928D01*
X179775183Y-74623931D01*
X179830512Y-74581268D01*
X179900125Y-74575289D01*
X179961920Y-74607895D01*
X179996278Y-74668734D01*
X179999500Y-74696819D01*
X179999500Y-75783180D01*
X179979815Y-75850219D01*
X179927011Y-75895974D01*
X179857853Y-75905918D01*
X179794297Y-75876893D01*
X179775183Y-75856066D01*
X179729418Y-75793078D01*
X179729414Y-75793072D01*
X179606928Y-75670586D01*
X179466788Y-75568768D01*
X179312445Y-75490127D01*
X179147701Y-75436598D01*
X179147699Y-75436597D01*
X179147698Y-75436597D01*
X179016271Y-75415781D01*
X178976611Y-75409500D01*
X178803389Y-75409500D01*
X178763728Y-75415781D01*
X178632302Y-75436597D01*
X178467552Y-75490128D01*
X178313211Y-75568768D01*
X178233256Y-75626859D01*
X178173072Y-75670586D01*
X178173070Y-75670588D01*
X178173069Y-75670588D01*
X178050588Y-75793069D01*
X178050588Y-75793070D01*
X178050586Y-75793072D01*
X178050582Y-75793078D01*
X177948768Y-75933211D01*
X177870128Y-76087552D01*
X177816597Y-76252302D01*
X177789500Y-76423389D01*
X177789500Y-76596611D01*
X177816598Y-76767701D01*
X177870127Y-76932445D01*
X177948768Y-77086788D01*
X178050586Y-77226928D01*
X178173072Y-77349414D01*
X178313212Y-77451232D01*
X178467555Y-77529873D01*
X178632299Y-77583402D01*
X178803389Y-77610500D01*
X178803390Y-77610500D01*
X178976610Y-77610500D01*
X178976611Y-77610500D01*
X179147701Y-77583402D01*
X179312445Y-77529873D01*
X179466788Y-77451232D01*
X179606928Y-77349414D01*
X179729414Y-77226928D01*
X179775183Y-77163931D01*
X179830512Y-77121268D01*
X179900125Y-77115289D01*
X179961920Y-77147895D01*
X179996278Y-77208734D01*
X179999500Y-77236819D01*
X179999500Y-78308138D01*
X179979815Y-78375177D01*
X179927011Y-78420932D01*
X179865773Y-78431756D01*
X179862086Y-78431465D01*
X179372962Y-78920589D01*
X179355925Y-78857007D01*
X179290099Y-78742993D01*
X179197007Y-78649901D01*
X179082993Y-78584075D01*
X179019409Y-78567037D01*
X179508533Y-78077913D01*
X179492730Y-78066431D01*
X179331447Y-77984252D01*
X179331444Y-77984251D01*
X179159293Y-77928317D01*
X178980506Y-77900000D01*
X178799494Y-77900000D01*
X178620706Y-77928317D01*
X178448555Y-77984251D01*
X178448547Y-77984254D01*
X178287269Y-78066432D01*
X178271466Y-78077912D01*
X178271466Y-78077913D01*
X178760591Y-78567037D01*
X178697007Y-78584075D01*
X178582993Y-78649901D01*
X178489901Y-78742993D01*
X178424075Y-78857007D01*
X178407037Y-78920590D01*
X177917913Y-78431466D01*
X177917912Y-78431466D01*
X177906432Y-78447269D01*
X177824254Y-78608547D01*
X177824251Y-78608555D01*
X177768317Y-78780706D01*
X177740000Y-78959493D01*
X177740000Y-79140506D01*
X177768317Y-79319293D01*
X177824251Y-79491444D01*
X177824252Y-79491447D01*
X177906431Y-79652730D01*
X177917913Y-79668532D01*
X177917913Y-79668533D01*
X178407037Y-79179409D01*
X178424075Y-79242993D01*
X178489901Y-79357007D01*
X178582993Y-79450099D01*
X178697007Y-79515925D01*
X178760590Y-79532962D01*
X178271466Y-80022085D01*
X178271466Y-80022086D01*
X178287267Y-80033566D01*
X178287275Y-80033571D01*
X178448552Y-80115747D01*
X178448555Y-80115748D01*
X178620706Y-80171682D01*
X178799494Y-80200000D01*
X178980506Y-80200000D01*
X179159293Y-80171682D01*
X179331444Y-80115748D01*
X179331452Y-80115745D01*
X179492730Y-80033568D01*
X179508532Y-80022085D01*
X179508533Y-80022085D01*
X179019410Y-79532962D01*
X179082993Y-79515925D01*
X179197007Y-79450099D01*
X179290099Y-79357007D01*
X179355925Y-79242993D01*
X179372962Y-79179409D01*
X179862084Y-79668532D01*
X179865772Y-79668242D01*
X179934149Y-79682606D01*
X179983905Y-79731658D01*
X179999500Y-79791860D01*
X179999500Y-80863180D01*
X179979815Y-80930219D01*
X179927011Y-80975974D01*
X179857853Y-80985918D01*
X179794297Y-80956893D01*
X179775183Y-80936066D01*
X179729418Y-80873078D01*
X179729414Y-80873072D01*
X179606928Y-80750586D01*
X179466788Y-80648768D01*
X179312445Y-80570127D01*
X179147701Y-80516598D01*
X179147699Y-80516597D01*
X179147698Y-80516597D01*
X179016271Y-80495781D01*
X178976611Y-80489500D01*
X178803389Y-80489500D01*
X178763728Y-80495781D01*
X178632302Y-80516597D01*
X178467552Y-80570128D01*
X178313211Y-80648768D01*
X178233256Y-80706859D01*
X178173072Y-80750586D01*
X178173070Y-80750588D01*
X178173069Y-80750588D01*
X178050588Y-80873069D01*
X178050588Y-80873070D01*
X178050586Y-80873072D01*
X178050582Y-80873078D01*
X177948768Y-81013211D01*
X177870128Y-81167552D01*
X177816597Y-81332302D01*
X177789500Y-81503389D01*
X177789500Y-81676611D01*
X177816598Y-81847701D01*
X177870127Y-82012445D01*
X177948768Y-82166788D01*
X178050586Y-82306928D01*
X178173072Y-82429414D01*
X178313212Y-82531232D01*
X178467555Y-82609873D01*
X178632299Y-82663402D01*
X178803389Y-82690500D01*
X178803390Y-82690500D01*
X178976610Y-82690500D01*
X178976611Y-82690500D01*
X179147701Y-82663402D01*
X179312445Y-82609873D01*
X179466788Y-82531232D01*
X179606928Y-82429414D01*
X179729414Y-82306928D01*
X179775183Y-82243931D01*
X179830512Y-82201268D01*
X179900125Y-82195289D01*
X179961920Y-82227895D01*
X179996278Y-82288734D01*
X179999500Y-82316819D01*
X179999500Y-83403180D01*
X179979815Y-83470219D01*
X179927011Y-83515974D01*
X179857853Y-83525918D01*
X179794297Y-83496893D01*
X179775183Y-83476066D01*
X179729418Y-83413078D01*
X179729414Y-83413072D01*
X179606928Y-83290586D01*
X179466788Y-83188768D01*
X179312445Y-83110127D01*
X179147701Y-83056598D01*
X179147699Y-83056597D01*
X179147698Y-83056597D01*
X179016271Y-83035781D01*
X178976611Y-83029500D01*
X178803389Y-83029500D01*
X178763728Y-83035781D01*
X178632302Y-83056597D01*
X178467552Y-83110128D01*
X178313211Y-83188768D01*
X178233256Y-83246859D01*
X178173072Y-83290586D01*
X178173070Y-83290588D01*
X178173069Y-83290588D01*
X178050588Y-83413069D01*
X178050588Y-83413070D01*
X178050586Y-83413072D01*
X178050582Y-83413078D01*
X177948768Y-83553211D01*
X177870128Y-83707552D01*
X177816597Y-83872302D01*
X177789500Y-84043389D01*
X177789500Y-84216610D01*
X177804678Y-84312445D01*
X177816598Y-84387701D01*
X177850724Y-84492730D01*
X177870128Y-84552447D01*
X177948768Y-84706788D01*
X178018390Y-84802614D01*
X178041870Y-84868421D01*
X178026045Y-84936475D01*
X177975939Y-84985170D01*
X177918072Y-84999500D01*
X173266819Y-84999500D01*
X173199780Y-84979815D01*
X173154025Y-84927011D01*
X173144081Y-84857853D01*
X173173106Y-84794297D01*
X173193929Y-84775185D01*
X173256928Y-84729414D01*
X173379414Y-84606928D01*
X173481232Y-84466788D01*
X173559873Y-84312445D01*
X173613402Y-84147701D01*
X173640500Y-83976611D01*
X173640500Y-83803389D01*
X173613402Y-83632299D01*
X173559873Y-83467555D01*
X173481232Y-83313212D01*
X173379414Y-83173072D01*
X173256928Y-83050586D01*
X173116788Y-82948768D01*
X172962445Y-82870127D01*
X172797701Y-82816598D01*
X172797699Y-82816597D01*
X172797698Y-82816597D01*
X172666271Y-82795781D01*
X172626611Y-82789500D01*
X172453389Y-82789500D01*
X172421192Y-82794599D01*
X172282301Y-82816597D01*
X172113028Y-82871597D01*
X172097815Y-82872031D01*
X172083556Y-82877350D01*
X172063600Y-82873008D01*
X172043186Y-82873592D01*
X172029099Y-82865503D01*
X172015283Y-82862498D01*
X171987029Y-82841347D01*
X171942235Y-82796553D01*
X171908750Y-82735230D01*
X171905916Y-82708872D01*
X171905916Y-69700959D01*
X171925601Y-69633920D01*
X171978405Y-69588165D01*
X172047563Y-69578221D01*
X172111119Y-69607246D01*
X172117584Y-69613266D01*
X172667500Y-70163181D01*
X173163181Y-70658862D01*
X173196666Y-70720185D01*
X173199500Y-70746543D01*
X173199500Y-70822475D01*
X173237016Y-70962485D01*
X173237017Y-70962488D01*
X173309488Y-71088011D01*
X173309490Y-71088013D01*
X173309491Y-71088015D01*
X173411985Y-71190509D01*
X173411986Y-71190510D01*
X173411988Y-71190511D01*
X173537511Y-71262982D01*
X173537512Y-71262982D01*
X173537515Y-71262984D01*
X173677525Y-71300500D01*
X173677528Y-71300500D01*
X173822472Y-71300500D01*
X173822475Y-71300500D01*
X173962485Y-71262984D01*
X174088015Y-71190509D01*
X174190509Y-71088015D01*
X174262984Y-70962485D01*
X174300500Y-70822475D01*
X174300500Y-70677525D01*
X174262984Y-70537515D01*
X174190509Y-70411985D01*
X174088015Y-70309491D01*
X174088013Y-70309490D01*
X174088011Y-70309488D01*
X173962488Y-70237017D01*
X173962489Y-70237017D01*
X173951006Y-70233940D01*
X173822475Y-70199500D01*
X173822472Y-70199500D01*
X173746543Y-70199500D01*
X173679504Y-70179815D01*
X173658862Y-70163181D01*
X172636819Y-69141137D01*
X172603334Y-69079814D01*
X172600500Y-69053456D01*
X172600500Y-66261362D01*
X172600500Y-66203856D01*
X172589914Y-66164350D01*
X172588883Y-66154897D01*
X172593425Y-66129489D01*
X172594039Y-66103692D01*
X172599472Y-66095663D01*
X172601179Y-66086118D01*
X172618735Y-66067201D01*
X172633200Y-66045829D01*
X172643498Y-66040519D01*
X172648709Y-66034906D01*
X172660030Y-66031997D01*
X172680056Y-66021673D01*
X172712485Y-66012984D01*
X172838015Y-65940509D01*
X172891705Y-65886819D01*
X172953028Y-65853334D01*
X172979386Y-65850500D01*
X176796142Y-65850500D01*
X176796144Y-65850500D01*
X176885288Y-65826614D01*
X176895912Y-65820480D01*
X176965212Y-65780470D01*
X177780470Y-64965212D01*
X177826614Y-64885288D01*
X177827120Y-64883402D01*
X177838150Y-64842234D01*
X177838150Y-64842233D01*
X177841462Y-64829873D01*
X177850500Y-64796144D01*
X177850500Y-64622722D01*
X177850696Y-64619239D01*
X177861285Y-64589473D01*
X177870185Y-64559165D01*
X177872907Y-64556806D01*
X177874115Y-64553411D01*
X177899121Y-64534091D01*
X177922989Y-64513410D01*
X177926554Y-64512897D01*
X177929406Y-64510694D01*
X177960883Y-64507961D01*
X177992147Y-64503466D01*
X177995424Y-64504962D01*
X177999014Y-64504651D01*
X178026971Y-64519369D01*
X178055703Y-64532491D01*
X178060657Y-64537104D01*
X178060839Y-64537200D01*
X178060926Y-64537355D01*
X178062181Y-64538523D01*
X178173072Y-64649414D01*
X178313212Y-64751232D01*
X178467555Y-64829873D01*
X178632299Y-64883402D01*
X178803389Y-64910500D01*
X178803390Y-64910500D01*
X178976610Y-64910500D01*
X178976611Y-64910500D01*
X179147701Y-64883402D01*
X179312445Y-64829873D01*
X179466788Y-64751232D01*
X179606928Y-64649414D01*
X179729414Y-64526928D01*
X179775183Y-64463931D01*
X179830512Y-64421268D01*
X179900125Y-64415289D01*
X179961920Y-64447895D01*
G37*
%TD.AperFunction*%
%TA.AperFunction,Conductor*%
G36*
X160205703Y-64443106D02*
G01*
X160224814Y-64463929D01*
X160270586Y-64526928D01*
X160393072Y-64649414D01*
X160533212Y-64751232D01*
X160687555Y-64829873D01*
X160852299Y-64883402D01*
X161023389Y-64910500D01*
X161023390Y-64910500D01*
X161196610Y-64910500D01*
X161196611Y-64910500D01*
X161367701Y-64883402D01*
X161532445Y-64829873D01*
X161686788Y-64751232D01*
X161826928Y-64649414D01*
X161937819Y-64538523D01*
X161999142Y-64505038D01*
X162068834Y-64510022D01*
X162124767Y-64551894D01*
X162149184Y-64617358D01*
X162149500Y-64626204D01*
X162149500Y-65612690D01*
X162129815Y-65679729D01*
X162113181Y-65700371D01*
X161592962Y-66220589D01*
X161575925Y-66157007D01*
X161510099Y-66042993D01*
X161417007Y-65949901D01*
X161302993Y-65884075D01*
X161239409Y-65867037D01*
X161728533Y-65377913D01*
X161712730Y-65366431D01*
X161551447Y-65284252D01*
X161551444Y-65284251D01*
X161379293Y-65228317D01*
X161200506Y-65200000D01*
X161019494Y-65200000D01*
X160840706Y-65228317D01*
X160668555Y-65284251D01*
X160668547Y-65284254D01*
X160507269Y-65366432D01*
X160491466Y-65377912D01*
X160491466Y-65377913D01*
X160980591Y-65867037D01*
X160917007Y-65884075D01*
X160802993Y-65949901D01*
X160709901Y-66042993D01*
X160644075Y-66157007D01*
X160627037Y-66220590D01*
X160137913Y-65731466D01*
X160134229Y-65731756D01*
X160120618Y-65728896D01*
X160106853Y-65730876D01*
X160087101Y-65721855D01*
X160065852Y-65717392D01*
X160055948Y-65707628D01*
X160043297Y-65701851D01*
X160031556Y-65683582D01*
X160016095Y-65668340D01*
X160012268Y-65653569D01*
X160005523Y-65643073D01*
X160000500Y-65608138D01*
X160000500Y-64536819D01*
X160020185Y-64469780D01*
X160072989Y-64424025D01*
X160142147Y-64414081D01*
X160205703Y-64443106D01*
G37*
%TD.AperFunction*%
%TA.AperFunction,Conductor*%
G36*
X175818834Y-56062204D02*
G01*
X175874767Y-56104076D01*
X175899184Y-56169540D01*
X175899500Y-56178386D01*
X175899500Y-58130214D01*
X175879815Y-58197253D01*
X175827011Y-58243008D01*
X175757853Y-58252952D01*
X175720099Y-58239885D01*
X175719999Y-58240128D01*
X175715928Y-58238442D01*
X175713504Y-58237603D01*
X175712492Y-58237018D01*
X175712489Y-58237017D01*
X175701006Y-58233940D01*
X175572475Y-58199500D01*
X175572472Y-58199500D01*
X175523500Y-58199500D01*
X175456461Y-58179815D01*
X175410706Y-58127011D01*
X175399500Y-58075500D01*
X175399500Y-56370939D01*
X175419185Y-56303900D01*
X175461500Y-56263552D01*
X175462482Y-56262984D01*
X175462485Y-56262984D01*
X175588015Y-56190509D01*
X175687819Y-56090705D01*
X175749142Y-56057220D01*
X175818834Y-56062204D01*
G37*
%TD.AperFunction*%
%TA.AperFunction,Conductor*%
G36*
X160205703Y-39043106D02*
G01*
X160224814Y-39063929D01*
X160270586Y-39126928D01*
X160393072Y-39249414D01*
X160533212Y-39351232D01*
X160687555Y-39429873D01*
X160852299Y-39483402D01*
X161023389Y-39510500D01*
X161023390Y-39510500D01*
X161196610Y-39510500D01*
X161196611Y-39510500D01*
X161367701Y-39483402D01*
X161532445Y-39429873D01*
X161532447Y-39429871D01*
X161536971Y-39428402D01*
X161606812Y-39426407D01*
X161662970Y-39458652D01*
X163462181Y-41257863D01*
X163495666Y-41319186D01*
X163498500Y-41345544D01*
X163498500Y-45083456D01*
X163478815Y-45150495D01*
X163426011Y-45196250D01*
X163356853Y-45206194D01*
X163293297Y-45177169D01*
X163286819Y-45171137D01*
X162158651Y-44042970D01*
X162125166Y-43981647D01*
X162128401Y-43916970D01*
X162129868Y-43912454D01*
X162129873Y-43912445D01*
X162183402Y-43747701D01*
X162210500Y-43576611D01*
X162210500Y-43403389D01*
X162183402Y-43232299D01*
X162129873Y-43067555D01*
X162051232Y-42913212D01*
X161949414Y-42773072D01*
X161826928Y-42650586D01*
X161686788Y-42548768D01*
X161532445Y-42470127D01*
X161367701Y-42416598D01*
X161367699Y-42416597D01*
X161367698Y-42416597D01*
X161236271Y-42395781D01*
X161196611Y-42389500D01*
X161023389Y-42389500D01*
X160983728Y-42395781D01*
X160852302Y-42416597D01*
X160687552Y-42470128D01*
X160533211Y-42548768D01*
X160453256Y-42606859D01*
X160393072Y-42650586D01*
X160393070Y-42650588D01*
X160393069Y-42650588D01*
X160270588Y-42773069D01*
X160270581Y-42773078D01*
X160224817Y-42836066D01*
X160169487Y-42878732D01*
X160099874Y-42884710D01*
X160038079Y-42852104D01*
X160003722Y-42791265D01*
X160000500Y-42763180D01*
X160000500Y-41691861D01*
X160020185Y-41624822D01*
X160072989Y-41579067D01*
X160134229Y-41568243D01*
X160137913Y-41568533D01*
X160627037Y-41079409D01*
X160644075Y-41142993D01*
X160709901Y-41257007D01*
X160802993Y-41350099D01*
X160917007Y-41415925D01*
X160980590Y-41432962D01*
X160491466Y-41922085D01*
X160491466Y-41922086D01*
X160507267Y-41933566D01*
X160507275Y-41933571D01*
X160668552Y-42015747D01*
X160668555Y-42015748D01*
X160840706Y-42071682D01*
X161019494Y-42100000D01*
X161200506Y-42100000D01*
X161379293Y-42071682D01*
X161551444Y-42015748D01*
X161551452Y-42015745D01*
X161712730Y-41933568D01*
X161728532Y-41922085D01*
X161728533Y-41922085D01*
X161239410Y-41432962D01*
X161302993Y-41415925D01*
X161417007Y-41350099D01*
X161510099Y-41257007D01*
X161575925Y-41142993D01*
X161592962Y-41079409D01*
X162082085Y-41568532D01*
X162093568Y-41552730D01*
X162175745Y-41391452D01*
X162175748Y-41391444D01*
X162231682Y-41219293D01*
X162260000Y-41040506D01*
X162260000Y-40859493D01*
X162231682Y-40680706D01*
X162175748Y-40508555D01*
X162175747Y-40508552D01*
X162093571Y-40347275D01*
X162093566Y-40347267D01*
X162082085Y-40331466D01*
X161592962Y-40820589D01*
X161575925Y-40757007D01*
X161510099Y-40642993D01*
X161417007Y-40549901D01*
X161302993Y-40484075D01*
X161239409Y-40467037D01*
X161728533Y-39977913D01*
X161712730Y-39966431D01*
X161551447Y-39884252D01*
X161551444Y-39884251D01*
X161379293Y-39828317D01*
X161200506Y-39800000D01*
X161019494Y-39800000D01*
X160840706Y-39828317D01*
X160668555Y-39884251D01*
X160668547Y-39884254D01*
X160507269Y-39966432D01*
X160491466Y-39977912D01*
X160491466Y-39977913D01*
X160980591Y-40467037D01*
X160917007Y-40484075D01*
X160802993Y-40549901D01*
X160709901Y-40642993D01*
X160644075Y-40757007D01*
X160627037Y-40820590D01*
X160137913Y-40331466D01*
X160134229Y-40331756D01*
X160120618Y-40328896D01*
X160106853Y-40330876D01*
X160087101Y-40321855D01*
X160065852Y-40317392D01*
X160055948Y-40307628D01*
X160043297Y-40301851D01*
X160031556Y-40283582D01*
X160016095Y-40268340D01*
X160012268Y-40253569D01*
X160005523Y-40243073D01*
X160000500Y-40208138D01*
X160000500Y-39136819D01*
X160020185Y-39069780D01*
X160072989Y-39024025D01*
X160142147Y-39014081D01*
X160205703Y-39043106D01*
G37*
%TD.AperFunction*%
%TA.AperFunction,Conductor*%
G36*
X179961920Y-39047895D02*
G01*
X179996278Y-39108734D01*
X179999500Y-39136819D01*
X179999500Y-40208138D01*
X179979815Y-40275177D01*
X179927011Y-40320932D01*
X179865773Y-40331756D01*
X179862086Y-40331465D01*
X179372962Y-40820589D01*
X179355925Y-40757007D01*
X179290099Y-40642993D01*
X179197007Y-40549901D01*
X179082993Y-40484075D01*
X179019409Y-40467037D01*
X179508533Y-39977913D01*
X179492730Y-39966431D01*
X179331447Y-39884252D01*
X179331444Y-39884251D01*
X179159293Y-39828317D01*
X178980506Y-39800000D01*
X178799494Y-39800000D01*
X178620706Y-39828317D01*
X178448555Y-39884251D01*
X178448547Y-39884254D01*
X178287269Y-39966432D01*
X178271466Y-39977912D01*
X178271466Y-39977913D01*
X178760591Y-40467037D01*
X178697007Y-40484075D01*
X178582993Y-40549901D01*
X178489901Y-40642993D01*
X178424075Y-40757007D01*
X178407037Y-40820590D01*
X177917913Y-40331466D01*
X177917912Y-40331466D01*
X177906432Y-40347269D01*
X177824254Y-40508547D01*
X177824251Y-40508555D01*
X177768317Y-40680706D01*
X177740000Y-40859493D01*
X177740000Y-41040506D01*
X177768317Y-41219293D01*
X177824251Y-41391444D01*
X177824252Y-41391447D01*
X177906431Y-41552730D01*
X177917913Y-41568532D01*
X177917913Y-41568533D01*
X178407037Y-41079409D01*
X178424075Y-41142993D01*
X178489901Y-41257007D01*
X178582993Y-41350099D01*
X178697007Y-41415925D01*
X178760590Y-41432962D01*
X178271466Y-41922085D01*
X178271466Y-41922086D01*
X178287267Y-41933566D01*
X178287275Y-41933571D01*
X178448552Y-42015747D01*
X178448555Y-42015748D01*
X178620706Y-42071682D01*
X178799494Y-42100000D01*
X178980506Y-42100000D01*
X179159293Y-42071682D01*
X179331444Y-42015748D01*
X179331452Y-42015745D01*
X179492730Y-41933568D01*
X179508532Y-41922085D01*
X179508533Y-41922085D01*
X179019410Y-41432962D01*
X179082993Y-41415925D01*
X179197007Y-41350099D01*
X179290099Y-41257007D01*
X179355925Y-41142993D01*
X179372962Y-41079410D01*
X179862084Y-41568532D01*
X179865772Y-41568242D01*
X179934149Y-41582606D01*
X179983905Y-41631658D01*
X179999500Y-41691860D01*
X179999500Y-42763180D01*
X179979815Y-42830219D01*
X179927011Y-42875974D01*
X179857853Y-42885918D01*
X179794297Y-42856893D01*
X179775183Y-42836066D01*
X179729418Y-42773078D01*
X179729414Y-42773072D01*
X179606928Y-42650586D01*
X179466788Y-42548768D01*
X179312445Y-42470127D01*
X179147701Y-42416598D01*
X179147699Y-42416597D01*
X179147698Y-42416597D01*
X179016271Y-42395781D01*
X178976611Y-42389500D01*
X178803389Y-42389500D01*
X178763728Y-42395781D01*
X178632302Y-42416597D01*
X178467552Y-42470128D01*
X178313211Y-42548768D01*
X178233256Y-42606859D01*
X178173072Y-42650586D01*
X178173070Y-42650588D01*
X178173069Y-42650588D01*
X178050588Y-42773069D01*
X178050588Y-42773070D01*
X178050586Y-42773072D01*
X178050582Y-42773078D01*
X177948768Y-42913211D01*
X177870128Y-43067552D01*
X177816597Y-43232302D01*
X177789500Y-43403389D01*
X177789500Y-43576610D01*
X177816597Y-43747698D01*
X177871597Y-43916970D01*
X177873592Y-43986811D01*
X177841347Y-44042969D01*
X176812181Y-45072136D01*
X176750858Y-45105621D01*
X176681166Y-45100637D01*
X176625233Y-45058765D01*
X176600816Y-44993301D01*
X176600500Y-44984455D01*
X176600500Y-41246543D01*
X176620185Y-41179504D01*
X176636814Y-41158867D01*
X178337031Y-39458649D01*
X178398352Y-39425166D01*
X178463029Y-39428401D01*
X178467547Y-39429869D01*
X178467555Y-39429873D01*
X178632299Y-39483402D01*
X178803389Y-39510500D01*
X178803390Y-39510500D01*
X178976610Y-39510500D01*
X178976611Y-39510500D01*
X179147701Y-39483402D01*
X179312445Y-39429873D01*
X179466788Y-39351232D01*
X179606928Y-39249414D01*
X179729414Y-39126928D01*
X179775183Y-39063931D01*
X179830512Y-39021268D01*
X179900125Y-39015289D01*
X179961920Y-39047895D01*
G37*
%TD.AperFunction*%
%TD*%
M02*
