%TF.GenerationSoftware,KiCad,Pcbnew,9.0.2*%
%TF.CreationDate,2026-03-15T21:02:35+02:00*%
%TF.ProjectId,RP2040,52503230-3430-42e6-9b69-6361645f7063,rev?*%
%TF.SameCoordinates,Original*%
%TF.FileFunction,Legend,Bot*%
%TF.FilePolarity,Positive*%
%FSLAX46Y46*%
G04 Gerber Fmt 4.6, Leading zero omitted, Abs format (unit mm)*
G04 Created by KiCad (PCBNEW 9.0.2) date 2026-03-15 21:02:35*
%MOMM*%
%LPD*%
G01*
G04 APERTURE LIST*
%ADD10C,0.100000*%
%ADD11C,0.000000*%
G04 APERTURE END LIST*
D10*
X174077068Y-80146228D02*
X174124687Y-80098609D01*
X174124687Y-80098609D02*
X174219925Y-80050990D01*
X174219925Y-80050990D02*
X174315163Y-80050990D01*
X174315163Y-80050990D02*
X174410401Y-80098609D01*
X174410401Y-80098609D02*
X174458020Y-80146228D01*
X174458020Y-80146228D02*
X174505639Y-80241466D01*
X174505639Y-80241466D02*
X174505639Y-80336704D01*
X174505639Y-80336704D02*
X174458020Y-80431942D01*
X174458020Y-80431942D02*
X174410401Y-80479561D01*
X174410401Y-80479561D02*
X174315163Y-80527180D01*
X174315163Y-80527180D02*
X174219925Y-80527180D01*
X174219925Y-80527180D02*
X174124687Y-80479561D01*
X174124687Y-80479561D02*
X174077068Y-80431942D01*
X174077068Y-80050990D02*
X174077068Y-80431942D01*
X174077068Y-80431942D02*
X174029449Y-80479561D01*
X174029449Y-80479561D02*
X173981830Y-80479561D01*
X173981830Y-80479561D02*
X173886591Y-80431942D01*
X173886591Y-80431942D02*
X173838972Y-80336704D01*
X173838972Y-80336704D02*
X173838972Y-80098609D01*
X173838972Y-80098609D02*
X173934211Y-79955752D01*
X173934211Y-79955752D02*
X174077068Y-79860514D01*
X174077068Y-79860514D02*
X174267544Y-79812895D01*
X174267544Y-79812895D02*
X174458020Y-79860514D01*
X174458020Y-79860514D02*
X174600877Y-79955752D01*
X174600877Y-79955752D02*
X174696115Y-80098609D01*
X174696115Y-80098609D02*
X174743734Y-80289085D01*
X174743734Y-80289085D02*
X174696115Y-80479561D01*
X174696115Y-80479561D02*
X174600877Y-80622419D01*
X174600877Y-80622419D02*
X174458020Y-80717657D01*
X174458020Y-80717657D02*
X174267544Y-80765276D01*
X174267544Y-80765276D02*
X174077068Y-80717657D01*
X174077068Y-80717657D02*
X173934211Y-80622419D01*
X173410401Y-80622419D02*
X173410401Y-79622419D01*
X173029449Y-79955752D02*
X172791354Y-80622419D01*
X172791354Y-80622419D02*
X172553259Y-79955752D01*
X171743735Y-80622419D02*
X171743735Y-80098609D01*
X171743735Y-80098609D02*
X171791354Y-80003371D01*
X171791354Y-80003371D02*
X171886592Y-79955752D01*
X171886592Y-79955752D02*
X172077068Y-79955752D01*
X172077068Y-79955752D02*
X172172306Y-80003371D01*
X171743735Y-80574800D02*
X171838973Y-80622419D01*
X171838973Y-80622419D02*
X172077068Y-80622419D01*
X172077068Y-80622419D02*
X172172306Y-80574800D01*
X172172306Y-80574800D02*
X172219925Y-80479561D01*
X172219925Y-80479561D02*
X172219925Y-80384323D01*
X172219925Y-80384323D02*
X172172306Y-80289085D01*
X172172306Y-80289085D02*
X172077068Y-80241466D01*
X172077068Y-80241466D02*
X171838973Y-80241466D01*
X171838973Y-80241466D02*
X171743735Y-80193847D01*
X171267544Y-80622419D02*
X171267544Y-79955752D01*
X171267544Y-79622419D02*
X171315163Y-79670038D01*
X171315163Y-79670038D02*
X171267544Y-79717657D01*
X171267544Y-79717657D02*
X171219925Y-79670038D01*
X171219925Y-79670038D02*
X171267544Y-79622419D01*
X171267544Y-79622419D02*
X171267544Y-79717657D01*
X170648497Y-80622419D02*
X170743735Y-80574800D01*
X170743735Y-80574800D02*
X170791354Y-80479561D01*
X170791354Y-80479561D02*
X170791354Y-79622419D01*
X170124687Y-80622419D02*
X170219925Y-80574800D01*
X170219925Y-80574800D02*
X170267544Y-80527180D01*
X170267544Y-80527180D02*
X170315163Y-80431942D01*
X170315163Y-80431942D02*
X170315163Y-80146228D01*
X170315163Y-80146228D02*
X170267544Y-80050990D01*
X170267544Y-80050990D02*
X170219925Y-80003371D01*
X170219925Y-80003371D02*
X170124687Y-79955752D01*
X170124687Y-79955752D02*
X169981830Y-79955752D01*
X169981830Y-79955752D02*
X169886592Y-80003371D01*
X169886592Y-80003371D02*
X169838973Y-80050990D01*
X169838973Y-80050990D02*
X169791354Y-80146228D01*
X169791354Y-80146228D02*
X169791354Y-80431942D01*
X169791354Y-80431942D02*
X169838973Y-80527180D01*
X169838973Y-80527180D02*
X169886592Y-80574800D01*
X169886592Y-80574800D02*
X169981830Y-80622419D01*
X169981830Y-80622419D02*
X170124687Y-80622419D01*
X169362782Y-80622419D02*
X169362782Y-79622419D01*
X168791354Y-80622419D02*
X169219925Y-80050990D01*
X168791354Y-79622419D02*
X169362782Y-80193847D01*
X168362782Y-80622419D02*
X168362782Y-79955752D01*
X168362782Y-79622419D02*
X168410401Y-79670038D01*
X168410401Y-79670038D02*
X168362782Y-79717657D01*
X168362782Y-79717657D02*
X168315163Y-79670038D01*
X168315163Y-79670038D02*
X168362782Y-79622419D01*
X168362782Y-79622419D02*
X168362782Y-79717657D01*
X167886592Y-80622419D02*
X167886592Y-79955752D01*
X167886592Y-80146228D02*
X167838973Y-80050990D01*
X167838973Y-80050990D02*
X167791354Y-80003371D01*
X167791354Y-80003371D02*
X167696116Y-79955752D01*
X167696116Y-79955752D02*
X167600878Y-79955752D01*
X167267544Y-80622419D02*
X167267544Y-79955752D01*
X167267544Y-79622419D02*
X167315163Y-79670038D01*
X167315163Y-79670038D02*
X167267544Y-79717657D01*
X167267544Y-79717657D02*
X167219925Y-79670038D01*
X167219925Y-79670038D02*
X167267544Y-79622419D01*
X167267544Y-79622419D02*
X167267544Y-79717657D01*
X166648497Y-80622419D02*
X166743735Y-80574800D01*
X166743735Y-80574800D02*
X166791354Y-80479561D01*
X166791354Y-80479561D02*
X166791354Y-79622419D01*
X166124687Y-80622419D02*
X166219925Y-80574800D01*
X166219925Y-80574800D02*
X166267544Y-80527180D01*
X166267544Y-80527180D02*
X166315163Y-80431942D01*
X166315163Y-80431942D02*
X166315163Y-80146228D01*
X166315163Y-80146228D02*
X166267544Y-80050990D01*
X166267544Y-80050990D02*
X166219925Y-80003371D01*
X166219925Y-80003371D02*
X166124687Y-79955752D01*
X166124687Y-79955752D02*
X165981830Y-79955752D01*
X165981830Y-79955752D02*
X165886592Y-80003371D01*
X165886592Y-80003371D02*
X165838973Y-80050990D01*
X165838973Y-80050990D02*
X165791354Y-80146228D01*
X165791354Y-80146228D02*
X165791354Y-80431942D01*
X165791354Y-80431942D02*
X165838973Y-80527180D01*
X165838973Y-80527180D02*
X165886592Y-80574800D01*
X165886592Y-80574800D02*
X165981830Y-80622419D01*
X165981830Y-80622419D02*
X166124687Y-80622419D01*
X165458020Y-79955752D02*
X165219925Y-80622419D01*
X165219925Y-80622419D02*
X164981830Y-79955752D01*
D11*
%TO.C,G\u002A\u002A\u002A*%
G36*
X176015263Y-63614046D02*
G01*
X175882147Y-63899731D01*
X175692888Y-64286388D01*
X175440257Y-64792990D01*
X174659528Y-66352939D01*
X174978844Y-66820737D01*
X174994687Y-66844041D01*
X175148183Y-67080628D01*
X175256890Y-67267365D01*
X175294017Y-67355741D01*
X175298160Y-67365603D01*
X175289892Y-67399664D01*
X175218563Y-67544300D01*
X175097914Y-67737749D01*
X175039394Y-67831187D01*
X174964441Y-67994261D01*
X174965392Y-68079757D01*
X175051605Y-68139275D01*
X175230098Y-68262320D01*
X175457816Y-68419205D01*
X175719338Y-68603025D01*
X176010229Y-68823752D01*
X176178098Y-68978629D01*
X176202876Y-69023705D01*
X176230602Y-69074145D01*
X176201583Y-69111474D01*
X176066433Y-69222755D01*
X175846287Y-69381954D01*
X175569228Y-69568098D01*
X175380370Y-69695011D01*
X175137836Y-69872445D01*
X174971474Y-70012940D01*
X174909485Y-70094018D01*
X174913204Y-70129568D01*
X174967025Y-70191903D01*
X174984740Y-70198703D01*
X175070485Y-70293539D01*
X175174137Y-70455309D01*
X175261446Y-70626378D01*
X175298160Y-70749112D01*
X175256926Y-70845398D01*
X175146418Y-71027861D01*
X174990913Y-71255765D01*
X174925235Y-71349141D01*
X174786628Y-71573263D01*
X174732981Y-71729386D01*
X174749729Y-71853611D01*
X174751592Y-71858249D01*
X174811309Y-71988132D01*
X174928621Y-72230426D01*
X175091411Y-72560542D01*
X175287560Y-72953892D01*
X175504949Y-73385889D01*
X175532808Y-73441010D01*
X175743547Y-73858116D01*
X175928302Y-74224035D01*
X175979247Y-74325024D01*
X176075990Y-74516798D01*
X176175527Y-74714437D01*
X176215831Y-74794984D01*
X176216097Y-74807479D01*
X176155973Y-74906501D01*
X176025312Y-75052825D01*
X175993782Y-75083455D01*
X175807033Y-75211859D01*
X175631454Y-75219486D01*
X175540240Y-75191973D01*
X175265398Y-75086473D01*
X174898899Y-74926528D01*
X174471154Y-74725698D01*
X174012577Y-74497546D01*
X173688656Y-74331826D01*
X173334306Y-74150516D01*
X173040010Y-73999911D01*
X172920713Y-73940638D01*
X172691879Y-73854277D01*
X172509950Y-73857174D01*
X172324446Y-73958098D01*
X172084888Y-74165817D01*
X171958210Y-74267793D01*
X171756740Y-74396808D01*
X171687227Y-74430270D01*
X171574343Y-74446927D01*
X171444397Y-74389755D01*
X171247749Y-74243834D01*
X171142226Y-74160739D01*
X171009854Y-74074258D01*
X170906551Y-74063966D01*
X170804790Y-74144094D01*
X170677047Y-74328868D01*
X170495795Y-74632515D01*
X170463448Y-74686415D01*
X170255054Y-74990550D01*
X170070722Y-75186457D01*
X169927156Y-75255828D01*
X169850998Y-75203135D01*
X169713198Y-75062861D01*
X169548037Y-74874234D01*
X169388503Y-74676555D01*
X169267584Y-74509128D01*
X169218267Y-74411255D01*
X169174583Y-74325262D01*
X169067716Y-74182395D01*
X168919757Y-74004974D01*
X168574387Y-74248414D01*
X168229016Y-74491853D01*
X167747086Y-74137077D01*
X167522274Y-73974083D01*
X167349886Y-73874320D01*
X167196081Y-73842611D01*
X167021575Y-73879770D01*
X166787085Y-73986615D01*
X166453329Y-74163963D01*
X166174107Y-74312827D01*
X165495114Y-74663864D01*
X164940530Y-74932625D01*
X164512387Y-75118151D01*
X164212718Y-75219486D01*
X164188981Y-75224648D01*
X164013318Y-75202042D01*
X163821073Y-75055038D01*
X163665432Y-74876564D01*
X163614791Y-74753386D01*
X163688957Y-74710429D01*
X163711217Y-74706910D01*
X163766871Y-74626296D01*
X163794803Y-74545808D01*
X163882874Y-74346172D01*
X163915749Y-74276017D01*
X164546012Y-74276017D01*
X164548383Y-74301652D01*
X164626999Y-74384995D01*
X164784501Y-74382755D01*
X164976682Y-74293169D01*
X164983936Y-74288309D01*
X165122109Y-74206114D01*
X165363149Y-74071151D01*
X165675194Y-73901022D01*
X166026380Y-73713326D01*
X166922393Y-73239086D01*
X166938720Y-73040048D01*
X167438777Y-73040048D01*
X167471445Y-73188090D01*
X167572310Y-73319731D01*
X167769322Y-73490294D01*
X167923224Y-73609707D01*
X168101159Y-73729196D01*
X168205746Y-73775460D01*
X168215146Y-73773175D01*
X168320819Y-73701493D01*
X168508551Y-73544292D01*
X168551461Y-73505557D01*
X169224544Y-73505557D01*
X169538675Y-74030079D01*
X169576128Y-74091813D01*
X169728893Y-74327207D01*
X169852147Y-74492325D01*
X169922086Y-74554601D01*
X169932419Y-74550963D01*
X170016968Y-74461700D01*
X170149262Y-74277217D01*
X170305497Y-74030079D01*
X170619628Y-73505557D01*
X170332959Y-73211981D01*
X170220554Y-73105564D01*
X170044182Y-72971010D01*
X169922086Y-72918405D01*
X169857465Y-72938477D01*
X169696715Y-73044802D01*
X169511213Y-73211981D01*
X169224544Y-73505557D01*
X168551461Y-73505557D01*
X168754884Y-73321928D01*
X169036358Y-73054754D01*
X169090826Y-73002098D01*
X169371559Y-72738123D01*
X169615885Y-72520092D01*
X169799182Y-72369390D01*
X169896827Y-72307403D01*
X169906463Y-72307146D01*
X170021156Y-72366810D01*
X170218550Y-72518566D01*
X170477230Y-72744852D01*
X170775777Y-73028109D01*
X170853306Y-73103723D01*
X171132851Y-73367010D01*
X171289628Y-73505557D01*
X171373626Y-73579788D01*
X171552105Y-73721886D01*
X171644761Y-73773135D01*
X171718606Y-73746614D01*
X171886974Y-73639938D01*
X172089580Y-73479844D01*
X172252548Y-73332938D01*
X172365744Y-73193148D01*
X172406132Y-73047483D01*
X172401236Y-72839377D01*
X172388337Y-72685545D01*
X172349932Y-72545010D01*
X172251769Y-72482509D01*
X172051411Y-72450920D01*
X171785318Y-72381144D01*
X171503373Y-72212102D01*
X171367873Y-72090891D01*
X170871022Y-71650737D01*
X170481965Y-71314128D01*
X170196755Y-71077771D01*
X170011444Y-70938372D01*
X169922086Y-70892638D01*
X169909205Y-70895240D01*
X169797214Y-70963117D01*
X169588326Y-71125449D01*
X169278592Y-71385527D01*
X168864066Y-71746647D01*
X168340799Y-72212102D01*
X168120547Y-72354260D01*
X167792761Y-72450920D01*
X167640270Y-72471721D01*
X167516866Y-72518871D01*
X167465220Y-72628650D01*
X167444553Y-72847502D01*
X167438777Y-73040048D01*
X166938720Y-73040048D01*
X166961698Y-72759923D01*
X166997483Y-72508932D01*
X167113907Y-72210871D01*
X167309119Y-72038765D01*
X167590553Y-71983435D01*
X167749214Y-71955065D01*
X167886687Y-71845606D01*
X167953209Y-71699690D01*
X168041863Y-71464993D01*
X168129701Y-71201853D01*
X168203108Y-70953803D01*
X168248466Y-70764377D01*
X168252161Y-70677109D01*
X168239465Y-70673087D01*
X168114267Y-70689045D01*
X167890523Y-70743447D01*
X167605995Y-70827504D01*
X167357815Y-70907988D01*
X167153872Y-70986969D01*
X167040528Y-71063199D01*
X166985204Y-71160466D01*
X166955317Y-71302555D01*
X166890302Y-71565253D01*
X166774449Y-71728273D01*
X166575014Y-71807090D01*
X166257576Y-71827607D01*
X165806625Y-71827607D01*
X165477791Y-72470398D01*
X165443799Y-72536507D01*
X165243439Y-72916704D01*
X165031122Y-73307265D01*
X164847485Y-73633226D01*
X164822002Y-73677621D01*
X164682003Y-73938963D01*
X164583342Y-74152638D01*
X164546012Y-74276017D01*
X163915749Y-74276017D01*
X164020180Y-74053158D01*
X164195539Y-73690587D01*
X164397770Y-73282278D01*
X164614524Y-72850206D01*
X164815433Y-72447119D01*
X164959084Y-72147175D01*
X165051276Y-71930188D01*
X165097807Y-71775973D01*
X165104475Y-71664344D01*
X165077078Y-71575114D01*
X165021414Y-71488100D01*
X164943281Y-71383114D01*
X164755609Y-71116971D01*
X164631132Y-70907813D01*
X164582926Y-70751970D01*
X164586579Y-70723020D01*
X165169325Y-70723020D01*
X165180590Y-70761827D01*
X165267147Y-70903636D01*
X165411139Y-71084712D01*
X165503486Y-71185603D01*
X165647556Y-71300773D01*
X165815630Y-71349839D01*
X166073409Y-71360122D01*
X166493865Y-71360122D01*
X166493865Y-71076345D01*
X166494184Y-71046066D01*
X166505183Y-70934194D01*
X166541818Y-70820340D01*
X166617529Y-70685840D01*
X166745755Y-70512029D01*
X166939936Y-70280245D01*
X167213512Y-69971823D01*
X167442335Y-69719697D01*
X168083140Y-69719697D01*
X168128408Y-69992276D01*
X168192367Y-70119373D01*
X168299802Y-70180165D01*
X168500484Y-70179015D01*
X168792331Y-70154738D01*
X168766802Y-70445402D01*
X168762289Y-70627805D01*
X168784456Y-70677109D01*
X168813919Y-70742642D01*
X168954753Y-70817230D01*
X168988278Y-70829394D01*
X169129553Y-70853380D01*
X169268753Y-70803301D01*
X169462677Y-70661774D01*
X169628863Y-70542488D01*
X169881999Y-70444129D01*
X170122109Y-70483983D01*
X170386628Y-70662062D01*
X170555254Y-70803148D01*
X170667567Y-70869102D01*
X170769007Y-70866857D01*
X170915491Y-70812296D01*
X170985473Y-70776275D01*
X171057133Y-70677109D01*
X171592011Y-70677109D01*
X171592372Y-70745035D01*
X171632724Y-70922793D01*
X171703027Y-71165264D01*
X171789666Y-71428913D01*
X171879024Y-71670205D01*
X171957486Y-71845606D01*
X172050851Y-71934537D01*
X172253619Y-71983435D01*
X172445362Y-72006040D01*
X172669145Y-72134205D01*
X172812203Y-72384301D01*
X172882474Y-72766208D01*
X172905248Y-73047483D01*
X172921779Y-73251656D01*
X173578433Y-73591858D01*
X173684233Y-73646898D01*
X174041622Y-73835475D01*
X174383637Y-74019338D01*
X174648571Y-74165416D01*
X174805102Y-74251022D01*
X175066248Y-74371127D01*
X175225475Y-74398015D01*
X175284971Y-74325024D01*
X175246926Y-74145497D01*
X175113528Y-73852774D01*
X174886967Y-73440194D01*
X174783695Y-73258980D01*
X174577049Y-72890238D01*
X174386875Y-72543789D01*
X174244176Y-72275798D01*
X174012577Y-71827977D01*
X173535066Y-71827792D01*
X173269705Y-71822552D01*
X173115909Y-71796061D01*
X173031669Y-71731823D01*
X172973812Y-71613343D01*
X172914102Y-71429266D01*
X172866967Y-71209048D01*
X172864708Y-71192877D01*
X172827365Y-71094508D01*
X172731005Y-71013199D01*
X172544994Y-70930337D01*
X172238694Y-70827307D01*
X172148844Y-70799443D01*
X171878494Y-70723493D01*
X171680299Y-70679792D01*
X171592011Y-70677109D01*
X171057133Y-70677109D01*
X171068677Y-70661134D01*
X171090747Y-70447142D01*
X171091064Y-70378896D01*
X171109721Y-70222302D01*
X171189697Y-70162217D01*
X171375650Y-70152454D01*
X171531263Y-70143531D01*
X171658585Y-70083515D01*
X171733645Y-69935677D01*
X171763889Y-69801448D01*
X171731892Y-69648376D01*
X171604570Y-69453912D01*
X171571666Y-69408854D01*
X171433274Y-69132375D01*
X171425585Y-69022699D01*
X171873673Y-69022699D01*
X171906286Y-69109889D01*
X172021211Y-69284409D01*
X172190304Y-69490184D01*
X172470234Y-69801448D01*
X172546329Y-69886060D01*
X172836575Y-70212784D01*
X173046983Y-70458060D01*
X173190378Y-70639429D01*
X173279583Y-70774427D01*
X173327424Y-70880594D01*
X173346723Y-70975467D01*
X173350307Y-71076585D01*
X173350307Y-71360122D01*
X173770763Y-71360122D01*
X173926953Y-71357657D01*
X174127479Y-71329524D01*
X174274272Y-71247650D01*
X174433033Y-71084712D01*
X174506025Y-70997670D01*
X174627041Y-70829970D01*
X174674847Y-70725867D01*
X174664399Y-70681132D01*
X174577380Y-70536522D01*
X174396344Y-70312025D01*
X174114269Y-69999247D01*
X173724133Y-69589799D01*
X173197291Y-69046352D01*
X173810148Y-69046352D01*
X174062996Y-69307225D01*
X174141242Y-69382531D01*
X174313227Y-69514802D01*
X174436910Y-69566379D01*
X174530215Y-69542683D01*
X174717208Y-69459479D01*
X174939359Y-69340516D01*
X175152599Y-69211257D01*
X175312860Y-69097165D01*
X175376074Y-69023705D01*
X175324229Y-68963030D01*
X175171490Y-68854536D01*
X174960809Y-68726828D01*
X174735841Y-68604794D01*
X174540241Y-68513322D01*
X174417664Y-68477300D01*
X174370709Y-68492565D01*
X174229656Y-68594931D01*
X174062048Y-68761826D01*
X173810148Y-69046352D01*
X173197291Y-69046352D01*
X173178670Y-69027144D01*
X173442219Y-68771701D01*
X173621028Y-68590233D01*
X173843394Y-68351589D01*
X174078951Y-68089478D01*
X174303787Y-67831369D01*
X174493990Y-67604731D01*
X174625647Y-67437032D01*
X174674847Y-67355741D01*
X174658974Y-67316177D01*
X174569720Y-67178900D01*
X174428064Y-66992363D01*
X174316925Y-66859813D01*
X174179535Y-66742578D01*
X174017681Y-66694534D01*
X173765794Y-66685276D01*
X173350307Y-66685276D01*
X173350307Y-67000270D01*
X173350322Y-67015126D01*
X173348784Y-67121175D01*
X173334821Y-67213923D01*
X173295067Y-67311589D01*
X173216154Y-67432389D01*
X173084713Y-67594541D01*
X172887379Y-67816264D01*
X172610781Y-68115774D01*
X172241554Y-68511290D01*
X172240437Y-68512486D01*
X172055398Y-68726792D01*
X171923658Y-68910049D01*
X171873673Y-69022699D01*
X171425585Y-69022699D01*
X171416226Y-68889205D01*
X171523579Y-68707512D01*
X171648720Y-68582668D01*
X171755290Y-68346415D01*
X171712536Y-68083929D01*
X171647304Y-67957674D01*
X171536185Y-67883581D01*
X171335920Y-67876734D01*
X171271257Y-67880200D01*
X171119592Y-67871905D01*
X171068732Y-67797981D01*
X171075755Y-67615294D01*
X171080746Y-67476915D01*
X171046498Y-67367024D01*
X171558938Y-67367024D01*
X171558996Y-67396035D01*
X171570897Y-67436542D01*
X171621403Y-67446837D01*
X171737958Y-67422573D01*
X171948005Y-67359402D01*
X172278988Y-67252978D01*
X172521943Y-67172865D01*
X172725012Y-67094080D01*
X172832767Y-67022200D01*
X172875329Y-66935174D01*
X172882822Y-66810951D01*
X172915326Y-66596817D01*
X173004111Y-66390956D01*
X173029229Y-66357432D01*
X173135277Y-66269898D01*
X173298972Y-66228301D01*
X173568989Y-66217712D01*
X174012577Y-66217633D01*
X174217426Y-65847620D01*
X174346447Y-65612449D01*
X174523187Y-65286753D01*
X174694733Y-64967617D01*
X174844992Y-64689094D01*
X175044630Y-64324565D01*
X175220028Y-64009622D01*
X175264111Y-63930368D01*
X175389455Y-63677347D01*
X175421937Y-63541526D01*
X175361360Y-63516365D01*
X175207527Y-63595324D01*
X175176919Y-63614447D01*
X174982570Y-63727869D01*
X174694163Y-63889429D01*
X174346719Y-64080032D01*
X173975258Y-64280585D01*
X173614799Y-64471994D01*
X173300363Y-64635165D01*
X172899806Y-64839469D01*
X172871023Y-65237390D01*
X172867075Y-65291968D01*
X172831647Y-65563162D01*
X172726618Y-65843215D01*
X172545172Y-66008307D01*
X172273095Y-66077231D01*
X172160888Y-66089872D01*
X172053463Y-66127982D01*
X171970493Y-66219073D01*
X171886391Y-66394415D01*
X171775574Y-66685276D01*
X171750400Y-66754036D01*
X171653243Y-67033149D01*
X171584929Y-67251620D01*
X171558938Y-67367024D01*
X171046498Y-67367024D01*
X171037506Y-67338171D01*
X170905921Y-67249366D01*
X170878936Y-67237536D01*
X170747321Y-67207548D01*
X170613853Y-67253201D01*
X170423288Y-67390667D01*
X170288796Y-67486960D01*
X170000915Y-67602891D01*
X169721063Y-67570793D01*
X169420884Y-67390667D01*
X169380399Y-67358814D01*
X169204082Y-67238855D01*
X169075038Y-67207801D01*
X168937979Y-67249490D01*
X168845666Y-67301168D01*
X168771615Y-67412573D01*
X168770574Y-67414139D01*
X168766216Y-67615418D01*
X168770742Y-67674134D01*
X168766292Y-67825532D01*
X168693343Y-67876925D01*
X168508541Y-67871381D01*
X168341507Y-67869150D01*
X168219513Y-67924809D01*
X168133853Y-68078576D01*
X168089945Y-68235769D01*
X168129821Y-68481183D01*
X168320593Y-68707512D01*
X168364275Y-68753775D01*
X168434817Y-68952087D01*
X168426598Y-69022699D01*
X168408253Y-69180307D01*
X168287879Y-69371512D01*
X168181790Y-69484714D01*
X168083140Y-69719697D01*
X167442335Y-69719697D01*
X167579922Y-69568098D01*
X167604070Y-69541398D01*
X167789812Y-69319667D01*
X167921293Y-69134168D01*
X167971384Y-69022699D01*
X167946761Y-68961898D01*
X167833898Y-68799851D01*
X167650391Y-68576605D01*
X167419318Y-68321472D01*
X167124623Y-68008610D01*
X166869305Y-67730583D01*
X166694091Y-67524717D01*
X166583961Y-67369416D01*
X166523894Y-67243085D01*
X166498869Y-67124130D01*
X166493865Y-66990954D01*
X166493865Y-66685276D01*
X166078378Y-66685276D01*
X165896294Y-66688690D01*
X165712031Y-66720603D01*
X165573825Y-66811693D01*
X165416108Y-66992363D01*
X165328967Y-67104150D01*
X165214248Y-67265625D01*
X165169325Y-67351208D01*
X165170315Y-67359205D01*
X165241529Y-67479902D01*
X165424306Y-67705812D01*
X165717217Y-68035258D01*
X166118835Y-68466563D01*
X166652516Y-69030917D01*
X166661277Y-69040181D01*
X166285393Y-69403731D01*
X166073274Y-69616061D01*
X165807782Y-69899261D01*
X165562168Y-70178123D01*
X165358904Y-70426080D01*
X165220466Y-70616568D01*
X165169325Y-70723020D01*
X164586579Y-70723020D01*
X164600437Y-70613194D01*
X164673111Y-70455236D01*
X164700037Y-70407114D01*
X164803357Y-70253387D01*
X164875387Y-70191411D01*
X164947550Y-70155521D01*
X164916117Y-70059498D01*
X164795074Y-69932045D01*
X164604448Y-69801951D01*
X164350344Y-69651028D01*
X164078721Y-69471689D01*
X163843797Y-69299835D01*
X163678081Y-69159357D01*
X163614082Y-69074145D01*
X163634907Y-69022699D01*
X164468098Y-69022699D01*
X164518879Y-69081072D01*
X164673396Y-69192361D01*
X164895446Y-69326918D01*
X165102843Y-69437432D01*
X165307549Y-69531809D01*
X165426267Y-69568098D01*
X165457332Y-69562374D01*
X165598317Y-69475960D01*
X165760006Y-69324799D01*
X165893142Y-69159561D01*
X165948466Y-69030917D01*
X165938998Y-68988088D01*
X165848404Y-68839599D01*
X165700263Y-68671647D01*
X165542144Y-68534218D01*
X165421619Y-68477300D01*
X165316448Y-68507150D01*
X165127511Y-68594484D01*
X164904532Y-68714687D01*
X164691186Y-68842779D01*
X164531150Y-68953777D01*
X164468098Y-69022699D01*
X163634907Y-69022699D01*
X163639851Y-69010484D01*
X163780487Y-68867723D01*
X164048262Y-68661598D01*
X164448620Y-68387631D01*
X164490746Y-68359674D01*
X164716431Y-68204727D01*
X164875433Y-68086839D01*
X164935583Y-68029657D01*
X164922390Y-68000979D01*
X164838157Y-67877146D01*
X164701841Y-67698159D01*
X164626023Y-67599245D01*
X164512695Y-67435037D01*
X164468098Y-67344358D01*
X164487498Y-67298402D01*
X164582018Y-67156173D01*
X164728685Y-66966000D01*
X164859493Y-66807066D01*
X164976930Y-66653682D01*
X165051005Y-66516242D01*
X165078295Y-66372393D01*
X165055378Y-66199779D01*
X164978831Y-65976046D01*
X164845232Y-65678840D01*
X164651158Y-65285806D01*
X164393188Y-64774590D01*
X164199734Y-64389729D01*
X163995867Y-63978840D01*
X163850172Y-63673337D01*
X163794066Y-63543581D01*
X164460148Y-63543581D01*
X164461386Y-63649459D01*
X164553528Y-63870564D01*
X164737328Y-64212017D01*
X164799084Y-64321112D01*
X165010723Y-64702042D01*
X165240342Y-65123282D01*
X165448091Y-65511949D01*
X165820251Y-66217791D01*
X166264968Y-66217791D01*
X166406466Y-66219481D01*
X166614976Y-66240230D01*
X166741415Y-66298101D01*
X166835518Y-66409835D01*
X166917660Y-66592099D01*
X166961350Y-66835063D01*
X166962814Y-66898791D01*
X166987091Y-67000359D01*
X167066316Y-67074821D01*
X167232258Y-67144979D01*
X167516687Y-67233634D01*
X167545764Y-67242306D01*
X167828404Y-67327883D01*
X168055054Y-67398657D01*
X168178957Y-67440055D01*
X168229252Y-67451662D01*
X168274323Y-67412573D01*
X168264281Y-67283509D01*
X168196561Y-67046925D01*
X168068598Y-66685276D01*
X167981866Y-66454784D01*
X167893507Y-66253617D01*
X167812647Y-66144482D01*
X167713699Y-66096110D01*
X167571077Y-66077231D01*
X167372353Y-66038868D01*
X167164552Y-65905348D01*
X167037539Y-65662646D01*
X166977097Y-65291968D01*
X166973149Y-65237390D01*
X167444469Y-65237390D01*
X167452303Y-65333501D01*
X167486430Y-65488462D01*
X167577611Y-65554748D01*
X167771674Y-65580401D01*
X167864429Y-65593370D01*
X167998800Y-65637686D01*
X168154540Y-65726479D01*
X168354443Y-65875574D01*
X168621301Y-66100798D01*
X168977907Y-66417978D01*
X169160732Y-66581864D01*
X169451429Y-66838967D01*
X169689033Y-67044693D01*
X169852825Y-67181207D01*
X169922086Y-67230675D01*
X169949083Y-67213957D01*
X170075142Y-67112341D01*
X170283838Y-66933916D01*
X170554452Y-66696517D01*
X170866265Y-66417978D01*
X171124410Y-66187291D01*
X171416291Y-65935629D01*
X171634247Y-65764936D01*
X171801072Y-65659385D01*
X171939558Y-65603149D01*
X172072498Y-65580401D01*
X172164303Y-65572060D01*
X172312290Y-65536110D01*
X172375481Y-65440567D01*
X172399704Y-65237390D01*
X172397364Y-65019147D01*
X172329690Y-64851259D01*
X172165961Y-64666060D01*
X171981776Y-64490448D01*
X171800387Y-64357171D01*
X171649345Y-64332388D01*
X171485797Y-64412696D01*
X171288840Y-64576442D01*
X171266885Y-64594695D01*
X171241201Y-64617587D01*
X170989711Y-64846700D01*
X170693168Y-65123109D01*
X170410409Y-65392040D01*
X169924806Y-65859980D01*
X169670225Y-65629869D01*
X169580112Y-65547409D01*
X169363869Y-65346427D01*
X169096346Y-65095362D01*
X168815765Y-64829990D01*
X168545992Y-64577365D01*
X168544858Y-64576442D01*
X169208507Y-64576442D01*
X169545818Y-64889704D01*
X169698404Y-65027689D01*
X169848738Y-65154177D01*
X169922086Y-65202965D01*
X169973949Y-65170736D01*
X170112068Y-65057073D01*
X170298354Y-64889704D01*
X170635665Y-64576442D01*
X170487473Y-64325798D01*
X170466648Y-64290688D01*
X170277132Y-63981385D01*
X170111193Y-63727599D01*
X169986841Y-63555867D01*
X169922086Y-63492726D01*
X169918567Y-63493487D01*
X169846608Y-63569454D01*
X169716971Y-63751186D01*
X169547665Y-64012146D01*
X169356699Y-64325798D01*
X169208507Y-64576442D01*
X168544858Y-64576442D01*
X168338117Y-64408161D01*
X168180010Y-64337127D01*
X168039063Y-64359565D01*
X167882666Y-64470776D01*
X167678211Y-64666060D01*
X167517025Y-64847517D01*
X167447502Y-65014977D01*
X167444469Y-65237390D01*
X166973149Y-65237390D01*
X166944366Y-64839469D01*
X166543809Y-64635165D01*
X166450258Y-64587138D01*
X166124993Y-64416870D01*
X165763049Y-64223683D01*
X165399375Y-64026611D01*
X165068920Y-63844686D01*
X164806635Y-63696944D01*
X164647468Y-63602416D01*
X164549059Y-63547809D01*
X164460148Y-63543581D01*
X163794066Y-63543581D01*
X163755359Y-63454063D01*
X163704135Y-63301863D01*
X163689211Y-63197580D01*
X163703294Y-63122059D01*
X163739093Y-63056144D01*
X163770400Y-63009745D01*
X163857713Y-62904892D01*
X163957969Y-62841357D01*
X164089031Y-62823581D01*
X164268759Y-62856009D01*
X164515018Y-62943081D01*
X164845668Y-63089243D01*
X165278573Y-63298935D01*
X165831595Y-63576602D01*
X166065198Y-63695104D01*
X166478566Y-63904622D01*
X166785865Y-64054092D01*
X167010793Y-64148218D01*
X167177046Y-64191704D01*
X167308320Y-64189256D01*
X167428314Y-64145578D01*
X167560722Y-64065374D01*
X167729242Y-63953349D01*
X167749056Y-63940523D01*
X167990627Y-63791967D01*
X168183590Y-63686641D01*
X168287740Y-63646625D01*
X168311763Y-63651024D01*
X168448850Y-63718458D01*
X168629578Y-63841411D01*
X168688961Y-63885892D01*
X168843755Y-63993251D01*
X168925186Y-64036196D01*
X168929777Y-64034431D01*
X169000342Y-63955616D01*
X169127069Y-63783133D01*
X169286056Y-63549233D01*
X169307451Y-63516775D01*
X169544362Y-63164764D01*
X169716701Y-62928339D01*
X169839114Y-62790855D01*
X169926247Y-62735667D01*
X169992747Y-62746130D01*
X170025078Y-62776336D01*
X170138503Y-62918746D01*
X170298475Y-63144061D01*
X170481291Y-63419606D01*
X170580862Y-63572465D01*
X170742177Y-63810834D01*
X170861553Y-63975040D01*
X170918505Y-64036196D01*
X170934547Y-64031046D01*
X171046097Y-63963082D01*
X171214594Y-63841411D01*
X171266357Y-63803854D01*
X171459426Y-63691744D01*
X171604322Y-63646625D01*
X171722765Y-63687491D01*
X171922235Y-63802946D01*
X172153726Y-63966836D01*
X172568778Y-64287047D01*
X173173806Y-63996552D01*
X173474034Y-63851653D01*
X173872274Y-63658303D01*
X174307473Y-63446152D01*
X174727297Y-63240664D01*
X174781388Y-63214179D01*
X175196747Y-63017764D01*
X175502368Y-62893509D01*
X175722040Y-62838174D01*
X175879547Y-62848520D01*
X175998677Y-62921309D01*
X176103217Y-63053301D01*
X176130906Y-63101595D01*
X176150059Y-63173109D01*
X176141990Y-63269707D01*
X176099468Y-63410362D01*
X176045243Y-63541526D01*
X176015263Y-63614046D01*
G37*
%TD*%
M02*
