%TF.GenerationSoftware,KiCad,Pcbnew,9.0.2*%
%TF.CreationDate,2026-03-15T21:02:35+02:00*%
%TF.ProjectId,RP2040,52503230-3430-42e6-9b69-6361645f7063,rev?*%
%TF.SameCoordinates,Original*%
%TF.FileFunction,Soldermask,Top*%
%TF.FilePolarity,Negative*%
%FSLAX46Y46*%
G04 Gerber Fmt 4.6, Leading zero omitted, Abs format (unit mm)*
G04 Created by KiCad (PCBNEW 9.0.2) date 2026-03-15 21:02:35*
%MOMM*%
%LPD*%
G01*
G04 APERTURE LIST*
G04 Aperture macros list*
%AMRoundRect*
0 Rectangle with rounded corners*
0 $1 Rounding radius*
0 $2 $3 $4 $5 $6 $7 $8 $9 X,Y pos of 4 corners*
0 Add a 4 corners polygon primitive as box body*
4,1,4,$2,$3,$4,$5,$6,$7,$8,$9,$2,$3,0*
0 Add four circle primitives for the rounded corners*
1,1,$1+$1,$2,$3*
1,1,$1+$1,$4,$5*
1,1,$1+$1,$6,$7*
1,1,$1+$1,$8,$9*
0 Add four rect primitives between the rounded corners*
20,1,$1+$1,$2,$3,$4,$5,0*
20,1,$1+$1,$4,$5,$6,$7,0*
20,1,$1+$1,$6,$7,$8,$9,0*
20,1,$1+$1,$8,$9,$2,$3,0*%
G04 Aperture macros list end*
%ADD10RoundRect,0.135000X0.135000X0.185000X-0.135000X0.185000X-0.135000X-0.185000X0.135000X-0.185000X0*%
%ADD11RoundRect,0.200000X-0.800000X0.200000X-0.800000X-0.200000X0.800000X-0.200000X0.800000X0.200000X0*%
%ADD12RoundRect,0.140000X-0.140000X-0.170000X0.140000X-0.170000X0.140000X0.170000X-0.140000X0.170000X0*%
%ADD13RoundRect,0.135000X-0.185000X0.135000X-0.185000X-0.135000X0.185000X-0.135000X0.185000X0.135000X0*%
%ADD14RoundRect,0.140000X0.170000X-0.140000X0.170000X0.140000X-0.170000X0.140000X-0.170000X-0.140000X0*%
%ADD15RoundRect,0.135000X-0.135000X-0.185000X0.135000X-0.185000X0.135000X0.185000X-0.135000X0.185000X0*%
%ADD16RoundRect,0.140000X0.140000X0.170000X-0.140000X0.170000X-0.140000X-0.170000X0.140000X-0.170000X0*%
%ADD17RoundRect,0.225000X0.250000X-0.225000X0.250000X0.225000X-0.250000X0.225000X-0.250000X-0.225000X0*%
%ADD18RoundRect,0.140000X-0.170000X0.140000X-0.170000X-0.140000X0.170000X-0.140000X0.170000X0.140000X0*%
%ADD19RoundRect,0.062500X-0.387500X-0.062500X0.387500X-0.062500X0.387500X0.062500X-0.387500X0.062500X0*%
%ADD20R,0.200000X1.600000*%
%ADD21R,1.700000X1.700000*%
%ADD22C,1.700000*%
%ADD23RoundRect,0.225000X-0.250000X0.225000X-0.250000X-0.225000X0.250000X-0.225000X0.250000X0.225000X0*%
%ADD24RoundRect,0.225000X0.225000X0.250000X-0.225000X0.250000X-0.225000X-0.250000X0.225000X-0.250000X0*%
%ADD25RoundRect,0.250000X0.450000X0.350000X-0.450000X0.350000X-0.450000X-0.350000X0.450000X-0.350000X0*%
%ADD26RoundRect,0.050000X-0.387500X-0.050000X0.387500X-0.050000X0.387500X0.050000X-0.387500X0.050000X0*%
%ADD27RoundRect,0.050000X-0.050000X-0.387500X0.050000X-0.387500X0.050000X0.387500X-0.050000X0.387500X0*%
%ADD28R,3.200000X3.200000*%
%ADD29RoundRect,0.150000X0.150000X-0.587500X0.150000X0.587500X-0.150000X0.587500X-0.150000X-0.587500X0*%
%ADD30C,0.650000*%
%ADD31R,0.600000X1.450000*%
%ADD32R,0.300000X1.450000*%
%ADD33O,1.000000X2.100000*%
%ADD34O,1.000000X1.600000*%
G04 APERTURE END LIST*
D10*
%TO.C,R5*%
X170510000Y-70000000D03*
X169490000Y-70000000D03*
%TD*%
D11*
%TO.C,SW1*%
X173500000Y-45400000D03*
X173500000Y-49600000D03*
%TD*%
D12*
%TO.C,C17*%
X170320000Y-54010000D03*
X171280000Y-54010000D03*
%TD*%
D13*
%TO.C,R3*%
X170700000Y-58000000D03*
X170700000Y-59020000D03*
%TD*%
%TO.C,R4*%
X171700000Y-58000000D03*
X171700000Y-59020000D03*
%TD*%
D14*
%TO.C,C9*%
X174750000Y-59205000D03*
X174750000Y-58245000D03*
%TD*%
D15*
%TO.C,R6*%
X166240000Y-53000000D03*
X167260000Y-53000000D03*
%TD*%
D16*
%TO.C,C3*%
X165000000Y-65250000D03*
X164040000Y-65250000D03*
%TD*%
D17*
%TO.C,C16*%
X172000000Y-74550000D03*
X172000000Y-73000000D03*
%TD*%
D18*
%TO.C,C2*%
X171750000Y-70770000D03*
X171750000Y-71730000D03*
%TD*%
D19*
%TO.C,U3*%
X165400000Y-55500000D03*
X165400000Y-56000000D03*
X165400000Y-56500000D03*
X165400000Y-57000000D03*
X168250000Y-57000000D03*
X168250000Y-56500000D03*
X168250000Y-56000000D03*
X168250000Y-55500000D03*
D20*
X166825000Y-56250000D03*
%TD*%
D14*
%TO.C,C1*%
X165700000Y-60460000D03*
X165700000Y-59500000D03*
%TD*%
D18*
%TO.C,C7*%
X176500000Y-65270000D03*
X176500000Y-66230000D03*
%TD*%
D13*
%TO.C,R1*%
X171500000Y-42790000D03*
X171500000Y-43810000D03*
%TD*%
D21*
%TO.C,J2*%
X161110000Y-35870000D03*
D22*
X161110000Y-38410000D03*
X161110000Y-40950000D03*
X161110000Y-43490000D03*
X161110000Y-46030000D03*
X161110000Y-48570000D03*
X161110000Y-51110000D03*
X161110000Y-53650000D03*
X161110000Y-56190000D03*
X161110000Y-58730000D03*
X161110000Y-61270000D03*
X161110000Y-63810000D03*
X161110000Y-66350000D03*
X161110000Y-68890000D03*
X161110000Y-71430000D03*
X161110000Y-73970000D03*
X161110000Y-76510000D03*
X161110000Y-79050000D03*
X161110000Y-81590000D03*
X161110000Y-84130000D03*
%TD*%
D12*
%TO.C,C6*%
X167370000Y-54250000D03*
X168330000Y-54250000D03*
%TD*%
%TO.C,C8*%
X170320000Y-55000000D03*
X171280000Y-55000000D03*
%TD*%
D23*
%TO.C,C15*%
X165750000Y-71750000D03*
X165750000Y-73300000D03*
%TD*%
%TO.C,C13*%
X166000000Y-43250000D03*
X166000000Y-44800000D03*
%TD*%
D15*
%TO.C,R7*%
X165330000Y-54250000D03*
X166350000Y-54250000D03*
%TD*%
D13*
%TO.C,R2*%
X168700000Y-43500000D03*
X168700000Y-44520000D03*
%TD*%
D21*
%TO.C,J4*%
X167460000Y-83890000D03*
D22*
X170000000Y-83890000D03*
X172540000Y-83890000D03*
%TD*%
D24*
%TO.C,C14*%
X168275000Y-49500000D03*
X166725000Y-49500000D03*
%TD*%
D14*
%TO.C,C11*%
X172750000Y-59210000D03*
X172750000Y-58250000D03*
%TD*%
D12*
%TO.C,C12*%
X170320000Y-56000000D03*
X171280000Y-56000000D03*
%TD*%
D14*
%TO.C,C4*%
X173750000Y-59210000D03*
X173750000Y-58250000D03*
%TD*%
D25*
%TO.C,Y1*%
X170000000Y-71500000D03*
X167800000Y-71500000D03*
X167800000Y-73200000D03*
X170000000Y-73200000D03*
%TD*%
D21*
%TO.C,J3*%
X178890000Y-35870000D03*
D22*
X178890000Y-38410000D03*
X178890000Y-40950000D03*
X178890000Y-43490000D03*
X178890000Y-46030000D03*
X178890000Y-48570000D03*
X178890000Y-51110000D03*
X178890000Y-53650000D03*
X178890000Y-56190000D03*
X178890000Y-58730000D03*
X178890000Y-61270000D03*
X178890000Y-63810000D03*
X178890000Y-66350000D03*
X178890000Y-68890000D03*
X178890000Y-71430000D03*
X178890000Y-73970000D03*
X178890000Y-76510000D03*
X178890000Y-79050000D03*
X178890000Y-81590000D03*
X178890000Y-84130000D03*
%TD*%
D26*
%TO.C,U1*%
X166562500Y-61400000D03*
X166562500Y-61800000D03*
X166562500Y-62200000D03*
X166562500Y-62600000D03*
X166562500Y-63000000D03*
X166562500Y-63400000D03*
X166562500Y-63800000D03*
X166562500Y-64200000D03*
X166562500Y-64600000D03*
X166562500Y-65000000D03*
X166562500Y-65400000D03*
X166562500Y-65800000D03*
X166562500Y-66200000D03*
X166562500Y-66600000D03*
D27*
X167400000Y-67437500D03*
X167800000Y-67437500D03*
X168200000Y-67437500D03*
X168600000Y-67437500D03*
X169000000Y-67437500D03*
X169400000Y-67437500D03*
X169800000Y-67437500D03*
X170200000Y-67437500D03*
X170600000Y-67437500D03*
X171000000Y-67437500D03*
X171400000Y-67437500D03*
X171800000Y-67437500D03*
X172200000Y-67437500D03*
X172600000Y-67437500D03*
D26*
X173437500Y-66600000D03*
X173437500Y-66200000D03*
X173437500Y-65800000D03*
X173437500Y-65400000D03*
X173437500Y-65000000D03*
X173437500Y-64600000D03*
X173437500Y-64200000D03*
X173437500Y-63800000D03*
X173437500Y-63400000D03*
X173437500Y-63000000D03*
X173437500Y-62600000D03*
X173437500Y-62200000D03*
X173437500Y-61800000D03*
X173437500Y-61400000D03*
D27*
X172600000Y-60562500D03*
X172200000Y-60562500D03*
X171800000Y-60562500D03*
X171400000Y-60562500D03*
X171000000Y-60562500D03*
X170600000Y-60562500D03*
X170200000Y-60562500D03*
X169800000Y-60562500D03*
X169400000Y-60562500D03*
X169000000Y-60562500D03*
X168600000Y-60562500D03*
X168200000Y-60562500D03*
X167800000Y-60562500D03*
X167400000Y-60562500D03*
D28*
X170000000Y-64000000D03*
%TD*%
D29*
%TO.C,U4*%
X166550000Y-47625000D03*
X168450000Y-47625000D03*
X167500000Y-45750000D03*
%TD*%
D12*
%TO.C,C5*%
X174270000Y-60250000D03*
X175230000Y-60250000D03*
%TD*%
D18*
%TO.C,C10*%
X172750000Y-70770000D03*
X172750000Y-71730000D03*
%TD*%
D30*
%TO.C,J1*%
X172890000Y-39600000D03*
X167110000Y-39600000D03*
D31*
X173250000Y-41045000D03*
X172450000Y-41045000D03*
D32*
X171250000Y-41045000D03*
X170250000Y-41045000D03*
X169750000Y-41045000D03*
X168750000Y-41045000D03*
D31*
X167550000Y-41045000D03*
X166750000Y-41045000D03*
X166750000Y-41045000D03*
X167550000Y-41045000D03*
D32*
X168250000Y-41045000D03*
X169250000Y-41045000D03*
X170750000Y-41045000D03*
X171750000Y-41045000D03*
D31*
X172450000Y-41045000D03*
X173250000Y-41045000D03*
D33*
X174320000Y-40130000D03*
D34*
X174320000Y-35950000D03*
D33*
X165680000Y-40130000D03*
D34*
X165680000Y-35950000D03*
%TD*%
M02*
